<?xml version="1.0" encoding="UTF-8" standalone="no"?>
<!-- Generator: Adobe Illustrator 13.0.0, SVG Export Plug-In . SVG Version: 6.00 Build 14948)  -->

<svg
   xmlns:dc="http://purl.org/dc/elements/1.1/"
   xmlns:cc="http://creativecommons.org/ns#"
   xmlns:rdf="http://www.w3.org/1999/02/22-rdf-syntax-ns#"
   xmlns:svg="http://www.w3.org/2000/svg"
   xmlns="http://www.w3.org/2000/svg"
   xmlns:xlink="http://www.w3.org/1999/xlink"
   xmlns:sodipodi="http://sodipodi.sourceforge.net/DTD/sodipodi-0.dtd"
   xmlns:inkscape="http://www.inkscape.org/namespaces/inkscape"
   version="1.1"
   x="0px"
   y="0px"
   width="136.25946mm"
   height="105.18786mm"
   viewBox="0 0 482.80912 372.71288"
   enable-background="new 0 0 809.91455 459.72754"
   xml:space="preserve"
   id="svg7458"
   inkscape:version="0.91 r13725"
   sodipodi:docname="cutie_mark_crusaders_huh_iquest__by_thatguy1945-d5w8o90.svg"><sodipodi:namedview
     pagecolor="#ffffff"
     bordercolor="#666666"
     borderopacity="1"
     objecttolerance="10"
     gridtolerance="10"
     guidetolerance="10"
     inkscape:pageopacity="0"
     inkscape:pageshadow="2"
     inkscape:window-width="1434"
     inkscape:window-height="870"
     id="namedview8161"
     showgrid="false"
     inkscape:document-units="mm"
     units="mm"
     fit-margin-left="1"
     fit-margin-top="1"
     fit-margin-bottom="1"
     fit-margin-right="1"
     inkscape:zoom="0.42967496"
     inkscape:cx="137.14662"
     inkscape:cy="170.56828"
     inkscape:window-x="0"
     inkscape:window-y="24"
     inkscape:window-maximized="0"
     inkscape:current-layer="svg7458" /><metadata
     id="metadata8165"><rdf:RDF><cc:Work
         rdf:about=""><dc:format>image/svg+xml</dc:format><dc:type
           rdf:resource="http://purl.org/dc/dcmitype/StillImage" /><dc:title></dc:title></cc:Work></rdf:RDF></metadata><defs
     id="defs8163" /><g
     transform="translate(-330.64886,-90.557377)"
     id="Apple_Bloom"><g
       id="tail_1_"><path
         style="fill:#7b7b7b"
         inkscape:connector-curvature="0"
         id="path7916"
         d="m 466.76611,372.75781 c -10.92383,-27.59961 -43.62793,-22.16211 -43.12402,1.62891 0.86328,40.73047 -19.07129,23.48047 -19.07129,23.48047 4.98438,40.25 -10.15771,55.19922 -30.37939,55.19922 -21.8501,-0.002 -45.07227,-34.36328 -35.6499,-72.45117 11.35742,-45.9043 46.28857,-59.84766 46.28857,-59.84766 -11.93115,-5.31836 2.01221,-24.86914 36.896,-24.86914 34.88281,0 54.43262,26.44922 58.64941,61.7168" /><path
         style="fill:none;stroke:#595959;stroke-width:1.72500002"
         inkscape:connector-curvature="0"
         id="path7918"
         d="m 474.62549,357.61719 c -11.5,-32.48828 -72.83301,-45.04297 -109.63281,0.95703 -36.80078,46 -6.51611,88.74219 -6.51611,88.74219" /><path
         style="fill:none;stroke:#595959;stroke-width:1.72500002"
         inkscape:connector-curvature="0"
         id="path7920"
         d="m 383.77637,451.91602 c -23.7666,-19.54883 -21.46777,-52.13281 -2.68408,-85.86719 18.78418,-33.73242 73.2168,-34.88281 89.7002,-4.59961" /><path
         style="fill:none;stroke:#595959;stroke-width:4.0250001"
         inkscape:connector-curvature="0"
         id="path7922"
         d="m 480.37549,357.61523 c -4.2168,-35.26758 -23.7666,-61.7168 -58.64941,-61.7168 -34.88379,0 -48.61182,19.40625 -37.11182,24.36523" /><g
         id="g7924"><path
           style="display:none;fill:none;stroke:#595959;stroke-width:4.0250001"
           inkscape:connector-curvature="0"
           id="path7926"
           d="m 409.4585,311.23242 c -36.41699,9.20117 -60.9502,31.43359 -70.91699,69.38281 -9.96582,37.95117 13.7998,72.45117 35.6499,72.45117 21.8501,0 35.26709,-17.25 30.28271,-57.5"
           display="none" /><path
           style="fill:#595959"
           inkscape:connector-curvature="0"
           id="path7928"
           d="m 374.19043,455.07617 c -12.11133,-0.0371 -22.33203,-9.01367 -28.75781,-18.53125 -7.03174,-10.41602 -10.76563,-22.94922 -11.2002,-35.46875 -0.47412,-13.66016 3.28467,-27.23438 8.93701,-39.58008 4.87158,-10.64063 11.56641,-20.45117 20.16211,-28.41797 22.74414,-21.08008 48.0918,-23.0918 48.0918,-23.0918 0,0 -25.34766,7.38086 -44.54199,25.28906 -8.47998,7.91211 -15.28564,17.45313 -20.09326,27.98828 -5.6167,12.30469 -9.27979,25.8418 -8.4502,39.44727 0.75488,12.36133 4.93506,24.75195 12.59424,34.56055 3.71582,4.75781 8.35986,9.00391 13.87305,11.56445 2.32227,1.08008 4.80664,1.8457 7.35889,2.11328 2.7832,0.29102 5.68945,0.0449 8.43115,-0.47656 5.39697,-1.02148 10.31152,-3.64648 13.96582,-7.77539 3.10742,-3.50977 5.15625,-7.83008 6.49463,-12.29102 1.75781,-5.85742 2.37158,-12.02344 2.43799,-18.11914 0.0371,-3.375 -0.10156,-6.74805 -0.36719,-10.10938 -0.14453,-1.82422 -0.32666,-3.64453 -0.54004,-5.46289 -0.0112,-0.0898 -0.12256,-0.90039 -0.0933,-0.9043 0.0767,-0.01 0.15283,-0.0195 0.229,-0.0273 0.37988,-0.0488 0.75977,-0.0957 1.13867,-0.14258 0,0 2.90137,2.13672 3.02344,3.36914 0.57031,5.69922 0.8125,11.43945 0.51465,17.16016 -0.30664,5.88867 -1.18262,11.80859 -3.13379,17.39258 -1.63477,4.67578 -4.06982,9.125 -7.52051,12.71289 -3.91846,4.07422 -9.01709,6.76758 -14.52002,7.97656 -2.63818,0.57814 -5.33545,0.82423 -8.03418,0.82423 l 0,0" /></g><g
         id="g7930"><path
           style="display:none;fill:none;stroke:#595959;stroke-width:4.0250001"
           inkscape:connector-curvature="0"
           id="path7932"
           d="m 401.02441,392.88281 c 8.24268,14.85352 25.20557,11.97852 22.61768,-18.49609 -2.01367,-23.71094 32.2002,-29.22852 43.12402,-1.62891"
           display="none" /><path
           style="fill:#595959"
           inkscape:connector-curvature="0"
           id="path7934"
           d="m 412.61182,403.60547 c -8.87891,-0.18164 -11.89746,-11.96875 -11.89746,-11.96875 0,0 6.86426,9.30664 13.36426,7.75781 2.54004,-0.60742 4.26465,-2.91016 5.34277,-5.16016 2.49219,-5.20508 2.67188,-11.43945 2.39063,-17.0918 -0.0889,-1.77539 -0.30273,-3.54102 -0.2627,-5.32031 0.0361,-1.54688 0.22656,-3.0918 0.59082,-4.5957 0.66699,-2.75977 1.92188,-5.37109 3.71387,-7.57813 7.08105,-8.72852 20.08789,-9.26367 29.34082,-3.92969 6.28125,3.62109 10.8125,9.61523 13.44238,16.29688 -1.23535,0.49023 -2.4707,0.98047 -3.70703,1.46875 0.0195,-0.008 -1.59766,-3.39258 -1.78809,-3.74609 -0.69141,-1.27344 -1.46777,-2.50195 -2.33203,-3.66406 -2.95313,-3.9707 -6.98145,-7.12891 -11.69434,-8.70703 -4.93066,-1.65039 -10.52051,-1.54492 -15.19531,0.85156 -5.25098,2.69336 -8.2207,7.95703 -8.34668,13.79297 -0.0391,1.75586 0.19336,3.51172 0.27344,5.26563 0.0801,1.73828 0.0967,3.47852 0.0332,5.2168 -0.11133,3.06445 -0.45898,6.13867 -1.24805,9.10547 -1.32813,4.99414 -4.23633,10.36523 -9.63281,11.71875 -0.78125,0.1953 -1.58105,0.2871 -2.38769,0.2871 l 0,0" /></g></g><g
       id="back_left_leg_1_"><path
         style="fill:#dddddd"
         inkscape:connector-curvature="0"
         id="path7937"
         d="m 549.56592,392.49805 c 23.28809,0.28711 37.61133,26.27344 35.26758,34.31055 -2.0127,6.89844 -29.3252,12.36133 -38.52539,5.75 -15.3623,-11.04297 -37.97656,-12.00586 -44.08301,-19.35938 -4.69629,-5.6543 -2.39648,-15.8125 4.50391,-19.54883" /><path
         style="fill:none;stroke:#c2c2c2;stroke-width:4.0250001"
         inkscape:connector-curvature="0"
         id="path7939"
         d="m 505.8667,393.8418 c -5.75,4.79102 -8.05078,14.94922 -3.25781,19.74023 6.75684,6.75977 28.33691,7.93359 43.69922,18.97656 9.2002,6.61133 36.5127,1.14844 38.52539,-5.75 2.34375,-8.03711 -11.97949,-34.02344 -35.26758,-34.31055" /></g><g
       id="front_left_leg_1_"><path
         style="fill:#dddddd"
         inkscape:connector-curvature="0"
         id="path7942"
         d="m 575.82568,353.7832 c -3.4502,48.29883 9.77441,86.44141 15.8125,91.04102 4.39355,3.3457 38.71973,5.30664 45.1377,-2.58789 6.65918,-8.19336 -36.41699,-38.8125 -32.00977,-86.91992" /><path
         style="fill:none;stroke:#c2c2c2;stroke-width:4.0250001"
         inkscape:connector-curvature="0"
         id="path7944"
         d="m 575.82568,353.7832 c -3.4502,48.29883 9.77441,86.44141 15.8125,91.04102 4.39355,3.3457 38.78223,5.35547 45.1377,-2.58789 6.5166,-8.14453 -36.41699,-38.8125 -32.00977,-86.91992" /></g><g
       id="bow_1_"><g
         id="g7947"><path
           style="fill:#929292"
           inkscape:connector-curvature="0"
           id="path7949"
           d="m 657.09131,233.79883 c -26.06543,-69.3833 -0.19043,-126.88281 43.7002,-137.42432 0,0 27.21777,38.1416 4.59961,120.1748" /><path
           style="fill:#7e7e7e"
           inkscape:connector-curvature="0"
           id="path7951"
           d="m 705.00928,217.12402 c -15.52441,-21.8501 -36.70508,-103.78711 -4.21777,-120.74951 0,0 27.21777,38.1416 4.59961,120.1748" /><path
           style="fill:none;stroke:#5f5f5f;stroke-width:4.0250001"
           inkscape:connector-curvature="0"
           id="path7953"
           d="m 700.89893,96.30273 c -29.03711,13.5127 -15.43945,94.18066 4.49219,120.24658" /><path
           style="fill:none;stroke:#5f5f5f;stroke-width:4.0250001"
           inkscape:connector-curvature="0"
           id="path7955"
           d="m 657.09131,233.79883 c -26.06543,-69.3833 -0.19043,-126.88281 43.7002,-137.42432 0,0 27.21777,38.1416 4.59961,120.1748" /></g><g
         id="g7957"><path
           style="fill:#929292"
           inkscape:connector-curvature="0"
           id="path7959"
           d="m 675.87451,224.9834 c 22.61719,-22.23438 91.61719,-63.63477 131.86719,-33.15918 0,0 -10.35059,66.69922 -64.40039,96.59961 -56.34961,5.17383 -79.9248,-35.07422 -85.6748,-51.1748" /><path
           style="fill:#7e7e7e"
           inkscape:connector-curvature="0"
           id="path7961"
           d="m 675.87451,224.9834 c 22.61719,-22.23438 91.61719,-63.63477 131.86719,-33.15918 0,0 -7.57227,20.41113 -39.77734,31.22266 -19.92286,6.6875 -62.57325,14.63281 -92.08985,1.93652" /><path
           style="fill:none;stroke:#5f5f5f;stroke-width:4.0250001"
           inkscape:connector-curvature="0"
           id="path7963"
           d="m 675.87451,224.9834 c 22.61719,-22.23438 91.61719,-63.63477 131.86719,-33.15918 0,0 -10.35059,66.69922 -64.40039,96.59961 -56.34961,5.17383 -79.9248,-35.07422 -85.6748,-51.1748" /><path
           style="fill:none;stroke:#5f5f5f;stroke-width:4.0250001"
           inkscape:connector-curvature="0"
           id="path7965"
           d="m 807.7417,191.82422 c -13.80078,35.45801 -95.4502,49.25977 -131.86719,33.15918" /></g></g><g
       id="mane_side_2_2_"><path
         style="fill:#7b7b7b"
         inkscape:connector-curvature="0"
         id="path7968"
         d="m 688.71631,260.82422 c 3.16211,35.36133 -20.125,71.58594 -59.22461,74.75" /><path
         style="fill:none;stroke:#595959;stroke-width:1.72500002"
         inkscape:connector-curvature="0"
         id="path7970"
         d="m 688.46143,275.76367 c 0,0 -9.52051,21.85938 -38.55762,34.22266" /><path
         style="fill:none;stroke:#595959;stroke-width:4.0250001"
         inkscape:connector-curvature="0"
         id="path7972"
         d="m 688.71631,260.82422 c 3.46582,29.52734 -15.8125,71.58594 -59.22461,74.75" /></g><g
       id="body_1_"><path
         style="fill:#eaeaea"
         inkscape:connector-curvature="0"
         id="path7975"
         d="m 571.9917,307.7832 c -26.6416,40.63281 -67.3457,24.81641 -89.7002,41.01563 -26.44922,19.16797 -12.07031,72.14063 46,59.79883 46,-9.77344 104.00293,-60.92383 127.00293,-98.29883" /><path
         style="fill:none;stroke:#c2c2c2;stroke-width:4.0250001"
         inkscape:connector-curvature="0"
         id="path7977"
         d="m 571.9917,307.7832 c -26.6416,40.63281 -67.3457,24.81641 -89.7002,41.01563 -26.44922,19.16797 -12.07031,72.14063 46,59.79883 46,-9.77344 103.98535,-60.94922 126.98535,-98.32422" /></g><g
       id="back_right_leg_1_"><path
         style="fill:#eaeaea"
         inkscape:connector-curvature="0"
         id="path7980"
         d="m 498.0083,377.16602 c 32.15137,13.0332 19.93262,33.83008 19.93262,33.83008 23.28809,0.28711 38.57031,26.94141 36.22559,34.97656 -2.0127,6.90039 -29.3252,12.36328 -38.52539,5.75 -15.36035,-11.03906 -37.97656,-12.00391 -44.08301,-19.35547 -4.69531,-5.6543 -2.39551,-15.8125 4.50488,-19.55078 0,0 -32.67969,-29.51758 6.22852,-64.01758" /><g
         id="g7982"><path
           style="display:none;fill:none;stroke:#c2c2c2;stroke-width:4.0250001"
           inkscape:connector-curvature="0"
           id="path7984"
           d="m 482.2915,348.79883 c -25.29883,17.63086 -25.58691,57.5 4.2168,70.91602"
           display="none" /><path
           style="fill:#c2c2c2"
           inkscape:connector-curvature="0"
           id="path7986"
           d="m 461.69678,384.35156 c 0,-11.54297 4.56445,-22.9043 12.51953,-31.26367 2.10059,-2.20703 4.4248,-4.19922 6.92383,-5.93945 0.0732,0.0176 0.2168,0.30859 0.25684,0.36719 0.24512,0.35156 0.48926,0.70117 0.73242,1.05078 0.42578,0.60938 0.8877,1.25781 1.31152,1.86719 0.0342,0.0469 -2.75098,2.10742 -3.05762,2.36523 -1.14648,0.96875 -2.24023,2.00195 -3.27441,3.08789 -2.01953,2.12695 -3.80859,4.46875 -5.33301,6.97266 -5.73047,9.42383 -7.61523,21.13086 -4.66797,31.80273 1.39063,5.0332 3.65234,9.69531 7.03809,14.32031 4.98242,6.80469 12.33594,10.79102 12.33594,10.79102 0,0 -9.26855,-1.30273 -16.24805,-10.20703 -2.70117,-3.44727 -4.86719,-7.33594 -6.31445,-11.58008 -1.49512,-4.37891 -2.23145,-9.00781 -2.22266,-13.63477" /></g><path
         style="fill:none;stroke:#c2c2c2;stroke-width:4.0250001"
         inkscape:connector-curvature="0"
         id="path7988"
         d="m 475.20068,413.00781 c -5.75,4.79102 -8.0498,14.94922 -3.25977,19.74219 6.75879,6.75781 28.33984,7.93359 43.7002,18.97266 9.2002,6.61328 36.5127,1.15039 38.52539,-5.75 2.34473,-8.03516 -13.32031,-34.40234 -36.6084,-34.68945" /><g
         id="g7990"><path
           style="display:none;fill:none;stroke:#c2c2c2;stroke-width:4.0250001"
           inkscape:connector-curvature="0"
           id="path7992"
           d="m 498.0083,377.16602 c 22.61719,8.81641 29.51758,27.59961 15.7168,40.25"
           display="none" /><path
           style="fill:#c2c2c2"
           inkscape:connector-curvature="0"
           id="path7994"
           d="m 512.19092,417.89453 c 0,0 11.04688,-6.36523 10.20703,-16.91406 -0.49902,-6.2793 -3.07031,-11.45703 -7.52734,-15.61719 -7.06348,-6.59375 -16.8623,-8.19727 -16.85645,-8.19336 -0.006,-0.004 9.79297,5.19336 14.32129,10.65625 2.88281,3.47656 5.49316,7.57031 6.22949,12.05859 1.60449,9.79102 -6.37402,18.00977 -6.37402,18.00977 z" /></g></g><g
       id="front_right_leg_1_"><path
         style="fill:#eaeaea"
         inkscape:connector-curvature="0"
         id="path7997"
         d="m 551.2915,363.55859 c -3.4502,48.29883 9.77441,86.44141 15.8125,91.03906 4.39355,3.34766 39.05469,5.56836 45.1377,-2.58594 6.75586,-9.05664 -36.41602,-38.8125 -32.00781,-86.91992" /><g
         id="g7999"><path
           style="display:none;fill:none;stroke:#c2c2c2;stroke-width:4.0250001"
           inkscape:connector-curvature="0"
           id="path8001"
           d="m 551.2915,363.55859 c -3.4502,48.29883 9.77441,86.44141 15.8125,91.03906 4.39355,3.34766 39.41895,5.82813 45.1377,-2.58594 6.70898,-9.86914 -36.41602,-38.8125 -32.00781,-86.91992"
           display="none" /><path
           style="fill:#c2c2c2"
           inkscape:connector-curvature="0"
           id="path8003"
           d="m 569.52979,457.73242 c -1.42871,-0.40039 -2.89941,-0.84766 -4.0293,-1.85156 -1.15332,-1.02539 -2.01953,-2.36719 -2.79004,-3.69141 -1.53027,-2.63086 -2.72363,-5.46094 -3.79785,-8.30273 -2.19922,-5.82422 -3.85742,-11.85352 -5.22461,-17.92383 -2.82813,-12.5625 -4.41016,-25.42188 -4.82422,-38.28711 -0.59082,-18.32031 2.25488,-24.12305 2.25488,-24.12305 0,0 1.68555,24.98633 2.22363,32.23438 0.94727,12.79297 2.93555,25.60742 6.47559,37.95117 1.44043,5.02734 3.10156,10.08203 5.46777,14.75977 0.38281,0.75781 0.78711,1.50195 1.23535,2.2207 0.51074,0.82227 1.14453,1.98242 2.05859,2.42969 1.2373,0.60742 2.64941,0.88867 3.99219,1.15625 1.62207,0.32227 3.26074,0.55664 4.90234,0.74805 7.03516,0.81641 14.27148,0.97266 21.30762,0.10352 2.84375,-0.35156 5.7666,-0.84375 8.42578,-1.95313 1.19629,-0.49805 2.51855,-1.15234 3.30176,-2.22656 0.74414,-1.01758 0.38184,-2.41016 0.01,-3.50195 -1.03809,-3.03125 -2.98535,-5.78906 -4.7666,-8.41992 -1.71582,-2.53516 -3.49707,-5.02539 -5.24902,-7.53906 -3.59473,-5.1543 -7.08008,-10.39453 -10.16113,-15.87695 -6.0752,-10.80469 -10.60059,-22.55664 -11.94629,-34.93164 -1.08594,-9.98633 1.83789,-15.61523 1.83594,-15.61523 0.002,0 0.0254,12.81641 5.35254,29.91406 3.80273,12.20508 10.52344,23.14063 17.78223,33.57617 3.12012,4.48438 6.46875,8.87891 9.13477,13.6582 1.42773,2.55664 2.92285,5.61914 2.3418,8.62695 -0.6123,3.16797 -3.57715,5.05078 -6.36426,6.16016 -3.04102,1.20898 -6.3252,1.79102 -9.56152,2.16992 -3.57715,0.41992 -7.1875,0.55664 -10.78711,0.52539 -3.45313,-0.0312 -6.91016,-0.2168 -10.34375,-0.58398 -2.77248,-0.29689 -5.55959,-0.68752 -8.25685,-1.40627" /></g></g><g
       id="mane_side_1_2_"><path
         style="fill:#7b7b7b"
         inkscape:connector-curvature="0"
         id="path8006"
         d="m 545.0376,287.17383 c -28.71582,21.23242 -28.03711,78.25977 -3.83887,85.55859 24.19727,7.30078 26.97656,-41.14648 21.22559,-55.73047" /><path
         style="fill:none;stroke:#595959;stroke-width:1.72500002"
         inkscape:connector-curvature="0"
         id="path8008"
         d="m 545.66162,292.68945 c 0,0 -18.20801,43.60547 3.95215,80.80273" /><path
         style="fill:none;stroke:#595959;stroke-width:1.72500002"
         inkscape:connector-curvature="0"
         id="path8010"
         d="m 551.07568,305.14844 c 0,0 -10.15039,21.55273 11.0127,51.95117" /><path
         style="fill:none;stroke:#595959;stroke-width:4.0250001"
         inkscape:connector-curvature="0"
         id="path8012"
         d="m 545.0376,287.17383 c -28.71582,21.23242 -28.03711,78.25977 -3.83887,85.55859 24.19727,7.30078 26.97656,-41.14648 21.22559,-55.73047" /></g><g
       id="head_1_"><path
         style="fill:#ffffff"
         inkscape:connector-curvature="0"
         id="path8015"
         d="m 550.6499,287.43359 c -5.56738,-10.47656 -8.73047,-22.48047 -8.73047,-35.24023 0,-40.82959 32.38574,-73.92871 72.33398,-73.92871 39.94922,0 72.33594,33.09912 72.33594,73.92871 0,25.66602 -12.79785,48.27734 -32.22852,61.5332 -1.37793,0.93945 -4.8623,0.54688 -6.30566,1.38867 0,0 -32.67383,20.95313 -65.88672,3.50195 C 558.20947,306.0293 550.6499,287.43359 550.6499,287.43359 Z" /><g
         id="eyes_1_"><g
           id="left_2_"><g
             id="g8019"><defs
               id="defs8021"><path
                 inkscape:connector-curvature="0"
                 d="m 626.68799,281.41992 c -3.70801,15.57422 -16.30664,25.91602 -28.13867,23.09961 -11.83398,-2.81641 -18.41992,-17.72656 -14.71191,-33.30273 3.70801,-15.57422 16.30664,-25.91406 28.13867,-23.09766 11.833,2.81641 18.42089,17.72461 14.71191,33.30078 z"
                 id="SVGID_17_" /></defs><linearGradient
               y2="298.48776"
               x2="612.36316"
               y1="254.50098"
               x1="598.27588"
               gradientUnits="userSpaceOnUse"
               id="SVGID_18_"><stop
                 id="stop8025"
                 style="stop-color:#828282"
                 offset="0" /><stop
                 id="stop8027"
                 style="stop-color:#b8b8b8"
                 offset="1" /></linearGradient><use
               height="100%"
               width="100%"
               y="0"
               x="0"
               style="overflow:visible;fill:url(#SVGID_18_-99)"
               id="use8029"
               overflow="visible"
               xlink:href="#SVGID_17_" /><clipPath
               id="SVGID_19_"><use
                 height="100%"
                 width="100%"
                 y="0"
                 x="0"
                 style="overflow:visible"
                 id="use8032"
                 overflow="visible"
                 xlink:href="#SVGID_17_" /></clipPath><polyline
               style="fill:#cbcbcb"
               id="polyline8034"
               points="600.21436,281.18359 625.87646,291.66992 619.04736,302.75781             "
               clip-path="url(#SVGID_19_)" /><polyline
               style="fill:#e0e0e0"
               id="polyline8036"
               points="600.6626,281.00977 619.82568,302.33789 611.49561,307.22852             "
               clip-path="url(#SVGID_19_)" /><linearGradient
               y2="298.48776"
               x2="612.36316"
               y1="254.50098"
               x1="598.27588"
               gradientUnits="userSpaceOnUse"
               id="SVGID_18_-99"><stop
                 id="stop9753"
                 style="stop-color:#828282"
                 offset="0" /><stop
                 id="stop9755"
                 style="stop-color:#b8b8b8"
                 offset="1" /></linearGradient></g><ellipse
             id="ellipse8038"
             ry="21.707121"
             rx="17.39399"
             cy="276.20508"
             cx="601.31787"
             transform="matrix(0.99127,0.13183,-0.13183,0.99127,41.65857,-76.85849)" /><g
             id="g8040"><ellipse
               style="fill:#ffffff"
               id="ellipse8042"
               ry="15.80968"
               rx="9.8574896"
               cy="264.35742"
               cx="613.29053"
               transform="matrix(0.78353,-0.62135,0.62135,0.78353,-31.50031,438.29669)" /><ellipse
               style="fill:#ffffff"
               id="ellipse8044"
               ry="4.0078402"
               rx="3.1618299"
               cy="276.86328"
               cx="599.34619"
               transform="matrix(0.95407,0.29959,-0.29959,0.95407,110.47635,-166.84314)" /><ellipse
               style="fill:#ffffff"
               id="ellipse8046"
               ry="2.25875"
               rx="1.86835"
               cy="280.99805"
               cx="609.22852"
               transform="matrix(0.99441,0.10558,-0.10558,0.99441,33.07379,-62.7533)" /></g></g><g
           id="right_1_"><g
             id="g8049"><defs
               id="defs8051"><path
                 inkscape:connector-curvature="0"
                 d="m 567.9126,260.56836 c -0.82227,15.38672 -6.85742,26.04102 -13.48145,23.79492 -6.62207,-2.24609 -11.32422,-16.53906 -10.5,-31.92578 0.82227,-15.38672 6.85645,-26.03906 13.47949,-23.79492 6.62305,2.24609 11.32422,16.54101 10.50196,31.92578 z"
                 id="SVGID_20_" /></defs><linearGradient
               y2="274.2952"
               x2="548.33984"
               y1="240.56055"
               x1="562.71533"
               gradientUnits="userSpaceOnUse"
               id="SVGID_21_"><stop
                 id="stop8055"
                 style="stop-color:#828282"
                 offset="0" /><stop
                 id="stop8057"
                 style="stop-color:#b8b8b8"
                 offset="1" /></linearGradient><use
               height="100%"
               width="100%"
               y="0"
               x="0"
               style="overflow:visible;fill:url(#SVGID_21_-980)"
               id="use8059"
               overflow="visible"
               xlink:href="#SVGID_20_" /><clipPath
               id="SVGID_22_"><use
                 height="100%"
                 width="100%"
                 y="0"
                 x="0"
                 style="overflow:visible"
                 id="use8062"
                 overflow="visible"
                 xlink:href="#SVGID_20_" /></clipPath><polyline
               style="fill:#cbcbcb"
               id="polyline8064"
               points="556.59424,259.31641 540.87646,258.94336 542.35889,268.98828             "
               clip-path="url(#SVGID_22_)" /><polyline
               style="fill:#e0e0e0"
               id="polyline8066"
               points="556.39014,259.05273 542.02393,268.44922 545.51221,274.51367             "
               clip-path="url(#SVGID_22_)" /><linearGradient
               y2="274.2952"
               x2="548.33984"
               y1="240.56055"
               x1="562.71533"
               gradientUnits="userSpaceOnUse"
               id="SVGID_21_-980"><stop
                 id="stop9775"
                 style="stop-color:#828282"
                 offset="0" /><stop
                 id="stop9777"
                 style="stop-color:#b8b8b8"
                 offset="1" /></linearGradient></g><path
             inkscape:connector-curvature="0"
             id="path8068"
             d="m 564.65967,256.94922 c 0.0693,12.74023 -3.67188,23.0918 -8.35742,23.12305 -4.68555,0.0332 -8.53809,-10.26563 -8.60645,-23.00586 -0.0674,-12.73633 3.67383,-23.09082 8.35938,-23.12305 4.68359,-0.0312 8.53711,10.26953 8.60449,23.00586 z" /><g
             id="g8070"><path
               style="fill:#ffffff"
               inkscape:connector-curvature="0"
               id="path8072"
               d="m 560.59717,240.36914 c 2.0459,6.98047 1.71582,15.11328 -0.73926,18.16992 -2.45703,3.05469 -6.10547,-0.12695 -8.15332,-7.10742 -2.0459,-6.98047 -1.71582,-15.11523 0.73926,-18.16992 2.45605,-3.05469 6.10449,0.12695 8.15332,7.10742 z" /><path
               style="fill:#ffffff"
               inkscape:connector-curvature="0"
               id="path8074"
               d="m 549.92334,259.56836 c -1.04102,1.5957 -2.55957,1.87891 -3.38672,0.63672 -0.82715,-1.24219 -0.64941,-3.54297 0.39258,-5.13867 1.04492,-1.5918 2.55859,-1.87891 3.3877,-0.63672 0.82617,1.24414 0.65136,3.54492 -0.39356,5.13867 z" /><path
               style="fill:#ffffff"
               inkscape:connector-curvature="0"
               id="path8076"
               d="m 553.55127,262.52539 c -0.52148,0.98633 -1.45996,1.39453 -2.09863,0.91211 -0.6377,-0.48047 -0.73047,-1.67188 -0.21094,-2.6582 0.52344,-0.98438 1.45996,-1.39453 2.09961,-0.91211 0.63672,0.48047 0.73047,1.67383 0.20996,2.6582 z" /></g></g></g><g
         id="g8078"><g
           id="g8080"><path
             style="fill:#eaeaea"
             inkscape:connector-curvature="0"
             id="path8082"
             d="m 614.25342,176.68311 c -35.71094,0 -65.50391,25.89307 -72.3877,60.31201 2.51172,-8.17676 6.66406,-13.54883 11.0918,-13.32129 6.63867,0.3418 11.37695,13.11914 10.58301,28.54102 -0.79395,15.41797 -6.81836,27.64258 -13.45605,27.30078 -2.47949,-0.12793 -4.69238,-1.99023 -6.45313,-5.07617 1.44727,4.80664 3.34375,9.41211 5.65332,13.75586 0,0 7.7207,18.99414 32.19434,31.85352 33.92676,17.82617 67.30176,-3.57617 67.30176,-3.57617 1.47461,-0.86133 5.0332,-0.45898 6.44141,-1.41797 19.84668,-13.53906 32.91895,-36.63672 32.91895,-62.85352 -2e-5,-41.70753 -33.08009,-75.51807 -73.88771,-75.51807 z m 24.48535,120.04931 c -11.08887,14.40039 -30.80469,17.81445 -44.03906,7.625 -13.2334,-10.1875 -14.97461,-30.12109 -3.88672,-44.52148 11.08691,-14.40234 30.80273,-17.81641 44.03711,-7.62695 13.2334,10.18749 14.97558,30.12109 3.88867,44.52343 z" /></g></g><path
         inkscape:connector-curvature="0"
         id="path8084"
         d="m 564.69092,250.48828 c -0.50488,9.80469 -3.14844,18.32617 -6.69727,23.13867 7.16992,-15.47656 5.75684,-48.45313 -4.40234,-48.64355 -7.97363,-0.15137 -9.91211,12.4834 -10.38574,15.32129 0,0 -0.85254,-0.16211 -0.8252,-0.41992 1.11328,-10.62402 4.18555,-17.5957 11.35449,-17.72949 6.64649,-0.12257 11.75,12.91308 10.95606,28.333 z" /><g
         id="g8086"><path
           inkscape:connector-curvature="0"
           id="path8088"
           d="m 647.17236,273.94141 c 0.0146,0.72266 -1.19922,1.76953 -1.41211,0.0352 -2.19238,-17.78906 -13.53809,-26.23242 -29.49414,-26.08984 -15.86816,0.14453 -30.78223,16.51953 -32.71191,31.21094 -0.0107,-7.16992 2.52441,-15.41406 7.32715,-21.65039 11.125,-14.44922 31.24316,-17.47656 45.09082,-6.95703 7.99121,6.06834 11.02344,14.21288 11.20019,23.45116 z" /><path
           inkscape:connector-curvature="0"
           id="path8090"
           d="m 637.39795,253.42188 c 2.44434,-0.45508 6.82813,-3.45117 7.90625,-8.55273 0,0 1.24609,7.33008 -5.60547,10.68359" /><path
           inkscape:connector-curvature="0"
           id="path8092"
           d="m 646.46045,271.58203 c 1.63379,1.87305 6.23535,4.25781 11.74805,2.67773 0,0 -5.67969,4.80078 -12.05176,0.60352" /><path
           inkscape:connector-curvature="0"
           id="path8094"
           d="m 643.3374,262.30078 c 2.86035,0.27734 8.68652,-1.64648 11.51758,-6.9668 0,0 -0.96191,8.53906 -9.64551,10.07031" /></g><path
         style="fill:none;stroke:#c2c2c2;stroke-width:4.0250001"
         inkscape:connector-curvature="0"
         id="path8096"
         d="m 549.28467,288.19531 c -5.68848,-10.69922 -8.91797,-22.96289 -8.91797,-35.99414 0,-41.70752 33.08008,-75.51807 73.88672,-75.51807 40.80762,0 73.8877,33.81055 73.8877,75.51807 0,28.07617 -16.02344,52.9668 -38.27344,65.97852" /><g
         id="g8098"><defs
           id="defs8100"><path
             inkscape:connector-curvature="0"
             d="m 533.46631,221.91602 c -4.02246,8.35742 -4.21582,8.625 -1.53223,16.67578 2.49121,6.51758 10.53223,9.37305 10.70508,7.29102 0.76367,-9.17773 3.17578,-17.87305 6.93262,-25.7749 3.52539,-7.41554 -12.40625,-5.87208 -16.10547,1.8081 z"
             id="SVGID_23_" /></defs><clipPath
           id="SVGID_24_"><use
             height="100%"
             width="100%"
             y="0"
             x="0"
             style="overflow:visible"
             id="use8104"
             overflow="visible"
             xlink:href="#SVGID_23_" /></clipPath><path
           inkscape:connector-curvature="0"
           id="path8106"
           d="m 547.65088,224.9834 c -1.91602,-0.7666 -4.50391,-3.4502 -4.2168,-8.33789 0,0 -3.35547,7.1875 3.25684,10.7334"
           clip-path="url(#SVGID_24_)" /><path
           inkscape:connector-curvature="0"
           id="path8108"
           d="m 546.30908,231.52051 c -5.03711,-0.38867 -9.01074,-2.23926 -11.21191,-7.0166 0,0 -0.19336,7.76172 10.6377,10.44629"
           clip-path="url(#SVGID_24_)" /><path
           inkscape:connector-curvature="0"
           id="path8110"
           d="m 544.20068,238.49609 c -3.25977,0.83789 -6.9248,1.0293 -9.87207,-2.49219 0,0 0.79102,6.34961 9.4873,5.46289"
           clip-path="url(#SVGID_24_)" /></g></g><g
       id="snout_1_"><path
         style="fill:#eaeaea"
         inkscape:connector-curvature="0"
         id="path8113"
         d="m 618.26416,327.01758 c -55.85449,5.49023 -85.94629,-32.26953 -78.61621,-45.20703 2.91895,-5.15039 9.67383,1.8125 18.51465,-5.73438 l 13.44629,29.40625" /><path
         style="fill:#c2c2c2"
         inkscape:connector-curvature="0"
         id="path8115"
         d="m 548.84717,289.78906 c 0,0 4.09766,1.50977 5.89453,-2.51563 0,10e-6 -0.28809,8.55274 -5.89453,2.51563 z" /><path
         style="fill:#c2c2c2"
         inkscape:connector-curvature="0"
         id="path8117"
         d="m 545.97217,301.00195 c 4.52832,-0.61133 11.24902,-0.0723 15.09375,7.1875 0,0 -6.4668,-5.67773 -13.31934,-4.57617" /><g
         id="g8119"><path
           style="display:none;fill:none;stroke:#c2c2c2;stroke-width:4.0250001"
           inkscape:connector-curvature="0"
           id="path8121"
           d="m 557.90381,275.77344 c -8.84082,7.54688 -15.38086,0.86328 -18.25586,6.03711 -6.54297,11.7793 18.54297,49.45117 78.63086,45.42578"
           display="none" /><path
           style="fill:#c2c2c2"
           inkscape:connector-curvature="0"
           id="path8123"
           d="m 541.27295,299.59375 c -1.83008,-2.86719 -3.36133,-5.99023 -4.14355,-9.31641 -0.7002,-2.97852 -0.82422,-6.29688 0.5791,-9.09961 0.66211,-1.32422 1.69434,-2.4707 3.0918,-3.0293 1.6123,-0.66016 3.41211,-0.54297 5.10059,-0.29102 8.69629,1.29492 12.26172,-1.78125 12.26172,-1.78125 0,0 -4.09961,5.9375 -10.94336,5.44727 -1.45898,-0.10352 -3.24121,-0.25195 -4.56641,0.24023 -1.18164,0.4375 -1.67773,1.76172 -1.87305,2.86133 -0.49023,2.74023 0.35059,5.64453 1.4082,8.15234 1.22363,2.9043 2.95313,5.58594 4.91406,8.04297 3.7207,4.66016 10.80176,10.89063 21.68945,16.41211 7.14648,3.62305 15.84961,6.33789 24.84766,7.86133 13.89551,2.54883 24.625,1.92383 24.625,1.92383 0,0 -10.45117,2.41797 -24.90137,0.89063 -7.96191,-0.84375 -17.15332,-3.08594 -26.44727,-7.10938 -4.79102,-2.07617 -9.22266,-4.91602 -13.35352,-8.11328 -4.74218,-3.67187 -9.04491,-8.02929 -12.28905,-13.09179" /></g></g><g
       id="mane_up_2_"><path
         style="fill:#7b7b7b"
         inkscape:connector-curvature="0"
         id="path8126"
         d="m 674.62842,220.86182 c -21.08105,-11.11621 -57.30762,4.40869 -56.63672,-12.1709 0.11621,-2.87354 2.20508,-8.625 6.70898,-11.1167 0,0 -8.62305,3.64746 -19.93457,9.05615 -18.54883,8.87207 -44.82031,20.04932 -55.77441,9.63135 -15.37793,-14.62646 7.97754,-38.95605 7.97754,-38.95605 -26.09082,11.74023 -7.69043,-34.64355 42.04688,-34.64355 43.9873,0 78.10547,40.44141 86.54004,74.94141" /><path
         style="fill:none;stroke:#595959;stroke-width:1.72500002"
         inkscape:connector-curvature="0"
         id="path8128"
         d="M 663.03369,175.00586 C 618.1831,146.39941 556.1792,173.13721 544.39111,208.21143" /><path
         style="fill:none;stroke:#595959;stroke-width:1.72500002"
         inkscape:connector-curvature="0"
         id="path8130"
         d="m 674.34131,191.24902 c -42.5498,-31.91211 -92.21582,0.35938 -103.42773,28.53467" /><g
         id="g8132"><path
           style="display:none;fill:none;stroke:#595959;stroke-width:4.0250001;stroke-miterlimit:20"
           inkscape:connector-curvature="0"
           id="path8134"
           d="m 685.55615,217.60352 c -8.43457,-34.5 -42.55273,-74.94141 -86.54004,-74.94141 -49.7373,0 -69.8623,48.01221 -39.3877,33.9248"
           stroke-miterlimit="20"
           display="none" /><path
           style="fill:#595959"
           inkscape:connector-curvature="0"
           id="path8136"
           d="m 654.229,168.6499 c -8.81055,-8.42139 -19.16699,-15.34912 -30.64453,-19.55225 -11.85645,-4.34082 -24.75684,-5.55664 -37.19824,-3.3208 -10.34961,1.85986 -20.41016,6.15771 -28.50488,12.93555 -3.12891,2.62109 -6.02832,5.64063 -8.18945,9.12109 -0.81152,1.30566 -1.52051,2.69385 -1.99414,4.15967 -0.34863,1.07715 -0.61523,2.28467 -0.36816,3.41309 0.52344,2.37354 3.89453,1.82031 5.63086,1.43311 1.18164,-0.26416 2.33789,-0.64209 3.46777,-1.07617 0.72656,-0.2793 1.44336,-0.58398 2.15039,-0.90723 0.29492,-0.13477 0.24121,-0.02 0.36523,0.24609 0.50879,1.104 -2.60742,5.09424 -4.79102,5.60254 -0.81934,0.19238 -1.64844,0.33496 -2.48633,0.41455 -2.8418,0.27393 -6.01465,-0.36133 -7.55859,-3.01514 -1.49805,-2.57422 -0.88867,-5.81006 0.14355,-8.43408 1.18164,-3.00635 3.05273,-5.7373 5.12988,-8.19482 7.52539,-8.90723 18.34277,-14.92432 29.46289,-18.08008 12.34375,-3.50244 25.61914,-3.63281 38.06152,-0.54736 11.84668,2.93701 22.85254,8.71875 32.42969,16.23291 10.11426,7.93555 18.73047,17.78174 25.51758,28.68506 5.64453,9.06494 10.1123,18.97021 12.65723,29.36084 -1.27344,0.31787 -2.56543,0.62646 -3.8457,0.93994 -0.0918,0.0225 -0.88477,-3.07813 -0.98828,-3.43555 -0.40625,-1.396 -0.84863,-2.78076 -1.3252,-4.15283 -2.00781,-5.79297 -4.59277,-11.3833 -7.61621,-16.71533 -5.24218,-9.2461 -11.81933,-17.76807 -19.50586,-25.1128" /></g><g
         id="g8138"><path
           style="display:none;fill:none;stroke:#595959;stroke-width:4.0250001;stroke-miterlimit:20"
           inkscape:connector-curvature="0"
           id="path8140"
           d="m 569.1167,165.08691 c -10.6377,7.4751 -35.17383,36.20996 -20.125,51.1748 17.34668,17.25 62.6748,-16.67529 82.51172,-20.7002"
           stroke-miterlimit="20"
           display="none" /><path
           style="fill:#595959"
           inkscape:connector-curvature="0"
           id="path8142"
           d="m 547.57178,217.68994 c -10.15039,-10.02881 -3.77344,-25.24707 2.8457,-35.29932 7.10352,-10.78711 18.70605,-17.29395 18.70605,-17.29395 0,0 -9.30273,9.47803 -16.66211,21.55713 -3.18457,5.22656 -6.12988,11.30566 -6.21289,17.55078 -0.04,2.88721 0.6084,5.76025 2.18848,8.20361 1.55078,2.40039 3.80469,4.30029 6.44824,5.3877 5.38379,2.21338 11.66406,1.33398 17.15332,-0.001 6.69043,-1.62695 13.12793,-4.23584 19.40625,-7.02686 6.69531,-2.97705 13.24512,-6.26416 19.85742,-9.41992 9.70801,-4.63623 21.06445,-6.07373 21.06445,-6.07373 0,0 -13.10254,6.79443 -15.90527,8.09521 -6.60059,3.05908 -13.09277,6.34619 -19.69824,9.39551 -6.51074,3.00488 -13.12988,5.87549 -20.01465,7.92529 -5.92285,1.76416 -12.34375,3.0874 -18.53223,2.146 -3.98632,-0.60546 -7.76952,-2.2788 -10.64452,-5.14599" /></g><g
         id="g8144"><path
           style="display:none;fill:none;stroke:#595959;stroke-width:4.0250001;stroke-miterlimit:20"
           inkscape:connector-curvature="0"
           id="path8146"
           d="m 624.70068,197.57422 c -4.50391,2.4917 -6.59277,8.24316 -6.70898,11.1167 -0.6709,16.57959 35.55566,1.05469 56.63672,12.1709"
           stroke-miterlimit="20"
           display="none" /><path
           style="fill:#595959"
           inkscape:connector-curvature="0"
           id="path8148"
           d="m 651.03564,218.46045 c -7.19727,-0.002 -14.41113,0.77148 -21.60449,0.42236 -3.07617,-0.15039 -6.37305,-0.50195 -9.10938,-2.02734 -2.72754,-1.52051 -4.24902,-4.2168 -4.34766,-7.31885 -0.0898,-2.81201 0.88672,-5.64648 2.26172,-8.06543 0.46484,-0.81543 0.99316,-1.59814 1.58594,-2.32617 1.08691,-1.33496 7.10449,-1.44873 6.05273,-0.63672 -1.36621,1.05469 -2.70996,2.87061 -3.19531,3.51318 -0.98633,1.30371 -1.72754,2.80078 -2.20801,4.36084 -0.77246,2.50098 -0.78613,5.48389 1.75879,6.92773 2.38477,1.35449 5.45117,1.48926 8.12207,1.58496 7.02539,0.24805 14.05859,-0.48779 21.08594,-0.4585 6.70898,0.0283 13.56836,0.52686 19.93066,2.80908 1.43848,0.5166 2.84473,1.125 4.19922,1.83691 -0.55762,1.05371 -1.1123,2.10938 -1.66895,3.1626 -0.0693,0.13135 -0.1377,0.2627 -0.20703,0.39355 0.008,-0.0156 -1.53613,-0.74609 -1.68164,-0.81104 -1.22266,-0.54053 -2.48242,-0.9917 -3.7627,-1.37158 -5.55858,-1.64744 -11.44334,-2.00242 -17.2119,-1.99558" /></g></g><g
       id="ear_1_"><path
         style="fill:#eaeaea"
         inkscape:connector-curvature="0"
         id="path8151"
         d="m 672.2417,222.97754 c 8.52832,-17.87354 23.23047,-28.13477 30.84961,-27.70361 6.72266,0.38086 23.86328,55.20068 -18.89258,72.79053" /><path
         style="fill:#c2c2c2"
         inkscape:connector-curvature="0"
         id="path8153"
         d="m 705.53467,216.54932 c 0,0 -0.28711,21.41943 -20.26855,28.31982 -10e-6,0 15.09374,-8.76953 20.26855,-28.31982 z" /><g
         id="g8155"><path
           style="display:none;fill:none;stroke:#c2c2c2;stroke-width:4.0250001"
           inkscape:connector-curvature="0"
           id="path8157"
           d="m 672.42529,223.06641 c 8.52832,-17.87354 23.04688,-28.22363 30.66602,-27.79248 6.72266,0.38086 24.3418,52.8999 -18.7832,73.0249"
           display="none" /><path
           style="fill:#c2c2c2"
           inkscape:connector-curvature="0"
           id="path8159"
           d="m 684.19873,268.06445 c 0,0 10.77051,-1.06055 19.92773,-12.5918 8.0752,-10.16797 11.04395,-23.41211 10.1123,-36.21484 -0.46191,-6.36084 -1.78613,-12.83398 -4.39746,-18.67822 -0.61328,-1.37012 -1.30762,-2.7124 -2.1543,-3.95557 -0.82324,-1.20947 -1.85352,-2.46289 -3.23145,-3.05566 -1.23145,-0.53027 -2.73438,-0.33594 -4.02051,-0.11035 -1.33203,0.23242 -2.62988,0.63818 -3.88184,1.14697 -5.80371,2.35596 -10.89355,6.59766 -15.01074,11.24268 -7.7041,8.68896 -9.30078,17.12988 -9.30078,17.12988 0,0 9.28711,-16.8501 24.76758,-24.16797 1.11719,-0.52783 2.28027,-0.97949 3.4834,-1.26709 0.61426,-0.14697 2.05273,-0.57471 2.59375,-0.13477 0.91016,0.73926 1.54102,1.82275 2.10156,2.83496 0.5293,0.95459 0.9873,1.94922 1.40039,2.95996 2.34863,5.74365 3.49707,12.04492 3.74707,18.22607 0.27051,6.71484 -0.56836,13.52441 -2.89258,19.84668 -6.93943,18.87696 -23.24412,26.78907 -23.24412,26.78907 z" /></g></g></g></svg>