<?xml version="1.0" encoding="UTF-8" standalone="no"?>
<!-- Created with Inkscape (http://www.inkscape.org/) -->

<svg
   xmlns:dc="http://purl.org/dc/elements/1.1/"
   xmlns:cc="http://creativecommons.org/ns#"
   xmlns:rdf="http://www.w3.org/1999/02/22-rdf-syntax-ns#"
   xmlns:svg="http://www.w3.org/2000/svg"
   xmlns="http://www.w3.org/2000/svg"
   xmlns:xlink="http://www.w3.org/1999/xlink"
   xmlns:sodipodi="http://sodipodi.sourceforge.net/DTD/sodipodi-0.dtd"
   xmlns:inkscape="http://www.inkscape.org/namespaces/inkscape"
   width="117.48996mm"
   height="91.085197mm"
   viewBox="0 0 416.30301 322.74282"
   id="svg9370"
   version="1.1"
   inkscape:version="0.91 r13725"
   sodipodi:docname="cmc2.svg">
  <sodipodi:namedview
     id="base"
     pagecolor="#ffffff"
     bordercolor="#666666"
     borderopacity="1.0"
     inkscape:pageopacity="0.0"
     inkscape:pageshadow="2"
     inkscape:zoom="0.35"
     inkscape:cx="26.008651"
     inkscape:cy="249.94283"
     inkscape:document-units="mm"
     inkscape:current-layer="layer1"
     showgrid="false"
     fit-margin-left="1"
     fit-margin-top="1"
     fit-margin-bottom="1"
     fit-margin-right="1"
     inkscape:window-width="994"
     inkscape:window-height="862"
     inkscape:window-x="4"
     inkscape:window-y="28"
     inkscape:window-maximized="0" />
  <defs
     id="defs9372">
    <linearGradient
       y2="228.79771"
       x2="459.43283"
       y1="186.43945"
       x1="441.79932"
       gradientUnits="userSpaceOnUse"
       id="SVGID_10_">
      <stop
         id="stop7792"
         style="stop-color:#4A2F63"
         offset="0" />
      <stop
         id="stop7794"
         style="stop-color:#662F89"
         offset="0.50254" />
      <stop
         id="stop7796"
         style="stop-color:#B38EC0"
         offset="1" />
    </linearGradient>
    <clipPath
       id="SVGID_11_">
      <use
         height="100%"
         width="100%"
         y="0"
         x="0"
         style="overflow:visible"
         id="use7801"
         overflow="visible"
         xlink:href="#SVGID_9_" />
    </clipPath>
    <clipPath
       id="clipPath9095">
      <use
         height="100%"
         width="100%"
         y="0"
         x="0"
         style="overflow:visible"
         id="use9097"
         overflow="visible"
         xlink:href="#SVGID_9_" />
    </clipPath>
    <linearGradient
       y2="211.06055"
       x2="395.21448"
       y1="168.12842"
       x1="411.12256"
       gradientUnits="userSpaceOnUse"
       id="SVGID_13_">
      <stop
         id="stop7824"
         style="stop-color:#4A2F63"
         offset="0" />
      <stop
         id="stop7826"
         style="stop-color:#662F89"
         offset="0.50761" />
      <stop
         id="stop7828"
         style="stop-color:#B38EC0"
         offset="1" />
    </linearGradient>
    <clipPath
       id="SVGID_14_">
      <use
         height="100%"
         width="100%"
         y="0"
         x="0"
         style="overflow:visible"
         id="use7833"
         overflow="visible"
         xlink:href="#SVGID_12_" />
    </clipPath>
    <clipPath
       id="clipPath9113">
      <use
         height="100%"
         width="100%"
         y="0"
         x="0"
         style="overflow:visible"
         id="use9115"
         overflow="visible"
         xlink:href="#SVGID_12_" />
    </clipPath>
    <clipPath
       id="SVGID_16_">
      <use
         height="100%"
         width="100%"
         y="0"
         x="0"
         style="overflow:visible"
         id="use7875"
         overflow="visible"
         xlink:href="#SVGID_15_" />
    </clipPath>
    <clipPath
       id="clipPath9119">
      <use
         height="100%"
         width="100%"
         y="0"
         x="0"
         style="overflow:visible"
         id="use9121"
         overflow="visible"
         xlink:href="#SVGID_15_" />
    </clipPath>
    <clipPath
       id="clipPath9123">
      <use
         height="100%"
         width="100%"
         y="0"
         x="0"
         style="overflow:visible"
         id="use9125"
         overflow="visible"
         xlink:href="#SVGID_15_" />
    </clipPath>
    <linearGradient
       y2="228.79771"
       x2="459.43283"
       y1="186.43945"
       x1="441.79932"
       gradientUnits="userSpaceOnUse"
       id="SVGID_10_-832">
      <stop
         id="stop10016"
         style="stop-color:#3d3d3d"
         offset="0" />
      <stop
         id="stop10018"
         style="stop-color:#4a4a4a"
         offset="0.50254" />
      <stop
         id="stop10020"
         style="stop-color:#9f9f9f"
         offset="1" />
    </linearGradient>
    <linearGradient
       y2="211.06055"
       x2="395.21448"
       y1="168.12842"
       x1="411.12256"
       gradientUnits="userSpaceOnUse"
       id="SVGID_13_-718">
      <stop
         id="stop10023"
         style="stop-color:#3d3d3d"
         offset="0" />
      <stop
         id="stop10025"
         style="stop-color:#4a4a4a"
         offset="0.50761" />
      <stop
         id="stop10027"
         style="stop-color:#9f9f9f"
         offset="1" />
    </linearGradient>
  </defs>
  <metadata
     id="metadata9375">
    <rdf:RDF>
      <cc:Work
         rdf:about="">
        <dc:format>image/svg+xml</dc:format>
        <dc:type
           rdf:resource="http://purl.org/dc/dcmitype/StillImage" />
        <dc:title></dc:title>
      </cc:Work>
    </rdf:RDF>
  </metadata>
  <g
     transform="translate(-60.41992,-459.56222)"
     id="layer1"
     inkscape:groupmode="layer"
     inkscape:label="Layer 1">
    <g
       transform="translate(-94.758938,384.48403)"
       id="Scootaloo">
      <g
         id="tail_4_">
        <path
           style="fill:#818181"
           inkscape:connector-curvature="0"
           id="path7706"
           d="m 327.84766,296.86133 c -8.0498,-56.34766 -98.89893,-98.22705 -125.73291,2.20703 0,0 -7.66699,40.63086 -29.13281,41.39648 0,0 11.11572,10.35156 32.19971,-6.89844 -6.7085,17.63281 -33.4458,44.6582 -42.93311,7.2832 -12.9375,57.78711 60.27197,64.56836 81.07471,30.76172 C 259.42334,345.44922 261.72314,319 261.72314,319 c 0,0 4.02539,12.9375 18.6875,17.82422 -16.09961,-26.73633 15.52539,-59.51172 36.7998,-31.91211" />
        <path
           style="fill:none;stroke:#595959;stroke-width:1.72500002;stroke-miterlimit:8"
           inkscape:connector-curvature="0"
           id="path7708"
           d="m 324.39795,299.16211 c 0,0 -11.09912,-43.28516 -47.72461,-43.125 -65.8374,0.28711 -20.9873,124.19922 -97.75,130.52539"
           stroke-miterlimit="8" />
        <path
           style="fill:none;stroke:#595959;stroke-width:1.72500002;stroke-miterlimit:8"
           inkscape:connector-curvature="0"
           id="path7710"
           d="m 320.37256,302.03711 c 0,0 -16.09766,-34.5 -37.37402,-34.5 -53.4751,0 -25.30029,124.77539 -92.2876,123.33789"
           stroke-miterlimit="8" />
        <path
           style="fill:none;stroke:#595959;stroke-width:4.0250001;stroke-miterlimit:8"
           inkscape:connector-curvature="0"
           id="path7712"
           d="m 327.84766,296.86133 c -8.0498,-56.34766 -98.89893,-98.22705 -125.73291,2.20703 0,0 -7.66699,40.63086 -29.13281,41.39648 0,0 11.11572,10.35156 32.19971,-6.89844 -6.7085,17.63281 -33.4458,44.6582 -42.93311,7.2832 -12.9375,57.78711 60.27197,64.56836 81.07471,30.76172 C 259.42334,345.44922 261.72314,319 261.72314,319 c 0,0 4.02539,12.9375 18.6875,17.82422 -16.09961,-26.73633 15.52539,-59.51172 36.7998,-31.91211"
           stroke-miterlimit="8" />
      </g>
      <g
         id="back_left_leg_4_">
        <path
           style="fill:#b7b7b7"
           inkscape:connector-curvature="0"
           id="path7715"
           d="m 396.27295,327.04883 c 23.28809,0.28906 37.61133,26.27344 35.26563,34.31055 -2.01172,6.89844 -29.32373,12.36133 -38.52393,5.75 -15.36182,-11.04297 -37.97705,-12.00586 -44.08301,-19.35938 -4.69629,-5.6543 -2.39648,-15.8125 4.50342,-19.55078" />
        <path
           style="fill:none;stroke:#909090;stroke-width:4.0250001"
           inkscape:connector-curvature="0"
           id="path7717"
           d="m 352.57275,328.39258 c -5.75,4.79102 -8.0498,14.95117 -3.25781,19.74023 6.75732,6.75977 28.33789,7.93359 43.69971,18.97656 9.2002,6.61133 36.51221,1.14844 38.52393,-5.75 2.3457,-8.03711 -11.97754,-34.02148 -35.26563,-34.31055" />
      </g>
      <g
         id="front_left_leg_4_">
        <path
           style="fill:#b7b7b7"
           inkscape:connector-curvature="0"
           id="path7720"
           d="m 422.53271,288.33398 c -3.4502,48.29883 9.77539,86.44141 15.8125,91.04102 4.39258,3.3457 38.71973,5.30664 45.13672,-2.58789 6.65918,-8.19336 -36.41797,-38.8125 -32.00879,-86.91992" />
        <path
           style="fill:none;stroke:#909090;stroke-width:4.0250001"
           inkscape:connector-curvature="0"
           id="path7722"
           d="m 422.53271,288.33398 c -3.4502,48.29883 9.77539,86.44141 15.8125,91.04102 4.39258,3.3457 38.78027,5.35742 45.13672,-2.58789 6.51563,-8.14453 -36.41797,-38.8125 -32.00879,-86.91992" />
      </g>
      <g
         id="mane_side_1_">
        <path
           style="fill:#818181"
           inkscape:connector-curvature="0"
           id="path7725"
           d="m 524.1499,200.3374 c 12.51953,-0.49756 30.43848,-11.5791 41.58203,-22.03076 0,0 -1.4043,35.21924 -43.21777,53.9043 0,0 9.04492,5.04688 20.74023,0.68555 0,0 -22.5752,34.95898 -56.97852,28.16211" />
        <path
           style="fill:none;stroke:#595959;stroke-width:4.0250001;stroke-miterlimit:8"
           inkscape:connector-curvature="0"
           id="path7727"
           d="m 524.1499,200.3374 c 12.51953,-0.49756 30.43848,-11.5791 41.58203,-22.03076 0,0 -1.4043,35.21924 -43.21777,53.9043 0,0 9.04492,5.04688 20.74023,0.68555 0,0 -22.5752,34.95898 -56.97852,28.16211"
           stroke-miterlimit="8" />
      </g>
      <g
         id="body_4_">
        <path
           style="fill:#c4c4c4"
           inkscape:connector-curvature="0"
           id="path7730"
           d="m 418.69873,242.33398 c -26.64209,40.63477 -67.34668,24.81641 -89.70117,41.01563 -26.44922,19.16797 -12.07031,72.14063 46,59.80078 46.00098,-9.77539 104.00293,-60.92578 127.00293,-98.30078" />
        <path
           style="fill:none;stroke:#909090;stroke-width:4.0250001"
           inkscape:connector-curvature="0"
           id="path7732"
           d="m 418.69873,242.33398 c -26.64209,40.63477 -67.34668,24.81641 -89.70117,41.01563 -26.44922,19.16797 -12.07031,72.14063 46,59.80078 46.00098,-9.77539 103.98535,-60.95117 126.98535,-98.32422" />
      </g>
      <g
         id="back_right_leg_4_">
        <path
           style="fill:#c4c4c4"
           inkscape:connector-curvature="0"
           id="path7735"
           d="m 344.71484,311.71484 c 32.15186,13.03516 19.93311,33.83203 19.93311,33.83203 23.28711,0.28711 38.57031,26.94141 36.22461,34.97852 -2.01221,6.89844 -29.32471,12.36133 -38.5249,5.75 -15.36084,-11.04297 -37.97705,-12.00586 -44.08301,-19.35742 -4.69531,-5.65625 -2.39551,-15.8125 4.50488,-19.55078 0,0 -32.67969,-29.51758 6.22803,-64.01758" />
        <g
           id="g7737">
          <path
             style="display:none;fill:none;stroke:#909090;stroke-width:4.0250001"
             inkscape:connector-curvature="0"
             id="path7739"
             d="m 328.99756,283.34961 c -25.29932,17.63281 -25.58691,57.5 4.21729,70.91602"
             display="none" />
          <path
             style="fill:#909090"
             inkscape:connector-curvature="0"
             id="path7741"
             d="m 308.40332,318.90234 c 0,-11.54102 4.56396,-22.9043 12.51953,-31.26172 2.1001,-2.20898 4.4248,-4.20117 6.92383,-5.94141 0.0727,0.0176 0.2168,0.30859 0.25732,0.36719 0.24463,0.35156 0.48828,0.70117 0.73193,1.04883 0.42578,0.61133 0.88721,1.25781 1.31201,1.86914 0.0337,0.0469 -2.75146,2.10742 -3.05811,2.36523 -1.14697,0.96875 -2.24072,2.00195 -3.2749,3.08789 -2.01953,2.125 -3.80811,4.46875 -5.33252,6.97266 -5.73047,9.42383 -7.61523,21.13086 -4.66846,31.80273 1.39063,5.0332 3.65234,9.69531 7.03809,14.32031 4.9834,6.80469 12.33594,10.79102 12.33594,10.79102 0,0 -9.26855,-1.30273 -16.24707,-10.20703 -2.70215,-3.44727 -4.86768,-7.33594 -6.31494,-11.58008 -1.49511,-4.38085 -2.23144,-9.00976 -2.22265,-13.63476" />
        </g>
        <path
           style="fill:none;stroke:#909090;stroke-width:4.0250001"
           inkscape:connector-curvature="0"
           id="path7743"
           d="m 321.90674,347.55859 c -5.75,4.79102 -8.0498,14.94922 -3.25879,19.74023 6.7583,6.75977 28.33887,7.93359 43.69971,18.97656 9.2002,6.61133 36.5127,1.14844 38.5249,-5.75 2.3457,-8.03711 -13.32031,-34.4043 -36.60791,-34.69141" />
        <g
           id="g7745">
          <path
             style="display:none;fill:none;stroke:#909090;stroke-width:4.0250001"
             inkscape:connector-curvature="0"
             id="path7747"
             d="m 344.71484,311.71484 c 22.61719,8.81836 29.51709,27.60156 15.7168,40.25"
             display="none" />
          <path
             style="fill:#909090"
             inkscape:connector-curvature="0"
             id="path7749"
             d="m 358.89795,352.44531 c 0,0 11.0459,-6.36523 10.20605,-16.91406 -0.49854,-6.27734 -3.07031,-11.45703 -7.52686,-15.61719 -7.06396,-6.5918 -16.8623,-8.19922 -16.85693,-8.19336 -0.005,-0.006 9.79297,5.19531 14.32129,10.65625 2.88281,3.47852 5.49414,7.57031 6.22949,12.05859 1.60499,9.79298 -6.37304,18.00977 -6.37304,18.00977 z" />
        </g>
      </g>
      <g
         id="wing_1_">
        <path
           style="fill:#c4c4c4"
           inkscape:connector-curvature="0"
           id="path7752"
           d="m 366.46045,286.22656 c -16.9624,0.57617 -34.7876,14.08789 -33.0625,25.01367 2.73584,17.32031 59.5415,28.17773 58.9375,-7.47656 -0.19092,-11.30859 -9.39111,-16.48242 -9.39111,-16.48242" />
        <g
           id="g7754">
          <path
             style="display:none;fill:none;stroke:#909090;stroke-width:4.0250001"
             inkscape:connector-curvature="0"
             id="path7756"
             d="m 365.69434,286.51367 c 0,0 -7.85889,2.875 -4.0249,10.54102 -3.83398,3.83398 -8.24219,16.29297 6.3252,19.35938 0,0 3.25879,9.39063 13.60889,7.0918"
             display="none" />
          <path
             style="fill:#909090"
             inkscape:connector-curvature="0"
             id="path7758"
             d="m 368.7583,321.4668 c -0.53711,-0.61719 -1.02539,-1.27734 -1.45801,-1.97266 -0.17529,-0.2793 -0.33887,-0.56445 -0.49512,-0.85547 -0.0664,-0.125 -0.13135,-0.25 -0.19434,-0.375 -0.10547,-0.20898 -0.43115,-0.21484 -0.64893,-0.27539 -1.47607,-0.41406 -2.91553,-0.97656 -4.24316,-1.74414 -2.52441,-1.46289 -4.51465,-3.70898 -5.35254,-6.53711 -0.89844,-3.0332 -0.42188,-6.36133 0.7749,-9.24609 0.55518,-1.33984 1.28027,-2.61719 2.17432,-3.75977 0.0249,-0.12109 -0.18164,-0.50586 -0.22217,-0.62891 -0.0654,-0.20703 -0.125,-0.41406 -0.17871,-0.62109 -0.10205,-0.39648 -0.18311,-0.80078 -0.23584,-1.20703 -0.10889,-0.83008 -0.10645,-1.67383 0.0303,-2.49805 0.37305,-2.26758 1.71143,-4.14648 3.47949,-5.51172 0.85791,-0.66406 5.49365,-0.15039 5.49365,-0.15039 0,0 -2.75928,1.18945 -4.09668,3.26953 -0.97021,1.50977 -1.11621,3.35742 -0.86475,4.69336 0.21094,1.10742 0.74316,2.10156 1.24414,3.09961 0.16406,0.32813 0.16846,0.29102 -0.0898,0.54883 -0.26025,0.25977 -0.52344,0.52148 -0.78369,0.7832 -1.90918,1.83398 -3.08643,4.93945 -3.16504,7.54688 -0.082,2.7793 1.21094,5.13672 3.5625,6.58789 1.19922,0.74023 2.54053,1.23438 3.90039,1.5918 0.50293,0.12891 1.01172,0.23633 1.51953,0.3457 0.40527,0.082 0.57617,0.0215 0.70947,0.4043 0.7627,2.20117 2.06641,4.19531 4.03174,5.50391 1.14551,0.76367 2.46436,1.20898 3.82959,1.3457 0.75488,0.0742 1.51172,0.0605 2.26416,-0.0234 0.40674,-0.0488 0.81104,-0.11328 1.21289,-0.19727 0.25293,-0.0508 0.86719,-0.29102 0.99268,-0.33594 0.27979,1.26172 -0.19092,2.95898 0.0879,4.22266 -4.88328,1.07813 -9.95018,-0.14453 -13.27879,-4.0039" />
        </g>
        <line
           style="fill:none;stroke:#909090;stroke-width:1.72500002"
           id="line7760"
           y2="296.00195"
           x2="361.1416"
           y1="302.03906"
           x1="336.27295" />
        <line
           style="fill:none;stroke:#909090;stroke-width:1.72500002"
           id="line7762"
           y2="313.34766"
           x2="333.87744"
           y1="308.50781"
           x1="357.979" />
        <line
           style="fill:none;stroke:#909090;stroke-width:1.72500002"
           id="line7764"
           y2="318.13867"
           x2="368.76025"
           y1="322.35547"
           x1="343.07861" />
        <g
           id="g7766">
          <path
             style="display:none;fill:none;stroke:#909090;stroke-width:4.0250001"
             inkscape:connector-curvature="0"
             id="path7768"
             d="m 366.46045,286.22656 c -16.9624,0.57617 -34.7876,14.08789 -33.0625,25.01367 2.73584,17.32031 59.5415,28.17773 58.9375,-7.47656 -0.19092,-11.30859 -9.39111,-16.48242 -9.39111,-16.48242"
             display="none" />
          <path
             style="fill:#909090"
             inkscape:connector-curvature="0"
             id="path7770"
             d="m 335.4834,318.94531 c -2.22803,-2.25195 -3.92969,-5.08398 -4.17871,-8.29688 -0.21826,-2.80469 0.62744,-5.62109 1.94922,-8.06836 2.9707,-5.50195 8.25098,-9.67383 13.61719,-12.69141 12.97656,-7.30273 20.81104,-3.80469 20.81104,-3.80469 0,0 -3.70508,0.8125 -5.19043,2.53711 -1.90723,0.58008 -3.78271,0.2793 -6.70703,1.24414 -6.15869,2.03711 -10.50049,4.96875 -15.07373,9.55078 -3.50586,3.51367 -7.20654,9.00391 -4.43115,14.01172 1.53516,2.76953 4.26074,4.79297 6.95361,6.34766 2.83252,1.63281 5.90967,2.83594 9.05176,3.73047 6.48682,1.84375 13.51025,2.48047 20.17236,1.26758 5.45361,-0.99219 10.84424,-3.40625 14.21533,-7.96289 1.51074,-2.04102 2.51367,-4.4082 3.06592,-6.87891 0.66943,-3.00195 0.86475,-6.27344 0.25391,-9.29883 -1.72949,-8.5625 -6.98535,-13.4668 -6.98535,-13.4668 0,0 6.93359,1.4082 9.91895,9.16992 2.15381,5.60156 1.86865,12.32813 -0.29541,17.88867 -1.97119,5.0625 -5.74658,9.05469 -10.54688,11.55078 -5.78125,3.01367 -12.52393,3.88281 -18.96826,3.56055 -5.30273,-0.26172 -10.59668,-1.29883 -15.57861,-3.14258 -4.39358,-1.62303 -8.71145,-3.91209 -12.05373,-7.24803" />
        </g>
      </g>
      <g
         id="front_right_leg_4_">
        <path
           style="fill:#c4c4c4"
           inkscape:connector-curvature="0"
           id="path7773"
           d="m 397.99756,298.10938 c -3.44971,48.29883 9.77539,86.43945 15.81348,91.04102 4.39355,3.3457 39.05469,5.56445 45.13672,-2.58789 6.75586,-9.05664 -36.41504,-38.8125 -32.00879,-86.91992" />
        <g
           id="g7775">
          <path
             style="display:none;fill:none;stroke:#909090;stroke-width:4.0250001"
             inkscape:connector-curvature="0"
             id="path7777"
             d="m 397.99756,298.10938 c -3.44971,48.29883 9.77539,86.43945 15.81348,91.04102 4.39355,3.3457 39.41797,5.82617 45.13672,-2.58789 6.70898,-9.86914 -36.41504,-38.8125 -32.00879,-86.91992"
             display="none" />
          <path
             style="fill:#909090"
             inkscape:connector-curvature="0"
             id="path7779"
             d="m 416.23682,392.2832 c -1.42871,-0.40039 -2.90039,-0.84766 -4.03027,-1.85352 -1.15332,-1.02344 -2.01953,-2.36523 -2.78906,-3.68945 -1.53125,-2.63086 -2.72461,-5.46094 -3.79883,-8.30469 -2.19922,-5.82422 -3.85742,-11.85156 -5.22412,-17.92188 -2.82813,-12.5625 -4.41064,-25.42383 -4.82471,-38.28711 -0.59082,-18.32031 2.25488,-24.125 2.25488,-24.125 0,0 1.68555,24.98828 2.22363,32.23633 0.94775,12.79297 2.93555,25.60742 6.47559,37.95313 1.44043,5.02539 3.10254,10.08008 5.46777,14.75781 0.38281,0.75781 0.78711,1.50391 1.23633,2.22266 0.51074,0.82031 1.14453,1.98047 2.05859,2.42773 1.2373,0.60547 2.64844,0.88867 3.99121,1.15625 1.62207,0.32031 3.26074,0.55664 4.90332,0.74805 7.03516,0.81836 14.27148,0.97266 21.30566,0.10352 2.84375,-0.35156 5.76758,-0.8457 8.42773,-1.95313 1.19434,-0.49805 2.51758,-1.15039 3.30176,-2.22656 0.74316,-1.01758 0.38184,-2.41016 0.009,-3.50195 -1.03809,-3.0332 -2.98535,-5.78906 -4.7666,-8.41797 -1.71582,-2.53711 -3.49707,-5.02734 -5.24902,-7.54102 -3.5957,-5.1543 -7.0791,-10.39453 -10.16113,-15.87695 -6.0752,-10.80469 -10.60156,-22.55664 -11.94629,-34.93164 -1.08496,-9.98633 1.83691,-15.61523 1.83691,-15.61523 0,0 0.0254,12.81641 5.35254,29.91406 3.80273,12.20508 10.52246,23.14063 17.78223,33.57617 3.11914,4.48438 6.46875,8.87891 9.13477,13.6582 1.42578,2.55664 2.92188,5.61719 2.33984,8.62695 -0.61035,3.16797 -3.5752,5.05078 -6.36328,6.16016 -3.04102,1.21094 -6.32422,1.78906 -9.56152,2.16992 -3.57813,0.41992 -7.18652,0.55664 -10.78711,0.52539 -3.45215,-0.0312 -6.90918,-0.2168 -10.34277,-0.58398 -2.77149,-0.29687 -5.55958,-0.6875 -8.25684,-1.40625" />
        </g>
      </g>
      <g
         id="head_4_">
        <path
           style="fill:#ffffff"
           inkscape:connector-curvature="0"
           id="path7782"
           d="m 397.35645,221.98486 c -5.56787,-10.47607 -8.73047,-22.48096 -8.73047,-35.24072 0,-40.82959 32.38525,-73.9292 72.33447,-73.9292 39.94922,0 72.33496,33.09961 72.33496,73.9292 0,25.66748 -12.79785,48.2793 -32.22852,61.5332 -1.37695,0.94141 -4.86328,0.54688 -6.30566,1.39063 0,0 -32.67383,20.95117 -65.88574,3.5 -23.95996,-12.58789 -31.51904,-31.18311 -31.51904,-31.18311 z" />
        <g
           id="eyes_4_">
          <g
             id="left_5_">
            <g
               id="g7786">
              <defs
                 id="defs7788">
                <path
                   inkscape:connector-curvature="0"
                   d="m 473.39502,215.9707 c -3.70898,15.57617 -16.30664,25.91602 -28.13965,23.09961 -11.83398,-2.81641 -18.41992,-17.72705 -14.71094,-33.30225 3.70801,-15.57471 16.30566,-25.91602 28.13867,-23.09961 11.83204,2.81788 18.41993,17.72706 14.71192,33.30225 z"
                   id="SVGID_9_" />
              </defs>
              <linearGradient
                 y2="228.79771"
                 x2="459.43283"
                 y1="186.43945"
                 x1="441.79932"
                 gradientUnits="userSpaceOnUse"
                 id="linearGradient9177">
                <stop
                   id="stop9179"
                   style="stop-color:#3d3d3d"
                   offset="0" />
                <stop
                   id="stop9181"
                   style="stop-color:#4a4a4a"
                   offset="0.50254" />
                <stop
                   id="stop9183"
                   style="stop-color:#9f9f9f"
                   offset="1" />
              </linearGradient>
              <use
                 height="100%"
                 width="100%"
                 y="0"
                 x="0"
                 style="overflow:visible;fill:url(#SVGID_10_-832)"
                 id="use7798"
                 overflow="visible"
                 xlink:href="#SVGID_9_" />
              <clipPath
                 id="clipPath9186">
                <use
                   height="100%"
                   width="100%"
                   y="0"
                   x="0"
                   style="overflow:visible"
                   id="use9188"
                   overflow="visible"
                   xlink:href="#SVGID_9_" />
              </clipPath>
              <polyline
                 style="fill:#b4b4b4"
                 id="polyline7803"
                 points="446.91943,215.73584 472.58154,226.21973 465.75342,237.30762             "
                 clip-path="url(#SVGID_11_)" />
              <polyline
                 style="fill:#d9d9d9"
                 id="polyline7805"
                 points="447.36865,215.56104 466.53076,236.88965 458.20166,241.7793             "
                 clip-path="url(#SVGID_11_)" />
            </g>
            <path
               inkscape:connector-curvature="0"
               id="path7807"
               d="m 465.26611,213.0498 c -1.58105,11.88281 -10.58105,20.48926 -20.10449,19.22363 -9.52148,-1.26563 -15.96094,-11.92627 -14.37891,-23.81006 1.57813,-11.88281 10.5791,-20.48975 20.10156,-19.22412 9.52344,1.26661 15.96094,11.92628 14.38184,23.81055 z" />
            <g
               id="g7809">
              <ellipse
                 style="fill:#ffffff"
                 id="ellipse7811"
                 ry="15.80987"
                 rx="9.8580999"
                 cy="198.90845"
                 cx="459.99658"
                 transform="matrix(0.78358,-0.62129,0.62129,0.78358,-24.02747,328.83978)" />
              <ellipse
                 style="fill:#ffffff"
                 id="ellipse7813"
                 ry="4.0090599"
                 rx="3.1619799"
                 cy="211.41455"
                 cx="446.05322"
                 transform="matrix(0.95402,0.29973,-0.29973,0.95402,83.87646,-123.97717)" />
              <path
                 style="fill:#ffffff"
                 inkscape:connector-curvature="0"
                 id="path7815"
                 d="m 457.79346,215.74707 c -0.13086,1.24023 -1.06934,2.15771 -2.09766,2.04883 -1.02734,-0.10938 -1.75,-1.2041 -1.62012,-2.44385 0.13477,-1.24219 1.07129,-2.15869 2.10059,-2.05078 1.02441,0.10986 1.74902,1.2041 1.61719,2.4458 z" />
            </g>
          </g>
          <g
             id="right_4_">
            <g
               id="g7818">
              <defs
                 id="defs7820">
                <path
                   inkscape:connector-curvature="0"
                   d="m 414.61963,195.11914 c -0.82227,15.38574 -6.8584,26.03906 -13.48193,23.79297 -6.62256,-2.24414 -11.32471,-16.53809 -10.50049,-31.92432 0.82227,-15.38721 6.85645,-26.03955 13.47949,-23.79395 6.62304,2.2456 11.32422,16.53907 10.50293,31.9253 z"
                   id="SVGID_12_" />
              </defs>
              <linearGradient
                 y2="211.06055"
                 x2="395.21448"
                 y1="168.12842"
                 x1="411.12256"
                 gradientUnits="userSpaceOnUse"
                 id="linearGradient9201">
                <stop
                   id="stop9203"
                   style="stop-color:#3d3d3d"
                   offset="0" />
                <stop
                   id="stop9205"
                   style="stop-color:#4a4a4a"
                   offset="0.50761" />
                <stop
                   id="stop9207"
                   style="stop-color:#9f9f9f"
                   offset="1" />
              </linearGradient>
              <use
                 height="100%"
                 width="100%"
                 y="0"
                 x="0"
                 style="overflow:visible;fill:url(#SVGID_13_-718)"
                 id="use7830"
                 overflow="visible"
                 xlink:href="#SVGID_12_" />
              <clipPath
                 id="clipPath9210">
                <use
                   height="100%"
                   width="100%"
                   y="0"
                   x="0"
                   style="overflow:visible"
                   id="use9212"
                   overflow="visible"
                   xlink:href="#SVGID_12_" />
              </clipPath>
              <polyline
                 style="fill:#b4b4b4"
                 id="polyline7835"
                 points="403.30029,193.86768 387.58252,193.49365 389.06494,203.53955             "
                 clip-path="url(#SVGID_14_)" />
              <polyline
                 style="fill:#d9d9d9"
                 id="polyline7837"
                 points="403.09619,193.604 388.73047,203.00049 392.21875,209.06494             "
                 clip-path="url(#SVGID_14_)" />
            </g>
            <path
               inkscape:connector-curvature="0"
               id="path7839"
               d="m 411.3667,191.50049 c 0.0684,12.73877 -3.67188,23.09229 -8.35791,23.12354 -4.68555,0.0317 -8.53857,-10.26807 -8.60693,-23.00635 -0.0674,-12.73828 3.67432,-23.0918 8.35986,-23.12305 4.6831,-0.0327 8.5376,10.26709 8.60498,23.00586 z" />
            <g
               id="g7841">
              <path
                 style="fill:#ffffff"
                 inkscape:connector-curvature="0"
                 id="path7843"
                 d="m 407.30322,174.91895 c 2.0459,6.97998 1.71582,15.11523 -0.73926,18.17041 -2.45703,3.05469 -6.10547,-0.12695 -8.15283,-7.10742 -2.04639,-6.98047 -1.71631,-15.11572 0.73877,-18.17041 2.45606,-3.05469 6.10547,0.12695 8.15332,7.10742 z" />
              <path
                 style="fill:#ffffff"
                 inkscape:connector-curvature="0"
                 id="path7845"
                 d="m 396.62988,194.11914 c -1.04102,1.5957 -2.55957,1.87988 -3.38721,0.63672 -0.82666,-1.24219 -0.64893,-3.54199 0.39307,-5.13818 1.04443,-1.59326 2.55859,-1.87988 3.38721,-0.63672 0.82666,1.24463 0.65137,3.54541 -0.39307,5.13818 z" />
              <path
                 style="fill:#ffffff"
                 inkscape:connector-curvature="0"
                 id="path7847"
                 d="m 400.25732,197.07617 c -0.521,0.98633 -1.45996,1.39453 -2.09766,0.91309 -0.63818,-0.48193 -0.73145,-1.67236 -0.21143,-2.65869 0.52344,-0.98535 1.45996,-1.39551 2.09912,-0.91211 0.63673,0.48095 0.73097,1.67187 0.20997,2.65771 z" />
            </g>
          </g>
        </g>
        <g
           id="g7849">
          <g
             id="g7851">
            <path
               style="fill:#c4c4c4"
               inkscape:connector-curvature="0"
               id="path7853"
               d="m 460.96045,111.23389 c -35.71191,0 -65.50586,25.89404 -72.38965,60.31396 2.5127,-8.17822 6.66455,-13.55176 11.09375,-13.32422 6.6377,0.3418 11.37598,13.12012 10.58203,28.54053 -0.79395,15.42139 -6.81738,27.64453 -13.45605,27.30322 -2.47852,-0.12744 -4.69238,-1.99023 -6.45215,-5.07617 1.44727,4.80566 3.34326,9.41113 5.65234,13.75488 0,0 7.72168,18.99609 32.19531,31.85352 33.92676,17.82813 67.30078,-3.57422 67.30078,-3.57422 1.47363,-0.86328 5.03418,-0.45898 6.44238,-1.41992 19.84668,-13.54004 32.91895,-36.63672 32.91895,-62.85498 0,-41.70703 -33.08105,-75.5166 -73.88769,-75.5166 z m 24.48437,120.04834 c -11.08887,14.40137 -30.80469,17.81543 -44.03809,7.62793 -13.23438,-10.18945 -14.97559,-30.12354 -3.8877,-44.52441 11.08789,-14.40137 30.80176,-17.81641 44.03809,-7.62695 13.23145,10.18798 14.97462,30.12255 3.8877,44.52343 z" />
          </g>
        </g>
        <path
           inkscape:connector-curvature="0"
           id="path7855"
           d="m 411.39697,185.03906 c -0.50488,9.80469 -3.14746,18.32764 -6.69629,23.13867 7.16895,-15.47656 5.75586,-48.45264 -4.40283,-48.64404 -7.97363,-0.15039 -9.91211,12.48242 -10.38623,15.32129 0,0 -0.85205,-0.16113 -0.8252,-0.41943 1.11377,-10.62402 4.18555,-17.59619 11.35498,-17.729 6.646,-0.12305 11.74952,12.9121 10.95557,28.33251 z" />
        <g
           id="g7857">
          <path
             inkscape:connector-curvature="0"
             id="path7859"
             d="m 493.87939,208.49219 c 0.0127,0.72217 -1.2002,1.77002 -1.41309,0.0361 -2.19238,-17.78906 -13.53711,-26.23438 -29.49316,-26.09082 -15.86914,0.14355 -30.78223,16.51953 -32.71191,31.21191 -0.0117,-7.16943 2.52441,-15.41553 7.32617,-21.65186 11.125,-14.4502 31.24316,-17.47559 45.08984,-6.95654 7.99219,6.06934 11.02442,14.21338 11.20215,23.45118 z" />
          <path
             inkscape:connector-curvature="0"
             id="path7861"
             d="m 484.104,187.97217 c 2.44336,-0.45557 6.82813,-3.4502 7.90625,-8.55322 0,0 1.24609,7.33105 -5.60645,10.68506" />
          <path
             inkscape:connector-curvature="0"
             id="path7863"
             d="m 493.1665,206.13184 c 1.63379,1.87549 6.23535,4.2583 11.74707,2.67969 0,0 -5.67969,4.7998 -12.05176,0.604" />
          <path
             inkscape:connector-curvature="0"
             id="path7865"
             d="m 490.04248,196.85156 c 2.86133,0.27734 8.68848,-1.64551 11.51855,-6.9668 0,0 -0.96191,8.54004 -9.64551,10.0708" />
        </g>
        <path
           style="fill:none;stroke:#909090;stroke-width:4.0250001"
           inkscape:connector-curvature="0"
           id="path7867"
           d="m 395.99072,222.74609 c -5.68799,-10.7002 -8.91797,-22.9624 -8.91797,-35.99561 0,-41.70703 33.08105,-75.5166 73.8877,-75.5166 40.80665,0 73.8877,33.80957 73.8877,75.5166 0,28.07813 -16.02441,52.97021 -38.27344,65.98193" />
        <g
           id="g7869">
          <defs
             id="defs7871">
            <path
               inkscape:connector-curvature="0"
               d="m 380.17285,156.4668 c -4.02295,8.35596 -4.21582,8.625 -1.53174,16.6748 2.49072,6.51709 10.53174,9.37402 10.70459,7.29199 0.76367,-9.17871 3.17627,-17.87354 6.93262,-25.7749 3.52539,-7.41553 -12.40625,-5.87256 -16.10547,1.80811 z"
               id="SVGID_15_" />
          </defs>
          <clipPath
             id="clipPath9234">
            <use
               height="100%"
               width="100%"
               y="0"
               x="0"
               style="overflow:visible"
               id="use9236"
               overflow="visible"
               xlink:href="#SVGID_15_" />
          </clipPath>
          <path
             inkscape:connector-curvature="0"
             id="path7877"
             d="m 394.35693,159.53369 c -1.91602,-0.76709 -4.50342,-3.4502 -4.21582,-8.3374 0,0 -3.35596,7.1875 3.25684,10.73291"
             clip-path="url(#SVGID_16_)" />
          <path
             inkscape:connector-curvature="0"
             id="path7879"
             d="m 393.01611,166.0708 c -5.03809,-0.38867 -9.01172,-2.23926 -11.21289,-7.0166 0,0 -0.19287,7.76221 10.6377,10.44629"
             clip-path="url(#SVGID_16_)" />
          <path
             inkscape:connector-curvature="0"
             id="path7881"
             d="m 390.90674,173.04639 c -3.25879,0.83838 -6.9248,1.02979 -9.87158,-2.49219 0,0 0.79053,6.34912 9.48779,5.4624"
             clip-path="url(#SVGID_16_)" />
        </g>
      </g>
      <g
         id="snout_4_">
        <path
           style="fill:#c4c4c4"
           inkscape:connector-curvature="0"
           id="path7884"
           d="m 464.96924,261.56836 c -55.85352,5.49023 -85.94531,-32.26758 -78.61523,-45.20557 2.91895,-5.15039 9.67383,1.81006 18.51465,-5.73682 l 13.44531,29.40918" />
        <path
           style="fill:#909090"
           inkscape:connector-curvature="0"
           id="path7886"
           d="m 395.5542,224.34082 c 0,0 4.09668,1.50879 5.89355,-2.51563 0,1e-5 -0.28759,8.55372 -5.89355,2.51563 z" />
        <path
           style="fill:#909090"
           inkscape:connector-curvature="0"
           id="path7888"
           d="m 392.6792,235.55273 c 4.52783,-0.61035 11.24805,-0.0713 15.09375,7.18945 0,0 -6.46777,-5.67969 -13.31934,-4.57617" />
        <g
           id="g7890">
          <path
             style="display:none;fill:none;stroke:#909090;stroke-width:4.0250001"
             inkscape:connector-curvature="0"
             id="path7892"
             d="m 404.61084,210.3252 c -8.84131,7.54688 -15.38184,0.8623 -18.25684,6.0376 -6.54297,11.77783 18.54395,49.44971 78.63086,45.42432"
             display="none" />
          <path
             style="fill:#909090"
             inkscape:connector-curvature="0"
             id="path7894"
             d="m 387.979,234.14453 c -1.82959,-2.86719 -3.36133,-5.99121 -4.14307,-9.31641 -0.70068,-2.97803 -0.82422,-6.29785 0.57861,-9.10107 0.6626,-1.32275 1.69482,-2.46826 3.0918,-3.02783 1.61279,-0.66016 3.4126,-0.54102 5.10059,-0.28955 8.69727,1.29346 12.26172,-1.78369 12.26172,-1.78369 0,0 -4.09912,5.93896 -10.94287,5.44922 -1.45898,-0.10449 -3.24121,-0.25146 -4.56641,0.24023 -1.18164,0.43799 -1.67773,1.76123 -1.87354,2.86182 -0.48926,2.74023 0.35059,5.64404 1.40869,8.15088 1.22412,2.9043 2.95361,5.58496 4.91406,8.04297 3.7207,4.66211 10.80225,10.89258 21.68896,16.41211 7.14648,3.62305 15.85059,6.33789 24.84863,7.86133 13.89355,2.54883 24.62305,1.92383 24.62305,1.92383 0,0 -10.45117,2.41797 -24.89941,0.89063 -7.96289,-0.8418 -17.15332,-3.08594 -26.44824,-7.10938 -4.79102,-2.07422 -9.22266,-4.91602 -13.35303,-8.11328 -4.74266,-3.66993 -9.04491,-8.02931 -12.28954,-13.09181" />
        </g>
      </g>
      <g
         id="mane_up_3_">
        <path
           style="fill:#818181"
           inkscape:connector-curvature="0"
           id="path7897"
           d="m 540.01416,140.60596 c -3.16309,-20.125 -13.79102,-42.11816 -33.35059,-56.92529 0,0 2.88379,9.77588 1.73438,19.69434 0,0 -23.19824,-17.68164 -50.03418,-17.68164 -38.2373,0 -64.96582,37.23193 -74.45361,17.10693 -5.57031,-11.81641 6.3252,-18.6875 10.34131,-17.96924 -5.02246,-8.33691 -34.34766,-4.31201 -30.4751,28.75 4.30322,36.73877 50.88818,46 90.8501,25.2998 0,0 -11.5,11.7876 -17.53711,31.3374 0,0 41.68652,-26.1626 89.12402,-13.51221" />
        <path
           style="fill:none;stroke:#595959;stroke-width:1.72500002;stroke-miterlimit:8"
           inkscape:connector-curvature="0"
           id="path7899"
           d="m 537.42627,144.34326 c -6.3252,-15.8125 -26.45215,-38.34619 -56.34961,-39.1001 -34.21289,-0.8623 -67.15527,21.67822 -94.39453,20.60449 -19.45605,-0.7666 -23.18457,-13.41602 -23.18457,-13.41602"
           stroke-miterlimit="8" />
        <path
           style="fill:none;stroke:#595959;stroke-width:4.0250001;stroke-miterlimit:8"
           inkscape:connector-curvature="0"
           id="path7901"
           d="m 540.01416,140.60596 c -3.16309,-20.125 -13.07227,-41.83057 -33.35059,-56.92529 0,0 2.59668,9.77588 1.73438,19.69434 0,0 -23.19824,-17.68164 -50.03418,-17.68164 -38.2373,0 -62.52246,34.35693 -73.30371,19.55078 -5.68799,-7.8125 -1.72461,-19.55029 9.19141,-20.41309 -9.62256,-10.78076 -34.01074,0.33545 -30.4751,28.75 4.56934,36.70654 50.88818,46 90.8501,25.2998 0,0 -11.5,11.7876 -17.53711,31.3374 0,0 41.68652,-26.1626 89.12402,-13.51221"
           stroke-miterlimit="8" />
      </g>
      <g
         id="ear_4_">
        <path
           style="fill:#c4c4c4"
           inkscape:connector-curvature="0"
           id="path7904"
           d="m 518.94775,157.52783 c 8.52832,-17.87305 23.23145,-28.13379 30.84961,-27.70264 6.72266,0.37988 23.86328,55.2002 -18.89355,72.78906" />
        <path
           style="fill:#909090"
           inkscape:connector-curvature="0"
           id="path7906"
           d="m 552.2417,151.1001 c 0,0 -0.28809,21.41895 -20.26855,28.31885 -1e-5,0 15.09374,-8.76856 20.26855,-28.31885 z" />
        <g
           id="g7908">
          <path
             style="display:none;fill:none;stroke:#909090;stroke-width:4.0250001"
             inkscape:connector-curvature="0"
             id="path7910"
             d="m 519.13135,157.6167 c 8.5293,-17.87256 23.04785,-28.22266 30.66602,-27.7915 6.72266,0.37988 24.34082,52.8999 -18.78418,73.0249"
             display="none" />
          <path
             style="fill:#909090"
             inkscape:connector-curvature="0"
             id="path7912"
             d="m 530.90381,202.61426 c 0,0 10.77246,-1.05762 19.92969,-12.58984 8.07422,-10.17041 11.04395,-23.41309 10.11133,-36.21582 -0.46289,-6.36182 -1.78516,-12.83447 -4.39746,-18.67871 -0.61328,-1.37012 -1.30762,-2.7124 -2.1543,-3.95459 -0.82422,-1.21045 -1.85254,-2.46387 -3.23242,-3.05664 -1.23047,-0.53027 -2.7334,-0.33496 -4.02051,-0.10986 -1.33105,0.23242 -2.62988,0.6377 -3.88086,1.146 -5.80371,2.35645 -10.89355,6.59814 -15.01074,11.24316 -7.7041,8.68994 -9.30078,17.12988 -9.30078,17.12988 0,0 9.28711,-16.84961 24.76758,-24.16797 1.11621,-0.52783 2.2793,-0.979 3.4834,-1.2666 0.61328,-0.14746 2.05273,-0.57471 2.59473,-0.13477 0.90918,0.73926 1.54102,1.82275 2.09961,2.83398 0.53027,0.95508 0.98828,1.95068 1.40137,2.96094 2.34766,5.74316 3.49805,12.04443 3.74707,18.22559 0.26953,6.71436 -0.56836,13.52393 -2.89355,19.84668 -6.93752,18.87841 -23.24416,26.78857 -23.24416,26.78857 z" />
        </g>
      </g>
    </g>
  </g>
</svg>
