<?xml version="1.0" encoding="UTF-8" standalone="no"?>
<!-- Created with Inkscape (http://www.inkscape.org/) -->

<svg
   xmlns:dc="http://purl.org/dc/elements/1.1/"
   xmlns:cc="http://creativecommons.org/ns#"
   xmlns:rdf="http://www.w3.org/1999/02/22-rdf-syntax-ns#"
   xmlns:svg="http://www.w3.org/2000/svg"
   xmlns="http://www.w3.org/2000/svg"
   xmlns:xlink="http://www.w3.org/1999/xlink"
   xmlns:sodipodi="http://sodipodi.sourceforge.net/DTD/sodipodi-0.dtd"
   xmlns:inkscape="http://www.inkscape.org/namespaces/inkscape"
   width="117.0767mm"
   height="94.811447mm"
   viewBox="0 0 414.83869 335.94607"
   id="svg8362"
   version="1.1"
   inkscape:version="0.91 r13725"
   sodipodi:docname="cmc3.svg">
  <sodipodi:namedview
     id="base"
     pagecolor="#ffffff"
     bordercolor="#666666"
     borderopacity="1.0"
     inkscape:pageopacity="0.0"
     inkscape:pageshadow="2"
     inkscape:zoom="0.35"
     inkscape:cx="-26.152081"
     inkscape:cy="22.258754"
     inkscape:document-units="mm"
     inkscape:current-layer="layer1"
     showgrid="false"
     fit-margin-left="1"
     fit-margin-top="1"
     fit-margin-bottom="1"
     fit-margin-right="1"
     inkscape:window-width="994"
     inkscape:window-height="862"
     inkscape:window-x="4"
     inkscape:window-y="28"
     inkscape:window-maximized="0" />
  <defs
     id="defs8364">
    <linearGradient
       y2="172.30585"
       x2="305.35611"
       y1="118.6001"
       x1="291.99512"
       gradientUnits="userSpaceOnUse"
       id="SVGID_2_">
      <stop
         id="stop7558"
         style="stop-color:#71A66C"
         offset="0" />
      <stop
         id="stop7560"
         style="stop-color:#B2D89E"
         offset="1" />
    </linearGradient>
    <clipPath
       id="SVGID_3_">
      <use
         height="100%"
         width="100%"
         y="0"
         x="0"
         style="overflow:visible"
         id="use7565"
         overflow="visible"
         xlink:href="#SVGID_1_" />
    </clipPath>
    <clipPath
       id="clipPath8186">
      <use
         height="100%"
         width="100%"
         y="0"
         x="0"
         style="overflow:visible"
         id="use8188"
         overflow="visible"
         xlink:href="#SVGID_1_" />
    </clipPath>
    <linearGradient
       y2="144.22516"
       x2="241.34508"
       y1="109.43799"
       x1="256.29492"
       gradientUnits="userSpaceOnUse"
       id="SVGID_5_">
      <stop
         id="stop7588"
         style="stop-color:#71A66C"
         offset="0" />
      <stop
         id="stop7590"
         style="stop-color:#B2D89E"
         offset="1" />
    </linearGradient>
    <clipPath
       id="SVGID_6_">
      <use
         height="100%"
         width="100%"
         y="0"
         x="0"
         style="overflow:visible"
         id="use7595"
         overflow="visible"
         xlink:href="#SVGID_4_" />
    </clipPath>
    <clipPath
       id="clipPath8201">
      <use
         height="100%"
         width="100%"
         y="0"
         x="0"
         style="overflow:visible"
         id="use8203"
         overflow="visible"
         xlink:href="#SVGID_4_" />
    </clipPath>
    <clipPath
       id="SVGID_8_">
      <use
         height="100%"
         width="100%"
         y="0"
         x="0"
         style="overflow:visible"
         id="use7637"
         overflow="visible"
         xlink:href="#SVGID_7_" />
    </clipPath>
    <clipPath
       id="clipPath8207">
      <use
         height="100%"
         width="100%"
         y="0"
         x="0"
         style="overflow:visible"
         id="use8209"
         overflow="visible"
         xlink:href="#SVGID_7_" />
    </clipPath>
    <clipPath
       id="clipPath8211">
      <use
         height="100%"
         width="100%"
         y="0"
         x="0"
         style="overflow:visible"
         id="use8213"
         overflow="visible"
         xlink:href="#SVGID_7_" />
    </clipPath>
    <linearGradient
       y2="172.30585"
       x2="305.35611"
       y1="118.6001"
       x1="291.99512"
       gradientUnits="userSpaceOnUse"
       id="SVGID_2_-301">
      <stop
         id="stop10341"
         style="stop-color:#909090"
         offset="0" />
      <stop
         id="stop10343"
         style="stop-color:#c6c6c6"
         offset="1" />
    </linearGradient>
    <linearGradient
       y2="144.22516"
       x2="241.34508"
       y1="109.43799"
       x1="256.29492"
       gradientUnits="userSpaceOnUse"
       id="SVGID_5_-457">
      <stop
         id="stop10346"
         style="stop-color:#909090"
         offset="0" />
      <stop
         id="stop10348"
         style="stop-color:#c6c6c6"
         offset="1" />
    </linearGradient>
  </defs>
  <metadata
     id="metadata8367">
    <rdf:RDF>
      <cc:Work
         rdf:about="">
        <dc:format>image/svg+xml</dc:format>
        <dc:type
           rdf:resource="http://purl.org/dc/dcmitype/StillImage" />
        <dc:title></dc:title>
      </cc:Work>
    </rdf:RDF>
  </metadata>
  <g
     transform="translate(-112.58065,-218.67487)"
     id="layer1"
     inkscape:groupmode="layer"
     inkscape:label="Layer 1">
    <g
       transform="translate(116.05928,222.21791)"
       id="Sweetie_Belle">
      <g
         id="tail">
        <path
           style="fill:#cecece"
           inkscape:connector-curvature="0"
           id="path7462"
           d="M 175.12891,236.52539 C 164.20411,148.16699 0.13819,122.09863 42.30469,263.16602 c -19.8374,-23.0957 -58.85889,9.4707 -30.2832,44.08203 27.2168,32.96875 80.02051,7.85938 75.90039,-20.69922 14.18262,13.99219 32.19385,6.16406 36.4165,-5.36719 4.71924,-12.89063 -1.04248,-33.12695 -24.9165,-26.44922 10.58887,-25.73047 38.18896,-33.9248 66.79492,-13.51172" />
        <path
           style="fill:#9e9e9e"
           inkscape:connector-curvature="0"
           id="path7464"
           d="m 36.55469,291.72266 c 10.3501,0.95898 20.69922,-5.23828 14.375,-41.01367 -10.0625,-56.92627 22.08008,-68.82178 41.3999,-70.15137 56.86279,-3.9126 75.88818,58.18457 75.88818,58.18457 l 6.91113,-2.2168 C 164.2041,148.16699 0.13818,122.09863 42.30468,263.16602 c 6.89991,7.47461 10.73341,24.34179 -5.74999,28.55664 z" />
        <g
           id="g7466">
          <path
             style="display:none;fill:none;stroke:#696969;stroke-width:4.0250001"
             inkscape:connector-curvature="0"
             id="path7468"
             d="m 40.771,260.48242 c 20.125,26.25977 -6.68945,38.76367 -15.5249,26.25977 -5.65381,-8.00391 4.98291,-12.46094 8.24219,-6.51758"
             display="none" />
          <path
             style="fill:#696969"
             inkscape:connector-curvature="0"
             id="path7470"
             d="m 23.60205,287.90234 c -1.28711,-1.82227 -2.20361,-4.0332 -1.9585,-6.30273 0.22559,-2.08789 1.42383,-3.97656 3.23877,-5.00977 3.71826,-2.11719 8.65381,0.66406 9.09424,3.36523 -2.05762,-2.36719 -7.95166,-2.90625 -9.06543,1.6582 -0.30518,1.25195 0.39502,3.3418 2.2998,5.31836 2.7334,2.83789 8.20898,3.02148 10.96826,2.18164 2.76709,-0.83984 5.16357,-2.73047 6.53613,-5.28711 1.25439,-2.33789 1.56201,-5.0625 1.24463,-7.66992 -0.29688,-2.44727 -1.08643,-4.82031 -2.15674,-7.03125 -1.67822,-3.46875 -4.49316,-6.19922 -5.37988,-7.02539 0,0 0.7124,-0.36328 0.86377,-0.47852 1.02686,-0.78906 2.22412,-4.20508 3.25098,-4.99414 1.47998,5.52344 3.64941,8.02344 5.03906,11.02344 1.18213,2.54688 2.03809,5.23047 2.37598,8.01758 0.69189,5.70898 -1.24707,11.51758 -5.97998,14.99023 -2.63184,1.92969 -5.86475,2.97461 -9.12744,2.97461 -4.42773,1e-5 -8.68164,-2.09374 -11.24365,-5.73046" />
        </g>
        <g
           id="g7472">
          <path
             style="display:none;fill:none;stroke:#696969;stroke-width:4.0250001"
             inkscape:connector-curvature="0"
             id="path7474"
             d="m 99.46924,254.58789 c -9.39209,23.38477 7.0918,27.3125 11.06885,17.39453"
             display="none" />
          <path
             style="fill:#696969"
             inkscape:connector-curvature="0"
             id="path7476"
             d="m 97.27393,275.9082 c -2.32373,-2.86523 -2.85156,-6.76563 -2.61914,-10.3418 0.2627,-4.03711 1.44678,-7.98828 2.94678,-11.72656 1.2334,0.49414 10.10938,1.57422 10.10938,1.57422 -5.78613,0.28906 -8.30322,5.18555 -9.16406,8.375 -0.67969,2.51758 -0.86963,5.96875 0.17969,8.4082 0.98779,2.29688 3.32959,4.32227 6.57666,3.70117 2.44385,-0.4668 4.3125,-2.08398 5.08496,-3.97656 0.88037,2.68359 -2.70801,7.16602 -6.66016,7.16602 -2.51124,0 -4.88966,-1.23633 -6.45411,-3.17969" />
        </g>
        <path
           style="fill:none;stroke:#696969;stroke-width:4.0250001"
           inkscape:connector-curvature="0"
           id="path7478"
           d="M 175.12891,236.52539 C 164.20411,148.16699 0.13819,122.09863 42.30469,263.16602 c -19.8374,-23.0957 -58.61035,10.28516 -30.2832,44.08203 27.7915,33.1582 80.02051,7.85938 75.90039,-20.69922 14.18262,13.99219 32.19385,6.16406 36.4165,-5.36719 4.71924,-12.89063 -1.04248,-33.12695 -24.9165,-26.44922 8.43262,-23.14355 36.79932,-36.22461 66.79492,-13.51172" />
      </g>
      <g
         id="back_left_leg">
        <path
           style="fill:#e0e0e0"
           inkscape:connector-curvature="0"
           id="path7481"
           d="m 242.979,261.63281 c 23.2876,0.28711 37.61084,26.27148 35.26709,34.30859 -2.0127,6.90039 -29.3252,12.36328 -38.5249,5.75 -15.3623,-11.04102 -37.97705,-12.00586 -44.08301,-19.35938 -4.69678,-5.65234 -2.39648,-15.8125 4.50342,-19.55078" />
        <path
           style="fill:none;stroke:#cbcbcb;stroke-width:4.0250001"
           inkscape:connector-curvature="0"
           id="path7483"
           d="m 199.2793,262.97461 c -5.75,4.79102 -8.05029,14.95117 -3.2583,19.74219 6.75732,6.75781 28.33789,7.93359 43.7002,18.97461 9.19971,6.61328 36.51221,1.15039 38.5249,-5.75 2.34375,-8.03711 -11.97949,-34.02148 -35.26709,-34.30859" />
      </g>
      <g
         id="front_left_leg">
        <path
           style="fill:#e0e0e0"
           inkscape:connector-curvature="0"
           id="path7486"
           d="m 269.23828,222.91699 c -3.4502,48.2998 9.7749,86.44043 15.8125,91.04004 4.39307,3.34766 38.72021,5.30859 45.13721,-2.58789 6.65967,-8.19336 -36.41699,-38.8125 -32.00879,-86.91797" />
        <path
           style="fill:none;stroke:#cbcbcb;stroke-width:4.0250001"
           inkscape:connector-curvature="0"
           id="path7488"
           d="m 269.23828,222.91699 c -3.4502,48.2998 9.7749,86.44043 15.8125,91.04004 4.39307,3.34766 38.78223,5.35742 45.13721,-2.58789 6.51709,-8.14453 -36.41699,-38.8125 -32.00879,-86.91797" />
      </g>
      <g
         id="mane_side_2">
        <path
           style="fill:#9e9e9e"
           inkscape:connector-curvature="0"
           id="path7491"
           d="m 389.8916,110.98291 c 6.6123,35.07471 -10.1582,87.6875 -74.1748,98.6123" />
        <path
           style="fill:#cecece"
           inkscape:connector-curvature="0"
           id="path7493"
           d="m 389.8916,110.98291 c 2.51123,13.31934 1.65088,29.1665 -3.88818,44.29932 -3.29932,4.43164 -8.76855,7.26953 -13.29004,8.09717 -5.10303,0.93457 17.17822,-12.72168 2.6123,-28.1499" />
        <g
           id="g7495">
          <path
             style="display:none;fill:none;stroke:#696969;stroke-width:4.0250001"
             inkscape:connector-curvature="0"
             id="path7497"
             d="m 375.03809,135.32373 c 8.67236,9.00879 8.05029,26.64209 -9.96582,27.79199 -18.01709,1.1499 -13.60889,18.40088 -0.19336,18.20801"
             display="none" />
          <path
             style="fill:#696969"
             inkscape:connector-curvature="0"
             id="path7499"
             d="m 364.87891,181.38184 c 0,0 -5.75,-1.03955 -8.55273,-4.77734 -1.70068,-2.26611 -1.96777,-5.39404 -0.16211,-7.81201 1.53418,-2.05713 4.19385,-2.9668 6.625,-3.38916 1.63867,-0.28516 3.30518,-0.29541 4.94727,-0.55469 1.47559,-0.23389 2.93311,-0.59961 4.33252,-1.12744 5.54785,-2.09131 9.4707,-6.82617 10.25342,-12.74658 0.81396,-6.16357 -1.56787,-12.59619 -5.83545,-17.0459 -0.96582,0.93018 -1.9248,1.87109 -2.89941,2.79199 1.50146,1.55225 2.68848,3.40039 3.52148,5.39063 2.2373,5.34326 1.84863,12.1377 -2.99365,15.9292 -2.11279,1.65527 -4.73145,2.51123 -7.36279,2.88184 -1.65771,0.23486 -3.33105,0.26367 -4.98193,0.5752 -1.42383,0.26807 -2.82568,0.67139 -4.14844,1.2666 -2.56494,1.15234 -4.81006,3.07959 -5.86572,5.73877 -0.93994,2.36963 -0.78271,5.02686 0.22998,7.34717 3.18943,7.2949 12.89256,5.53172 12.89256,5.53172 z" />
        </g>
        <path
           style="fill:none;stroke:#696969;stroke-width:4.0250001"
           inkscape:connector-curvature="0"
           id="path7501"
           d="m 389.8916,110.98291 c 6.6123,35.07471 -10.1582,87.6875 -74.1748,98.6123" />
      </g>
      <g
         id="body">
        <path
           style="fill:#eeeeee"
           inkscape:connector-curvature="0"
           id="path7504"
           d="m 265.4043,176.91699 c -26.64111,40.63379 -67.34619,24.81689 -89.7002,41.01563 -26.44922,19.16895 -12.07031,72.13965 46,59.7998 46,-9.77539 104.00293,-60.9248 127.00293,-98.2998" />
        <path
           style="fill:none;stroke:#cbcbcb;stroke-width:4.0250001"
           inkscape:connector-curvature="0"
           id="path7506"
           d="m 265.4043,176.91699 c -26.64111,40.63379 -67.34619,24.81689 -89.7002,41.01563 -26.44922,19.16895 -12.07031,72.13965 46,59.7998 46,-9.77539 103.98535,-60.94971 126.98535,-98.32471" />
      </g>
      <g
         id="back_right_leg">
        <path
           style="fill:#eeeeee"
           inkscape:connector-curvature="0"
           id="path7509"
           d="m 191.4209,246.29883 c 32.15186,13.0332 19.93311,33.83008 19.93311,33.83008 23.2876,0.28711 38.56982,26.94141 36.2251,34.97852 -2.0127,6.90039 -29.3252,12.36133 -38.5249,5.75 -15.36133,-11.04297 -37.97705,-12.00586 -44.08301,-19.35742 -4.69531,-5.65625 -2.39551,-15.8125 4.50439,-19.54883 0,0 -32.67969,-29.51758 6.22852,-64.01855" />
        <g
           id="g7511">
          <path
             style="display:none;fill:none;stroke:#cbcbcb;stroke-width:4.0250001"
             inkscape:connector-curvature="0"
             id="path7513"
             d="m 175.7041,217.93262 c -25.29932,17.63184 -25.58691,57.49902 4.2168,70.91504"
             display="none" />
          <path
             style="fill:#cbcbcb"
             inkscape:connector-curvature="0"
             id="path7515"
             d="m 155.10986,253.48633 c 0,-11.54297 4.56396,-22.90625 12.51953,-31.26367 2.1001,-2.20801 4.4248,-4.2002 6.92334,-5.94092 0.0732,0.0181 0.2168,0.31006 0.25732,0.36865 0.24512,0.3501 0.48877,0.70068 0.73242,1.04883 0.42529,0.61084 0.88721,1.25781 1.31152,1.86865 0.0337,0.0474 -2.75146,2.10693 -3.05811,2.36523 -1.14648,0.96729 -2.24023,2.00049 -3.2749,3.08838 -2.01904,2.125 -3.80811,4.4668 -5.33203,6.97168 -5.73096,9.4248 -7.61523,21.13184 -4.66846,31.80176 1.39014,5.0332 3.65234,9.69727 7.03809,14.32227 4.98291,6.80273 12.33545,10.78906 12.33545,10.78906 0,0 -9.26855,-1.30273 -16.24707,-10.20508 -2.70215,-3.44922 -4.86719,-7.33594 -6.31494,-11.58203 -1.49462,-4.37891 -2.23143,-9.00976 -2.22216,-13.63281" />
        </g>
        <path
           style="fill:none;stroke:#cbcbcb;stroke-width:4.0250001"
           inkscape:connector-curvature="0"
           id="path7517"
           d="m 168.61328,282.14063 c -5.75,4.79102 -8.05029,14.95117 -3.25928,19.74219 6.75879,6.75781 28.33887,7.93164 43.7002,18.97461 9.19971,6.61133 36.51221,1.15039 38.5249,-5.75 2.34473,-8.03711 -13.32031,-34.4043 -36.60791,-34.69141" />
        <g
           id="g7519">
          <path
             style="display:none;fill:none;stroke:#cbcbcb;stroke-width:4.0250001"
             inkscape:connector-curvature="0"
             id="path7521"
             d="m 191.4209,246.29883 c 22.61719,8.81836 29.51709,27.59961 15.71729,40.25"
             display="none" />
          <path
             style="fill:#cbcbcb"
             inkscape:connector-curvature="0"
             id="path7523"
             d="m 205.604,287.0293 c 0,0 11.04639,-6.36523 10.20654,-16.91602 -0.49902,-6.27734 -3.0708,-11.45703 -7.52686,-15.61719 -7.06396,-6.5918 -16.86279,-8.19727 -16.85693,-8.19336 -0.006,-0.004 9.79297,5.19531 14.32129,10.6582 2.88281,3.47656 5.49365,7.56836 6.22949,12.05664 1.6045,9.79298 -6.37353,18.01173 -6.37353,18.01173 z" />
        </g>
      </g>
      <g
         id="front_right_leg">
        <path
           style="fill:#eeeeee"
           inkscape:connector-curvature="0"
           id="path7526"
           d="m 244.7041,232.69141 c -3.4502,48.30078 9.7749,86.44141 15.8125,91.04102 4.39355,3.3457 39.05518,5.56641 45.1377,-2.58789 6.75586,-9.05664 -36.41602,-38.8125 -32.0083,-86.91797" />
        <g
           id="g7528">
          <path
             style="display:none;fill:none;stroke:#cbcbcb;stroke-width:4.0250001"
             inkscape:connector-curvature="0"
             id="path7530"
             d="m 244.7041,232.69141 c -3.4502,48.30078 9.7749,86.44141 15.8125,91.04102 4.39355,3.3457 39.41895,5.82617 45.1377,-2.58789 6.70898,-9.86914 -36.41602,-38.8125 -32.0083,-86.91797"
             display="none" />
          <path
             style="fill:#cbcbcb"
             inkscape:connector-curvature="0"
             id="path7532"
             d="m 262.94238,326.86523 c -1.42871,-0.40039 -2.8999,-0.8457 -4.0293,-1.85352 -1.15381,-1.02344 -2.01953,-2.36523 -2.79004,-3.68945 -1.53076,-2.63086 -2.72314,-5.46094 -3.79785,-8.30469 -2.19922,-5.82422 -3.85791,-11.85156 -5.22461,-17.91992 -2.82764,-12.5625 -4.41016,-25.42383 -4.82471,-38.28711 -0.59033,-18.32227 2.25537,-24.125 2.25537,-24.125 0,0 1.68555,24.98633 2.22363,32.23438 0.94775,12.79492 2.93555,25.60742 6.47559,37.95313 1.44043,5.02734 3.10156,10.08008 5.46777,14.75781 0.3833,0.75781 0.7876,1.50391 1.23535,2.22266 0.51123,0.82227 1.14453,1.98047 2.05859,2.42773 1.23779,0.60547 2.64941,0.88867 3.99268,1.15625 1.62158,0.32227 3.26025,0.55664 4.90186,0.74805 7.03467,0.81836 14.27197,0.97266 21.30762,0.10352 2.84375,-0.34961 5.76709,-0.84375 8.42627,-1.95117 1.1958,-0.5 2.51807,-1.15234 3.30176,-2.22852 0.74365,-1.01758 0.38184,-2.41016 0.009,-3.50195 -1.0376,-3.03125 -2.98486,-5.78711 -4.76611,-8.41797 -1.71582,-2.53516 -3.49707,-5.02734 -5.24902,-7.54102 -3.59473,-5.1543 -7.07959,-10.39453 -10.16113,-15.87695 -6.07471,-10.80469 -10.60059,-22.55469 -11.94629,-34.92969 -1.08594,-9.98633 1.8374,-15.61523 1.83643,-15.61523 9.8e-4,0 0.0249,12.81641 5.35254,29.91211 3.80273,12.20508 10.52295,23.14258 17.78223,33.57617 3.11963,4.48438 6.46875,8.87891 9.13477,13.66016 1.42725,2.55469 2.92236,5.61719 2.3418,8.62695 -0.6123,3.16602 -3.57715,5.04883 -6.36426,6.1582 -3.0415,1.21094 -6.3252,1.79102 -9.56201,2.16992 -3.57666,0.41992 -7.1875,0.55664 -10.78662,0.52539 -3.45361,-0.0312 -6.91016,-0.21484 -10.34424,-0.58398 -2.77199,-0.29688 -5.5591,-0.68751 -8.25686,-1.40626" />
        </g>
      </g>
      <g
         id="mane_side_1_1_">
        <path
           style="fill:#cecece"
           inkscape:connector-curvature="0"
           id="path7535"
           d="m 280.354,120.75781 c -36.2251,-6.3252 -71.01221,11.7876 -64.9751,62.9624 -18.3999,3.59375 -20.01367,35.24561 4.3125,42.26221 14.9502,4.3125 31.07715,-2.72852 35.9375,-12.93701 8.625,-18.11279 -5.48682,-33.03809 3.4502,-44.8501" />
        <path
           style="fill:#9e9e9e"
           inkscape:connector-curvature="0"
           id="path7537"
           d="m 219.1167,147.97363 c -4.8877,8.9126 -4.95264,25.43457 -3.73779,35.74658 -18.3999,3.59375 -21.5625,37.9502 9.34375,43.4126 9.1665,1.61914 16.05957,-1.88672 25.0127,-7.1875 -2.0127,-36.51269 -25.73145,-43.70019 -30.61866,-71.97168 z" />
        <g
           id="g7539">
          <path
             style="display:none;fill:none;stroke:#696969;stroke-width:4.0250001"
             inkscape:connector-curvature="0"
             id="path7541"
             d="m 215.37891,183.72021 c 18.9751,-3.1626 22.71729,21.8457 6.0376,22.28125 -10.99658,0.2876 -9.34375,-9.70313 -4.81543,-9.63135"
             display="none" />
          <path
             style="fill:#696969"
             inkscape:connector-curvature="0"
             id="path7543"
             d="m 213.58887,205.76563 c -1.95508,-1.64404 -2.6748,-4.25879 -1.94727,-6.71143 1.05469,-3.54639 5.41553,-3.20947 5.41553,-3.20947 -1.62549,0.2583 -3.19189,1.84375 -3.11572,4.21582 0.0723,2.19238 1.68945,4.75488 6.79248,4.93457 1.48682,0.0518 3.91699,-0.50293 5.31885,-1.32959 5.47217,-3.22754 5.02441,-10.85107 0.96777,-14.94775 -2.94922,-2.98047 -7.30078,-3.71045 -11.31006,-3.01221 -0.22119,-1.32275 -0.44141,-2.64795 -0.66162,-3.9707 6.04883,-1.00879 12.47705,0.65137 16.2124,5.77686 3.61182,4.95703 3.90381,12.36914 -0.5918,16.89941 -2.17432,2.18994 -5.13574,3.64795 -8.1748,3.89014 -3.03418,0.24267 -6.49805,-0.49855 -8.90576,-2.53565" />
        </g>
        <path
           style="fill:none;stroke:#696969;stroke-width:4.0250001"
           inkscape:connector-curvature="0"
           id="path7545"
           d="m 280.354,120.75781 c -36.2251,-6.3252 -71.01221,11.7876 -64.9751,62.9624 -18.3999,3.59375 -20.01367,35.24561 4.3125,42.26221 14.9502,4.3125 31.07715,-2.72852 35.9375,-12.93701 8.625,-18.11279 -5.48682,-33.03809 3.4502,-44.8501" />
      </g>
      <g
         id="head">
        <path
           style="fill:#ffffff"
           inkscape:connector-curvature="0"
           id="path7548"
           d="m 244.06299,156.56738 c -5.56836,-10.47607 -8.73096,-22.48145 -8.73096,-35.24121 0,-40.8291 32.38574,-73.92871 72.33447,-73.92871 39.94922,0 72.33545,33.09961 72.33545,73.92871 0,25.66797 -12.79834,48.27979 -32.22803,61.53369 -1.37793,0.94141 -4.86279,0.5459 -6.30566,1.39063 0,0 -32.67432,20.95117 -65.88721,3.49902 -23.95898,-12.58691 -31.51806,-31.18213 -31.51806,-31.18213 z" />
        <g
           id="eyes">
          <g
             id="left_1_">
            <g
               id="g7552">
              <defs
                 id="defs7554">
                <path
                   inkscape:connector-curvature="0"
                   d="m 320.10107,150.55322 c -3.7085,15.57568 -16.30664,25.9165 -28.13916,23.1001 -11.8335,-2.81787 -18.42041,-17.72754 -14.71191,-33.30273 3.7085,-15.57471 16.30664,-25.91553 28.13916,-23.09912 11.83252,2.81689 18.41992,17.72607 14.71191,33.30175 z"
                   id="SVGID_1_" />
              </defs>
              <linearGradient
                 y2="172.30585"
                 x2="305.35611"
                 y1="118.6001"
                 x1="291.99512"
                 gradientUnits="userSpaceOnUse"
                 id="linearGradient8270">
                <stop
                   id="stop8272"
                   style="stop-color:#909090"
                   offset="0" />
                <stop
                   id="stop8274"
                   style="stop-color:#c6c6c6"
                   offset="1" />
              </linearGradient>
              <use
                 height="100%"
                 width="100%"
                 y="0"
                 x="0"
                 style="overflow:visible;fill:url(#SVGID_2_-301)"
                 id="use7562"
                 overflow="visible"
                 xlink:href="#SVGID_1_" />
              <clipPath
                 id="clipPath8277">
                <use
                   height="100%"
                   width="100%"
                   y="0"
                   x="0"
                   style="overflow:visible"
                   id="use8279"
                   overflow="visible"
                   xlink:href="#SVGID_1_" />
              </clipPath>
              <polyline
                 style="fill:#d9d9d9"
                 id="polyline7567"
                 points="293.62744,150.31836 319.28906,160.80225 312.45996,171.89014             "
                 clip-path="url(#SVGID_3_)" />
              <polyline
                 style="fill:#f7f7f7"
                 id="polyline7569"
                 points="294.07568,150.14355 313.23779,171.47217 304.9082,176.36182             "
                 clip-path="url(#SVGID_3_)" />
            </g>
            <ellipse
               id="ellipse7571"
               ry="21.706779"
               rx="17.39378"
               cy="145.33911"
               cx="294.73022"
               transform="matrix(0.99127,0.13184,-0.13184,0.99127,21.73438,-37.58885)" />
            <g
               id="g7573">
              <ellipse
                 style="fill:#ffffff"
                 id="ellipse7575"
                 ry="15.80976"
                 rx="9.8574896"
                 cy="133.49072"
                 cx="306.70361"
                 transform="matrix(0.78353,-0.62135,0.62135,0.78353,-16.55276,219.46863)" />
              <ellipse
                 style="fill:#ffffff"
                 id="ellipse7577"
                 ry="4.00877"
                 rx="3.1619799"
                 cy="145.99707"
                 cx="292.75928"
                 transform="matrix(0.95402,0.29973,-0.29973,0.95402,57.22058,-81.03743)" />
              <ellipse
                 style="fill:#ffffff"
                 id="ellipse7579"
                 ry="2.25897"
                 rx="1.86862"
                 cy="150.13208"
                 cx="302.64136"
                 transform="matrix(0.9944,0.1057,-0.1057,0.9944,17.564,-31.14761)" />
            </g>
          </g>
          <g
             id="right">
            <g
               id="g7582">
              <defs
                 id="defs7584">
                <path
                   inkscape:connector-curvature="0"
                   d="m 261.3252,129.70166 c -0.82227,15.38574 -6.85742,26.03906 -13.48096,23.79297 -6.62256,-2.24414 -11.32471,-16.53809 -10.50049,-31.92383 0.82178,-15.3877 6.85596,-26.04004 13.47998,-23.79443 6.62256,2.2456 11.32373,16.53955 10.50147,31.92529 z"
                   id="SVGID_4_" />
              </defs>
              <linearGradient
                 y2="144.22516"
                 x2="241.34508"
                 y1="109.43799"
                 x1="256.29492"
                 gradientUnits="userSpaceOnUse"
                 id="linearGradient8292">
                <stop
                   id="stop8294"
                   style="stop-color:#909090"
                   offset="0" />
                <stop
                   id="stop8296"
                   style="stop-color:#c6c6c6"
                   offset="1" />
              </linearGradient>
              <use
                 height="100%"
                 width="100%"
                 y="0"
                 x="0"
                 style="overflow:visible;fill:url(#SVGID_5_-457)"
                 id="use7592"
                 overflow="visible"
                 xlink:href="#SVGID_4_" />
              <clipPath
                 id="clipPath8299">
                <use
                   height="100%"
                   width="100%"
                   y="0"
                   x="0"
                   style="overflow:visible"
                   id="use8301"
                   overflow="visible"
                   xlink:href="#SVGID_4_" />
              </clipPath>
              <polyline
                 style="fill:#d9d9d9"
                 id="polyline7597"
                 points="250.00732,128.45068 234.28906,128.07568 235.77148,138.12207             "
                 clip-path="url(#SVGID_6_)" />
              <polyline
                 style="fill:#f7f7f7"
                 id="polyline7599"
                 points="249.80273,128.18652 235.43652,137.58301 238.9248,143.64746             "
                 clip-path="url(#SVGID_6_)" />
            </g>
            <path
               inkscape:connector-curvature="0"
               id="path7601"
               d="m 258.07275,126.08301 c 0.0684,12.73877 -3.67236,23.09229 -8.35742,23.12354 -4.68555,0.0317 -8.53857,-10.26807 -8.60742,-23.00635 -0.0674,-12.73779 3.6748,-23.0918 8.36035,-23.12305 4.68311,-0.0327 8.53711,10.26709 8.60449,23.00586 z" />
            <g
               id="g7603">
              <path
                 style="fill:#ffffff"
                 inkscape:connector-curvature="0"
                 id="path7605"
                 d="m 254.00977,109.50146 c 2.0459,6.97949 1.71582,15.11523 -0.73926,18.16992 -2.45703,3.05469 -6.10596,-0.12598 -8.15332,-7.10693 -2.0459,-6.98096 -1.71582,-15.11572 0.73926,-18.17041 2.45605,-3.05468 6.10498,0.12696 8.15332,7.10742 z" />
              <path
                 style="fill:#ffffff"
                 inkscape:connector-curvature="0"
                 id="path7607"
                 d="m 243.33643,128.70215 c -1.0415,1.59473 -2.55957,1.87988 -3.38721,0.63574 -0.82666,-1.24219 -0.64941,-3.54199 0.39307,-5.13672 1.04443,-1.59473 2.55811,-1.88037 3.38721,-0.63818 0.82616,1.24463 0.65136,3.54687 -0.39307,5.13916 z" />
              <path
                 style="fill:#ffffff"
                 inkscape:connector-curvature="0"
                 id="path7609"
                 d="m 246.96387,131.6582 c -0.52148,0.98682 -1.45996,1.39453 -2.09814,0.91406 -0.6377,-0.48291 -0.73096,-1.67334 -0.21094,-2.65967 0.52344,-0.98486 1.45996,-1.39453 2.09863,-0.91162 0.63721,0.48048 0.73144,1.67188 0.21045,2.65723 z" />
            </g>
          </g>
        </g>
        <g
           id="g7611">
          <g
             id="g7613">
            <path
               style="fill:#eeeeee"
               inkscape:connector-curvature="0"
               id="path7615"
               d="m 307.6665,45.81641 c -35.71191,0 -65.50537,25.89355 -72.38916,60.31348 2.51221,-8.17773 6.66406,-13.55127 11.09326,-13.32373 6.63818,0.3418 11.37646,13.12012 10.58252,28.54004 -0.79395,15.42188 -6.81787,27.64502 -13.45654,27.30371 -2.47852,-0.12744 -4.69189,-1.99023 -6.45166,-5.07568 1.44727,4.80566 3.34326,9.41064 5.65234,13.75439 0,0 7.7207,18.99512 32.19434,31.854 33.92725,17.82715 67.30176,-3.57568 67.30176,-3.57568 1.47461,-0.8623 5.03369,-0.45801 6.44189,-1.41943 19.84668,-13.53955 32.91895,-36.63623 32.91895,-62.85498 0,-41.70655 -33.08057,-75.51612 -73.8877,-75.51612 z m 24.48487,120.04834 c -11.08887,14.40088 -30.8042,17.81494 -44.03906,7.62695 -13.23291,-10.18848 -14.9751,-30.12256 -3.88721,-44.52344 11.08789,-14.40088 30.80322,-17.81689 44.03809,-7.62646 13.2329,10.18799 14.9746,30.12207 3.88818,44.52295 z" />
          </g>
        </g>
        <path
           inkscape:connector-curvature="0"
           id="path7617"
           d="m 258.10303,119.62109 c -0.50391,9.80518 -3.14795,18.32813 -6.69678,23.13916 7.16992,-15.47656 5.75684,-48.45264 -4.40234,-48.64404 -7.97363,-0.15039 -9.91162,12.48242 -10.38574,15.32129 0,0 -0.85254,-0.16113 -0.82568,-0.41943 1.11426,-10.62402 4.18604,-17.59619 11.35547,-17.729 6.64599,-0.12305 11.74901,12.9121 10.95507,28.33202 z" />
        <g
           id="g7619">
          <path
             inkscape:connector-curvature="0"
             id="path7621"
             d="m 340.58545,143.07471 c 0.0147,0.72217 -1.19971,1.77002 -1.41309,0.0361 -2.19189,-17.78906 -13.53711,-26.23438 -29.49316,-26.09082 -15.86865,0.14404 -30.78271,16.52002 -32.7124,31.21191 -0.0112,-7.16943 2.5249,-15.41504 7.32715,-21.65234 11.12451,-14.44922 31.24316,-17.4751 45.09131,-6.95605 7.99023,6.06884 11.02245,14.21337 11.20019,23.45117 z" />
          <path
             inkscape:connector-curvature="0"
             id="path7623"
             d="m 330.81055,122.55469 c 2.44482,-0.45605 6.82813,-3.4502 7.90625,-8.55322 0,0 1.24658,7.33105 -5.60547,10.68457" />
          <path
             inkscape:connector-curvature="0"
             id="path7625"
             d="m 339.87354,140.71436 c 1.63379,1.87549 6.23486,4.2583 11.74805,2.67969 0,0 -5.68066,4.7998 -12.05273,0.604" />
          <path
             inkscape:connector-curvature="0"
             id="path7627"
             d="m 336.75,131.43359 c 2.86035,0.27832 8.68701,-1.64453 11.51807,-6.96631 0,0 -0.9624,8.54053 -9.646,10.07031" />
        </g>
        <path
           style="fill:none;stroke:#cbcbcb;stroke-width:4.0250001"
           inkscape:connector-curvature="0"
           id="path7629"
           d="m 242.69727,157.32861 c -5.68848,-10.7002 -8.91797,-22.96191 -8.91797,-35.99609 0,-41.70654 33.08008,-75.51611 73.88721,-75.51611 40.80713,0 73.8877,33.80957 73.8877,75.51611 0,28.07861 -16.02393,52.96973 -38.27344,65.98145" />
        <g
           id="g7631">
          <defs
             id="defs7633">
            <path
               inkscape:connector-curvature="0"
               d="m 226.87891,91.04932 c -4.02246,8.35596 -4.21582,8.625 -1.53174,16.6748 2.49121,6.51758 10.53223,9.37451 10.70508,7.29248 0.76367,-9.1792 3.17578,-17.87402 6.93262,-25.77539 3.5249,-7.41553 -12.40626,-5.87256 -16.10596,1.80811 z"
               id="SVGID_7_" />
          </defs>
          <clipPath
             id="clipPath8323">
            <use
               height="100%"
               width="100%"
               y="0"
               x="0"
               style="overflow:visible"
               id="use8325"
               overflow="visible"
               xlink:href="#SVGID_7_" />
          </clipPath>
          <path
             inkscape:connector-curvature="0"
             id="path7639"
             d="m 241.06299,94.11621 c -1.91553,-0.76709 -4.50342,-3.4502 -4.21582,-8.3374 0,0 -3.35547,7.1875 3.25684,10.73291"
             clip-path="url(#SVGID_8_)" />
          <path
             inkscape:connector-curvature="0"
             id="path7641"
             d="m 239.72217,100.65332 c -5.03809,-0.38867 -9.01123,-2.23926 -11.2124,-7.0166 0,0 -0.19336,7.76221 10.6377,10.44629"
             clip-path="url(#SVGID_8_)" />
          <path
             inkscape:connector-curvature="0"
             id="path7643"
             d="m 237.61328,107.62891 c -3.25928,0.83838 -6.9248,1.02979 -9.87158,-2.49219 0,0 0.79053,6.34912 9.4873,5.4624"
             clip-path="url(#SVGID_8_)" />
        </g>
      </g>
      <g
         id="snout">
        <path
           style="fill:#eeeeee"
           inkscape:connector-curvature="0"
           id="path7646"
           d="m 311.67676,196.15234 c -55.85449,5.48926 -85.94678,-32.26953 -78.61621,-45.20703 2.91846,-5.15039 9.67383,1.81006 18.51416,-5.73682 l 13.44629,29.4082" />
        <path
           style="fill:#cbcbcb"
           inkscape:connector-curvature="0"
           id="path7648"
           d="m 242.26025,158.92334 c 0,0 4.09717,1.50928 5.89404,-2.51563 1e-5,0 -0.28759,8.55323 -5.89404,2.51563 z" />
        <path
           style="fill:#cbcbcb"
           inkscape:connector-curvature="0"
           id="path7650"
           d="m 239.38525,170.13574 c 4.52832,-0.61084 11.24854,-0.0718 15.09375,7.1875 0,0 -6.46777,-5.67822 -13.31934,-4.5752" />
        <g
           id="g7652">
          <path
             style="display:none;fill:none;stroke:#cbcbcb;stroke-width:4.0250001"
             inkscape:connector-curvature="0"
             id="path7654"
             d="m 251.31641,144.90771 c -8.84033,7.54688 -15.38086,0.8623 -18.25586,6.0376 -6.54297,11.77734 18.54346,49.44971 78.63086,45.4248"
             display="none" />
          <path
             style="fill:#cbcbcb"
             inkscape:connector-curvature="0"
             id="path7656"
             d="m 234.68555,168.72754 c -1.82959,-2.86719 -3.36133,-5.9917 -4.14307,-9.31689 -0.70068,-2.97803 -0.82422,-6.29785 0.57813,-9.10107 0.6626,-1.32275 1.69482,-2.46826 3.0918,-3.02783 1.61279,-0.66016 3.41309,-0.54102 5.10107,-0.28955 8.69678,1.29346 12.26123,-1.78369 12.26123,-1.78369 0,0 -4.09912,5.93896 -10.94287,5.44922 -1.45898,-0.10449 -3.24121,-0.25146 -4.56641,0.24023 -1.18115,0.43799 -1.67773,1.76123 -1.87305,2.86182 -0.48975,2.74023 0.35059,5.64404 1.4082,8.15088 1.22412,2.9043 2.95361,5.58496 4.91455,8.04346 3.7207,4.66064 10.80127,10.89111 21.68945,16.41211 7.146,3.62305 15.84961,6.33838 24.84717,7.86133 13.89551,2.54932 24.625,1.9248 24.625,1.9248 0,0 -10.45068,2.41699 -24.90088,0.88965 -7.9624,-0.84229 -17.15381,-3.08643 -26.44775,-7.10889 -4.79102,-2.07568 -9.22266,-4.91699 -13.35303,-8.11523 -4.74267,-3.67043 -9.0454,-8.02785 -12.28954,-13.09035" />
        </g>
      </g>
      <g
         id="mane_up_2">
        <path
           style="fill:#9e9e9e"
           inkscape:connector-curvature="0"
           id="path7659"
           d="M 387.87891,85.68262 C 375.8042,27.41504 272.25244,-22.75586 240.9668,15.24512 c -11.59668,14.08594 0.67041,29.80273 0.67041,29.80273 -12.74561,-4.21533 -27.88672,2.30176 -28.55811,17.06006 -0.66943,14.75781 19.72168,34.27832 58.84326,5.55762 15.14063,-11.11621 23.76563,21.0835 57.01904,28.07959 26.88818,5.65625 30.33154,-8.48096 44.13135,-7.04346" />
        <path
           style="fill:#cecece"
           inkscape:connector-curvature="0"
           id="path7661"
           d="m 387.87891,85.68262 c -5.24219,-25.30176 -27.73438,-49.07666 -54.06982,-64.76904 -54.02881,-6.33936 -77.74854,42.63184 -77.46143,56.28809 4.50244,-2.23096 10.41553,-5.74902 15.57471,-9.53613 15.14063,-11.11621 23.76563,21.0835 57.01904,28.07959 26.88818,5.65625 30.33154,-8.48096 44.13135,-7.04346" />
        <g
           id="g7663">
          <path
             style="display:none;fill:none;stroke:#696969;stroke-width:4.0250001"
             inkscape:connector-curvature="0"
             id="path7665"
             d="m 240.82275,43.99512 c 14.32813,9.96631 4.07324,25.396 -8.0498,21.70654 -11.48096,-3.49463 -2.30029,-17.5376 5.1748,-9.63135"
             display="none" />
          <path
             style="fill:#696969"
             inkscape:connector-curvature="0"
             id="path7667"
             d="m 232.18652,67.62598 c -2.38281,-0.72363 -4.68506,-2.09619 -5.92725,-4.32666 -1.32764,-2.38281 -1.1582,-5.31152 0.21338,-7.63623 1.28223,-2.17627 3.54199,-3.76514 6.09131,-3.96289 5.43213,-0.42139 5.38184,4.37207 5.38184,4.37207 0,0 -1.24219,-2.04443 -4.40576,-1.9668 -1.94092,0.04834 -3.73779,1.8208 -4.21729,3.21094 -0.50293,1.46289 -0.18066,3.33154 0.81982,4.55713 0.85156,1.03271 2.17188,1.60938 3.42773,1.96484 3.05469,0.86426 6.38574,0.31445 8.87402,-1.69531 2.00391,-1.61719 3.29053,-4.05322 3.34668,-6.6416 0.043,-1.97656 -0.6377,-3.89893 -1.72021,-5.53564 -1.71387,-2.59229 -4.9248,-3.55127 -4.9248,-3.55127 0,0 0.65039,-0.94385 0.74268,-1.07617 0.69385,-0.99902 1.51611,-2.18604 2.20996,-3.18506 0.95898,1.50928 3.81494,3.69092 5.24121,5.91455 1.56543,2.44189 2.67627,5.16992 2.44141,8.19678 -0.3999,5.16846 -4.05762,9.62256 -8.9292,11.28027 -1.4209,0.48291 -2.91895,0.72607 -4.41797,0.72607 -1.4375,0 -2.87304,-0.22657 -4.24756,-0.64502" />
        </g>
        <path
           style="fill:none;stroke:#696969;stroke-width:4.0250001"
           inkscape:connector-curvature="0"
           id="path7669"
           d="M 387.87891,85.68262 C 375.8042,27.41504 272.25244,-22.75586 240.9668,15.24512 c -11.59668,14.08594 0.67041,29.80273 0.67041,29.80273 -12.74561,-4.21533 -27.88672,2.30176 -28.55811,17.06006 -0.66943,14.75781 19.72168,34.27832 58.84326,5.55762 15.14063,-11.11621 23.76563,21.0835 57.01904,28.07959 26.88818,5.65625 30.33154,-8.48096 44.13135,-7.04346" />
      </g>
      <g
         id="horn">
        <path
           style="fill:#eeeeee"
           inkscape:connector-curvature="0"
           id="path7672"
           d="m 269.1416,84.82031 c 0,0 -14.08057,-55.03955 -5.07861,-58.17139 8.81592,-3.06641 31.81592,47.7251 31.81592,47.7251" />
        <path
           style="fill:none;stroke:#cbcbcb;stroke-width:1.72500002"
           inkscape:connector-curvature="0"
           id="path7674"
           d="m 262.146,48.69141 c 0,0 11.11719,4.59961 13.99219,-10.54248" />
        <path
           style="fill:none;stroke:#cbcbcb;stroke-width:1.72500002"
           inkscape:connector-curvature="0"
           id="path7676"
           d="m 265.979,70.73291 c 0,0 12.26807,5.271 20.7002,-14.854" />
        <g
           id="g7678">
          <path
             style="display:none;fill:none;stroke:#cbcbcb;stroke-width:3.45000005"
             inkscape:connector-curvature="0"
             id="path7680"
             d="m 269.1416,84.82031 c 0,0 -14.08057,-55.03955 -5.07861,-58.17139 8.81592,-3.06641 31.81592,47.7251 31.81592,47.7251"
             display="none" />
          <path
             style="fill:#cbcbcb"
             inkscape:connector-curvature="0"
             id="path7682"
             d="m 259.32959,36.5415 c 0.0259,-2.90479 0.0762,-6.07861 1.35547,-8.75293 0.61523,-1.29004 1.58887,-2.41406 3.00293,-2.82959 1.48682,-0.43799 3.05713,0.0498 4.33936,0.8252 2.79004,1.68457 4.94629,4.42969 6.87549,6.99658 2.05518,2.73389 3.91357,5.61279 5.69385,8.53076 2.98486,4.89551 5.85889,9.87695 8.43164,15.01563 5.84473,11.67432 7.66406,17.69434 7.02588,17.98828 -0.83984,0.38623 -5.0625,-6.60156 -10.01514,-16.16211 -1.35449,-2.61377 -2.74463,-5.20898 -4.17432,-7.78223 -3.30078,-5.94189 -6.75293,-11.94775 -11.05762,-17.22998 -0.83203,-1.02148 -1.70605,-2.01758 -2.66943,-2.91846 -0.82666,-0.77393 -1.90479,-1.79248 -3.07959,-1.97314 -1.13867,-0.17627 -1.57422,1.71045 -1.76074,2.49756 -0.34814,1.45898 -0.45361,2.97656 -0.49854,4.47168 -0.15723,5.26563 0.49609,10.56543 1.24414,15.7666 0.80762,5.62061 1.80127,11.21631 2.98291,16.76855 2.7627,12.96924 2.6748,16.92627 2.1167,17.06787 -0.55811,0.14209 -2.58838,-2.94824 -5.37793,-15.79297 -2.09131,-9.62939 -3.86328,-19.46631 -4.35107,-29.32764 -0.0513,-1.05223 -0.083,-2.10546 -0.084,-3.15966" />
        </g>
      </g>
      <g
         id="mane_up_1">
        <path
           style="fill:#cecece"
           inkscape:connector-curvature="0"
           id="path7685"
           d="m 330.52295,64.56201 c 0,12.15234 -9.24609,22.00439 -20.65186,22.00439 -11.40577,0 -20.65186,-9.85205 -20.65186,-22.00439 0,-12.15234 13.15088,-25.41846 24.55664,-25.41846 7.25929,4.13282 16.74708,13.26612 16.74708,25.41846 z" />
        <g
           id="g7687">
          <path
             style="display:none;fill:none;stroke:#696969;stroke-width:4.0250001"
             inkscape:connector-curvature="0"
             id="path7689"
             d="m 312.5542,39.39502 c -40.8252,13.12891 -21.8501,54.9126 3.44971,46 25.30029,-8.91211 14.38086,-41.49365 -6.8999,-30.5708 -10.82813,5.55859 -3.54443,22.7124 6.42188,16.1958 6.65137,-4.34863 0.47949,-9.5835 -2.20459,-8.0498"
             display="none" />
          <path
             style="fill:#696969"
             inkscape:connector-curvature="0"
             id="path7691"
             d="m 293.13086,81.51611 c -4.20361,-4.57568 -6.51904,-10.76172 -6.33594,-16.97363 0.18311,-6.2124 2.86719,-12.08252 7.16162,-16.51465 8.91895,-9.20752 19.81934,-8.88428 19.81934,-8.88428 0,0 -14.07861,2.89258 -21.01123,17.11816 -2.73877,5.62061 -2.63672,12.24658 0.13037,17.85352 2.64941,5.36865 7.73096,9.48926 13.73145,10.33496 6.01318,0.84766 12.60059,-1.67432 16.95605,-5.83154 3.21387,-3.06689 5.15234,-7.35938 5.03809,-11.82959 -0.15186,-5.979 -4.17578,-11.73145 -10.46484,-12.14258 -3.05225,-0.19922 -6.39697,0.78418 -8.94824,2.44434 -2.24854,1.46094 -3.71875,3.84619 -3.66113,6.52637 0.0762,3.53906 1.76074,7.4751 6.43262,7.69043 2.33838,0.10791 5.4873,-2.1084 5.87158,-3.5459 0.76465,-2.87158 -1.19873,-5.22266 -4.50146,-4.74219 0,0 4.47656,-2.42139 6.57666,1.23047 1.52734,2.65576 0.14844,5.64697 -2.04053,7.52295 -2.40576,2.06104 -5.72852,3.28125 -8.87305,2.43848 -2.86621,-0.76807 -5.05371,-3.03955 -6.23291,-5.70068 -2.32959,-5.25977 -0.69971,-11.55615 4.146,-14.74805 5.19531,-3.42139 12.43018,-4.4082 17.92822,-1.17432 5.27295,3.10156 7.96826,9.25781 7.78955,15.23438 -0.13672,4.63086 -2.05518,9.07129 -5.13232,12.50879 -3.94531,4.40625 -9.80615,7.354 -15.64844,8.12207 -6.14307,0.80859 -12.33203,-1.13525 -16.97705,-5.21924 -0.61427,-0.54053 -1.2007,-1.11475 -1.75441,-1.71827" />
        </g>
      </g>
      <g
         id="ear">
        <path
           style="fill:#eeeeee"
           inkscape:connector-curvature="0"
           id="path7694"
           d="m 365.65381,92.11035 c 8.52881,-17.87305 23.23145,-28.13379 30.8501,-27.70264 6.72217,0.37988 23.86377,55.2002 -18.89307,72.78906" />
        <path
           style="fill:#cbcbcb"
           inkscape:connector-curvature="0"
           id="path7696"
           d="m 398.94775,85.68262 c 0,0 -0.2876,21.41895 -20.26855,28.31885 0,-1e-5 15.09375,-8.76856 20.26855,-28.31885 z" />
        <g
           id="g7698">
          <path
             style="display:none;fill:none;stroke:#cbcbcb;stroke-width:4.0250001"
             inkscape:connector-curvature="0"
             id="path7700"
             d="m 365.83838,92.19922 c 8.52832,-17.87256 23.04688,-28.22266 30.66553,-27.7915 6.72217,0.37988 24.34229,52.8999 -18.78271,73.0249"
             display="none" />
          <path
             style="fill:#cbcbcb"
             inkscape:connector-curvature="0"
             id="path7702"
             d="m 377.61084,137.19678 c 0,0 10.77148,-1.05762 19.92871,-12.58936 8.0752,-10.17041 11.04395,-23.41357 10.1123,-36.21631 -0.46191,-6.36182 -1.78613,-12.83447 -4.39844,-18.67871 -0.61279,-1.37012 -1.30713,-2.7124 -2.15381,-3.95459 -0.82324,-1.21045 -1.85303,-2.46387 -3.23096,-3.05664 -1.23193,-0.53027 -2.73486,-0.33496 -4.02051,-0.10986 -1.33203,0.23242 -2.63037,0.6377 -3.88232,1.146 -5.8042,2.35645 -10.89355,6.59814 -15.01074,11.24316 -7.7041,8.68994 -9.30127,17.12988 -9.30127,17.12988 0,0 9.2876,-16.84961 24.76807,-24.16797 1.11719,-0.52783 2.28076,-0.979 3.4834,-1.2666 0.61426,-0.14746 2.05322,-0.57471 2.59424,-0.13477 0.90967,0.73926 1.54102,1.82275 2.10107,2.83398 0.5293,0.95508 0.9873,1.95068 1.40088,2.96094 2.34814,5.74316 3.49707,12.04443 3.74609,18.22559 0.27148,6.71436 -0.56836,13.52393 -2.8916,19.84668 -6.93945,18.87793 -23.24511,26.78858 -23.24511,26.78858 z" />
        </g>
      </g>
    </g>
  </g>
</svg>
