<?xml version="1.0" encoding="UTF-8" standalone="no"?>
<!-- Generator: Adobe Illustrator 15.0.0, SVG Export Plug-In . SVG Version: 6.00 Build 0)  -->

<svg
   xmlns:dc="http://purl.org/dc/elements/1.1/"
   xmlns:cc="http://creativecommons.org/ns#"
   xmlns:rdf="http://www.w3.org/1999/02/22-rdf-syntax-ns#"
   xmlns:svg="http://www.w3.org/2000/svg"
   xmlns="http://www.w3.org/2000/svg"
   xmlns:xlink="http://www.w3.org/1999/xlink"
   xmlns:sodipodi="http://sodipodi.sourceforge.net/DTD/sodipodi-0.dtd"
   xmlns:inkscape="http://www.inkscape.org/namespaces/inkscape"
   version="1.1"
   x="0px"
   y="0px"
   width="167.57762mm"
   height="181.97043mm"
   viewBox="0 0 593.77897 644.7771"
   enable-background="new 0 0 586.693 637.682"
   xml:space="preserve"
   id="svg2"
   inkscape:version="0.91 r13725"
   sodipodi:docname="cutie_mark_crusaders___pyramid_by_thatguy1945-d6yfh98.svg"><sodipodi:namedview
     pagecolor="#ffffff"
     bordercolor="#666666"
     borderopacity="1"
     objecttolerance="10"
     gridtolerance="10"
     guidetolerance="10"
     inkscape:pageopacity="0"
     inkscape:pageshadow="2"
     inkscape:window-width="1434"
     inkscape:window-height="870"
     id="namedview742"
     showgrid="false"
     inkscape:zoom="1.0467738"
     inkscape:cx="317.52443"
     inkscape:cy="314.78028"
     inkscape:window-x="0"
     inkscape:window-y="24"
     inkscape:window-maximized="0"
     inkscape:current-layer="svg2"
     inkscape:document-units="mm"
     units="mm"
     fit-margin-left="1"
     fit-margin-top="1"
     fit-margin-bottom="1"
     fit-margin-right="1" /><metadata
     id="metadata746"><rdf:RDF><cc:Work
         rdf:about=""><dc:format>image/svg+xml</dc:format><dc:type
           rdf:resource="http://purl.org/dc/dcmitype/StillImage" /><dc:title></dc:title></cc:Work></rdf:RDF></metadata><defs
     id="defs744" /><g
     id="g4074"
     transform="translate(3.5431963,3.5542535)"><g
       id="Scootaloo"><g
         id="tail_2_"><path
           d="m 356.407,502.839 c 14.918,-38.952 80.39,-67.958 125.143,-35.223 0,0 -16.575,-6.216 -34.808,-3.315 89.415,29.998 43.924,114.369 47.238,139.231 0,0 -4.558,-2.693 -4.972,-20.719 0,0 -8.909,21.134 6.215,47.653 0,0 -14.71,-9.116 -17.403,-26.105 0,0 -1.036,13.26 3.522,22.791 0,0 -20.098,-21.134 -22.377,-56.771 0,0 -8.08,12.264 -9.53,31.099 -6.423,-33.722 0.208,-54.482 -6.146,-71.175 0,0 -1.52,11.64 -8.771,21.43 7.045,-41.023 -38.054,-62.778 -73.552,-39.366"
           id="path6"
           inkscape:connector-curvature="0"
           style="fill:#747474" /><path
           stroke-miterlimit="10"
           d="m 359.377,501.803 c 22.859,-37.847 84.146,-33.056 112.642,1.864 21.134,25.899 13.37,70.907 15.154,86.095"
           id="path8"
           inkscape:connector-curvature="0"
           style="fill:none;stroke:#464646;stroke-width:2;stroke-miterlimit:10" /><path
           stroke-miterlimit="10"
           d="m 359.377,506.568 c 22.664,-25.079 72.513,-26.335 99.382,0.828 23.769,24.029 16.273,83.402 19.062,96.965"
           id="path10"
           inkscape:connector-curvature="0"
           style="fill:none;stroke:#464646;stroke-width:2;stroke-miterlimit:10" /><path
           stroke-miterlimit="10"
           d="m 356.407,502.839 c 14.918,-38.952 80.39,-67.958 125.143,-35.223 0,0 -16.575,-6.216 -34.808,-3.315 88.263,32.322 44.165,105.248 47.238,139.231 0,0 -5.24,-7.649 -4.972,-20.719 0,0 -8.909,21.134 6.215,47.653 0,0 -14.71,-9.116 -17.403,-26.105 0,0 -1.036,13.26 3.522,22.791 0,0 -20.098,-21.134 -22.377,-56.771 0,0 -8.08,12.264 -9.53,31.099 -6.423,-33.722 0.208,-54.482 -6.146,-71.175 0,0 -1.52,11.64 -8.771,21.43 7.045,-41.023 -38.054,-62.778 -73.552,-39.366"
           id="path12"
           inkscape:connector-curvature="0"
           style="fill:none;stroke:#464646;stroke-width:4;stroke-miterlimit:10" /></g><g
         id="back_right_leg_2_"><path
           d="m 326.988,560.555 0,0 c 5.619,-5.616 13.197,-15.291 20.505,-33.716 L 289.11,510.44 c 34.093,76.778 -2.855,102.876 -0.503,112.498 1.038,4.241 27.883,9.284 38.985,2.58 11.105,-6.704 8.633,-50.385 6.233,-56.746 -2.4,-6.365 -6.837,-8.217 -6.837,-8.217 z"
           id="path15"
           inkscape:connector-curvature="0"
           style="fill:#a3a3a3" /><path
           stroke-miterlimit="10"
           d="m 289.11,510.439 c 34.093,76.778 -2.855,102.876 -0.503,112.498 1.038,4.241 27.883,9.284 38.985,2.58 11.105,-6.704 8.633,-50.385 6.233,-56.746 -2.401,-6.364 -6.838,-8.217 -6.838,-8.217"
           id="path17"
           inkscape:connector-curvature="0"
           style="fill:none;stroke:#808080;stroke-width:4;stroke-miterlimit:10" /><g
           id="g19"><path
             display="none"
             stroke-miterlimit="10"
             d="m 347.493,526.839 c -10.391,26.197 -24.215,37.469 -26.849,39.44"
             id="path21"
             inkscape:connector-curvature="0"
             style="display:none;fill:none;stroke:#bcbcbc;stroke-width:4.00250006;stroke-miterlimit:10" /><path
             d="m 320.645,566.28 c 0,0 4.745,-4.266 12.946,-16.595 3.894,-5.855 8.225,-13.958 12.043,-23.584 l 3.721,1.475 c -3.936,9.92 -8.326,17.784 -12.529,23.786 -8.582,12.245 -16.181,14.918 -16.181,14.918 z"
             id="path23"
             inkscape:connector-curvature="0"
             style="fill:#808080" /></g></g><g
         id="back_left_leg_2_"><path
           d="m 380.907,567.715 c -1.25,-2.084 -5,-4.666 -11.215,-5.811 l 0,0 c 3.893,-12.809 5.323,-34.708 -2.118,-52.189 -1.654,-3.887 -3.735,-7.201 -5.979,-10.218 l -23.203,42.292 c 32.766,43.76 15.266,77.26 19.016,84.26 3.75,7 33.75,9 37.75,0 4,-9 -13.001,-56.25 -14.251,-58.334 z"
           id="path26"
           inkscape:connector-curvature="0"
           style="fill:#bebebe" /><g
           id="g28"><path
             display="none"
             stroke-miterlimit="10"
             d="m 361.595,499.497 c 2.244,3.017 4.325,6.331 5.979,10.218 8.74,20.533 5.244,47.171 -0.11,58"
             id="path30"
             inkscape:connector-curvature="0"
             style="display:none;fill:none;stroke:#808080;stroke-width:4;stroke-miterlimit:10" /><path
             d="m 367.443,567.704 c 0,0 2.715,-9.238 3.465,-19.904 0.819,-11.658 -0.271,-25.783 -5.174,-37.302 -1.416,-3.326 -3.241,-6.442 -5.744,-9.808 l 3.209,-2.387 c 2.697,3.625 4.672,7.002 6.215,10.628 5.293,12.435 6.321,27.163 4.953,39.476 -1.46,13.142 -6.924,19.297 -6.924,19.297 z"
             id="path32"
             inkscape:connector-curvature="0"
             style="fill:#808080" /></g><path
           stroke-miterlimit="10"
           d="m 369.692,561.904 c 6.215,1.145 9.965,3.727 11.215,5.811 1.25,2.084 18.25,49.334 14.25,58.334 -4,9 -34,7 -37.75,0 -3.75,-7 13.75,-40.5 -19.016,-84.26"
           id="path34"
           inkscape:connector-curvature="0"
           style="fill:none;stroke:#808080;stroke-width:4;stroke-miterlimit:10" /></g><g
         id="front_right_leg_3_"><path
           d="m 310.907,444.049 c -41.5,-26.5 -64.182,-66.781 -73.341,-66.641 -9.159,0.14 -24.159,20.641 -24.159,29.141 0,8.5 53.5,41 84.5,60"
           id="path37"
           inkscape:connector-curvature="0"
           style="fill:#bebebe" /><path
           stroke-miterlimit="10"
           d="m 310.907,444.049 c -41.5,-26.5 -64.182,-66.781 -73.341,-66.641 -9.159,0.14 -24.159,20.641 -24.159,29.141 0,8.5 53.5,41 84.5,60"
           id="path39"
           inkscape:connector-curvature="0"
           style="fill:none;stroke:#808080;stroke-width:4;stroke-miterlimit:10" /></g><g
         id="mane_side_2_"><path
           d="m 349.619,396.8 c 12.829,2.036 24.71,-6.562 24.71,-6.562 0,0 -3.606,17.253 -28.756,25.46 0,0 7.309,4.904 23.869,-3.479 0,0 -3.756,18.619 -30.494,20.17 0,0 8.683,8.454 25.597,-0.195 0,0 -10.797,19.854 -30.081,15.21"
           id="path42"
           inkscape:connector-curvature="0"
           style="fill:#747474" /><path
           stroke-miterlimit="10"
           d="m 349.619,396.8 c 12.829,2.036 24.71,-6.562 24.71,-6.562 0,0 -3.606,17.253 -28.756,25.46 0,0 7.309,4.904 23.869,-3.479 0,0 -3.756,18.619 -30.494,20.17 0,0 8.683,8.454 25.597,-0.195 0,0 -10.797,19.854 -30.081,15.21"
           id="path44"
           inkscape:connector-curvature="0"
           style="fill:none;stroke:#464646;stroke-width:4;stroke-miterlimit:10" /></g><g
         id="body_2_"><path
           d="m 347.493,535.466 c -20.798,17.916 -57.436,2.916 -60.086,-35.969 -3.034,-44.51 28.167,-57.448 13,-106.448 -16.881,-54.537 72.083,-69.461 66.833,-0.333 -2,26.333 -25.685,42.647 -23.999,74.666 0.776,14.753 10.556,21.635 18.354,32.115 2.244,3.017 4.325,6.331 5.979,10.218 l -2.917,0.725"
           id="path47"
           inkscape:connector-curvature="0"
           style="fill:#bebebe" /><g
           id="g49"><path
             display="none"
             stroke-miterlimit="10"
             d="m 347.493,535.466 c -20.798,17.916 -57.436,2.916 -60.086,-35.969 -3.034,-44.51 28.167,-57.448 13,-106.448 -16.881,-54.537 72.083,-69.461 66.833,-0.333 -2,26.333 -25.685,42.647 -23.999,74.666 0.776,14.753 10.556,21.635 18.354,32.115 2.244,3.017 4.325,6.331 5.979,10.218"
             id="path51"
             inkscape:connector-curvature="0"
             style="display:none;fill:none;stroke:#808080;stroke-width:4;stroke-miterlimit:10" /><path
             d="m 327.189,545.007 c -5.949,0 -9.55,-0.972 -14.278,-2.947 -15.86,-6.628 -26.14,-22.488 -27.5,-42.427 -1.35,-19.804 3.896,-33.419 8.97,-46.586 6.417,-16.654 12.479,-32.385 4.115,-59.406 -5.02,-16.215 -1.396,-30.973 9.938,-40.49 11.316,-9.499 28.19,-11.529 41.035,-4.939 8.324,4.271 21.96,15.752 19.765,44.656 -0.921,12.13 -6.121,21.898 -11.626,32.241 -6.527,12.264 -13.276,24.944 -12.37,42.168 0.552,10.477 5.848,16.619 11.979,23.731 1.985,2.303 4.039,4.685 5.981,7.295 2.697,3.626 4.672,7.003 6.215,10.629 l -3.68,1.566 c -1.416,-3.326 -3.241,-6.442 -5.744,-9.808 -1.856,-2.494 -3.862,-4.821 -5.802,-7.071 -6.337,-7.349 -12.321,-14.29 -12.944,-26.132 -0.965,-18.333 6.05,-31.513 12.834,-44.258 5.302,-9.962 10.311,-19.371 11.168,-30.665 2.02,-26.6 -10.161,-36.977 -17.603,-40.794 -11.455,-5.879 -26.521,-4.051 -36.637,4.443 -10.042,8.432 -13.209,21.642 -8.689,36.243 8.774,28.348 2.471,44.708 -4.203,62.028 -4.917,12.761 -10.001,25.955 -8.711,44.876 1.253,18.395 10.619,32.977 25.05,39.007 4.13,1.727 8.346,2.663 12.457,2.628 13.247,-0.113 20.583,-5.53 20.583,-5.53 0,0 -7.335,9.542 -20.303,9.542 z"
             id="path53"
             inkscape:connector-curvature="0"
             style="fill:#808080" /></g></g><g
         id="wing"><path
           d="m 377.862,479.299 c 0,0 15.42,-3.75 13.5,-11.57 -1.904,-7.759 -26.126,-6.991 -46.198,3.34 -2.866,0.461 -5.47,1.448 -7.257,2.98 l 2.001,17.75 c 0,0 0.484,0.546 1.269,1.25 l -0.011,0.116 c 0,0 9.991,16.884 19.866,12.384 5.619,-2.561 0.75,-11.5 0.75,-11.5 0,0 35.875,7.148 35.875,-4 0,-8.5 -19.795,-10.75 -19.795,-10.75 z"
           id="path56"
           inkscape:connector-curvature="0"
           style="fill:#bebebe" /><g
           id="g58"><path
             display="none"
             stroke-miterlimit="10"
             d="m 337.907,474.049 c 7,-6 26.51,-3.711 25.334,6.333 -0.917,7.834 -12.653,8.029 -12.653,8.029 0,0 2.724,3.011 0.285,6.012 -4.141,5.096 -10.965,-2.624 -10.965,-2.624"
             id="path60"
             inkscape:connector-curvature="0"
             style="display:none;fill:none;stroke:#808080;stroke-width:4;stroke-miterlimit:10" /><path
             d="m 347.441,498.163 c -5.597,-0.302 -7.533,-6.364 -7.533,-6.364 0,0 2.718,2.781 7.25,2.542 0.44,-0.023 1.685,-0.159 2.333,-1.084 1.197,-1.708 -0.226,-3.326 -0.387,-3.504 l -2.956,-3.269 4.406,-0.073 c 0.097,-0.002 9.998,-0.268 10.7,-6.262 0.264,-2.254 -0.916,-4.096 -3.507,-5.476 -2.313,-1.232 -5.312,-1.927 -8.278,-2.125 -7.031,-0.469 -11.563,1.5 -11.563,1.5 0,0 3.75,-5.291 11.438,-5.291 3.655,0 7.339,0.816 10.284,2.386 4.071,2.169 6.06,5.532 5.599,9.471 -0.784,6.697 -7.498,8.817 -11.552,9.487 0.431,1.655 0.31,3.663 -1.251,5.583 -1.284,1.581 -2.961,2.438 -4.848,2.477 -0.044,10e-4 -0.09,0.002 -0.135,0.002 z"
             id="path62"
             inkscape:connector-curvature="0"
             style="fill:#808080" /></g><g
           id="g64"><path
             display="none"
             stroke-miterlimit="10"
             d="m 343.095,472.174 c 20.438,-11.375 46.297,-12.473 48.268,-4.445 1.92,7.82 -13.5,11.57 -13.5,11.57 0,0 19.795,2.25 19.795,10.75 0,11.148 -35.875,4 -35.875,4 0,0 4.869,8.939 -0.75,11.5 -9.875,4.5 -19.866,-12.384 -19.866,-12.384"
             id="path66"
             inkscape:connector-curvature="0"
             style="display:none;fill:none;stroke:#808080;stroke-width:4;stroke-miterlimit:10" /><path
             d="m 357.553,508.322 c -9.615,0 -16.667,-13.489 -17.56,-16.287 3.227,2.889 4.1,2.083 5.958,4.38 3.397,4.199 9.083,9.665 14.252,7.313 0.702,-0.319 1.116,-0.764 1.343,-1.439 0.756,-2.252 -0.887,-6.111 -1.521,-7.286 l -2.023,-3.743 4.172,0.827 c 10.089,2.009 27.833,3.767 32.5,-0.063 0.681,-0.559 0.984,-1.168 0.984,-1.976 0,-5.073 -12.141,-8.095 -18.021,-8.763 l -11.138,-1.266 10.89,-2.665 c 0.036,-0.009 3.71,-0.919 7.062,-2.705 3.845,-2.05 5.517,-4.218 4.97,-6.445 -0.271,-1.104 -1.514,-1.853 -2.509,-2.286 -6.543,-2.853 -22.027,-1.373 -36.353,4.813 -2.203,0.951 -8.642,-0.066 -8.642,-0.066 17.115,-9.526 38.008,-12.154 46.593,-8.414 3.302,1.44 4.43,3.514 4.795,5 0.492,2.003 0.181,3.943 -0.926,5.765 -1.506,2.479 -4.296,4.343 -7.003,5.666 6.298,1.623 14.281,4.947 14.281,11.366 0,2.002 -0.847,3.754 -2.447,5.067 -6.24,5.12 -24.209,2.864 -32.188,1.548 0.636,2.046 1.071,4.634 0.319,6.887 -0.575,1.723 -1.778,3.042 -3.48,3.818 -1.455,0.664 -2.898,0.954 -4.308,0.954 z"
             id="path68"
             inkscape:connector-curvature="0"
             style="fill:#808080" /></g></g><g
         id="front_right_leg_2_"><path
           d="m 334.992,443.278 c 49.915,-23.396 67.006,-62.87 76.165,-62.729 9.159,0.141 25.549,16.694 25.549,25.194 0,8.5 -42.298,46.14 -98.799,62.057"
           id="path71"
           inkscape:connector-curvature="0"
           style="fill:#bebebe" /><g
           id="g73"><path
             display="none"
             stroke-miterlimit="10"
             d="m 335.407,444.049 c 55.225,-29.75 66.591,-63.641 75.75,-63.5 9.159,0.141 25.549,16.694 25.549,25.194 0,8.5 -39.049,44.364 -98.799,62.389"
             id="path75"
             inkscape:connector-curvature="0"
             style="display:none;fill:none;stroke:#808080;stroke-width:4;stroke-miterlimit:10" /><path
             d="m 337.907,467.8 c 0,0 8.563,-4.251 19.349,-8.501 48.775,-19.219 77.45,-47.855 77.45,-53.556 0,-7.682 -15.646,-23.073 -23.579,-23.194 -2.317,0.006 -6.1,4.533 -10.909,10.317 -8.225,9.892 -20.929,24.865 -43.34,40.471 -11.554,8.045 -21.886,9.941 -21.886,9.941 0,0 13.798,-9.237 19.819,-13.377 21.967,-15.104 34.277,-29.908 42.331,-39.593 6.087,-7.32 9.779,-11.76 13.955,-11.76 0.03,0 0.06,0 0.09,0 10.03,0.154 27.519,17.437 27.519,27.194 0,8.68 -31.421,38.235 -80.049,56.874 -15.312,5.87 -20.75,5.184 -20.75,5.184 z"
             id="path77"
             inkscape:connector-curvature="0"
             style="fill:#808080" /></g></g><g
         id="head_2_"><path
           d="m 390.432,355.527 c 2.799,37.653 -24.125,67.083 -56.758,69.509 -30.876,2.296 -63.688,-23.702 -66.412,-60.352 -2.528,-34.012 22.994,-63.634 57.006,-66.163 34.012,-2.528 63.634,22.994 66.164,57.006 z"
           id="path80"
           inkscape:connector-curvature="0"
           style="fill:#bebebe" /><g
           id="g82"><g
             id="g84"><defs
               id="defs86"><path
                 id="SVGID_1_"
                 d="m 320.776,400.924 c 5.409,8.769 17.972,8.34 22.507,-1.674 0,0 0.145,21.192 -9.896,21.938 -10.041,0.746 -12.611,-20.264 -12.611,-20.264 z"
                 inkscape:connector-curvature="0" /></defs><use
               xlink:href="#SVGID_1_"
               overflow="visible"
               id="use89"
               style="overflow:visible;fill:#444444"
               x="0"
               y="0"
               width="100%"
               height="100%" /><clipPath
               id="SVGID_2_"><use
                 xlink:href="#SVGID_1_"
                 overflow="visible"
                 id="use92"
                 style="overflow:visible"
                 x="0"
                 y="0"
                 width="100%"
                 height="100%" /></clipPath><ellipse
               transform="matrix(0.9972,-0.0741,0.0741,0.9972,-30.1906,25.8508)"
               clip-path="url(#SVGID_2_)"
               cx="333.19501"
               cy="419.68701"
               rx="5.8699999"
               ry="4.322"
               id="ellipse94"
               style="fill:#888888" /></g><path
             stroke-miterlimit="10"
             d="m 320.776,400.924 c 5.409,8.769 17.972,8.34 22.507,-1.674 0,0 0.145,21.192 -9.896,21.938 -10.041,0.746 -12.611,-20.264 -12.611,-20.264 z"
             id="path96"
             inkscape:connector-curvature="0"
             style="fill:none;stroke:#808080;stroke-width:2;stroke-miterlimit:10" /><path
             d="m 323.656,392.488 c 0.43,2.898 2.806,3.959 2.806,3.959 0,0 -5.152,0.629 -2.806,-3.959 z"
             id="path98"
             inkscape:connector-curvature="0"
             style="fill:#808080" /><path
             d="m 337.05,395.873 c 3.195,-1.742 2.508,-4.317 2.508,-4.317 0,0 3.486,4.472 -2.508,4.317 z"
             id="path100"
             inkscape:connector-curvature="0"
             style="fill:#808080" /><path
             d="m 325.273,386.729 c 5.426,-6.378 11.741,-0.79 11.741,-0.79 -6.186,-1.718 -11.741,0.79 -11.741,0.79 z"
             id="path102"
             inkscape:connector-curvature="0"
             style="fill:#808080" /></g><g
           id="g104"><defs
             id="defs106"><ellipse
               id="SVGID_3_"
               transform="matrix(-0.9559,0.2938,-0.2938,-0.9559,683.4587,643.8423)"
               cx="293.37201"
               cy="373.254"
               rx="20.641001"
               ry="29.900999" /></defs><use
             xlink:href="#SVGID_3_"
             overflow="visible"
             id="use109"
             style="overflow:visible;fill:#ffffff"
             x="0"
             y="0"
             width="100%"
             height="100%" /><clipPath
             id="SVGID_4_"><use
               xlink:href="#SVGID_3_"
               overflow="visible"
               id="use112"
               style="overflow:visible"
               x="0"
               y="0"
               width="100%"
               height="100%" /></clipPath><g
             clip-path="url(#SVGID_4_)"
             id="g114"><g
               id="g116"><defs
                 id="defs118"><path
                   id="SVGID_5_"
                   d="m 279.47,376.144 c 1.124,13.281 10.133,23.362 20.122,22.518 9.99,-0.846 17.178,-12.298 16.056,-25.577 -1.124,-13.282 -10.134,-23.362 -20.125,-22.518 -9.989,0.845 -17.176,12.296 -16.053,25.577 z"
                   inkscape:connector-curvature="0" /></defs><linearGradient
                 id="SVGID_6_"
                 gradientUnits="userSpaceOnUse"
                 x1="308.1875"
                 y1="350.15039"
                 x2="292.4375"
                 y2="386.40039"><stop
                   offset="0"
                   style="stop-color:#1a1a1a"
                   id="stop122" /><stop
                   offset="1"
                   style="stop-color:#919191"
                   id="stop124" /></linearGradient><use
                 xlink:href="#SVGID_5_"
                 overflow="visible"
                 id="use126"
                 style="overflow:visible;fill:url(#SVGID_6_-986)"
                 x="0"
                 y="0"
                 width="100%"
                 height="100%" /><clipPath
                 id="SVGID_7_"><use
                   xlink:href="#SVGID_5_"
                   overflow="visible"
                   id="use129"
                   style="overflow:visible"
                   x="0"
                   y="0"
                   width="100%"
                   height="100%" /></clipPath><polyline
                 clip-path="url(#SVGID_7_)"
                 points="298.327,376.57 273.395,390.528 280.207,397.787      "
                 id="polyline131"
                 style="fill:#d5d5d5" /><polyline
                 clip-path="url(#SVGID_7_)"
                 points="298.327,376.57 274.643,381.165 278.906,390.868      "
                 id="polyline133"
                 style="fill:#aaaaaa" /><linearGradient
                 id="SVGID_6_-986"
                 gradientUnits="userSpaceOnUse"
                 x1="308.1875"
                 y1="350.15039"
                 x2="292.4375"
                 y2="386.40039"><stop
                   offset="0"
                   style="stop-color:#1a1a1a"
                   id="stop4562" /><stop
                   offset="1"
                   style="stop-color:#919191"
                   id="stop4564" /></linearGradient></g><ellipse
               transform="matrix(-0.9964,0.0843,-0.0843,-0.9964,628.3599,723.4149)"
               cx="298.90201"
               cy="374.978"
               rx="15.477"
               ry="18.886"
               id="ellipse135" /><g
               id="g137"><ellipse
                 transform="matrix(0.9934,-0.1149,0.1149,0.9934,-39.9524,37.2297)"
                 cx="302.99301"
                 cy="365.203"
                 rx="6.8590002"
                 ry="12.523"
                 id="ellipse139"
                 style="fill:#ffffff" /><ellipse
                 transform="matrix(0.9425,0.3343,-0.3343,0.9425,141.5391,-75.3808)"
                 cx="289.802"
                 cy="373.577"
                 rx="2.454"
                 ry="3.4690001"
                 id="ellipse141"
                 style="fill:#ffffff" /><ellipse
                 transform="matrix(0.9657,-0.2596,0.2596,0.9657,-88.5821,90.2223)"
                 cx="297.33899"
                 cy="380.53101"
                 rx="1.164"
                 ry="1.761"
                 id="ellipse143"
                 style="fill:#ffffff" /></g></g></g><g
           id="g145"><defs
             id="defs147"><ellipse
               id="SVGID_8_"
               transform="matrix(0.9821,0.1883,-0.1883,0.9821,76.0067,-62.6284)"
               cx="367.548"
               cy="368.62601"
               rx="20.641001"
               ry="29.9" /></defs><use
             xlink:href="#SVGID_8_"
             overflow="visible"
             id="use150"
             style="overflow:visible;fill:#ffffff"
             x="0"
             y="0"
             width="100%"
             height="100%" /><clipPath
             id="SVGID_9_"><use
               xlink:href="#SVGID_8_"
               overflow="visible"
               id="use153"
               style="overflow:visible"
               x="0"
               y="0"
               width="100%"
               height="100%" /></clipPath><g
             clip-path="url(#SVGID_9_)"
             id="g155"><g
               id="g157"><defs
                 id="defs159"><path
                   id="SVGID_10_"
                   d="m 381.682,369.989 c 0.323,13.326 -7.538,24.325 -17.56,24.568 -10.024,0.244 -18.411,-10.359 -18.736,-23.685 -0.323,-13.325 7.538,-24.324 17.562,-24.568 10.021,-0.242 18.408,10.361 18.734,23.685 z"
                   inkscape:connector-curvature="0" /></defs><linearGradient
                 id="SVGID_11_"
                 gradientUnits="userSpaceOnUse"
                 x1="349.4678"
                 y1="351.10251"
                 x2="363.31241"
                 y2="381.56061"
                 gradientTransform="matrix(0.9972,-0.0741,0.0741,0.9972,-22.6097,25.0008)"><stop
                   offset="0"
                   style="stop-color:#1a1a1a"
                   id="stop163" /><stop
                   offset="1"
                   style="stop-color:#919191"
                   id="stop165" /></linearGradient><use
                 xlink:href="#SVGID_10_"
                 overflow="visible"
                 id="use167"
                 style="overflow:visible;fill:url(#SVGID_11_-921)"
                 x="0"
                 y="0"
                 width="100%"
                 height="100%" /><clipPath
                 id="SVGID_12_"><use
                   xlink:href="#SVGID_10_"
                   overflow="visible"
                   id="use170"
                   style="overflow:visible"
                   x="0"
                   y="0"
                   width="100%"
                   height="100%" /></clipPath><polyline
                 clip-path="url(#SVGID_12_)"
                 points="362.98,372.46 389.281,383.63 383.297,391.587      "
                 id="polyline172"
                 style="fill:#d5d5d5" /><polyline
                 clip-path="url(#SVGID_12_)"
                 points="362.98,372.46 387.025,374.458 383.84,384.565      "
                 id="polyline174"
                 style="fill:#aaaaaa" /><linearGradient
                 id="SVGID_11_-921"
                 gradientUnits="userSpaceOnUse"
                 x1="349.4678"
                 y1="351.10251"
                 x2="363.31241"
                 y2="381.56061"
                 gradientTransform="matrix(0.9972,-0.0741,0.0741,0.9972,-22.6097,25.0008)"><stop
                   offset="0"
                   style="stop-color:#1a1a1a"
                   id="stop4590" /><stop
                   offset="1"
                   style="stop-color:#919191"
                   id="stop4592" /></linearGradient></g><ellipse
               transform="matrix(0.9997,-0.0243,0.0243,0.9997,-8.9155,8.9207)"
               cx="362.237"
               cy="370.94"
               rx="15.477"
               ry="18.886"
               id="ellipse176" /><g
               id="g178"><ellipse
                 transform="matrix(0.9955,-0.095,0.095,0.9955,-32.7115,36.665)"
                 cx="368.552"
                 cy="361.737"
                 rx="6.8590002"
                 ry="12.523"
                 id="ellipse180"
                 style="fill:#ffffff" /><ellipse
                 transform="matrix(0.9357,0.3527,-0.3527,0.9357,153.267,-101.5092)"
                 cx="355.198"
                 cy="369.845"
                 rx="2.4549999"
                 ry="3.47"
                 id="ellipse182"
                 style="fill:#ffffff" /><ellipse
                 transform="matrix(0.9707,-0.2404,0.2404,0.9707,-79.9745,98.2058)"
                 cx="362.59601"
                 cy="376.94901"
                 rx="1.164"
                 ry="1.761"
                 id="ellipse184"
                 style="fill:#ffffff" /></g></g></g><path
           stroke-miterlimit="10"
           d="m 390.432,355.527 c 2.799,37.653 -24.125,67.083 -56.758,69.509 -30.876,2.296 -63.688,-23.702 -66.412,-60.352 -2.528,-34.012 22.994,-63.634 57.006,-66.163 34.012,-2.528 63.634,22.994 66.164,57.006 z"
           id="path186"
           inkscape:connector-curvature="0"
           style="fill:none;stroke:#808080;stroke-width:4;stroke-miterlimit:10" /></g><g
         id="right_ear_3_"><path
           d="m 297.062,314.338 c -2.757,-18.979 -15.03,-36.824 -21.492,-35.59 -10.122,1.931 -25.952,47.027 -4.091,69.465"
           id="path189"
           inkscape:connector-curvature="0"
           style="fill:#bebebe" /><path
           d="m 273.793,325.614 c 0,0 -4.245,-18.065 -1.153,-33.872 -7.519,16.221 1.153,33.872 1.153,33.872 z"
           id="path191"
           inkscape:connector-curvature="0"
           style="fill:#808080" /><g
           id="g193"><path
             display="none"
             stroke-miterlimit="10"
             d="m 297.062,314.338 c -2.757,-18.979 -15.03,-36.824 -21.492,-35.59 -10.122,1.931 -25.952,47.027 -4.091,69.465"
             id="path195"
             inkscape:connector-curvature="0"
             style="display:none;fill:none;stroke:#bcbcbc;stroke-width:4.02740002;stroke-miterlimit:10" /><path
             d="m 271.479,348.213 c 0,0 -6.329,-9.291 -8.357,-22.012 -1.568,-9.837 -0.174,-20.315 2.555,-28.985 3.161,-10.041 7.652,-15.991 10.271,-16.491 0.697,-0.129 1.811,0.288 3.035,1.159 2.438,1.736 5.048,5.058 7.693,9.202 6.847,10.726 10.386,23.251 10.386,23.251 0,0 -0.031,-14.022 -6.975,-25.375 -2.862,-4.68 -5.937,-8.341 -8.767,-10.358 -2.208,-1.571 -4.272,-2.184 -6.127,-1.835 -5.728,1.092 -10.655,10.654 -13.358,19.237 -2.883,9.16 -4.706,20.305 -2.688,30.742 3.03,15.677 12.332,21.465 12.332,21.465 z"
             id="path197"
             inkscape:connector-curvature="0"
             style="fill:#808080" /></g></g><g
         id="g199"><path
           d="m 314.858,382.246 c 1.869,-21.262 -14.462,-42.52 -29.113,-38.866 -13.126,3.275 -14.181,19.247 -13.868,20.999 0,0 3.454,-16.275 14.523,-18.439 11.362,-2.222 26.058,12.428 28.458,36.306 z"
           id="path201"
           inkscape:connector-curvature="0" /><path
           d="m 281.065,346.439 c -2.947,-1.473 -4.554,-4.252 -4.927,-7.764 0,0 -1.865,7.39 4.002,9.517"
           id="path203"
           inkscape:connector-curvature="0" /><path
           d="m 276.222,352.063 c -3.042,-0.607 -6.731,-2.81 -7.144,-6.278 0,0 -1.481,6.282 6.059,8.581"
           id="path205"
           inkscape:connector-curvature="0" /><path
           d="m 272.938,359.533 c -3.07,0.894 -5.492,0.934 -7.837,-1.336 0,0 1.092,4.875 7.061,3.685"
           id="path207"
           inkscape:connector-curvature="0" /></g><g
         id="mane_top_2_"><path
           d="m 381.904,303.724 c -13.313,-32.846 -48.57,-53.371 -80.132,-44.133 0,0 6.995,2.57 9.996,6.236 -43.108,5.365 -31.086,44.909 -44.69,47.718 -9.935,2.051 -10.732,-5.733 -11.142,-12.721 -14.956,14.199 -6.612,34.373 9.3,41.412 17.304,7.652 43.424,0.965 54.624,-14.816 0,0 0.031,13.326 12.726,20.773 -0.532,-28.597 23.206,-50.028 49.318,-44.469 z"
           id="path210"
           inkscape:connector-curvature="0"
           style="fill:#747474" /><path
           stroke-miterlimit="10"
           d="m 381.904,303.724 c -13.313,-32.846 -48.57,-53.371 -80.132,-44.133 0,0 6.995,2.57 9.996,6.236 -43.108,5.365 -31.086,44.909 -44.69,47.718 -9.935,2.051 -10.732,-5.733 -11.142,-12.721 -14.956,14.199 -6.612,34.373 9.3,41.412 17.304,7.652 43.424,0.965 54.624,-14.816 0,0 0.031,13.326 12.726,20.773 -0.532,-28.597 23.206,-50.028 49.318,-44.469 z"
           id="path212"
           inkscape:connector-curvature="0"
           style="fill:none;stroke:#464646;stroke-width:4;stroke-miterlimit:10" /><path
           stroke-miterlimit="10"
           d="m 358.154,272.209 c -46.386,-6.381 -37.624,66.5 -90.618,70.936"
           id="path214"
           inkscape:connector-curvature="0"
           style="fill:none;stroke:#464646;stroke-width:2;stroke-miterlimit:10" /></g><g
         id="left_ear_3_"><path
           d="m 355.814,313.172 c -0.079,-19.177 9.42,-38.641 15.993,-38.378 10.296,0.414 32.62,42.673 14.318,68.097"
           id="path217"
           inkscape:connector-curvature="0"
           style="fill:#bebebe" /><path
           d="m 380.494,320.883 c 0,0 1.528,-18.494 -3.866,-33.669 9.835,14.93 3.866,33.669 3.866,33.669 z"
           id="path219"
           inkscape:connector-curvature="0"
           style="fill:#808080" /><g
           id="g221"><path
             display="none"
             stroke-miterlimit="10"
             d="m 355.814,313.172 c -0.079,-19.177 9.42,-38.641 15.993,-38.378 10.296,0.414 32.62,42.673 14.318,68.097"
             id="path223"
             inkscape:connector-curvature="0"
             style="display:none;fill:none;stroke:#bcbcbc;stroke-width:4.02740002;stroke-miterlimit:10" /><path
             d="m 386.126,342.891 c 0,0 4.885,-10.124 5.011,-23.005 0.095,-9.96 -2.832,-20.118 -6.813,-28.288 -4.61,-9.463 -9.932,-14.684 -12.597,-14.791 -0.708,-0.025 -1.748,0.553 -2.829,1.595 -2.154,2.077 -4.245,5.749 -6.248,10.238 -5.187,11.622 -6.835,24.532 -6.835,24.532 0,0 -2.041,-13.874 3.146,-26.128 2.139,-5.052 4.64,-9.128 7.14,-11.541 1.951,-1.881 3.901,-2.792 5.788,-2.721 5.826,0.234 12.113,8.961 16.056,17.051 4.206,8.633 7.655,19.385 7.204,30.006 -0.679,15.953 -9.023,23.052 -9.023,23.052 z"
             id="path225"
             inkscape:connector-curvature="0"
             style="fill:#808080" /></g></g><g
         id="g227"><path
           d="m 347.164,379.897 c -4.164,-20.935 9.763,-43.839 24.723,-41.796 13.404,1.831 16.186,17.594 16.065,19.37 0,0 -5.2,-15.805 -16.438,-16.755 -11.536,-0.976 -24.554,15.182 -24.35,39.181 z"
           id="path229"
           inkscape:connector-curvature="0" /><path
           d="m 376.871,340.634 c 2.771,-1.784 4.066,-4.72 4.056,-8.252 0,0 2.656,7.144 -2.944,9.896"
           id="path231"
           inkscape:connector-curvature="0" /><path
           d="m 382.297,345.698 c 2.959,-0.934 6.387,-3.522 6.421,-7.016 0,0 2.154,6.085 -5.091,9.19"
           id="path233"
           inkscape:connector-curvature="0" /><path
           d="m 386.371,352.769 c 3.148,0.555 5.562,0.334 7.647,-2.177 0,0 -0.558,4.963 -6.62,4.428"
           id="path235"
           inkscape:connector-curvature="0" /></g></g><g
       id="Sweetie_Belle"><g
         id="tail_1_"><path
           d="m 154.17,272.382 c -2.845,-38.992 -55.68,-73.167 -98.013,-48.833 -42.333,24.334 -16.323,84.114 -16.323,84.114 0,0 -20.677,-12.786 -33.177,8.636 -20.426,35.005 32.25,79.5 66.187,44.155 12.026,-12.525 9.313,-33.478 9.313,-33.478 0,0 22.934,15.524 34.5,-5.598 9.917,-18.109 -10.89,-35.492 -26.955,-21.612 0,0 -3.17,-19.093 23.872,-25.051 24.168,-5.325 30.167,8 30.167,8"
           id="path239"
           inkscape:connector-curvature="0"
           style="fill:#919191" /><path
           d="m 68.407,239.799 c -24.541,16.787 -7.256,50.403 -7.785,75.583 -0.369,17.539 -11.128,29.225 -28.617,18.73 0,0 10.068,4.937 14.068,-7.563 1.906,-5.958 -0.442,-13.25 -6.792,-20.242 0.344,0.876 0.552,1.356 0.552,1.356 0,0 -20.677,-12.786 -33.177,8.636 -20.426,35.005 32.25,79.5 66.187,44.155 12.026,-12.525 9.313,-33.478 9.313,-33.478 0,0 22.934,15.524 34.5,-5.598 9.917,-18.109 -10.89,-35.492 -26.955,-21.612 0,0 -3.17,-19.093 23.872,-25.051 24.168,-5.325 30.167,8 30.167,8 l 6.073,-6.017 C 132.031,240.957 92.831,223.093 68.407,239.799 Z"
           id="path241"
           inkscape:connector-curvature="0"
           style="fill:#c8c8c8" /><path
           stroke-miterlimit="10"
           d="M 154.17,272.382 C 151.325,233.39 98.49,199.215 56.157,223.549 13.824,247.883 40.017,308.101 40.017,308.101"
           id="path243"
           inkscape:connector-curvature="0"
           style="fill:none;stroke:#545454;stroke-width:4;stroke-miterlimit:10" /><g
           id="g245"><path
             display="none"
             stroke-miterlimit="10"
             d="m 34.157,324.549 c -0.5,-8.5 -12.161,-3.865 -9.25,5.25 3.167,9.917 22.167,8.195 21.498,-8.247 -0.777,-19.094 -27.248,-26.676 -39.748,-5.253 -20.426,35.005 32.25,79.5 66.187,44.155 12.026,-12.525 9.313,-33.478 9.313,-33.478 0,0 22.934,15.524 34.5,-5.598 9.917,-18.109 -10.875,-35.33 -26.94,-21.45"
             id="path247"
             inkscape:connector-curvature="0"
             style="display:none;fill:none;stroke:#545454;stroke-width:4;stroke-miterlimit:10" /><path
             d="m 44.357,375.324 c -9.72,0 -19.048,-3.572 -26.413,-9.133 C 3.662,355.41 -6.502,334.883 4.93,315.291 12.487,302.34 24.099,299.942 32.444,302.02 c 9.308,2.314 15.572,9.95 15.959,19.451 0.422,10.369 -6.072,15.223 -11.761,16.228 -6.201,1.098 -11.941,-1.97 -13.64,-7.291 -1.245,-3.899 -0.487,-7.595 2.405,-9.858 3.594,-2.813 9.75,-0.292 7.38,4.081 -0.005,-0.956 -0.886,-2.077 -1.812,-2.448 -0.798,-0.319 -2.01,0.063 -2.944,0.933 -0.733,0.681 -2.318,2.637 -1.219,6.077 1.228,3.842 5.521,5.212 9.134,4.569 4.297,-0.759 8.777,-4.344 8.46,-12.125 -0.313,-7.682 -5.387,-13.857 -12.928,-15.732 -6.939,-1.726 -16.651,0.364 -23.094,11.405 -10.202,17.484 -0.947,35.942 11.969,45.692 12.644,9.546 33.599,14.243 51.047,-3.93 11.204,-11.669 8.798,-31.637 8.772,-31.837 l -0.561,-4.392 3.666,2.48 c 0.103,0.069 10.572,7.014 20.235,4.668 4.707,-1.145 8.539,-4.364 11.39,-9.57 4.614,-8.426 1.694,-16.227 -3.247,-20.219 -4.573,-3.696 -12.723,-5.589 -20.631,1.242 l -2.615,-3.026 c 9.148,-7.904 19.53,-6.361 25.76,-1.327 6.235,5.038 9.965,14.8 4.242,25.251 -3.418,6.242 -8.12,10.125 -13.976,11.542 -7.817,1.892 -15.695,-1.128 -20.027,-3.317 0.206,6.869 -0.629,21.388 -10.122,31.275 -9.208,9.588 -19.782,13.481 -29.929,13.482 z"
             id="path249"
             inkscape:connector-curvature="0"
             style="fill:#545454" /></g><g
           id="g251"><path
             display="none"
             stroke-miterlimit="10"
             d="m 102.741,308.549 c -12.119,11.833 -26.333,-25.167 10.833,-33.833 24.102,-5.62 30.167,8 30.167,8"
             id="path253"
             inkscape:connector-curvature="0"
             style="display:none;fill:none;stroke:#545454;stroke-width:4;stroke-miterlimit:10" /><path
             d="m 94.595,311.674 c -4.975,-2.094 -7.601,-8.647 -6.804,-15.669 0.607,-5.353 4.292,-18.331 25.329,-23.236 25.42,-5.928 32.172,8.516 32.448,9.134 l -3.654,1.627 c -0.223,-0.479 -5.854,-12.004 -27.885,-6.866 -18.557,4.327 -21.751,15.283 -22.263,19.792 -0.662,5.832 1.751,10.691 4.466,12.02 1.645,0.803 3.517,0.367 5.112,-1.358 0.407,4.931 -3.978,5.722 -6.749,4.556 z"
             id="path255"
             inkscape:connector-curvature="0"
             style="fill:#545454" /></g></g><g
         id="back_right_leg_1_"><path
           d="m 193.803,339.692 0,0 c -6.876,-3.978 -16.694,-11.37 -28.506,-27.288 l 52.179,-30.901 c -13.139,82.974 29.29,98.66 29.498,108.563 0.091,4.365 -24.544,16.161 -37.002,12.547 -12.458,-3.613 -21.333,-46.454 -20.655,-53.22 0.677,-6.766 4.486,-9.701 4.486,-9.701 z"
           id="path258"
           inkscape:connector-curvature="0"
           style="fill:#e2e2e2" /><path
           stroke-miterlimit="10"
           d="m 217.476,281.504 c -13.139,82.974 29.29,98.66 29.498,108.563 0.091,4.365 -24.544,16.161 -37.002,12.547 -12.458,-3.613 -21.333,-46.454 -20.655,-53.22 0.678,-6.768 4.487,-9.702 4.487,-9.702"
           id="path260"
           inkscape:connector-curvature="0"
           style="fill:none;stroke:#c6c6c6;stroke-width:4;stroke-miterlimit:10" /><g
           id="g262"><path
             display="none"
             stroke-miterlimit="10"
             d="m 165.296,312.405 c 16.795,22.631 33.06,29.957 36.112,31.183"
             id="path264"
             inkscape:connector-curvature="0"
             style="display:none;fill:none;stroke:#bcbcbc;stroke-width:4.00250006;stroke-miterlimit:10" /><path
             d="m 201.409,343.589 c 0,0 -5.684,-2.898 -16.788,-12.695 -5.272,-4.652 -11.545,-11.364 -17.717,-19.681 l -3.214,2.385 c 6.36,8.569 12.63,15.036 18.239,19.75 11.448,9.618 19.48,10.241 19.48,10.241 z"
             id="path266"
             inkscape:connector-curvature="0"
             style="fill:#c6c6c6" /></g></g><g
         id="front_left_leg_1_"><path
           d="m 196.793,228.101 c -33.568,-11.432 -72.358,-57.136 -81.817,-57.769 -9.459,-0.633 -22.433,29.458 -18.543,35.921 3.889,6.463 53.866,29.797 92.846,38.796"
           id="path269"
           inkscape:connector-curvature="0"
           style="fill:#ededed" /><path
           stroke-miterlimit="10"
           d="m 196.793,228.101 c -33.568,-11.432 -72.358,-57.136 -81.817,-57.769 -9.459,-0.633 -22.433,29.458 -18.543,35.921 3.889,6.463 53.866,29.797 92.846,38.796"
           id="path271"
           inkscape:connector-curvature="0"
           style="fill:none;stroke:#c6c6c6;stroke-width:4;stroke-miterlimit:10" /></g><g
         id="front_right_leg_1_"><path
           d="m 219.1,226.88 c 54.498,-7.338 71.731,-33.803 81.708,-31.247 7.146,1.831 11.432,29.755 5.601,39.422 -2.56,4.242 -59.186,15.965 -88.943,9.705"
           id="path274"
           inkscape:connector-curvature="0"
           style="fill:#ededed" /><path
           stroke-miterlimit="10"
           d="m 219.1,226.88 c 54.498,-7.338 71.731,-33.803 81.708,-31.247 7.146,1.831 12.131,30.4 5.601,39.422 -2.906,4.014 -59.186,15.965 -88.943,9.705"
           id="path276"
           inkscape:connector-curvature="0"
           style="fill:none;stroke:#c6c6c6;stroke-width:4;stroke-miterlimit:10" /></g><g
         id="body_1_"><path
           d="m 210.673,171.955 c 30.816,0.526 26.829,55.402 17.042,90.65 -14.583,52.519 -54.134,71.432 -79.343,50.27 -20.111,-16.883 -0.696,-46.2 22.964,-62.987 32.105,-22.779 -2.537,-78.648 39.337,-77.933 z"
           id="path279"
           inkscape:connector-curvature="0"
           style="fill:#ededed" /><path
           stroke-miterlimit="10"
           d="m 210.673,171.955 c 30.816,0.526 26.996,55.449 17.042,90.65 -14.85,52.519 -54.134,71.432 -79.343,50.27 -20.111,-16.883 -0.696,-46.2 22.964,-62.987 32.105,-22.779 -2.537,-78.648 39.337,-77.933 z"
           id="path281"
           inkscape:connector-curvature="0"
           style="fill:none;stroke:#c6c6c6;stroke-width:4;stroke-miterlimit:10" /></g><g
         id="back_left_leg_1_"><path
           d="m 87.689,326.715 c 6.409,-6.895 13.718,-2.033 22.33,-9.309 8.613,-7.276 4.743,-24.707 21.043,-18.987 1.47,-21.624 25.512,-39.371 40.274,-48.532 l -1.244,53.382 c -3.837,16.026 -17.675,24.211 -30.768,20.663 0,0 -10.542,34.819 -44.266,35.548 -9.056,0.196 -13.779,-25.869 -7.369,-32.765 z"
           id="path284"
           inkscape:connector-curvature="0"
           style="fill:#ededed" /><g
           id="g286"><path
             id="XMLID_2_"
             display="none"
             stroke-miterlimit="10"
             d="m 171.336,249.888 c -15.691,11.18 -40.713,25.161 -40.713,55.444"
             inkscape:connector-curvature="0"
             style="display:none;fill:none;stroke:#bcbcbc;stroke-width:4;stroke-miterlimit:10" /><path
             d="m 130.407,305.332 c 0,0 -2.373,-10.158 2.7,-20.998 7.161,-15.302 21.137,-25.051 32.259,-32.723 1.67,-1.152 3.284,-2.266 4.81,-3.353 l 2.321,3.258 c -1.541,1.098 -3.172,2.223 -4.86,3.387 -11.203,7.729 -24.355,16.822 -30.908,31.053 -5.729,12.445 -6.322,19.376 -6.322,19.376 z"
             id="path289"
             inkscape:connector-curvature="0"
             style="fill:#c6c6c6" /></g><path
           stroke-miterlimit="10"
           d="m 131.062,298.419 c -14.821,-5.121 -12.43,11.71 -21.043,18.987 -8.612,7.276 -15.921,2.414 -22.33,9.309 -6.41,6.896 -1.677,32.287 7.37,32.765 9.046,0.477 30.9,-5.687 44.451,-34.921"
           id="path291"
           inkscape:connector-curvature="0"
           style="fill:none;stroke:#c6c6c6;stroke-width:4;stroke-miterlimit:10" /><g
           id="g293"><path
             display="none"
             stroke-miterlimit="10"
             d="m 129.078,318.408 c 15.124,12.942 36.14,5.221 41.015,-15.138"
             id="path295"
             inkscape:connector-curvature="0"
             style="display:none;fill:none;stroke:#bcbcbc;stroke-width:4;stroke-miterlimit:10" /><path
             d="m 170.092,303.27 c 0,0 -7.002,14.838 -18.762,18.642 -11.823,3.824 -22.253,-3.504 -22.253,-3.504 0,0 6.409,12.634 23.708,7.22 15.246,-4.772 17.307,-22.358 17.307,-22.358 z"
             id="path297"
             inkscape:connector-curvature="0"
             style="fill:#c6c6c6" /></g></g><g
         id="mane_side_1_"><path
           d="m 163.241,147.716 c -8.667,27.5 3.182,55.126 3.182,55.126 -9.162,4.707 -19.891,38.707 15.484,41.541 39.15,3.136 43.5,-59.333 12.333,-96.667"
           id="path300"
           inkscape:connector-curvature="0"
           style="fill:#c8c8c8" /><path
           d="m 209.797,228.277 c -0.759,-7.975 -3.077,-16.437 -7.059,-24.711 -9.92,-20.611 -27.185,-33.895 -42.659,-34.502 -0.053,18.838 6.344,33.778 6.344,33.778 -9.162,4.707 -19.891,38.707 15.484,41.541 13.36,1.069 22.663,-5.503 27.89,-16.106 z"
           id="path302"
           inkscape:connector-curvature="0"
           style="fill:#919191" /><path
           stroke-miterlimit="10"
           d="m 163.241,147.716 c -8.667,27.5 3.193,55.119 3.193,55.119"
           id="path304"
           inkscape:connector-curvature="0"
           style="fill:none;stroke:#545454;stroke-width:4;stroke-miterlimit:10" /><g
           id="g306"><path
             display="none"
             stroke-miterlimit="10"
             d="m 194.241,147.716 c 31.167,37.333 26.917,98.083 -12.333,96.667 -38.748,-1.398 -25.594,-51.898 -1.667,-43.333 9.549,3.418 10.526,13.677 5.565,18.894 -4.023,4.231 -14.273,5.231 -14.523,-4.394"
             id="path308"
             inkscape:connector-curvature="0"
             style="display:none;fill:none;stroke:#545454;stroke-width:4;stroke-miterlimit:10" /><path
             d="m 183.218,246.406 c -0.458,0 -0.918,-0.008 -1.383,-0.025 -16.487,-0.595 -22.539,-9.542 -24.678,-14.822 -3.696,-9.123 -1.47,-20.861 5.295,-27.91 5.035,-5.247 11.765,-6.881 18.462,-4.483 4.914,1.759 8.363,5.422 9.463,10.051 1.035,4.353 -0.206,8.95 -3.123,12.104 -7.764,8.394 -18.764,1.644 -13.973,-5.824 -0.375,1.968 1.048,4.444 2.907,5.159 2.454,0.943 6.193,-0.015 8.168,-2.091 2.039,-2.144 2.855,-5.371 2.13,-8.422 -0.793,-3.336 -3.25,-5.897 -6.919,-7.211 -5.225,-1.869 -10.278,-0.632 -14.229,3.487 -5.632,5.87 -7.556,16.032 -4.474,23.639 3.067,7.568 10.565,11.946 21.115,12.327 14.905,0.538 22.429,-8.317 26.115,-15.84 10.235,-20.887 3.475,-54.949 -15.389,-77.546 l 3.07,-2.563 c 9.898,11.856 16.896,26.883 19.705,42.312 2.724,14.958 1.376,29.006 -3.794,39.557 -5.739,11.712 -15.814,18.101 -28.468,18.101 z"
             id="path310"
             inkscape:connector-curvature="0"
             style="fill:#545454" /></g></g><g
         id="head_1_"><path
           d="m 151.798,151.468 c 0,37.5 28.834,64.667 61.334,64.667 30.75,0 61.334,-28.167 61.334,-64.667 0,-33.874 -27.46,-61.333 -61.334,-61.333 -33.874,0 -61.334,27.459 -61.334,61.333 z"
           id="path313"
           inkscape:connector-curvature="0"
           style="fill:#ededed" /><g
           id="g315"><path
             d="m 222.006,192.361 c -5.644,8.535 -18.103,7.715 -22.291,-2.367 0,0 -0.807,21.032 9.136,22.088 9.943,1.056 13.155,-19.721 13.155,-19.721 z"
             id="path317"
             inkscape:connector-curvature="0"
             style="fill:#444444" /><path
             d="m 208.851,212.082 c 2.307,0.245 4.247,-0.693 5.873,-2.266 -0.594,-1.77 -2.628,-3.217 -5.181,-3.488 -2.638,-0.28 -4.998,0.783 -5.889,2.483 1.278,1.786 2.965,3.034 5.197,3.271 z"
             id="path319"
             inkscape:connector-curvature="0"
             style="fill:#888888" /><path
             stroke-miterlimit="10"
             d="m 222.006,192.361 c -5.644,8.535 -18.103,7.715 -22.291,-2.367 0,0 -0.807,21.032 9.136,22.088 9.943,1.056 13.155,-19.721 13.155,-19.721 z"
             id="path321"
             inkscape:connector-curvature="0"
             style="fill:none;stroke:#c6c6c6;stroke-width:2;stroke-miterlimit:10" /><path
             d="m 219.41,183.898 c -0.518,2.863 -2.91,3.841 -2.91,3.841 0,0 5.096,0.786 2.91,-3.841 z"
             id="path323"
             inkscape:connector-curvature="0"
             style="fill:#c6c6c6" /><path
             d="m 206.009,186.836 c -3.117,-1.829 -2.354,-4.364 -2.354,-4.364 0,0 -3.602,4.332 2.354,4.364 z"
             id="path325"
             inkscape:connector-curvature="0"
             style="fill:#c6c6c6" /><path
             d="m 217.986,178.128 c -5.186,-6.501 -11.63,-1.151 -11.63,-1.151 6.194,-1.511 11.63,1.151 11.63,1.151 z"
             id="path327"
             inkscape:connector-curvature="0"
             style="fill:#c6c6c6" /></g><g
           id="g329"><defs
             id="defs331"><ellipse
               id="SVGID_13_"
               transform="matrix(0.9523,0.3052,-0.3052,0.9523,62.2782,-68.3238)"
               cx="249.63"
               cy="164.996"
               rx="20.500999"
               ry="29.697001" /></defs><use
             xlink:href="#SVGID_13_"
             overflow="visible"
             id="use334"
             style="overflow:visible;fill:#ffffff"
             x="0"
             y="0"
             width="100%"
             height="100%" /><clipPath
             id="SVGID_14_"><use
               xlink:href="#SVGID_13_"
               overflow="visible"
               id="use337"
               style="overflow:visible"
               x="0"
               y="0"
               width="100%"
               height="100%" /></clipPath><g
             clip-path="url(#SVGID_14_)"
             id="g339"><g
               id="g341"><defs
                 id="defs343"><path
                   id="SVGID_15_"
                   d="m 263.402,168.031 c -1.274,13.176 -10.342,23.081 -20.252,22.122 -9.911,-0.959 -16.914,-12.417 -15.639,-25.593 1.274,-13.176 10.341,-23.081 20.255,-22.122 9.909,0.958 16.91,12.417 15.636,25.593 z"
                   inkscape:connector-curvature="0" /></defs><linearGradient
                 id="SVGID_16_"
                 gradientUnits="userSpaceOnUse"
                 x1="249.4966"
                 y1="131.69341"
                 x2="264.05042"
                 y2="163.71159"
                 gradientTransform="matrix(0.9989,0.0465,-0.0465,0.9989,-6.5492,0.8519)"><stop
                   offset="0"
                   style="stop-color:#727272"
                   id="stop347" /><stop
                   offset="1"
                   style="stop-color:#bcbcbc"
                   id="stop349" /></linearGradient><use
                 xlink:href="#SVGID_15_"
                 overflow="visible"
                 id="use351"
                 style="overflow:visible;fill:url(#SVGID_16_-591)"
                 x="0"
                 y="0"
                 width="100%"
                 height="100%" /><clipPath
                 id="SVGID_17_"><use
                   xlink:href="#SVGID_15_"
                   overflow="visible"
                   id="use354"
                   style="overflow:visible"
                   x="0"
                   y="0"
                   width="100%"
                   height="100%" /></clipPath><polyline
                 clip-path="url(#SVGID_17_)"
                 points="244.669,168.229 269.263,182.389 262.411,189.517      "
                 id="polyline356"
                 style="fill:#fbfbfb" /><polyline
                 clip-path="url(#SVGID_17_)"
                 points="244.669,168.229 268.136,173.077 263.786,182.66      "
                 id="polyline358"
                 style="fill:#d9d9d9" /><linearGradient
                 id="SVGID_16_-591"
                 gradientUnits="userSpaceOnUse"
                 x1="249.4966"
                 y1="131.69341"
                 x2="264.05042"
                 y2="163.71159"
                 gradientTransform="matrix(0.9989,0.0465,-0.0465,0.9989,-6.5492,0.8519)"><stop
                   offset="0"
                   style="stop-color:#727272"
                   id="stop4696" /><stop
                   offset="1"
                   style="stop-color:#bcbcbc"
                   id="stop4698" /></linearGradient></g><ellipse
               transform="matrix(0.9954,0.0963,-0.0963,0.9954,17.1752,-22.7258)"
               cx="244.118"
               cy="166.64101"
               rx="15.372"
               ry="18.757999"
               id="ellipse360" /><g
               id="g362"><ellipse
                 transform="matrix(0.9937,-0.1122,0.1122,0.9937,-16.0521,28.739)"
                 cx="247.30299"
                 cy="156.983"
                 rx="6.8130002"
                 ry="12.438"
                 id="ellipse364"
                 style="fill:#ffffff" /><ellipse
                 transform="matrix(0.9416,0.3367,-0.3367,0.9416,69.327,-69.2056)"
                 cx="234.181"
                 cy="165.265"
                 rx="2.438"
                 ry="3.4449999"
                 id="ellipse366"
                 style="fill:#ffffff" /><ellipse
                 transform="matrix(0.9665,-0.2566,0.2566,0.9665,-36.0902,67.7641)"
                 cx="241.64799"
                 cy="172.19099"
                 rx="1.156"
                 ry="1.749"
                 id="ellipse368"
                 style="fill:#ffffff" /></g></g></g><g
           id="g370"><defs
             id="defs372"><ellipse
               id="SVGID_18_"
               transform="matrix(-0.9843,0.1765,-0.1765,-0.9843,377.4308,285.4573)"
               cx="176.02"
               cy="159.51401"
               rx="20.500999"
               ry="29.695999" /></defs><use
             xlink:href="#SVGID_18_"
             overflow="visible"
             id="use375"
             style="overflow:visible;fill:#ffffff"
             x="0"
             y="0"
             width="100%"
             height="100%" /><clipPath
             id="SVGID_19_"><use
               xlink:href="#SVGID_18_"
               overflow="visible"
               id="use378"
               style="overflow:visible"
               x="0"
               y="0"
               width="100%"
               height="100%" /></clipPath><g
             clip-path="url(#SVGID_19_)"
             id="g380"><g
               id="g382"><defs
                 id="defs384"><path
                   id="SVGID_20_"
                   d="m 161.968,160.7 c -0.481,13.229 7.195,24.247 17.146,24.608 9.951,0.361 18.408,-10.069 18.889,-23.298 0.481,-13.229 -7.195,-24.247 -17.147,-24.608 -9.95,-0.361 -18.407,10.069 -18.888,23.298 z"
                   inkscape:connector-curvature="0" /></defs><linearGradient
                 id="SVGID_21_"
                 gradientUnits="userSpaceOnUse"
                 x1="188.8262"
                 y1="141.97121"
                 x2="174.1597"
                 y2="175.6382"
                 gradientTransform="matrix(0.9963,0.0861,-0.0861,0.9963,15.6425,-17.6633)"><stop
                   offset="0"
                   style="stop-color:#727272"
                   id="stop388" /><stop
                   offset="1"
                   style="stop-color:#bcbcbc"
                   id="stop390" /></linearGradient><use
                 xlink:href="#SVGID_20_"
                 overflow="visible"
                 id="use392"
                 style="overflow:visible;fill:url(#SVGID_21_-567)"
                 x="0"
                 y="0"
                 width="100%"
                 height="100%" /><clipPath
                 id="SVGID_22_"><use
                   xlink:href="#SVGID_20_"
                   overflow="visible"
                   id="use395"
                   style="overflow:visible"
                   x="0"
                   y="0"
                   width="100%"
                   height="100%" /></clipPath><polyline
                 clip-path="url(#SVGID_22_)"
                 points="180.509,163.376 154.258,174.156 160.105,182.128      "
                 id="polyline397"
                 style="fill:#fbfbfb" /><polyline
                 clip-path="url(#SVGID_22_)"
                 points="180.509,163.376 156.607,165.074 159.65,175.15      "
                 id="polyline399"
                 style="fill:#d9d9d9" /><linearGradient
                 id="SVGID_21_-567"
                 gradientUnits="userSpaceOnUse"
                 x1="188.8262"
                 y1="141.97121"
                 x2="174.1597"
                 y2="175.6382"
                 gradientTransform="matrix(0.9963,0.0861,-0.0861,0.9963,15.6425,-17.6633)"><stop
                   offset="0"
                   style="stop-color:#727272"
                   id="stop4724" /><stop
                   offset="1"
                   style="stop-color:#bcbcbc"
                   id="stop4726" /></linearGradient></g><ellipse
               transform="matrix(-0.9993,-0.0363,0.0363,-0.9993,356.5306,330.2311)"
               cx="181.26601"
               cy="161.875"
               rx="15.372"
               ry="18.757"
               id="ellipse401" /><g
               id="g403"><ellipse
                 transform="matrix(0.9974,-0.0727,0.0727,0.9974,-10.6294,13.6865)"
                 cx="182.666"
                 cy="152.836"
                 rx="6.8130002"
                 ry="12.437"
                 id="ellipse405"
                 style="fill:#ffffff" /><ellipse
                 transform="matrix(0.9276,0.3737,-0.3737,0.9276,72.2699,-51.6034)"
                 cx="169.226"
                 cy="160.59"
                 rx="2.438"
                 ry="3.4449999"
                 id="ellipse407"
                 style="fill:#ffffff" /><ellipse
                 transform="matrix(0.9759,-0.2181,0.2181,0.9759,-32.3539,42.5185)"
                 cx="176.412"
                 cy="167.80701"
                 rx="1.156"
                 ry="1.749"
                 id="ellipse409"
                 style="fill:#ffffff" /></g></g></g><path
           stroke-miterlimit="10"
           d="m 151.798,151.468 c 0,37.5 28.834,64.667 61.334,64.667 30.75,0 61.334,-28.167 61.334,-64.667 0,-33.874 -27.46,-61.333 -61.334,-61.333 -33.874,0 -61.334,27.459 -61.334,61.333 z"
           id="path411"
           inkscape:connector-curvature="0"
           style="fill:none;stroke:#c6c6c6;stroke-width:4;stroke-miterlimit:10" /></g><g
         id="right_ear_2_"><path
           d="m 247.525,109.629 c 3.51,-18.721 16.417,-35.928 22.78,-34.442 9.966,2.329 23.835,47.727 1.226,69.101"
           id="path414"
           inkscape:connector-curvature="0"
           style="fill:#ededed" /><path
           d="m 270.156,121.767 c 0,0 4.951,-17.753 2.527,-33.564 6.799,16.402 -2.527,33.564 -2.527,33.564 z"
           id="path416"
           inkscape:connector-curvature="0"
           style="fill:#c6c6c6" /><g
           id="g418"><path
             display="none"
             stroke-miterlimit="10"
             d="m 247.525,109.629 c 3.51,-18.721 16.417,-35.928 22.78,-34.442 9.966,2.329 23.835,47.727 1.226,69.101"
             id="path420"
             inkscape:connector-curvature="0"
             style="display:none;fill:none;stroke:#bcbcbc;stroke-width:4;stroke-miterlimit:10" /><path
             d="m 271.531,144.288 c 0,0 6.659,-8.96 9.191,-21.502 1.958,-9.698 1.001,-20.153 -1.352,-28.867 -2.727,-10.094 -6.94,-16.181 -9.52,-16.784 -0.686,-0.157 -1.809,0.211 -3.06,1.026 -2.49,1.624 -5.215,4.814 -8.008,8.817 -7.234,10.365 -11.257,22.651 -11.257,22.651 0,0 0.604,-13.914 7.958,-24.897 3.031,-4.528 6.232,-8.036 9.123,-9.921 2.253,-1.469 4.328,-1.993 6.155,-1.57 5.639,1.317 10.139,11.006 12.47,19.635 2.488,9.208 3.84,20.341 1.413,30.616 -3.646,15.432 -13.113,20.796 -13.113,20.796 z"
             id="path422"
             inkscape:connector-curvature="0"
             style="fill:#c6c6c6" /></g></g><g
         id="g424"><path
           d="m 228.185,173.67 c -1.603,-21.139 14.87,-42.056 29.376,-38.251 12.997,3.408 13.853,19.283 13.521,21.019 0,0 -3.236,-16.203 -14.203,-18.485 -11.256,-2.344 -26.025,12.03 -28.694,35.717 z"
           id="path426"
           inkscape:connector-curvature="0" /><path
           d="m 262.172,138.512 c 2.944,-1.427 4.573,-4.167 4.986,-7.651 0,0 1.764,7.361 -4.087,9.403"
           id="path428"
           inkscape:connector-curvature="0" /><path
           d="m 266.916,144.155 c 3.028,-0.568 6.718,-2.71 7.169,-6.151 0,0 1.396,6.258 -6.119,8.451"
           id="path430"
           inkscape:connector-curvature="0" /><path
           d="m 270.086,151.612 c 3.039,0.924 5.444,0.994 7.799,-1.232 0,0 -1.143,4.827 -7.057,3.574"
           id="path432"
           inkscape:connector-curvature="0" /></g><g
         id="mane_top_1_"><path
           d="m 170.907,104.642 c 21.333,-50.927 76.359,-77.942 107.5,-47.093 17.834,17.667 -2.75,46.25 -2.75,46.25 18.625,-10.053 29.5,14 15.25,29.927 -11.944,13.349 -40.268,14.348 -59.5,-10.677 -20.75,-27 -60.5,-18.407 -60.5,-18.407 z"
           id="path435"
           inkscape:connector-curvature="0"
           style="fill:#c8c8c8" /><path
           d="m 230.553,46.856 c -23.726,6.901 -47.314,28.349 -59.646,57.786 0,0 39.75,-8.593 60.5,18.407 2.952,3.841 6.119,7.063 9.407,9.728 8.984,-9.745 14.593,-23.486 14.593,-38.728 0,-20.431 -10.064,-38.181 -24.854,-47.193 z"
           id="path437"
           inkscape:connector-curvature="0"
           style="fill:#919191" /><path
           d="m 275.835,126.205 c -3.763,-0.795 -7.258,-4.09 -8.041,-7.817 -1.2,-5.714 1.425,-10.714 7.269,-17.229 l 3.313,3.453 c -6.125,3.547 -7.714,9.677 -6.619,13.281 0.68,2.236 2.626,4.286 4.963,4.719 6.75,1.25 8.427,-4.751 7.604,-7.188 -1,-2.958 -5.26,-3.899 -8.146,0.232 0.667,-7.544 9.073,-6.669 10.814,-1.513 1.009,2.988 0.765,5.726 -1.3,8.564 -1.826,2.509 -4.972,4.529 -9.857,3.498 z"
           id="path439"
           inkscape:connector-curvature="0"
           style="fill:#545454" /><path
           stroke-miterlimit="10"
           d="m 170.907,104.642 c 21.333,-50.927 76.359,-77.942 107.5,-47.093 17.834,17.667 -2.75,46.25 -2.75,46.25 18.625,-10.053 29.5,14 15.25,29.927 -11.944,13.349 -40.268,14.348 -59.5,-10.677 -20.75,-27 -60.5,-18.407 -60.5,-18.407 z"
           id="path441"
           inkscape:connector-curvature="0"
           style="fill:none;stroke:#545454;stroke-width:4;stroke-miterlimit:10" /><g
           id="g443"><path
             d="m 205.657,128.799 c -2.25,-14.75 5,-48.75 13.5,-49 8.5,-0.25 12,39.875 9.5,49.875"
             id="path445"
             inkscape:connector-curvature="0"
             style="fill:#ededed" /><path
             stroke-miterlimit="10"
             d="m 210.677,91.192 c 4.897,9.856 17.124,8.181 17.124,8.181"
             id="path447"
             inkscape:connector-curvature="0"
             style="fill:none;stroke:#c6c6c6;stroke-width:2;stroke-miterlimit:10" /><path
             stroke-miterlimit="10"
             d="m 207.086,104.736 c 4.488,13.979 16.699,14.646 22.343,13.313"
             id="path449"
             inkscape:connector-curvature="0"
             style="fill:none;stroke:#c6c6c6;stroke-width:2;stroke-miterlimit:10" /><g
             id="g451"><path
               display="none"
               stroke-miterlimit="10"
               d="m 205.657,128.799 c -2.25,-14.75 5,-48.75 13.5,-49 8.5,-0.25 12,39.875 9.5,49.875"
               id="path453"
               inkscape:connector-curvature="0"
               style="display:none;fill:none;stroke:#c6c6c6;stroke-width:4;stroke-miterlimit:10" /><path
               d="m 228.589,129.657 c -1.182,-0.274 -0.905,-13.811 -1.871,-22.989 -1.065,-10.12 -3.207,-20.275 -6.097,-23.867 -0.307,-0.381 -0.946,-1.019 -1.405,-1.003 -0.656,0.02 -1.5,0.609 -2.376,1.659 -3.3,3.958 -6.353,13.446 -8.099,23.274 -1.412,7.949 -1.971,21.717 -3.027,22.059 -1.056,0.342 -2.359,-14.381 -0.799,-23.103 1.825,-10.203 5.015,-20.189 8.853,-24.792 1.667,-1.999 3.46,-3.041 5.331,-3.096 1.703,-0.047 3.268,0.789 4.639,2.493 3.583,4.453 5.917,15.324 7.005,26.01 1,9.816 -0.972,23.629 -2.154,23.355 z"
               id="path455"
               inkscape:connector-curvature="0"
               style="fill:#c6c6c6" /></g></g></g><g
         id="left_ear_1_"><path
           d="m 187.004,104.703 c 0.148,-19.046 -9.216,-38.412 -15.745,-38.174 -10.227,0.373 -32.552,42.264 -14.467,67.58"
           id="path458"
           inkscape:connector-curvature="0"
           style="fill:#ededed" /><path
           d="m 162.464,112.272 c 0,0 -1.45,-18.373 3.963,-33.425 -9.822,14.792 -3.963,33.425 -3.963,33.425 z"
           id="path460"
           inkscape:connector-curvature="0"
           style="fill:#c6c6c6" /><g
           id="g462"><path
             display="none"
             stroke-miterlimit="10"
             d="m 187.004,104.703 c 0.148,-19.046 -9.216,-38.412 -15.745,-38.174 -10.227,0.373 -32.552,42.264 -14.467,67.58"
             id="path464"
             inkscape:connector-curvature="0"
             style="display:none;fill:none;stroke:#bcbcbc;stroke-width:4;stroke-miterlimit:10" /><path
             d="m 156.792,134.109 c 0,0 -4.815,-10.072 -4.893,-22.867 -0.06,-9.893 2.885,-19.97 6.868,-28.07 4.614,-9.383 9.917,-14.548 12.564,-14.645 0.703,-0.022 1.734,0.555 2.806,1.595 2.131,2.071 4.194,5.725 6.167,10.19 5.108,11.561 6.699,24.39 6.699,24.39 0,0 2.078,-13.771 -3.03,-25.961 -2.106,-5.025 -4.574,-9.083 -7.049,-11.488 -1.931,-1.875 -3.865,-2.787 -5.739,-2.723 -5.787,0.211 -12.063,8.856 -16.007,16.876 -4.209,8.559 -7.674,19.226 -7.264,29.775 0.617,15.847 8.878,22.928 8.878,22.928 z"
             id="path466"
             inkscape:connector-curvature="0"
             style="fill:#c6c6c6" /></g></g><g
         id="g468"><path
           d="m 200.241,95.882 c 15.499,14.32 7.421,32.294 -4.333,34.333 -16.333,2.833 -21.855,-9.967 -20.167,-17.833 1.549,-7.219 6.099,-10.141 10.58,-10.188"
           id="path470"
           inkscape:connector-curvature="0"
           style="fill:#919191" /><path
           d="m 191.428,132.622 c -6.605,0 -10.734,-2.683 -13.154,-5.201 -3.877,-4.034 -5.639,-10.102 -4.489,-15.459 2.041,-9.509 8.929,-12.291 14.957,-11.557 5.79,0.706 10.763,5.192 10.103,12.393 -0.625,6.813 -9.688,10 -12.22,3.968 5.782,2.532 8.162,-1.185 8.616,-4.134 0.715,-4.653 -3.088,-7.896 -7.222,-8.292 -4.006,-0.384 -8.745,1.113 -10.322,8.462 -0.72,3.354 0.071,8.319 3.462,11.848 3.284,3.417 8.266,4.661 14.407,3.595 4.831,-0.838 8.994,-4.833 10.554,-10.194 3.336,-11.465 -5.991,-22.047 -5.991,-22.047 0,0 14.445,8.379 9.827,23.179 -2.113,6.771 -7.389,11.907 -13.707,13.003 -1.736,0.301 -3.341,0.436 -4.821,0.436 z"
           id="path472"
           inkscape:connector-curvature="0"
           style="fill:#545454" /></g><g
         id="g474"><path
           d="m 196.129,170.951 c 4.386,-20.74 -9.172,-43.653 -24.054,-41.803 -13.334,1.658 -16.284,17.279 -16.186,19.044 0,0 5.353,-15.632 16.525,-16.442 11.469,-0.833 24.205,15.37 23.715,39.201 z"
           id="path476"
           inkscape:connector-curvature="0" /><path
           d="m 167.095,131.603 c -2.73,-1.804 -3.982,-4.735 -3.93,-8.244 0,0 -2.723,7.063 2.807,9.862"
           id="path478"
           inkscape:connector-curvature="0" /><path
           d="m 161.646,136.569 c -2.927,-0.964 -6.301,-3.575 -6.293,-7.045 0,0 -2.212,6.018 4.946,9.187"
           id="path480"
           inkscape:connector-curvature="0" /><path
           d="m 157.515,143.541 c -3.133,0.514 -5.526,0.265 -7.567,-2.253 0,0 0.494,4.936 6.521,4.477"
           id="path482"
           inkscape:connector-curvature="0" /></g></g><g
       id="Apple_Bloom"><g
         id="tail"><path
           d="m 474.24,257.382 c -1,-20.667 13.756,-29.315 25.868,-24.333 10.132,4.167 8.31,16.568 12.466,19.667 5.887,4.39 12.614,-0.384 14.021,-2.636 0,0 2.646,27.636 23.313,30.636 27.393,3.976 41.193,-28.991 32,-54.667 -9.667,-27 -42.418,-43.917 -62.088,-44.167 2.92,-11.5 -35.913,-19.208 -55.912,4.167 -19.449,22.732 -12.433,55.667 4.167,74"
           id="path486"
           inkscape:connector-curvature="0"
           style="fill:#737373" /><path
           stroke-miterlimit="10"
           d="m 465.904,257.382 c -8.33,-22 -4.156,-66.644 44.67,-63.667 54.666,3.333 71.75,47.695 67.8,72.77"
           id="path488"
           inkscape:connector-curvature="0"
           style="fill:none;stroke:#4b4b4b;stroke-width:2;stroke-miterlimit:10" /><path
           stroke-miterlimit="10"
           d="m 469.573,256.049 c -4.665,-42 21.395,-51.834 44.835,-49.667 31.673,2.929 64.861,49.63 42.832,74.582"
           id="path490"
           inkscape:connector-curvature="0"
           style="fill:none;stroke:#4b4b4b;stroke-width:2;stroke-miterlimit:10" /><path
           stroke-miterlimit="10"
           d="m 468.075,260.049 c -16.6,-18.333 -23.691,-51.333 -4.167,-74 21.189,-24.6 60.062,-14.125 56.093,-4"
           id="path492"
           inkscape:connector-curvature="0"
           style="fill:none;stroke:#4b4b4b;stroke-width:4;stroke-miterlimit:10" /><g
           id="g494"><path
             display="none"
             stroke-miterlimit="10"
             d="m 514.408,182.049 c 17.482,-3.305 56.832,13.667 67.5,44 9.048,25.728 -4.534,58.1 -32,54.667 -24,-3 -24.668,-44.833 -24.668,-44.833"
             id="path496"
             inkscape:connector-curvature="0"
             style="display:none;fill:none;stroke:#4b4b4b;stroke-width:4;stroke-miterlimit:10" /><path
             d="m 553.818,282.963 c -1.365,0 -2.752,-0.087 -4.158,-0.263 -13.917,-1.74 -20.606,-15.028 -23.624,-27.044 -2.795,-11.128 -0.966,-19.771 -0.966,-19.771 0,0 1.559,9.541 4.504,19.164 3.5,11.437 9.01,22.236 20.582,23.683 12.142,1.521 19.758,-4.445 24.006,-9.715 8.636,-10.712 10.991,-27.713 5.859,-42.304 -6.646,-18.9 -24.694,-32.012 -40.978,-38.668 -13.137,-5.37 -24.59,-5.754 -24.59,-5.754 0,0 7.516,-5.054 26.271,2.086 17.372,6.613 35.962,20.795 43.07,41.009 5.573,15.849 2.954,34.392 -6.519,46.142 -6.015,7.462 -14.233,11.435 -23.457,11.435 z"
             id="path498"
             inkscape:connector-curvature="0"
             style="fill:#4b4b4b" /></g><path
           stroke-miterlimit="10"
           d="m 526.595,250.268 c -1.813,3 -8.134,6.838 -14.021,2.448 -4.156,-3.099 -2.334,-15.5 -12.466,-19.667 -12.112,-4.981 -26.868,3.667 -25.868,24.333"
           id="path500"
           inkscape:connector-curvature="0"
           style="fill:none;stroke:#4b4b4b;stroke-width:4;stroke-miterlimit:10" /></g><g
         id="back_right_leg"><path
           d="m 442.845,332.674 0,0 c 5.956,-5.256 14.123,-14.44 22.563,-32.375 l -57.25,-20 c 29.25,78.75 -9.25,102.5 -7.5,112.25 0.771,4.298 27.25,11 38.75,5 11.5,-6 11.75,-49.75 9.75,-56.25 -2,-6.5 -6.313,-8.625 -6.313,-8.625 z"
           id="path503"
           inkscape:connector-curvature="0"
           style="fill:#e1e1e1" /><path
           stroke-miterlimit="10"
           d="m 408.157,280.299 c 29.25,78.75 -9.25,102.5 -7.5,112.25 0.771,4.298 27.25,11 38.75,5 11.5,-6 11.75,-49.75 9.75,-56.25 -2,-6.5 -6.313,-8.625 -6.313,-8.625"
           id="path505"
           inkscape:connector-curvature="0"
           style="fill:none;stroke:#bcbcbc;stroke-width:4.00250006;stroke-miterlimit:10" /><g
           id="g507"><path
             display="none"
             stroke-miterlimit="10"
             d="m 465.407,300.299 c -12,25.5 -26.5,35.89 -29.25,37.695"
             id="path509"
             inkscape:connector-curvature="0"
             style="display:none;fill:none;stroke:#bcbcbc;stroke-width:4.00250006;stroke-miterlimit:10" /><path
             d="m 436.157,337.994 c 0,0 5,-3.962 13.953,-15.758 4.251,-5.601 9.076,-13.419 13.486,-22.79 l 3.621,1.704 c -4.544,9.656 -9.415,17.232 -13.984,22.959 -9.326,11.69 -17.076,13.885 -17.076,13.885 z"
             id="path511"
             inkscape:connector-curvature="0"
             style="fill:#bcbcbc" /></g></g><g
         id="front_left_leg"><path
           d="m 418.573,215.715 c 35.334,-3 84.001,-38 93.334,-36.333 9.333,1.667 14.666,34 9.333,39.333 -5.333,5.333 -59.333,13.334 -99.333,12.667"
           id="path514"
           inkscape:connector-curvature="0"
           style="fill:#eaeaea" /><path
           stroke-miterlimit="10"
           d="m 418.573,215.715 c 35.334,-3 84.001,-38 93.334,-36.333 9.333,1.667 14.666,34 9.333,39.333 -5.333,5.333 -59.333,13.334 -99.333,12.667"
           id="path516"
           inkscape:connector-curvature="0"
           style="fill:none;stroke:#bcbcbc;stroke-width:4;stroke-miterlimit:10" /></g><g
         id="front_right_leg"><path
           d="m 388.372,214.049 c -54.965,1.667 -76.291,-21.626 -85.715,-17.474 -6.75,2.974 -6.416,31.224 0.917,39.808 3.219,3.767 60.999,6.078 89.333,-4.961"
           id="path519"
           inkscape:connector-curvature="0"
           style="fill:#eaeaea" /><path
           stroke-miterlimit="10"
           d="m 388.372,214.049 c -54.965,1.667 -76.291,-21.626 -85.715,-17.474 -6.75,2.974 -7,31.974 0.917,39.808 3.522,3.485 60.999,6.078 89.333,-4.961"
           id="path521"
           inkscape:connector-curvature="0"
           style="fill:none;stroke:#bcbcbc;stroke-width:4;stroke-miterlimit:10" /></g><g
         id="body"><path
           d="m 390.345,173.07 c -30.097,6.639 -15.346,59.661 1.313,92.229 22.25,43.5 67.25,59.25 87.75,33.5 16.354,-20.543 -8.499,-45.417 -35.023,-57.167 -35.992,-15.944 -13.144,-77.583 -54.04,-68.562 z"
           id="path524"
           inkscape:connector-curvature="0"
           style="fill:#eaeaea" /><path
           stroke-miterlimit="10"
           d="m 390.345,173.07 c -30.097,6.639 -15.346,59.661 1.313,92.229 22.25,43.5 67.25,59.25 87.75,33.5 16.354,-20.543 -8.499,-45.417 -35.023,-57.167 -35.992,-15.944 -13.144,-77.583 -54.04,-68.562 z"
           id="path526"
           inkscape:connector-curvature="0"
           style="fill:none;stroke:#bcbcbc;stroke-width:4;stroke-miterlimit:10" /></g><g
         id="back_left_leg"><path
           d="m 545.657,257.049 c -9.25,-1.75 -12.25,6.5 -23.5,5.75 -11.25,-0.75 -18.955,-16.38 -28.686,-2.106 -18.127,-15.81 -34.781,-10.923 -48.09,-18.604 l 20.025,44.96 c 12.595,10.626 28.591,9.009 37.027,-1.614 0,0 29.14,21.781 56.723,2.364 7.408,-5.215 -4.249,-29 -13.499,-30.75 z"
           id="path529"
           inkscape:connector-curvature="0"
           style="fill:#eaeaea" /><g
           id="g531"><path
             id="XMLID_1_"
             display="none"
             stroke-miterlimit="10"
             d="m 443.623,241.283 c 21.972,11.141 32.284,1.766 54.784,24.016"
             inkscape:connector-curvature="0"
             style="display:none;fill:none;stroke:#bcbcbc;stroke-width:4;stroke-miterlimit:10" /><path
             d="m 478.784,253.697 c -4.738,-2.122 -9.235,-2.847 -13.993,-3.731 -6.571,-1.221 -13.366,-2.484 -22.072,-6.899 l 1.809,-3.567 c 8.194,4.155 14.701,5.364 20.995,6.534 4.929,0.916 9.762,1.726 14.958,4.041 14.344,6.391 17.803,15.35 17.803,15.35 0,0 -8.293,-6.71 -19.5,-11.728 z"
             id="path534"
             inkscape:connector-curvature="0"
             style="fill:#bcbcbc" /></g><path
           stroke-miterlimit="10"
           d="m 493.472,260.692 c 9.436,-14.144 17.436,1.356 28.686,2.106 11.25,0.75 14.25,-7.5 23.5,-5.75 9.25,1.75 20.5,25 13.5,30.75 -7,5.75 -28.25,13.75 -56.5,-1.75"
           id="path536"
           inkscape:connector-curvature="0"
           style="fill:none;stroke:#bcbcbc;stroke-width:4;stroke-miterlimit:10" /><g
           id="g538"><path
             display="none"
             stroke-miterlimit="10"
             d="m 507.407,274.909 c -4.5,19.39 -26,25.64 -42,12.14"
             id="path540"
             inkscape:connector-curvature="0"
             style="display:none;fill:none;stroke:#bcbcbc;stroke-width:4;stroke-miterlimit:10" /><path
             d="m 465.407,287.049 c 0,0 14.438,7.793 26.162,3.88 11.787,-3.935 15.838,-16.02 15.838,-16.02 0,0 2.334,13.973 -14.805,19.875 -15.104,5.201 -27.195,-7.735 -27.195,-7.735 z"
             id="path542"
             inkscape:connector-curvature="0"
             style="fill:#bcbcbc" /></g></g><g
         id="mane_side"><path
           d="m 428.657,160.799 c 31.25,38.25 21.224,82.469 3,81.5 -23.5,-1.25 -3,-81.5 -3,-81.5 z"
           id="path545"
           inkscape:connector-curvature="0"
           style="fill:#737373" /><path
           stroke-miterlimit="10"
           d="m 440.537,179.236 c -0.38,27.063 -12.487,41.571 -19.934,44.317"
           id="path547"
           inkscape:connector-curvature="0"
           style="fill:none;stroke:#4b4b4b;stroke-width:2;stroke-miterlimit:10" /><path
           stroke-miterlimit="10"
           d="m 445.791,192.759 c -1.884,23.54 -5.806,41.734 -20.22,46.637"
           id="path549"
           inkscape:connector-curvature="0"
           style="fill:none;stroke:#4b4b4b;stroke-width:2;stroke-miterlimit:10" /><path
           stroke-miterlimit="10"
           d="m 428.657,160.799 c 31.25,38.25 21.224,82.469 3,81.5 -23.5,-1.25 -3,-81.5 -3,-81.5 z"
           id="path551"
           inkscape:connector-curvature="0"
           style="fill:none;stroke:#4b4b4b;stroke-width:4;stroke-miterlimit:10" /></g><g
         id="bow"><path
           d="m 393.004,87.799 c 0,0 15.903,16.156 48.403,12.984 19.778,-1.93 44.166,-43.734 39.5,-82.068 -24,-13 -77.25,9.083 -88.232,57.926 l -4.101,2.569 c -8,-64.162 -64.667,-78.162 -73.667,-77.162 -7.666,16 -3.335,84.802 19.666,98.734 23.001,13.932 54.001,-14.343 54.001,-14.343 l 4.43,1.36 z"
           id="path554"
           inkscape:connector-curvature="0"
           style="fill:#939393" /><path
           d="m 388.574,79.211 c -8,-64.162 -64.667,-78.162 -73.667,-77.162 0,0 12.334,44.939 73.667,77.162 z"
           id="path556"
           inkscape:connector-curvature="0"
           style="fill:#7b7b7b" /><path
           d="m 393.007,75.261 c 55.568,-21.463 87.9,-56.545 87.9,-56.545 -23.771,-12.877 -76.233,8.671 -87.9,56.545 z"
           id="path558"
           inkscape:connector-curvature="0"
           style="fill:#7b7b7b" /><path
           stroke-miterlimit="10"
           d="m 480.907,18.715 c 0,0 -32.333,35.083 -87.903,56.546"
           id="path560"
           inkscape:connector-curvature="0"
           style="fill:none;stroke:#555555;stroke-width:3;stroke-miterlimit:10" /><path
           stroke-miterlimit="10"
           d="m 314.907,2.049 c 0,0 12.334,44.939 73.667,77.162"
           id="path562"
           inkscape:connector-curvature="0"
           style="fill:none;stroke:#555555;stroke-width:3;stroke-miterlimit:10" /><path
           stroke-miterlimit="10"
           d="m 392.675,76.642 c 10.982,-48.843 64.232,-70.926 88.232,-57.926 4.666,38.333 -19.722,80.138 -39.5,82.068 -32.5,3.171 -48.403,-12.984 -48.403,-12.984"
           id="path564"
           inkscape:connector-curvature="0"
           style="fill:none;stroke:#555555;stroke-width:4;stroke-miterlimit:10" /><path
           stroke-miterlimit="10"
           d="m 388.574,79.211 c -8,-64.162 -64.667,-78.162 -73.667,-77.162 -7.666,16 -3.335,84.802 19.666,98.734 23.001,13.932 54.001,-14.343 54.001,-14.343"
           id="path566"
           inkscape:connector-curvature="0"
           style="fill:none;stroke:#555555;stroke-width:4;stroke-miterlimit:10" /><circle
           cx="391.129"
           cy="82.382004"
           r="10.275"
           id="circle568"
           style="fill:#939393" /><circle
           stroke-miterlimit="10"
           cx="391.129"
           cy="82.382004"
           r="10.275"
           id="circle570"
           style="fill:none;stroke:#555555;stroke-width:4;stroke-miterlimit:10" /></g><g
         id="head"><path
           d="m 457.241,151.049 c 0,37.5 -28.834,64.667 -61.334,64.667 -30.75,0 -61.334,-28.167 -61.334,-64.667 0,-33.874 27.46,-61.333 61.334,-61.333 33.874,0 61.334,27.459 61.334,61.333 z"
           id="path573"
           inkscape:connector-curvature="0"
           style="fill:#eaeaea" /><g
           id="g575"><g
             id="g577"><defs
               id="defs579"><path
                 id="SVGID_23_"
                 d="m 384.908,190.882 c 4.711,9.083 17.187,9.583 22.416,0 0,0 -1.418,21 -11.417,21 -9.999,0 -10.999,-21 -10.999,-21 z"
                 inkscape:connector-curvature="0" /></defs><use
               xlink:href="#SVGID_23_"
               overflow="visible"
               id="use582"
               style="overflow:visible;fill:#444444"
               x="0"
               y="0"
               width="100%"
               height="100%" /><clipPath
               id="SVGID_24_"><use
                 xlink:href="#SVGID_23_"
                 overflow="visible"
                 id="use585"
                 style="overflow:visible"
                 x="0"
                 y="0"
                 width="100%"
                 height="100%" /></clipPath><ellipse
               clip-path="url(#SVGID_24_)"
               cx="395.827"
               cy="210.38"
               rx="5.8299999"
               ry="4.2930002"
               id="ellipse587"
               style="fill:#888888" /></g><path
             stroke-miterlimit="10"
             d="m 384.908,190.882 c 4.711,9.083 17.187,9.583 22.416,0 0,0 -1.418,21 -11.417,21 -9.999,0 -10.999,-21 -10.999,-21 z"
             id="path589"
             inkscape:connector-curvature="0"
             style="fill:none;stroke:#bcbcbc;stroke-width:2;stroke-miterlimit:10" /><path
             d="m 388.382,182.741 c 0.213,2.902 2.488,4.127 2.488,4.127 0,0 -5.15,0.243 -2.488,-4.127 z"
             id="path591"
             inkscape:connector-curvature="0"
             style="fill:#bcbcbc" /><path
             d="m 401.398,187.078 c 3.293,-1.489 2.802,-4.09 2.802,-4.09 0,0 3.124,4.686 -2.802,4.09 z"
             id="path593"
             inkscape:connector-curvature="0"
             style="fill:#bcbcbc" /><path
             d="m 390.408,177.153 c 5.843,-5.917 11.687,0.083 11.687,0.083 -6,-2.156 -11.687,-0.083 -11.687,-0.083 z"
             id="path595"
             inkscape:connector-curvature="0"
             style="fill:#bcbcbc" /></g><g
           id="g597"><defs
             id="defs599"><ellipse
               id="SVGID_25_"
               transform="matrix(-0.975,0.2221,-0.2221,-0.975,746.4801,238.9741)"
               cx="359.80301"
               cy="161.459"
               rx="20.500999"
               ry="29.695999" /></defs><use
             xlink:href="#SVGID_25_"
             overflow="visible"
             id="use602"
             style="overflow:visible;fill:#ffffff"
             x="0"
             y="0"
             width="100%"
             height="100%" /><clipPath
             id="SVGID_26_"><use
               xlink:href="#SVGID_25_"
               overflow="visible"
               id="use605"
               style="overflow:visible"
               x="0"
               y="0"
               width="100%"
               height="100%" /></clipPath><g
             clip-path="url(#SVGID_26_)"
             id="g607"><g
               id="g609"><defs
                 id="defs611"><path
                   id="SVGID_27_"
                   d="m 345.821,163.297 c 0.135,13.237 8.315,23.885 18.271,23.784 9.957,-0.102 17.92,-10.915 17.785,-24.151 -0.135,-13.236 -8.315,-23.885 -18.274,-23.784 -9.955,0.102 -17.916,10.915 -17.782,24.151 z"
                   inkscape:connector-curvature="0" /></defs><linearGradient
                 id="SVGID_28_"
                 gradientUnits="userSpaceOnUse"
                 x1="499.44141"
                 y1="141.2798"
                 x2="513.99518"
                 y2="173.298"
                 gradientTransform="matrix(-0.9992,-0.0397,-0.0397,0.9992,879.2939,20.3309)"><stop
                   offset="0"
                   style="stop-color:#757575"
                   id="stop615" /><stop
                   offset="1"
                   style="stop-color:#acacac"
                   id="stop617" /></linearGradient><use
                 xlink:href="#SVGID_27_"
                 overflow="visible"
                 id="use619"
                 style="overflow:visible;fill:url(#SVGID_28_-386)"
                 x="0"
                 y="0"
                 width="100%"
                 height="100%" /><clipPath
                 id="SVGID_29_"><use
                   xlink:href="#SVGID_27_"
                   overflow="visible"
                   id="use622"
                   style="overflow:visible"
                   x="0"
                   y="0"
                   width="100%"
                   height="100%" /></clipPath><polyline
                 clip-path="url(#SVGID_29_)"
                 points="364.467,165.108 338.745,177.097 344.958,184.789      "
                 id="polyline624"
                 style="fill:#dddddd" /><polyline
                 clip-path="url(#SVGID_29_)"
                 points="364.467,165.108 340.67,167.917 344.179,177.839      "
                 id="polyline626"
                 style="fill:#c4c4c4" /><linearGradient
                 id="SVGID_28_-386"
                 gradientUnits="userSpaceOnUse"
                 x1="499.44141"
                 y1="141.2798"
                 x2="513.99518"
                 y2="173.298"
                 gradientTransform="matrix(-0.9992,-0.0397,-0.0397,0.9992,879.2939,20.3309)"><stop
                   offset="0"
                   style="stop-color:#757575"
                   id="stop4853" /><stop
                   offset="1"
                   style="stop-color:#acacac"
                   id="stop4855" /></linearGradient></g><ellipse
               transform="matrix(-0.9999,0.0102,-0.0102,-0.9999,731.9556,323.4157)"
               cx="365.15302"
               cy="163.57401"
               rx="15.372"
               ry="18.757999"
               id="ellipse628" /><g
               id="g630"><ellipse
                 transform="matrix(0.9803,-0.1973,0.1973,0.9803,-23.0402,76.1542)"
                 cx="370.57001"
                 cy="153.677"
                 rx="6.8130002"
                 ry="12.438"
                 id="ellipse632"
                 style="fill:#ffffff" /><ellipse
                 transform="matrix(0.9671,0.2543,-0.2543,0.9671,53.2419,-85.7327)"
                 cx="358.20999"
                 cy="163.058"
                 rx="2.438"
                 ry="3.4449999"
                 id="ellipse634"
                 style="fill:#ffffff" /><ellipse
                 transform="matrix(0.9408,-0.3389,0.3389,0.9408,-35.7066,134.1304)"
                 cx="366.246"
                 cy="169.31599"
                 rx="1.156"
                 ry="1.749"
                 id="ellipse636"
                 style="fill:#ffffff" /></g></g></g><g
           id="g638"><defs
             id="defs640"><ellipse
               id="SVGID_30_"
               transform="matrix(0.9654,0.2606,-0.2606,0.9654,57.2911,-107.3944)"
               cx="433.612"
               cy="162.338"
               rx="20.500999"
               ry="29.695999" /></defs><use
             xlink:href="#SVGID_30_"
             overflow="visible"
             id="use643"
             style="overflow:visible;fill:#ffffff"
             x="0"
             y="0"
             width="100%"
             height="100%" /><clipPath
             id="SVGID_31_"><use
               xlink:href="#SVGID_30_"
               overflow="visible"
               id="use646"
               style="overflow:visible"
               x="0"
               y="0"
               width="100%"
               height="100%" /></clipPath><g
             clip-path="url(#SVGID_31_)"
             id="g648"><g
               id="g650"><defs
                 id="defs652"><path
                   id="SVGID_32_"
                   d="m 447.51,164.729 c -0.66,13.221 -9.257,23.537 -19.201,23.04 -9.945,-0.497 -17.473,-11.617 -16.813,-24.838 0.66,-13.221 9.257,-23.537 19.203,-23.04 9.944,0.497 17.471,11.617 16.811,24.838 z"
                   inkscape:connector-curvature="0" /></defs><linearGradient
                 id="SVGID_33_"
                 gradientUnits="userSpaceOnUse"
                 x1="419.56839"
                 y1="141.9751"
                 x2="433.31839"
                 y2="172.2251"><stop
                   offset="0"
                   style="stop-color:#757575"
                   id="stop656" /><stop
                   offset="1"
                   style="stop-color:#acacac"
                   id="stop658" /></linearGradient><use
                 xlink:href="#SVGID_32_"
                 overflow="visible"
                 id="use660"
                 style="overflow:visible;fill:url(#SVGID_33_-257)"
                 x="0"
                 y="0"
                 width="100%"
                 height="100%" /><clipPath
                 id="SVGID_34_"><use
                   xlink:href="#SVGID_32_"
                   overflow="visible"
                   id="use663"
                   style="overflow:visible"
                   x="0"
                   y="0"
                   width="100%"
                   height="100%" /></clipPath><polyline
                 clip-path="url(#SVGID_34_)"
                 points="428.807,165.799 454.032,178.799 447.52,186.238      "
                 id="polyline665"
                 style="fill:#dddddd" /><polyline
                 clip-path="url(#SVGID_34_)"
                 points="428.807,165.799 452.474,169.549 448.574,179.325      "
                 id="polyline667"
                 style="fill:#c4c4c4" /><linearGradient
                 id="SVGID_33_-257"
                 gradientUnits="userSpaceOnUse"
                 x1="419.56839"
                 y1="141.9751"
                 x2="433.31839"
                 y2="172.2251"><stop
                   offset="0"
                   style="stop-color:#757575"
                   id="stop4881" /><stop
                   offset="1"
                   style="stop-color:#acacac"
                   id="stop4883" /></linearGradient></g><ellipse
               transform="matrix(0.9988,0.0499,-0.0499,0.9988,8.7235,-21.1495)"
               cx="428.18201"
               cy="164.23801"
               rx="15.372"
               ry="18.757999"
               id="ellipse669" /><g
               id="g671"><ellipse
                 transform="matrix(0.9874,-0.1583,0.1583,0.9874,-19.0614,70.9589)"
                 cx="435.81699"
                 cy="155.11099"
                 rx="6.8119998"
                 ry="12.438"
                 id="ellipse673"
                 style="fill:#ffffff" /><ellipse
                 transform="matrix(0.9563,0.2925,-0.2925,0.9563,66.4584,-116.5653)"
                 cx="423.095"
                 cy="163.995"
                 rx="2.438"
                 ry="3.4449999"
                 id="ellipse675"
                 style="fill:#ffffff" /><ellipse
                 transform="matrix(0.9535,-0.3013,0.3013,0.9535,-31.3686,137.7508)"
                 cx="430.87601"
                 cy="170.56599"
                 rx="1.156"
                 ry="1.75"
                 id="ellipse677"
                 style="fill:#ffffff" /></g></g></g><path
           stroke-miterlimit="10"
           d="m 457.241,151.049 c 0,37.5 -28.834,64.667 -61.334,64.667 -30.75,0 -61.334,-28.167 -61.334,-64.667 0,-33.874 27.46,-61.333 61.334,-61.333 33.874,0 61.334,27.459 61.334,61.333 z"
           id="path679"
           inkscape:connector-curvature="0"
           style="fill:none;stroke:#bcbcbc;stroke-width:4;stroke-miterlimit:10" /></g><g
         id="right_ear_1_"><path
           d="m 367.796,103.377 c -1.333,-19 -12.175,-37.579 -18.666,-36.833 -10.167,1.167 -29.167,44.667 -9.167,68.5"
           id="path682"
           inkscape:connector-curvature="0"
           style="fill:#eaeaea" /><path
           d="m 343.919,112.832 c 0,0 -2.874,-18.205 1.352,-33.632 -8.642,15.511 -1.352,33.632 -1.352,33.632 z"
           id="path684"
           inkscape:connector-curvature="0"
           style="fill:#bcbcbc" /><g
           id="g686"><path
             display="none"
             stroke-miterlimit="10"
             d="m 367.796,103.377 c -1.333,-19 -12.175,-37.579 -18.666,-36.833 -10.167,1.167 -29.167,44.667 -9.167,68.5"
             id="path688"
             inkscape:connector-curvature="0"
             style="display:none;fill:none;stroke:#bcbcbc;stroke-width:4;stroke-miterlimit:10" /><path
             d="m 339.963,135.044 c 0,0 -5.584,-9.667 -6.656,-22.417 -0.829,-9.858 1.323,-20.134 4.664,-28.52 3.87,-9.713 8.756,-15.275 11.388,-15.577 0.699,-0.077 1.772,0.418 2.921,1.372 2.286,1.899 4.627,5.381 6.941,9.68 5.992,11.128 8.575,23.795 8.575,23.795 0,0 1.001,-13.891 -5.04,-25.647 -2.49,-4.846 -5.267,-8.699 -7.921,-10.905 -2.07,-1.719 -4.07,-2.478 -5.934,-2.269 -5.753,0.66 -11.338,9.768 -14.646,18.07 -3.53,8.86 -6.155,19.764 -4.926,30.25 1.847,15.751 10.634,22.168 10.634,22.168 z"
             id="path690"
             inkscape:connector-curvature="0"
             style="fill:#bcbcbc" /></g></g><g
         id="g692"><path
           d="m 380.422,171.948 c 3.417,-20.922 -11.192,-43.18 -25.973,-40.639 -13.242,2.276 -15.462,18.018 -15.281,19.776 0,0 4.619,-15.864 15.742,-17.193 11.416,-1.365 24.893,14.228 25.512,38.056 z"
           id="path694"
           inkscape:connector-curvature="0" /><path
           d="m 349.589,133.994 c -2.811,-1.675 -4.197,-4.545 -4.309,-8.052 0,0 -2.392,7.182 3.263,9.72"
           id="path696"
           inkscape:connector-curvature="0" /><path
           d="m 344.377,139.208 c -2.968,-0.827 -6.46,-3.279 -6.613,-6.746 0,0 -1.93,6.114 5.368,8.947"
           id="path698"
           inkscape:connector-curvature="0" /><path
           d="m 340.575,146.364 c -3.106,0.659 -5.509,0.521 -7.664,-1.899 0,0 0.723,4.908 6.723,4.169"
           id="path700"
           inkscape:connector-curvature="0" /></g><g
         id="mane_top"><path
           d="m 341.907,107.382 0.004,-0.001 c -4.452,21.368 10.429,38.592 26.663,37.501 19.017,-1.278 24.479,-24.733 31,-30.167 0,0 1.224,1.083 3.833,1.083 12.043,0 19.667,-24.917 40.977,-21.583 -44.81,-75.166 -131.81,-18.499 -102.477,13.167 z"
           id="path703"
           inkscape:connector-curvature="0"
           style="fill:#737373" /><path
           stroke-miterlimit="10"
           d="m 401.282,58.889 c -34.141,3.843 -54.191,44.514 -54.408,74.837"
           id="path705"
           inkscape:connector-curvature="0"
           style="fill:none;stroke:#4b4b4b;stroke-width:2;stroke-miterlimit:10" /><path
           stroke-miterlimit="10"
           d="m 420.169,67.625 c -28.154,0.253 -52.877,31.735 -43.944,75.33"
           id="path707"
           inkscape:connector-curvature="0"
           style="fill:none;stroke:#4b4b4b;stroke-width:2;stroke-miterlimit:10" /><g
           id="g709"><path
             display="none"
             stroke-miterlimit="10"
             d="m 347.907,92.715 c -17,27.5 0.833,53.5 20.667,52.167 19.017,-1.278 24.479,-24.733 31,-30.167"
             id="path711"
             inkscape:connector-curvature="0"
             style="display:none;fill:none;stroke:#4b4b4b;stroke-width:4;stroke-miterlimit:10" /><path
             d="m 367.117,146.931 c -9.126,0 -17.887,-5.257 -23.158,-14.008 -4.04,-6.708 -5.705,-14.54 -4.56,-22.542 1.646,-11.498 8.358,-17.757 8.358,-17.757 0,0 -3.434,6.426 -4.418,18.552 -0.573,7.063 0.533,13.852 4.046,19.684 4.8,7.97 12.866,12.579 21.055,12.028 12.203,-0.82 18.398,-11.686 23.377,-20.417 2.27,-3.98 4.229,-7.418 6.477,-9.291 l 2.561,3.073 c -1.691,1.409 -3.485,4.556 -5.563,8.199 -5.165,9.058 -12.238,21.462 -26.584,22.427 -0.53,0.035 -1.062,0.052 -1.591,0.052 z"
             id="path713"
             inkscape:connector-curvature="0"
             style="fill:#4b4b4b" /></g><g
           id="g715"><path
             display="none"
             stroke-miterlimit="10"
             d="m 341.907,107.382 c -29.333,-31.667 57.667,-88.083 102.477,-13.167 -21.31,-4.5 -28.934,21.583 -40.977,21.583 -9.457,0 -8.304,-16.366 -5.833,-21.083"
             id="path717"
             inkscape:connector-curvature="0"
             style="display:none;fill:none;stroke:#4b4b4b;stroke-width:4;stroke-miterlimit:10" /><path
             d="m 403.407,117.799 c -3.155,0 -5.811,-1.399 -7.377,-4.22 -5.186,-9.342 1.544,-18.863 1.544,-18.863 0,0 -1.979,9.927 1.879,16.792 0.896,1.593 2.202,2.292 3.954,2.292 4.048,0 7.86,-3.946 12.275,-8.516 6.104,-6.315 13.571,-13.994 24.778,-13.573 -20.07,-30.759 -45.427,-33.578 -59.049,-32.418 -19.018,1.617 -36.66,12.706 -41.949,26.368 -2.011,5.193 -2.964,12.941 3.911,20.364 l -2.934,2.718 c -6.46,-6.973 -8.132,-15.683 -4.708,-24.525 5.813,-15.012 24.881,-27.17 45.341,-28.909 15.054,-1.284 43.528,1.939 65.027,37.882 l 2.35,3.93 -4.479,-0.946 c -11.566,-2.444 -18.604,4.843 -25.411,11.89 -4.837,5.004 -9.407,9.734 -15.152,9.734 z"
             id="path719"
             inkscape:connector-curvature="0"
             style="fill:#4b4b4b" /></g></g><g
         id="left_ear_2_"><path
           d="m 426.074,106.549 c 1.333,-19 12.175,-37.579 18.666,-36.833 10.167,1.167 29.167,44.667 9.167,68.5"
           id="path722"
           inkscape:connector-curvature="0"
           style="fill:#eaeaea" /><path
           d="m 449.951,116.003 c 0,0 2.874,-18.205 -1.352,-33.632 8.642,15.511 1.352,33.632 1.352,33.632 z"
           id="path724"
           inkscape:connector-curvature="0"
           style="fill:#bcbcbc" /><g
           id="g726"><path
             display="none"
             stroke-miterlimit="10"
             d="m 426.074,106.549 c 1.333,-19 12.175,-37.579 18.666,-36.833 10.167,1.167 29.167,44.667 9.167,68.5"
             id="path728"
             inkscape:connector-curvature="0"
             style="display:none;fill:none;stroke:#bcbcbc;stroke-width:4;stroke-miterlimit:10" /><path
             d="m 453.907,138.216 c 0,0 5.584,-9.667 6.656,-22.417 0.829,-9.858 -1.323,-20.134 -4.664,-28.52 -3.87,-9.713 -8.756,-15.275 -11.388,-15.577 -0.699,-0.077 -1.772,0.418 -2.921,1.372 -2.286,1.899 -4.627,5.381 -6.941,9.68 -5.992,11.128 -8.575,23.795 -8.575,23.795 0,0 -1.001,-13.891 5.04,-25.647 2.49,-4.846 5.267,-8.699 7.921,-10.905 2.07,-1.719 4.07,-2.478 5.934,-2.269 5.753,0.66 11.338,9.768 14.646,18.07 3.53,8.86 6.155,19.764 4.926,30.25 -1.847,15.751 -10.634,22.168 -10.634,22.168 z"
             id="path730"
             inkscape:connector-curvature="0"
             style="fill:#bcbcbc" /></g></g><g
         id="g732"><path
           d="m 412.593,172 c -2.584,-21.041 12.897,-42.702 27.564,-39.577 13.142,2.8 14.735,18.617 14.485,20.367 0,0 -3.986,-16.035 -15.048,-17.805 -11.353,-1.815 -25.437,13.23 -27.001,37.015 z"
           id="path734"
           inkscape:connector-curvature="0" /><path
           d="m 444.907,135.299 c 2.875,-1.563 4.375,-4.375 4.625,-7.875 0,0 2.104,7.271 -3.646,9.583"
           id="path736"
           inkscape:connector-curvature="0" /><path
           d="m 449.908,140.715 c 2.999,-0.708 6.585,-3.02 6.876,-6.478 0,0 1.686,6.186 -5.719,8.727"
           id="path738"
           inkscape:connector-curvature="0" /><path
           d="m 453.424,148.018 c 3.077,0.781 5.483,0.74 7.733,-1.594 0,0 -0.917,4.875 -6.883,3.899"
           id="path740"
           inkscape:connector-curvature="0" /></g></g></g></svg>