  0
SECTION
  2
HEADER
  9
$ACADVER
  1
AC1009
  9
$EXTMIN
 10
0.0
 20
0.0
 30
0.0
  9
$EXTMAX
 10
1000.0
 20
1000.0
 30
0.0
  9
$FILLMODE
 70
 0
  9
$SPLFRAME
 70
 1
  0
ENDSEC
  0
SECTION
  2
TABLES
  0
TABLE
  2
LAYER
 70
1
  0
LAYER
  2
0
 70
     0
 62
     7
  6
CONTINUOUS
  0
ENDTAB
  0
ENDSEC
  0
SECTION
  2
ENTITIES
  0
LINE
  8
0
 62
     0
 10
108.314
 20
139.648
 30
0.0
 11
108.314
 21
139.648
 31
0.0
  0
LINE
  8
0
 62
     0
 10
108.314
 20
139.648
 30
0.0
 11
108.311
 21
139.653
 31
0.0
  0
LINE
  8
0
 62
     0
 10
108.311
 20
139.653
 30
0.0
 11
108.307
 21
139.659
 31
0.0
  0
LINE
  8
0
 62
     0
 10
108.307
 20
139.659
 30
0.0
 11
108.301
 21
139.664
 31
0.0
  0
LINE
  8
0
 62
     0
 10
108.301
 20
139.664
 30
0.0
 11
108.293
 21
139.668
 31
0.0
  0
LINE
  8
0
 62
     0
 10
108.293
 20
139.668
 30
0.0
 11
108.283
 21
139.674
 31
0.0
  0
LINE
  8
0
 62
     0
 10
108.283
 20
139.674
 30
0.0
 11
108.274
 21
139.678
 31
0.0
  0
LINE
  8
0
 62
     0
 10
108.274
 20
139.678
 30
0.0
 11
108.262
 21
139.683
 31
0.0
  0
LINE
  8
0
 62
     0
 10
108.262
 20
139.683
 30
0.0
 11
108.248
 21
139.689
 31
0.0
  0
LINE
  8
0
 62
     0
 10
108.248
 20
139.689
 30
0.0
 11
108.233
 21
139.696
 31
0.0
  0
LINE
  8
0
 62
     0
 10
108.233
 20
139.696
 30
0.0
 11
108.217
 21
139.703
 31
0.0
  0
LINE
  8
0
 62
     0
 10
108.217
 20
139.703
 30
0.0
 11
108.199
 21
139.71
 31
0.0
  0
LINE
  8
0
 62
     0
 10
108.199
 20
139.71
 30
0.0
 11
108.181
 21
139.718
 31
0.0
  0
LINE
  8
0
 62
     0
 10
108.181
 20
139.718
 30
0.0
 11
108.162
 21
139.728
 31
0.0
  0
LINE
  8
0
 62
     0
 10
108.162
 20
139.728
 30
0.0
 11
108.143
 21
139.737
 31
0.0
  0
LINE
  8
0
 62
     0
 10
108.143
 20
139.737
 30
0.0
 11
108.122
 21
139.747
 31
0.0
  0
LINE
  8
0
 62
     0
 10
108.122
 20
139.747
 30
0.0
 11
108.103
 21
139.758
 31
0.0
  0
LINE
  8
0
 62
     0
 10
108.103
 20
139.758
 30
0.0
 11
108.082
 21
139.77
 31
0.0
  0
LINE
  8
0
 62
     0
 10
108.082
 20
139.77
 30
0.0
 11
108.061
 21
139.784
 31
0.0
  0
LINE
  8
0
 62
     0
 10
108.061
 20
139.784
 30
0.0
 11
108.041
 21
139.798
 31
0.0
  0
LINE
  8
0
 62
     0
 10
108.041
 20
139.798
 30
0.0
 11
108.02
 21
139.811
 31
0.0
  0
LINE
  8
0
 62
     0
 10
108.02
 20
139.811
 30
0.0
 11
108.001
 21
139.827
 31
0.0
  0
LINE
  8
0
 62
     0
 10
108.001
 20
139.827
 30
0.0
 11
107.982
 21
139.842
 31
0.0
  0
LINE
  8
0
 62
     0
 10
107.982
 20
139.842
 30
0.0
 11
107.962
 21
139.857
 31
0.0
  0
LINE
  8
0
 62
     0
 10
107.962
 20
139.857
 30
0.0
 11
107.944
 21
139.874
 31
0.0
  0
LINE
  8
0
 62
     0
 10
107.944
 20
139.874
 30
0.0
 11
107.928
 21
139.889
 31
0.0
  0
LINE
  8
0
 62
     0
 10
107.928
 20
139.889
 30
0.0
 11
107.912
 21
139.905
 31
0.0
  0
LINE
  8
0
 62
     0
 10
107.912
 20
139.905
 30
0.0
 11
107.896
 21
139.92
 31
0.0
  0
LINE
  8
0
 62
     0
 10
107.896
 20
139.92
 30
0.0
 11
107.881
 21
139.936
 31
0.0
  0
LINE
  8
0
 62
     0
 10
107.881
 20
139.936
 30
0.0
 11
107.869
 21
139.951
 31
0.0
  0
LINE
  8
0
 62
     0
 10
107.869
 20
139.951
 30
0.0
 11
107.856
 21
139.965
 31
0.0
  0
LINE
  8
0
 62
     0
 10
107.856
 20
139.965
 30
0.0
 11
107.844
 21
139.978
 31
0.0
  0
LINE
  8
0
 62
     0
 10
107.844
 20
139.978
 30
0.0
 11
107.834
 21
139.991
 31
0.0
  0
LINE
  8
0
 62
     0
 10
107.834
 20
139.991
 30
0.0
 11
107.825
 21
140.002
 31
0.0
  0
LINE
  8
0
 62
     0
 10
107.825
 20
140.002
 30
0.0
 11
107.815
 21
140.012
 31
0.0
  0
LINE
  8
0
 62
     0
 10
107.815
 20
140.012
 30
0.0
 11
107.807
 21
140.02
 31
0.0
  0
LINE
  8
0
 62
     0
 10
107.807
 20
140.02
 30
0.0
 11
107.8
 21
140.027
 31
0.0
  0
LINE
  8
0
 62
     0
 10
107.8
 20
140.027
 30
0.0
 11
107.793
 21
140.032
 31
0.0
  0
LINE
  8
0
 62
     0
 10
107.793
 20
140.032
 30
0.0
 11
107.786
 21
140.036
 31
0.0
  0
LINE
  8
0
 62
     0
 10
107.786
 20
140.036
 30
0.0
 11
107.781
 21
140.039
 31
0.0
  0
LINE
  8
0
 62
     0
 10
107.781
 20
140.039
 30
0.0
 11
107.774
 21
140.04
 31
0.0
  0
LINE
  8
0
 62
     0
 10
107.774
 20
140.04
 30
0.0
 11
107.767
 21
140.039
 31
0.0
  0
LINE
  8
0
 62
     0
 10
107.767
 20
140.039
 30
0.0
 11
107.761
 21
140.036
 31
0.0
  0
LINE
  8
0
 62
     0
 10
107.761
 20
140.036
 30
0.0
 11
107.754
 21
140.032
 31
0.0
  0
LINE
  8
0
 62
     0
 10
107.754
 20
140.032
 30
0.0
 11
107.748
 21
140.027
 31
0.0
  0
LINE
  8
0
 62
     0
 10
107.748
 20
140.027
 30
0.0
 11
107.74
 21
140.02
 31
0.0
  0
LINE
  8
0
 62
     0
 10
107.74
 20
140.02
 30
0.0
 11
107.732
 21
140.012
 31
0.0
  0
LINE
  8
0
 62
     0
 10
107.732
 20
140.012
 30
0.0
 11
107.722
 21
140.002
 31
0.0
  0
LINE
  8
0
 62
     0
 10
107.722
 20
140.002
 30
0.0
 11
107.713
 21
139.991
 31
0.0
  0
LINE
  8
0
 62
     0
 10
107.713
 20
139.991
 30
0.0
 11
107.703
 21
139.978
 31
0.0
  0
LINE
  8
0
 62
     0
 10
107.703
 20
139.978
 30
0.0
 11
107.691
 21
139.965
 31
0.0
  0
LINE
  8
0
 62
     0
 10
107.691
 20
139.965
 30
0.0
 11
107.678
 21
139.951
 31
0.0
  0
LINE
  8
0
 62
     0
 10
107.678
 20
139.951
 30
0.0
 11
107.666
 21
139.936
 31
0.0
  0
LINE
  8
0
 62
     0
 10
107.666
 20
139.936
 30
0.0
 11
107.651
 21
139.92
 31
0.0
  0
LINE
  8
0
 62
     0
 10
107.651
 20
139.92
 30
0.0
 11
107.636
 21
139.905
 31
0.0
  0
LINE
  8
0
 62
     0
 10
107.636
 20
139.905
 30
0.0
 11
107.619
 21
139.889
 31
0.0
  0
LINE
  8
0
 62
     0
 10
107.619
 20
139.889
 30
0.0
 11
107.603
 21
139.874
 31
0.0
  0
LINE
  8
0
 62
     0
 10
107.603
 20
139.874
 30
0.0
 11
107.585
 21
139.857
 31
0.0
  0
LINE
  8
0
 62
     0
 10
107.585
 20
139.857
 30
0.0
 11
107.565
 21
139.842
 31
0.0
  0
LINE
  8
0
 62
     0
 10
107.565
 20
139.842
 30
0.0
 11
107.546
 21
139.827
 31
0.0
  0
LINE
  8
0
 62
     0
 10
107.546
 20
139.827
 30
0.0
 11
107.527
 21
139.811
 31
0.0
  0
LINE
  8
0
 62
     0
 10
107.527
 20
139.811
 30
0.0
 11
107.506
 21
139.798
 31
0.0
  0
LINE
  8
0
 62
     0
 10
107.506
 20
139.798
 30
0.0
 11
107.486
 21
139.784
 31
0.0
  0
LINE
  8
0
 62
     0
 10
107.486
 20
139.784
 30
0.0
 11
107.465
 21
139.77
 31
0.0
  0
LINE
  8
0
 62
     0
 10
107.465
 20
139.77
 30
0.0
 11
107.444
 21
139.758
 31
0.0
  0
LINE
  8
0
 62
     0
 10
107.444
 20
139.758
 30
0.0
 11
107.425
 21
139.747
 31
0.0
  0
LINE
  8
0
 62
     0
 10
107.425
 20
139.747
 30
0.0
 11
107.404
 21
139.737
 31
0.0
  0
LINE
  8
0
 62
     0
 10
107.404
 20
139.737
 30
0.0
 11
107.385
 21
139.728
 31
0.0
  0
LINE
  8
0
 62
     0
 10
107.385
 20
139.728
 30
0.0
 11
107.366
 21
139.718
 31
0.0
  0
LINE
  8
0
 62
     0
 10
107.366
 20
139.718
 30
0.0
 11
107.348
 21
139.71
 31
0.0
  0
LINE
  8
0
 62
     0
 10
107.348
 20
139.71
 30
0.0
 11
107.33
 21
139.703
 31
0.0
  0
LINE
  8
0
 62
     0
 10
107.33
 20
139.703
 30
0.0
 11
107.315
 21
139.696
 31
0.0
  0
LINE
  8
0
 62
     0
 10
107.315
 20
139.696
 30
0.0
 11
107.299
 21
139.689
 31
0.0
  0
LINE
  8
0
 62
     0
 10
107.299
 20
139.689
 30
0.0
 11
107.286
 21
139.683
 31
0.0
  0
LINE
  8
0
 62
     0
 10
107.286
 20
139.683
 30
0.0
 11
107.273
 21
139.678
 31
0.0
  0
LINE
  8
0
 62
     0
 10
107.273
 20
139.678
 30
0.0
 11
107.264
 21
139.674
 31
0.0
  0
LINE
  8
0
 62
     0
 10
107.264
 20
139.674
 30
0.0
 11
107.254
 21
139.668
 31
0.0
  0
LINE
  8
0
 62
     0
 10
107.254
 20
139.668
 30
0.0
 11
107.246
 21
139.664
 31
0.0
  0
LINE
  8
0
 62
     0
 10
107.246
 20
139.664
 30
0.0
 11
107.24
 21
139.659
 31
0.0
  0
LINE
  8
0
 62
     0
 10
107.24
 20
139.659
 30
0.0
 11
107.236
 21
139.653
 31
0.0
  0
LINE
  8
0
 62
     0
 10
107.236
 20
139.653
 30
0.0
 11
107.234
 21
139.648
 31
0.0
  0
LINE
  8
0
 62
     0
 10
107.234
 20
139.648
 30
0.0
 11
107.232
 21
139.641
 31
0.0
  0
LINE
  8
0
 62
     0
 10
107.232
 20
139.641
 30
0.0
 11
107.232
 21
139.635
 31
0.0
  0
LINE
  8
0
 62
     0
 10
107.232
 20
139.635
 30
0.0
 11
107.235
 21
139.627
 31
0.0
  0
LINE
  8
0
 62
     0
 10
107.235
 20
139.627
 30
0.0
 11
107.237
 21
139.619
 31
0.0
  0
LINE
  8
0
 62
     0
 10
107.237
 20
139.619
 30
0.0
 11
107.242
 21
139.609
 31
0.0
  0
LINE
  8
0
 62
     0
 10
107.242
 20
139.609
 30
0.0
 11
107.249
 21
139.599
 31
0.0
  0
LINE
  8
0
 62
     0
 10
107.249
 20
139.599
 30
0.0
 11
107.254
 21
139.587
 31
0.0
  0
LINE
  8
0
 62
     0
 10
107.254
 20
139.587
 30
0.0
 11
107.262
 21
139.575
 31
0.0
  0
LINE
  8
0
 62
     0
 10
107.262
 20
139.575
 30
0.0
 11
107.271
 21
139.561
 31
0.0
  0
LINE
  8
0
 62
     0
 10
107.271
 20
139.561
 30
0.0
 11
107.28
 21
139.546
 31
0.0
  0
LINE
  8
0
 62
     0
 10
107.28
 20
139.546
 30
0.0
 11
107.29
 21
139.531
 31
0.0
  0
LINE
  8
0
 62
     0
 10
107.29
 20
139.531
 30
0.0
 11
107.299
 21
139.513
 31
0.0
  0
LINE
  8
0
 62
     0
 10
107.299
 20
139.513
 30
0.0
 11
107.309
 21
139.495
 31
0.0
  0
LINE
  8
0
 62
     0
 10
107.309
 20
139.495
 30
0.0
 11
107.319
 21
139.475
 31
0.0
  0
LINE
  8
0
 62
     0
 10
107.319
 20
139.475
 30
0.0
 11
107.33
 21
139.455
 31
0.0
  0
LINE
  8
0
 62
     0
 10
107.33
 20
139.455
 30
0.0
 11
107.34
 21
139.434
 31
0.0
  0
LINE
  8
0
 62
     0
 10
107.34
 20
139.434
 30
0.0
 11
107.349
 21
139.412
 31
0.0
  0
LINE
  8
0
 62
     0
 10
107.349
 20
139.412
 30
0.0
 11
107.357
 21
139.388
 31
0.0
  0
LINE
  8
0
 62
     0
 10
107.357
 20
139.388
 30
0.0
 11
107.366
 21
139.365
 31
0.0
  0
LINE
  8
0
 62
     0
 10
107.366
 20
139.365
 30
0.0
 11
107.374
 21
139.342
 31
0.0
  0
LINE
  8
0
 62
     0
 10
107.374
 20
139.342
 30
0.0
 11
107.382
 21
139.318
 31
0.0
  0
LINE
  8
0
 62
     0
 10
107.382
 20
139.318
 30
0.0
 11
107.388
 21
139.295
 31
0.0
  0
LINE
  8
0
 62
     0
 10
107.388
 20
139.295
 30
0.0
 11
107.395
 21
139.271
 31
0.0
  0
LINE
  8
0
 62
     0
 10
107.395
 20
139.271
 30
0.0
 11
107.4
 21
139.248
 31
0.0
  0
LINE
  8
0
 62
     0
 10
107.4
 20
139.248
 30
0.0
 11
107.404
 21
139.224
 31
0.0
  0
LINE
  8
0
 62
     0
 10
107.404
 20
139.224
 30
0.0
 11
107.408
 21
139.203
 31
0.0
  0
LINE
  8
0
 62
     0
 10
107.408
 20
139.203
 30
0.0
 11
107.411
 21
139.18
 31
0.0
  0
LINE
  8
0
 62
     0
 10
107.411
 20
139.18
 30
0.0
 11
107.414
 21
139.16
 31
0.0
  0
LINE
  8
0
 62
     0
 10
107.414
 20
139.16
 30
0.0
 11
107.415
 21
139.14
 31
0.0
  0
LINE
  8
0
 62
     0
 10
107.415
 20
139.14
 30
0.0
 11
107.418
 21
139.121
 31
0.0
  0
LINE
  8
0
 62
     0
 10
107.418
 20
139.121
 30
0.0
 11
107.419
 21
139.105
 31
0.0
  0
LINE
  8
0
 62
     0
 10
107.419
 20
139.105
 30
0.0
 11
107.421
 21
139.088
 31
0.0
  0
LINE
  8
0
 62
     0
 10
107.421
 20
139.088
 30
0.0
 11
107.422
 21
139.073
 31
0.0
  0
LINE
  8
0
 62
     0
 10
107.422
 20
139.073
 30
0.0
 11
107.422
 21
139.061
 31
0.0
  0
LINE
  8
0
 62
     0
 10
107.422
 20
139.061
 30
0.0
 11
107.425
 21
139.048
 31
0.0
  0
LINE
  8
0
 62
     0
 10
107.425
 20
139.048
 30
0.0
 11
107.426
 21
139.039
 31
0.0
  0
LINE
  8
0
 62
     0
 10
107.426
 20
139.039
 30
0.0
 11
107.429
 21
139.03
 31
0.0
  0
LINE
  8
0
 62
     0
 10
107.429
 20
139.03
 30
0.0
 11
107.432
 21
139.022
 31
0.0
  0
LINE
  8
0
 62
     0
 10
107.432
 20
139.022
 30
0.0
 11
107.435
 21
139.017
 31
0.0
  0
LINE
  8
0
 62
     0
 10
107.435
 20
139.017
 30
0.0
 11
107.44
 21
139.012
 31
0.0
  0
LINE
  8
0
 62
     0
 10
107.44
 20
139.012
 30
0.0
 11
107.446
 21
139.01
 31
0.0
  0
LINE
  8
0
 62
     0
 10
107.446
 20
139.01
 30
0.0
 11
107.453
 21
139.008
 31
0.0
  0
LINE
  8
0
 62
     0
 10
107.453
 20
139.008
 30
0.0
 11
107.459
 21
139.007
 31
0.0
  0
LINE
  8
0
 62
     0
 10
107.459
 20
139.007
 30
0.0
 11
107.469
 21
139.008
 31
0.0
  0
LINE
  8
0
 62
     0
 10
107.469
 20
139.008
 30
0.0
 11
107.479
 21
139.01
 31
0.0
  0
LINE
  8
0
 62
     0
 10
107.479
 20
139.01
 30
0.0
 11
107.491
 21
139.011
 31
0.0
  0
LINE
  8
0
 62
     0
 10
107.491
 20
139.011
 30
0.0
 11
107.503
 21
139.014
 31
0.0
  0
LINE
  8
0
 62
     0
 10
107.503
 20
139.014
 30
0.0
 11
107.517
 21
139.018
 31
0.0
  0
LINE
  8
0
 62
     0
 10
107.517
 20
139.018
 30
0.0
 11
107.534
 21
139.021
 31
0.0
  0
LINE
  8
0
 62
     0
 10
107.534
 20
139.021
 30
0.0
 11
107.55
 21
139.025
 31
0.0
  0
LINE
  8
0
 62
     0
 10
107.55
 20
139.025
 30
0.0
 11
107.568
 21
139.029
 31
0.0
  0
LINE
  8
0
 62
     0
 10
107.568
 20
139.029
 30
0.0
 11
107.588
 21
139.033
 31
0.0
  0
LINE
  8
0
 62
     0
 10
107.588
 20
139.033
 30
0.0
 11
107.608
 21
139.037
 31
0.0
  0
LINE
  8
0
 62
     0
 10
107.608
 20
139.037
 30
0.0
 11
107.63
 21
139.041
 31
0.0
  0
LINE
  8
0
 62
     0
 10
107.63
 20
139.041
 30
0.0
 11
107.652
 21
139.044
 31
0.0
  0
LINE
  8
0
 62
     0
 10
107.652
 20
139.044
 30
0.0
 11
107.676
 21
139.047
 31
0.0
  0
LINE
  8
0
 62
     0
 10
107.676
 20
139.047
 30
0.0
 11
107.699
 21
139.049
 31
0.0
  0
LINE
  8
0
 62
     0
 10
107.699
 20
139.049
 30
0.0
 11
107.724
 21
139.051
 31
0.0
  0
LINE
  8
0
 62
     0
 10
107.724
 20
139.051
 30
0.0
 11
107.749
 21
139.052
 31
0.0
  0
LINE
  8
0
 62
     0
 10
107.749
 20
139.052
 30
0.0
 11
107.774
 21
139.052
 31
0.0
  0
LINE
  8
0
 62
     0
 10
107.774
 20
139.052
 30
0.0
 11
107.798
 21
139.052
 31
0.0
  0
LINE
  8
0
 62
     0
 10
107.798
 20
139.052
 30
0.0
 11
107.823
 21
139.051
 31
0.0
  0
LINE
  8
0
 62
     0
 10
107.823
 20
139.051
 30
0.0
 11
107.848
 21
139.049
 31
0.0
  0
LINE
  8
0
 62
     0
 10
107.848
 20
139.049
 30
0.0
 11
107.871
 21
139.047
 31
0.0
  0
LINE
  8
0
 62
     0
 10
107.871
 20
139.047
 30
0.0
 11
107.895
 21
139.044
 31
0.0
  0
LINE
  8
0
 62
     0
 10
107.895
 20
139.044
 30
0.0
 11
107.917
 21
139.041
 31
0.0
  0
LINE
  8
0
 62
     0
 10
107.917
 20
139.041
 30
0.0
 11
107.939
 21
139.037
 31
0.0
  0
LINE
  8
0
 62
     0
 10
107.939
 20
139.037
 30
0.0
 11
107.96
 21
139.033
 31
0.0
  0
LINE
  8
0
 62
     0
 10
107.96
 20
139.033
 30
0.0
 11
107.979
 21
139.029
 31
0.0
  0
LINE
  8
0
 62
     0
 10
107.979
 20
139.029
 30
0.0
 11
107.997
 21
139.025
 31
0.0
  0
LINE
  8
0
 62
     0
 10
107.997
 20
139.025
 30
0.0
 11
108.013
 21
139.021
 31
0.0
  0
LINE
  8
0
 62
     0
 10
108.013
 20
139.021
 30
0.0
 11
108.03
 21
139.018
 31
0.0
  0
LINE
  8
0
 62
     0
 10
108.03
 20
139.018
 30
0.0
 11
108.044
 21
139.014
 31
0.0
  0
LINE
  8
0
 62
     0
 10
108.044
 20
139.014
 30
0.0
 11
108.056
 21
139.011
 31
0.0
  0
LINE
  8
0
 62
     0
 10
108.056
 20
139.011
 30
0.0
 11
108.069
 21
139.01
 31
0.0
  0
LINE
  8
0
 62
     0
 10
108.069
 20
139.01
 30
0.0
 11
108.078
 21
139.008
 31
0.0
  0
LINE
  8
0
 62
     0
 10
108.078
 20
139.008
 30
0.0
 11
108.088
 21
139.007
 31
0.0
  0
LINE
  8
0
 62
     0
 10
108.088
 20
139.007
 30
0.0
 11
108.095
 21
139.008
 31
0.0
  0
LINE
  8
0
 62
     0
 10
108.095
 20
139.008
 30
0.0
 11
108.102
 21
139.01
 31
0.0
  0
LINE
  8
0
 62
     0
 10
108.102
 20
139.01
 30
0.0
 11
108.107
 21
139.012
 31
0.0
  0
LINE
  8
0
 62
     0
 10
108.107
 20
139.012
 30
0.0
 11
108.113
 21
139.017
 31
0.0
  0
LINE
  8
0
 62
     0
 10
108.113
 20
139.017
 30
0.0
 11
108.115
 21
139.022
 31
0.0
  0
LINE
  8
0
 62
     0
 10
108.115
 20
139.022
 30
0.0
 11
108.118
 21
139.03
 31
0.0
  0
LINE
  8
0
 62
     0
 10
108.118
 20
139.03
 30
0.0
 11
108.121
 21
139.039
 31
0.0
  0
LINE
  8
0
 62
     0
 10
108.121
 20
139.039
 30
0.0
 11
108.122
 21
139.048
 31
0.0
  0
LINE
  8
0
 62
     0
 10
108.122
 20
139.048
 30
0.0
 11
108.125
 21
139.061
 31
0.0
  0
LINE
  8
0
 62
     0
 10
108.125
 20
139.061
 30
0.0
 11
108.125
 21
139.073
 31
0.0
  0
LINE
  8
0
 62
     0
 10
108.125
 20
139.073
 30
0.0
 11
108.126
 21
139.088
 31
0.0
  0
LINE
  8
0
 62
     0
 10
108.126
 20
139.088
 30
0.0
 11
108.128
 21
139.105
 31
0.0
  0
LINE
  8
0
 62
     0
 10
108.128
 20
139.105
 30
0.0
 11
108.129
 21
139.121
 31
0.0
  0
LINE
  8
0
 62
     0
 10
108.129
 20
139.121
 30
0.0
 11
108.132
 21
139.14
 31
0.0
  0
LINE
  8
0
 62
     0
 10
108.132
 20
139.14
 30
0.0
 11
108.133
 21
139.16
 31
0.0
  0
LINE
  8
0
 62
     0
 10
108.133
 20
139.16
 30
0.0
 11
108.136
 21
139.18
 31
0.0
  0
LINE
  8
0
 62
     0
 10
108.136
 20
139.18
 30
0.0
 11
108.139
 21
139.203
 31
0.0
  0
LINE
  8
0
 62
     0
 10
108.139
 20
139.203
 30
0.0
 11
108.143
 21
139.224
 31
0.0
  0
LINE
  8
0
 62
     0
 10
108.143
 20
139.224
 30
0.0
 11
108.147
 21
139.248
 31
0.0
  0
LINE
  8
0
 62
     0
 10
108.147
 20
139.248
 30
0.0
 11
108.152
 21
139.271
 31
0.0
  0
LINE
  8
0
 62
     0
 10
108.152
 20
139.271
 30
0.0
 11
108.16
 21
139.295
 31
0.0
  0
LINE
  8
0
 62
     0
 10
108.16
 20
139.295
 30
0.0
 11
108.165
 21
139.318
 31
0.0
  0
LINE
  8
0
 62
     0
 10
108.165
 20
139.318
 30
0.0
 11
108.173
 21
139.342
 31
0.0
  0
LINE
  8
0
 62
     0
 10
108.173
 20
139.342
 30
0.0
 11
108.181
 21
139.365
 31
0.0
  0
LINE
  8
0
 62
     0
 10
108.181
 20
139.365
 30
0.0
 11
108.19
 21
139.388
 31
0.0
  0
LINE
  8
0
 62
     0
 10
108.19
 20
139.388
 30
0.0
 11
108.198
 21
139.412
 31
0.0
  0
LINE
  8
0
 62
     0
 10
108.198
 20
139.412
 30
0.0
 11
108.208
 21
139.434
 31
0.0
  0
LINE
  8
0
 62
     0
 10
108.208
 20
139.434
 30
0.0
 11
108.217
 21
139.455
 31
0.0
  0
LINE
  8
0
 62
     0
 10
108.217
 20
139.455
 30
0.0
 11
108.228
 21
139.475
 31
0.0
  0
LINE
  8
0
 62
     0
 10
108.228
 20
139.475
 30
0.0
 11
108.238
 21
139.495
 31
0.0
  0
LINE
  8
0
 62
     0
 10
108.238
 20
139.495
 30
0.0
 11
108.248
 21
139.513
 31
0.0
  0
LINE
  8
0
 62
     0
 10
108.248
 20
139.513
 30
0.0
 11
108.257
 21
139.531
 31
0.0
  0
LINE
  8
0
 62
     0
 10
108.257
 20
139.531
 30
0.0
 11
108.267
 21
139.546
 31
0.0
  0
LINE
  8
0
 62
     0
 10
108.267
 20
139.546
 30
0.0
 11
108.277
 21
139.561
 31
0.0
  0
LINE
  8
0
 62
     0
 10
108.277
 20
139.561
 30
0.0
 11
108.285
 21
139.575
 31
0.0
  0
LINE
  8
0
 62
     0
 10
108.285
 20
139.575
 30
0.0
 11
108.293
 21
139.587
 31
0.0
  0
LINE
  8
0
 62
     0
 10
108.293
 20
139.587
 30
0.0
 11
108.299
 21
139.599
 31
0.0
  0
LINE
  8
0
 62
     0
 10
108.299
 20
139.599
 30
0.0
 11
108.306
 21
139.609
 31
0.0
  0
LINE
  8
0
 62
     0
 10
108.306
 20
139.609
 30
0.0
 11
108.31
 21
139.619
 31
0.0
  0
LINE
  8
0
 62
     0
 10
108.31
 20
139.619
 30
0.0
 11
108.312
 21
139.627
 31
0.0
  0
LINE
  8
0
 62
     0
 10
108.312
 20
139.627
 30
0.0
 11
108.315
 21
139.635
 31
0.0
  0
LINE
  8
0
 62
     0
 10
108.315
 20
139.635
 30
0.0
 11
108.315
 21
139.641
 31
0.0
  0
LINE
  8
0
 62
     0
 10
108.315
 20
139.641
 30
0.0
 11
108.314
 21
139.648
 31
0.0
  0
ENDSEC
  0
EOF
