  0
SECTION
  2
HEADER
  9
$ACADVER
  1
AC1009
  9
$EXTMIN
 10
0.0
 20
0.0
 30
0.0
  9
$EXTMAX
 10
1000.0
 20
1000.0
 30
0.0
  9
$FILLMODE
 70
 0
  9
$SPLFRAME
 70
 1
  0
ENDSEC
  0
SECTION
  2
TABLES
  0
TABLE
  2
LAYER
 70
1
  0
LAYER
  2
0
 70
     0
 62
     7
  6
CONTINUOUS
  0
ENDTAB
  0
ENDSEC
  0
SECTION
  2
ENTITIES
  0
LINE
  8
0
 62
     0
 10
0.500228
 20
0.0689021
 30
0.0
 11
0.505739
 21
0.0689021
 31
0.0
  0
LINE
  8
0
 62
     0
 10
0.505739
 20
0.0689021
 30
0.0
 11
0.516763
 21
0.071658
 31
0.0
  0
LINE
  8
0
 62
     0
 10
0.516763
 20
0.071658
 30
0.0
 11
0.527787
 21
0.0771701
 31
0.0
  0
LINE
  8
0
 62
     0
 10
0.527787
 20
0.0771701
 30
0.0
 11
0.534681
 21
0.0799264
 31
0.0
  0
LINE
  8
0
 62
     0
 10
0.534681
 20
0.0799264
 30
0.0
 11
0.540191
 21
0.0840602
 31
0.0
  0
LINE
  8
0
 62
     0
 10
0.540191
 20
0.0840602
 30
0.0
 11
0.558105
 21
0.101975
 31
0.0
  0
LINE
  8
0
 62
     0
 10
0.558105
 20
0.101975
 30
0.0
 11
0.563619
 21
0.108865
 31
0.0
  0
LINE
  8
0
 62
     0
 10
0.563619
 20
0.108865
 30
0.0
 11
0.574643
 21
0.125402
 31
0.0
  0
LINE
  8
0
 62
     0
 10
0.574643
 20
0.125402
 30
0.0
 11
0.580154
 21
0.135048
 31
0.0
  0
LINE
  8
0
 62
     0
 10
0.580154
 20
0.135048
 30
0.0
 11
0.584288
 21
0.143316
 31
0.0
  0
LINE
  8
0
 62
     0
 10
0.584288
 20
0.143316
 30
0.0
 11
0.574643
 21
0.152962
 31
0.0
  0
LINE
  8
0
 62
     0
 10
0.574643
 20
0.152962
 30
0.0
 11
0.573264
 21
0.152962
 31
0.0
  0
LINE
  8
0
 62
     0
 10
0.573264
 20
0.152962
 30
0.0
 11
0.563619
 21
0.162609
 31
0.0
  0
LINE
  8
0
 62
     0
 10
0.563619
 20
0.162609
 30
0.0
 11
0.56224
 21
0.163987
 31
0.0
  0
LINE
  8
0
 62
     0
 10
0.56224
 20
0.163987
 30
0.0
 11
0.552595
 21
0.173633
 31
0.0
  0
LINE
  8
0
 62
     0
 10
0.552595
 20
0.173633
 30
0.0
 11
0.551215
 21
0.175011
 31
0.0
  0
LINE
  8
0
 62
     0
 10
0.551215
 20
0.175011
 30
0.0
 11
0.54157
 21
0.186035
 31
0.0
  0
LINE
  8
0
 62
     0
 10
0.54157
 20
0.186035
 30
0.0
 11
0.540191
 21
0.186035
 31
0.0
  0
LINE
  8
0
 62
     0
 10
0.540191
 20
0.186035
 30
0.0
 11
0.530546
 21
0.19706
 31
0.0
  0
LINE
  8
0
 62
     0
 10
0.530546
 20
0.19706
 30
0.0
 11
0.530546
 21
0.198438
 31
0.0
  0
LINE
  8
0
 62
     0
 10
0.530546
 20
0.198438
 30
0.0
 11
0.519522
 21
0.209462
 31
0.0
  0
LINE
  8
0
 62
     0
 10
0.519522
 20
0.209462
 30
0.0
 11
0.519522
 21
0.21084
 31
0.0
  0
LINE
  8
0
 62
     0
 10
0.519522
 20
0.21084
 30
0.0
 11
0.509873
 21
0.223242
 31
0.0
  0
LINE
  8
0
 62
     0
 10
0.509873
 20
0.223242
 30
0.0
 11
0.508497
 21
0.223242
 31
0.0
  0
LINE
  8
0
 62
     0
 10
0.508497
 20
0.223242
 30
0.0
 11
0.500228
 21
0.235645
 31
0.0
  0
LINE
  8
0
 62
     0
 10
0.500228
 20
0.235645
 30
0.0
 11
0.480935
 21
0.21084
 31
0.0
  0
LINE
  8
0
 62
     0
 10
0.480935
 20
0.21084
 30
0.0
 11
0.479559
 21
0.209462
 31
0.0
  0
LINE
  8
0
 62
     0
 10
0.479559
 20
0.209462
 30
0.0
 11
0.469911
 21
0.198438
 31
0.0
  0
LINE
  8
0
 62
     0
 10
0.469911
 20
0.198438
 30
0.0
 11
0.469911
 21
0.19706
 31
0.0
  0
LINE
  8
0
 62
     0
 10
0.469911
 20
0.19706
 30
0.0
 11
0.447862
 21
0.175011
 31
0.0
  0
LINE
  8
0
 62
     0
 10
0.447862
 20
0.175011
 30
0.0
 11
0.447862
 21
0.173633
 31
0.0
  0
LINE
  8
0
 62
     0
 10
0.447862
 20
0.173633
 30
0.0
 11
0.436838
 21
0.163987
 31
0.0
  0
LINE
  8
0
 62
     0
 10
0.436838
 20
0.163987
 30
0.0
 11
0.436838
 21
0.162609
 31
0.0
  0
LINE
  8
0
 62
     0
 10
0.436838
 20
0.162609
 30
0.0
 11
0.427193
 21
0.152962
 31
0.0
  0
LINE
  8
0
 62
     0
 10
0.427193
 20
0.152962
 30
0.0
 11
0.425813
 21
0.152962
 31
0.0
  0
LINE
  8
0
 62
     0
 10
0.425813
 20
0.152962
 30
0.0
 11
0.416168
 21
0.143316
 31
0.0
  0
LINE
  8
0
 62
     0
 10
0.416168
 20
0.143316
 30
0.0
 11
0.414789
 21
0.143316
 31
0.0
  0
LINE
  8
0
 62
     0
 10
0.414789
 20
0.143316
 30
0.0
 11
0.420303
 21
0.135048
 31
0.0
  0
LINE
  8
0
 62
     0
 10
0.420303
 20
0.135048
 30
0.0
 11
0.425813
 21
0.125402
 31
0.0
  0
LINE
  8
0
 62
     0
 10
0.425813
 20
0.125402
 30
0.0
 11
0.436838
 21
0.108865
 31
0.0
  0
LINE
  8
0
 62
     0
 10
0.436838
 20
0.108865
 30
0.0
 11
0.447862
 21
0.0950846
 31
0.0
  0
LINE
  8
0
 62
     0
 10
0.447862
 20
0.0950846
 30
0.0
 11
0.454752
 21
0.0895724
 31
0.0
  0
LINE
  8
0
 62
     0
 10
0.454752
 20
0.0895724
 30
0.0
 11
0.460266
 21
0.0840602
 31
0.0
  0
LINE
  8
0
 62
     0
 10
0.460266
 20
0.0840602
 30
0.0
 11
0.465776
 21
0.0799264
 31
0.0
  0
LINE
  8
0
 62
     0
 10
0.465776
 20
0.0799264
 30
0.0
 11
0.47129
 21
0.0771701
 31
0.0
  0
LINE
  8
0
 62
     0
 10
0.47129
 20
0.0771701
 30
0.0
 11
0.47818
 21
0.0744142
 31
0.0
  0
LINE
  8
0
 62
     0
 10
0.47818
 20
0.0744142
 30
0.0
 11
0.48369
 21
0.071658
 31
0.0
  0
LINE
  8
0
 62
     0
 10
0.48369
 20
0.071658
 30
0.0
 11
0.494714
 21
0.0689021
 31
0.0
  0
LINE
  8
0
 62
     0
 10
0.494714
 20
0.0689021
 30
0.0
 11
0.500228
 21
0.0689021
 31
0.0
  0
LINE
  8
0
 62
     0
 10
0.285254
 20
0.12678
 30
0.0
 11
0.292144
 21
0.12678
 31
0.0
  0
LINE
  8
0
 62
     0
 10
0.292144
 20
0.12678
 30
0.0
 11
0.300412
 21
0.128157
 31
0.0
  0
LINE
  8
0
 62
     0
 10
0.300412
 20
0.128157
 30
0.0
 11
0.307303
 21
0.129536
 31
0.0
  0
LINE
  8
0
 62
     0
 10
0.307303
 20
0.129536
 30
0.0
 11
0.323839
 21
0.135048
 31
0.0
  0
LINE
  8
0
 62
     0
 10
0.323839
 20
0.135048
 30
0.0
 11
0.333485
 21
0.137804
 31
0.0
  0
LINE
  8
0
 62
     0
 10
0.333485
 20
0.137804
 30
0.0
 11
0.341753
 21
0.143316
 31
0.0
  0
LINE
  8
0
 62
     0
 10
0.341753
 20
0.143316
 30
0.0
 11
0.3514
 21
0.14745
 31
0.0
  0
LINE
  8
0
 62
     0
 10
0.3514
 20
0.14745
 30
0.0
 11
0.361047
 21
0.152962
 31
0.0
  0
LINE
  8
0
 62
     0
 10
0.361047
 20
0.152962
 30
0.0
 11
0.366557
 21
0.157097
 31
0.0
  0
LINE
  8
0
 62
     0
 10
0.366557
 20
0.157097
 30
0.0
 11
0.362423
 21
0.165365
 31
0.0
  0
LINE
  8
0
 62
     0
 10
0.362423
 20
0.165365
 30
0.0
 11
0.362423
 21
0.166743
 31
0.0
  0
LINE
  8
0
 62
     0
 10
0.362423
 20
0.166743
 30
0.0
 11
0.358292
 21
0.179145
 31
0.0
  0
LINE
  8
0
 62
     0
 10
0.358292
 20
0.179145
 30
0.0
 11
0.358292
 21
0.180523
 31
0.0
  0
LINE
  8
0
 62
     0
 10
0.358292
 20
0.180523
 30
0.0
 11
0.354157
 21
0.194303
 31
0.0
  0
LINE
  8
0
 62
     0
 10
0.354157
 20
0.194303
 30
0.0
 11
0.354157
 21
0.195682
 31
0.0
  0
LINE
  8
0
 62
     0
 10
0.354157
 20
0.195682
 30
0.0
 11
0.350022
 21
0.209462
 31
0.0
  0
LINE
  8
0
 62
     0
 10
0.350022
 20
0.209462
 30
0.0
 11
0.350022
 21
0.21084
 31
0.0
  0
LINE
  8
0
 62
     0
 10
0.350022
 20
0.21084
 30
0.0
 11
0.347266
 21
0.22462
 31
0.0
  0
LINE
  8
0
 62
     0
 10
0.347266
 20
0.22462
 30
0.0
 11
0.347266
 21
0.225998
 31
0.0
  0
LINE
  8
0
 62
     0
 10
0.347266
 20
0.225998
 30
0.0
 11
0.34451
 21
0.241157
 31
0.0
  0
LINE
  8
0
 62
     0
 10
0.34451
 20
0.241157
 30
0.0
 11
0.34451
 21
0.242535
 31
0.0
  0
LINE
  8
0
 62
     0
 10
0.34451
 20
0.242535
 30
0.0
 11
0.341753
 21
0.257693
 31
0.0
  0
LINE
  8
0
 62
     0
 10
0.341753
 20
0.257693
 30
0.0
 11
0.341753
 21
0.259071
 31
0.0
  0
LINE
  8
0
 62
     0
 10
0.341753
 20
0.259071
 30
0.0
 11
0.338998
 21
0.27423
 31
0.0
  0
LINE
  8
0
 62
     0
 10
0.338998
 20
0.27423
 30
0.0
 11
0.338998
 21
0.275608
 31
0.0
  0
LINE
  8
0
 62
     0
 10
0.338998
 20
0.275608
 30
0.0
 11
0.338998
 21
0.279742
 31
0.0
  0
LINE
  8
0
 62
     0
 10
0.338998
 20
0.279742
 30
0.0
 11
0.330729
 21
0.275608
 31
0.0
  0
LINE
  8
0
 62
     0
 10
0.330729
 20
0.275608
 30
0.0
 11
0.329351
 21
0.275608
 31
0.0
  0
LINE
  8
0
 62
     0
 10
0.329351
 20
0.275608
 30
0.0
 11
0.314193
 21
0.268718
 31
0.0
  0
LINE
  8
0
 62
     0
 10
0.314193
 20
0.268718
 30
0.0
 11
0.299034
 21
0.263205
 31
0.0
  0
LINE
  8
0
 62
     0
 10
0.299034
 20
0.263205
 30
0.0
 11
0.297656
 21
0.263205
 31
0.0
  0
LINE
  8
0
 62
     0
 10
0.297656
 20
0.263205
 30
0.0
 11
0.283876
 21
0.257693
 31
0.0
  0
LINE
  8
0
 62
     0
 10
0.283876
 20
0.257693
 30
0.0
 11
0.282498
 21
0.257693
 31
0.0
  0
LINE
  8
0
 62
     0
 10
0.282498
 20
0.257693
 30
0.0
 11
0.268718
 21
0.253559
 31
0.0
  0
LINE
  8
0
 62
     0
 10
0.268718
 20
0.253559
 30
0.0
 11
0.26734
 21
0.253559
 31
0.0
  0
LINE
  8
0
 62
     0
 10
0.26734
 20
0.253559
 30
0.0
 11
0.253559
 21
0.249425
 31
0.0
  0
LINE
  8
0
 62
     0
 10
0.253559
 20
0.249425
 30
0.0
 11
0.252181
 21
0.249425
 31
0.0
  0
LINE
  8
0
 62
     0
 10
0.252181
 20
0.249425
 30
0.0
 11
0.238401
 21
0.245291
 31
0.0
  0
LINE
  8
0
 62
     0
 10
0.238401
 20
0.245291
 30
0.0
 11
0.22462
 21
0.242535
 31
0.0
  0
LINE
  8
0
 62
     0
 10
0.22462
 20
0.242535
 30
0.0
 11
0.223242
 21
0.242535
 31
0.0
  0
LINE
  8
0
 62
     0
 10
0.223242
 20
0.242535
 30
0.0
 11
0.219108
 21
0.241157
 31
0.0
  0
LINE
  8
0
 62
     0
 10
0.219108
 20
0.241157
 30
0.0
 11
0.219108
 21
0.206706
 31
0.0
  0
LINE
  8
0
 62
     0
 10
0.219108
 20
0.206706
 30
0.0
 11
0.220486
 21
0.19706
 31
0.0
  0
LINE
  8
0
 62
     0
 10
0.220486
 20
0.19706
 30
0.0
 11
0.221864
 21
0.188791
 31
0.0
  0
LINE
  8
0
 62
     0
 10
0.221864
 20
0.188791
 30
0.0
 11
0.22462
 21
0.180523
 31
0.0
  0
LINE
  8
0
 62
     0
 10
0.22462
 20
0.180523
 30
0.0
 11
0.225998
 21
0.172255
 31
0.0
  0
LINE
  8
0
 62
     0
 10
0.225998
 20
0.172255
 30
0.0
 11
0.228755
 21
0.165365
 31
0.0
  0
LINE
  8
0
 62
     0
 10
0.228755
 20
0.165365
 30
0.0
 11
0.232888
 21
0.158474
 31
0.0
  0
LINE
  8
0
 62
     0
 10
0.232888
 20
0.158474
 30
0.0
 11
0.235645
 21
0.152962
 31
0.0
  0
LINE
  8
0
 62
     0
 10
0.235645
 20
0.152962
 30
0.0
 11
0.239779
 21
0.148828
 31
0.0
  0
LINE
  8
0
 62
     0
 10
0.239779
 20
0.148828
 30
0.0
 11
0.243913
 21
0.143316
 31
0.0
  0
LINE
  8
0
 62
     0
 10
0.243913
 20
0.143316
 30
0.0
 11
0.248047
 21
0.14056
 31
0.0
  0
LINE
  8
0
 62
     0
 10
0.248047
 20
0.14056
 30
0.0
 11
0.252181
 21
0.136426
 31
0.0
  0
LINE
  8
0
 62
     0
 10
0.252181
 20
0.136426
 30
0.0
 11
0.256315
 21
0.13367
 31
0.0
  0
LINE
  8
0
 62
     0
 10
0.256315
 20
0.13367
 30
0.0
 11
0.261827
 21
0.130914
 31
0.0
  0
LINE
  8
0
 62
     0
 10
0.261827
 20
0.130914
 30
0.0
 11
0.272852
 21
0.128157
 31
0.0
  0
LINE
  8
0
 62
     0
 10
0.272852
 20
0.128157
 30
0.0
 11
0.279742
 21
0.12678
 31
0.0
  0
LINE
  8
0
 62
     0
 10
0.279742
 20
0.12678
 30
0.0
 11
0.285254
 21
0.12678
 31
0.0
  0
LINE
  8
0
 62
     0
 10
0.713825
 20
0.12678
 30
0.0
 11
0.720714
 21
0.12678
 31
0.0
  0
LINE
  8
0
 62
     0
 10
0.720714
 20
0.12678
 30
0.0
 11
0.726225
 21
0.128157
 31
0.0
  0
LINE
  8
0
 62
     0
 10
0.726225
 20
0.128157
 30
0.0
 11
0.733118
 21
0.129536
 31
0.0
  0
LINE
  8
0
 62
     0
 10
0.733118
 20
0.129536
 30
0.0
 11
0.738628
 21
0.130914
 31
0.0
  0
LINE
  8
0
 62
     0
 10
0.738628
 20
0.130914
 30
0.0
 11
0.742763
 21
0.13367
 31
0.0
  0
LINE
  8
0
 62
     0
 10
0.742763
 20
0.13367
 30
0.0
 11
0.748273
 21
0.136426
 31
0.0
  0
LINE
  8
0
 62
     0
 10
0.748273
 20
0.136426
 30
0.0
 11
0.752408
 21
0.14056
 31
0.0
  0
LINE
  8
0
 62
     0
 10
0.752408
 20
0.14056
 30
0.0
 11
0.756543
 21
0.143316
 31
0.0
  0
LINE
  8
0
 62
     0
 10
0.756543
 20
0.143316
 30
0.0
 11
0.760677
 21
0.148828
 31
0.0
  0
LINE
  8
0
 62
     0
 10
0.760677
 20
0.148828
 30
0.0
 11
0.764812
 21
0.152962
 31
0.0
  0
LINE
  8
0
 62
     0
 10
0.764812
 20
0.152962
 30
0.0
 11
0.767567
 21
0.158474
 31
0.0
  0
LINE
  8
0
 62
     0
 10
0.767567
 20
0.158474
 30
0.0
 11
0.773081
 21
0.172255
 31
0.0
  0
LINE
  8
0
 62
     0
 10
0.773081
 20
0.172255
 30
0.0
 11
0.775836
 21
0.180523
 31
0.0
  0
LINE
  8
0
 62
     0
 10
0.775836
 20
0.180523
 30
0.0
 11
0.777215
 21
0.188791
 31
0.0
  0
LINE
  8
0
 62
     0
 10
0.777215
 20
0.188791
 30
0.0
 11
0.77997
 21
0.19706
 31
0.0
  0
LINE
  8
0
 62
     0
 10
0.77997
 20
0.19706
 30
0.0
 11
0.77997
 21
0.206706
 31
0.0
  0
LINE
  8
0
 62
     0
 10
0.77997
 20
0.206706
 30
0.0
 11
0.781346
 21
0.216352
 31
0.0
  0
LINE
  8
0
 62
     0
 10
0.781346
 20
0.216352
 30
0.0
 11
0.781346
 21
0.238401
 31
0.0
  0
LINE
  8
0
 62
     0
 10
0.781346
 20
0.238401
 30
0.0
 11
0.77997
 21
0.241157
 31
0.0
  0
LINE
  8
0
 62
     0
 10
0.77997
 20
0.241157
 30
0.0
 11
0.775836
 21
0.242535
 31
0.0
  0
LINE
  8
0
 62
     0
 10
0.775836
 20
0.242535
 30
0.0
 11
0.762056
 21
0.245291
 31
0.0
  0
LINE
  8
0
 62
     0
 10
0.762056
 20
0.245291
 30
0.0
 11
0.760677
 21
0.245291
 31
0.0
  0
LINE
  8
0
 62
     0
 10
0.760677
 20
0.245291
 30
0.0
 11
0.746898
 21
0.249425
 31
0.0
  0
LINE
  8
0
 62
     0
 10
0.746898
 20
0.249425
 30
0.0
 11
0.71658
 21
0.257693
 31
0.0
  0
LINE
  8
0
 62
     0
 10
0.71658
 20
0.257693
 30
0.0
 11
0.686262
 21
0.268718
 31
0.0
  0
LINE
  8
0
 62
     0
 10
0.686262
 20
0.268718
 30
0.0
 11
0.669727
 21
0.275608
 31
0.0
  0
LINE
  8
0
 62
     0
 10
0.669727
 20
0.275608
 30
0.0
 11
0.661458
 21
0.279742
 31
0.0
  0
LINE
  8
0
 62
     0
 10
0.661458
 20
0.279742
 30
0.0
 11
0.661458
 21
0.275608
 31
0.0
  0
LINE
  8
0
 62
     0
 10
0.661458
 20
0.275608
 30
0.0
 11
0.660079
 21
0.27423
 31
0.0
  0
LINE
  8
0
 62
     0
 10
0.660079
 20
0.27423
 30
0.0
 11
0.658703
 21
0.259071
 31
0.0
  0
LINE
  8
0
 62
     0
 10
0.658703
 20
0.259071
 30
0.0
 11
0.658703
 21
0.257693
 31
0.0
  0
LINE
  8
0
 62
     0
 10
0.658703
 20
0.257693
 30
0.0
 11
0.655948
 21
0.242535
 31
0.0
  0
LINE
  8
0
 62
     0
 10
0.655948
 20
0.242535
 30
0.0
 11
0.655948
 21
0.241157
 31
0.0
  0
LINE
  8
0
 62
     0
 10
0.655948
 20
0.241157
 30
0.0
 11
0.653189
 21
0.225998
 31
0.0
  0
LINE
  8
0
 62
     0
 10
0.653189
 20
0.225998
 30
0.0
 11
0.653189
 21
0.22462
 31
0.0
  0
LINE
  8
0
 62
     0
 10
0.653189
 20
0.22462
 30
0.0
 11
0.649055
 21
0.21084
 31
0.0
  0
LINE
  8
0
 62
     0
 10
0.649055
 20
0.21084
 30
0.0
 11
0.649055
 21
0.209462
 31
0.0
  0
LINE
  8
0
 62
     0
 10
0.649055
 20
0.209462
 30
0.0
 11
0.646299
 21
0.195682
 31
0.0
  0
LINE
  8
0
 62
     0
 10
0.646299
 20
0.195682
 30
0.0
 11
0.646299
 21
0.194303
 31
0.0
  0
LINE
  8
0
 62
     0
 10
0.646299
 20
0.194303
 30
0.0
 11
0.642165
 21
0.180523
 31
0.0
  0
LINE
  8
0
 62
     0
 10
0.642165
 20
0.180523
 30
0.0
 11
0.642165
 21
0.179145
 31
0.0
  0
LINE
  8
0
 62
     0
 10
0.642165
 20
0.179145
 30
0.0
 11
0.636655
 21
0.166743
 31
0.0
  0
LINE
  8
0
 62
     0
 10
0.636655
 20
0.166743
 30
0.0
 11
0.636655
 21
0.165365
 31
0.0
  0
LINE
  8
0
 62
     0
 10
0.636655
 20
0.165365
 30
0.0
 11
0.633899
 21
0.157097
 31
0.0
  0
LINE
  8
0
 62
     0
 10
0.633899
 20
0.157097
 30
0.0
 11
0.63941
 21
0.152962
 31
0.0
  0
LINE
  8
0
 62
     0
 10
0.63941
 20
0.152962
 30
0.0
 11
0.649055
 21
0.14745
 31
0.0
  0
LINE
  8
0
 62
     0
 10
0.649055
 20
0.14745
 30
0.0
 11
0.658703
 21
0.143316
 31
0.0
  0
LINE
  8
0
 62
     0
 10
0.658703
 20
0.143316
 30
0.0
 11
0.666972
 21
0.137804
 31
0.0
  0
LINE
  8
0
 62
     0
 10
0.666972
 20
0.137804
 30
0.0
 11
0.691776
 21
0.129536
 31
0.0
  0
LINE
  8
0
 62
     0
 10
0.691776
 20
0.129536
 30
0.0
 11
0.700045
 21
0.128157
 31
0.0
  0
LINE
  8
0
 62
     0
 10
0.700045
 20
0.128157
 30
0.0
 11
0.706935
 21
0.12678
 31
0.0
  0
LINE
  8
0
 62
     0
 10
0.706935
 20
0.12678
 30
0.0
 11
0.713825
 21
0.12678
 31
0.0
  0
LINE
  8
0
 62
     0
 10
0.39963
 20
0.183279
 30
0.0
 11
0.418924
 21
0.202572
 31
0.0
  0
LINE
  8
0
 62
     0
 10
0.418924
 20
0.202572
 30
0.0
 11
0.429948
 21
0.212218
 31
0.0
  0
LINE
  8
0
 62
     0
 10
0.429948
 20
0.212218
 30
0.0
 11
0.439593
 21
0.22462
 31
0.0
  0
LINE
  8
0
 62
     0
 10
0.439593
 20
0.22462
 30
0.0
 11
0.449241
 21
0.235645
 31
0.0
  0
LINE
  8
0
 62
     0
 10
0.449241
 20
0.235645
 30
0.0
 11
0.468535
 21
0.260449
 31
0.0
  0
LINE
  8
0
 62
     0
 10
0.468535
 20
0.260449
 30
0.0
 11
0.475424
 21
0.271473
 31
0.0
  0
LINE
  8
0
 62
     0
 10
0.475424
 20
0.271473
 30
0.0
 11
0.468535
 21
0.28112
 31
0.0
  0
LINE
  8
0
 62
     0
 10
0.468535
 20
0.28112
 30
0.0
 11
0.468535
 21
0.282498
 31
0.0
  0
LINE
  8
0
 62
     0
 10
0.468535
 20
0.282498
 30
0.0
 11
0.460266
 21
0.297656
 31
0.0
  0
LINE
  8
0
 62
     0
 10
0.460266
 20
0.297656
 30
0.0
 11
0.458886
 21
0.297656
 31
0.0
  0
LINE
  8
0
 62
     0
 10
0.458886
 20
0.297656
 30
0.0
 11
0.450617
 21
0.314193
 31
0.0
  0
LINE
  8
0
 62
     0
 10
0.450617
 20
0.314193
 30
0.0
 11
0.440972
 21
0.330729
 31
0.0
  0
LINE
  8
0
 62
     0
 10
0.440972
 20
0.330729
 30
0.0
 11
0.439593
 21
0.333485
 31
0.0
  0
LINE
  8
0
 62
     0
 10
0.439593
 20
0.333485
 30
0.0
 11
0.427193
 21
0.325217
 31
0.0
  0
LINE
  8
0
 62
     0
 10
0.427193
 20
0.325217
 30
0.0
 11
0.425813
 21
0.325217
 31
0.0
  0
LINE
  8
0
 62
     0
 10
0.425813
 20
0.325217
 30
0.0
 11
0.410655
 21
0.315571
 31
0.0
  0
LINE
  8
0
 62
     0
 10
0.410655
 20
0.315571
 30
0.0
 11
0.39412
 21
0.305925
 31
0.0
  0
LINE
  8
0
 62
     0
 10
0.39412
 20
0.305925
 30
0.0
 11
0.377582
 21
0.297656
 31
0.0
  0
LINE
  8
0
 62
     0
 10
0.377582
 20
0.297656
 30
0.0
 11
0.377582
 21
0.296278
 31
0.0
  0
LINE
  8
0
 62
     0
 10
0.377582
 20
0.296278
 30
0.0
 11
0.378961
 21
0.279742
 31
0.0
  0
LINE
  8
0
 62
     0
 10
0.378961
 20
0.279742
 30
0.0
 11
0.381716
 21
0.263205
 31
0.0
  0
LINE
  8
0
 62
     0
 10
0.381716
 20
0.263205
 30
0.0
 11
0.383096
 21
0.248047
 31
0.0
  0
LINE
  8
0
 62
     0
 10
0.383096
 20
0.248047
 30
0.0
 11
0.385851
 21
0.232888
 31
0.0
  0
LINE
  8
0
 62
     0
 10
0.385851
 20
0.232888
 30
0.0
 11
0.389985
 21
0.219108
 31
0.0
  0
LINE
  8
0
 62
     0
 10
0.389985
 20
0.219108
 30
0.0
 11
0.39274
 21
0.205328
 31
0.0
  0
LINE
  8
0
 62
     0
 10
0.39274
 20
0.205328
 30
0.0
 11
0.396875
 21
0.191547
 31
0.0
  0
LINE
  8
0
 62
     0
 10
0.396875
 20
0.191547
 30
0.0
 11
0.39963
 21
0.183279
 31
0.0
  0
LINE
  8
0
 62
     0
 10
0.600826
 20
0.183279
 30
0.0
 11
0.603582
 21
0.191547
 31
0.0
  0
LINE
  8
0
 62
     0
 10
0.603582
 20
0.191547
 30
0.0
 11
0.606337
 21
0.205328
 31
0.0
  0
LINE
  8
0
 62
     0
 10
0.606337
 20
0.205328
 30
0.0
 11
0.610471
 21
0.219108
 31
0.0
  0
LINE
  8
0
 62
     0
 10
0.610471
 20
0.219108
 30
0.0
 11
0.613227
 21
0.232888
 31
0.0
  0
LINE
  8
0
 62
     0
 10
0.613227
 20
0.232888
 30
0.0
 11
0.61874
 21
0.263205
 31
0.0
  0
LINE
  8
0
 62
     0
 10
0.61874
 20
0.263205
 30
0.0
 11
0.620116
 21
0.279742
 31
0.0
  0
LINE
  8
0
 62
     0
 10
0.620116
 20
0.279742
 30
0.0
 11
0.622875
 21
0.296278
 31
0.0
  0
LINE
  8
0
 62
     0
 10
0.622875
 20
0.296278
 30
0.0
 11
0.622875
 21
0.297656
 31
0.0
  0
LINE
  8
0
 62
     0
 10
0.622875
 20
0.297656
 30
0.0
 11
0.621496
 21
0.297656
 31
0.0
  0
LINE
  8
0
 62
     0
 10
0.621496
 20
0.297656
 30
0.0
 11
0.606337
 21
0.305925
 31
0.0
  0
LINE
  8
0
 62
     0
 10
0.606337
 20
0.305925
 30
0.0
 11
0.573264
 21
0.325217
 31
0.0
  0
LINE
  8
0
 62
     0
 10
0.573264
 20
0.325217
 30
0.0
 11
0.56086
 21
0.333485
 31
0.0
  0
LINE
  8
0
 62
     0
 10
0.56086
 20
0.333485
 30
0.0
 11
0.559484
 21
0.330729
 31
0.0
  0
LINE
  8
0
 62
     0
 10
0.559484
 20
0.330729
 30
0.0
 11
0.558105
 21
0.330729
 31
0.0
  0
LINE
  8
0
 62
     0
 10
0.558105
 20
0.330729
 30
0.0
 11
0.549836
 21
0.314193
 31
0.0
  0
LINE
  8
0
 62
     0
 10
0.549836
 20
0.314193
 30
0.0
 11
0.540191
 21
0.297656
 31
0.0
  0
LINE
  8
0
 62
     0
 10
0.540191
 20
0.297656
 30
0.0
 11
0.530546
 21
0.282498
 31
0.0
  0
LINE
  8
0
 62
     0
 10
0.530546
 20
0.282498
 30
0.0
 11
0.530546
 21
0.28112
 31
0.0
  0
LINE
  8
0
 62
     0
 10
0.530546
 20
0.28112
 30
0.0
 11
0.523656
 21
0.271473
 31
0.0
  0
LINE
  8
0
 62
     0
 10
0.523656
 20
0.271473
 30
0.0
 11
0.531922
 21
0.260449
 31
0.0
  0
LINE
  8
0
 62
     0
 10
0.531922
 20
0.260449
 30
0.0
 11
0.551215
 21
0.235645
 31
0.0
  0
LINE
  8
0
 62
     0
 10
0.551215
 20
0.235645
 30
0.0
 11
0.56086
 21
0.22462
 31
0.0
  0
LINE
  8
0
 62
     0
 10
0.56086
 20
0.22462
 30
0.0
 11
0.570509
 21
0.212218
 31
0.0
  0
LINE
  8
0
 62
     0
 10
0.570509
 20
0.212218
 30
0.0
 11
0.580154
 21
0.202572
 31
0.0
  0
LINE
  8
0
 62
     0
 10
0.580154
 20
0.202572
 30
0.0
 11
0.591178
 21
0.192925
 31
0.0
  0
LINE
  8
0
 62
     0
 10
0.591178
 20
0.192925
 30
0.0
 11
0.600826
 21
0.183279
 31
0.0
  0
LINE
  8
0
 62
     0
 10
0.169499
 20
0.276986
 30
0.0
 11
0.180523
 21
0.276986
 31
0.0
  0
LINE
  8
0
 62
     0
 10
0.180523
 20
0.276986
 30
0.0
 11
0.183279
 21
0.278364
 31
0.0
  0
LINE
  8
0
 62
     0
 10
0.183279
 20
0.278364
 30
0.0
 11
0.184657
 21
0.282498
 31
0.0
  0
LINE
  8
0
 62
     0
 10
0.184657
 20
0.282498
 30
0.0
 11
0.187413
 21
0.296278
 31
0.0
  0
LINE
  8
0
 62
     0
 10
0.187413
 20
0.296278
 30
0.0
 11
0.187413
 21
0.297656
 31
0.0
  0
LINE
  8
0
 62
     0
 10
0.187413
 20
0.297656
 30
0.0
 11
0.190169
 21
0.311437
 31
0.0
  0
LINE
  8
0
 62
     0
 10
0.190169
 20
0.311437
 30
0.0
 11
0.194303
 21
0.326595
 31
0.0
  0
LINE
  8
0
 62
     0
 10
0.194303
 20
0.326595
 30
0.0
 11
0.199815
 21
0.341753
 31
0.0
  0
LINE
  8
0
 62
     0
 10
0.199815
 20
0.341753
 30
0.0
 11
0.20395
 21
0.356912
 31
0.0
  0
LINE
  8
0
 62
     0
 10
0.20395
 20
0.356912
 30
0.0
 11
0.205328
 21
0.356912
 31
0.0
  0
LINE
  8
0
 62
     0
 10
0.205328
 20
0.356912
 30
0.0
 11
0.21084
 21
0.372071
 31
0.0
  0
LINE
  8
0
 62
     0
 10
0.21084
 20
0.372071
 30
0.0
 11
0.216352
 21
0.388606
 31
0.0
  0
LINE
  8
0
 62
     0
 10
0.216352
 20
0.388606
 30
0.0
 11
0.220486
 21
0.396875
 31
0.0
  0
LINE
  8
0
 62
     0
 10
0.220486
 20
0.396875
 30
0.0
 11
0.21773
 21
0.396875
 31
0.0
  0
LINE
  8
0
 62
     0
 10
0.21773
 20
0.396875
 30
0.0
 11
0.216352
 21
0.398254
 31
0.0
  0
LINE
  8
0
 62
     0
 10
0.216352
 20
0.398254
 30
0.0
 11
0.199815
 21
0.39963
 31
0.0
  0
LINE
  8
0
 62
     0
 10
0.199815
 20
0.39963
 30
0.0
 11
0.166743
 21
0.405144
 31
0.0
  0
LINE
  8
0
 62
     0
 10
0.166743
 20
0.405144
 30
0.0
 11
0.151584
 21
0.409279
 31
0.0
  0
LINE
  8
0
 62
     0
 10
0.151584
 20
0.409279
 30
0.0
 11
0.136426
 21
0.412034
 31
0.0
  0
LINE
  8
0
 62
     0
 10
0.136426
 20
0.412034
 30
0.0
 11
0.122645
 21
0.416168
 31
0.0
  0
LINE
  8
0
 62
     0
 10
0.122645
 20
0.416168
 30
0.0
 11
0.121267
 21
0.416168
 31
0.0
  0
LINE
  8
0
 62
     0
 10
0.121267
 20
0.416168
 30
0.0
 11
0.107487
 21
0.421679
 31
0.0
  0
LINE
  8
0
 62
     0
 10
0.107487
 20
0.421679
 30
0.0
 11
0.0992188
 21
0.424438
 31
0.0
  0
LINE
  8
0
 62
     0
 10
0.0992188
 20
0.424438
 30
0.0
 11
0.0950846
 21
0.418924
 31
0.0
  0
LINE
  8
0
 62
     0
 10
0.0950846
 20
0.418924
 30
0.0
 11
0.0840602
 21
0.39963
 31
0.0
  0
LINE
  8
0
 62
     0
 10
0.0840602
 20
0.39963
 30
0.0
 11
0.0757922
 21
0.383096
 31
0.0
  0
LINE
  8
0
 62
     0
 10
0.0757922
 20
0.383096
 30
0.0
 11
0.0730359
 21
0.374826
 31
0.0
  0
LINE
  8
0
 62
     0
 10
0.0730359
 20
0.374826
 30
0.0
 11
0.07028
 21
0.358292
 31
0.0
  0
LINE
  8
0
 62
     0
 10
0.07028
 20
0.358292
 30
0.0
 11
0.0689021
 21
0.3514
 31
0.0
  0
LINE
  8
0
 62
     0
 10
0.0689021
 20
0.3514
 30
0.0
 11
0.0689021
 21
0.337619
 31
0.0
  0
LINE
  8
0
 62
     0
 10
0.0689021
 20
0.337619
 30
0.0
 11
0.07028
 21
0.332107
 31
0.0
  0
LINE
  8
0
 62
     0
 10
0.07028
 20
0.332107
 30
0.0
 11
0.071658
 21
0.325217
 31
0.0
  0
LINE
  8
0
 62
     0
 10
0.071658
 20
0.325217
 30
0.0
 11
0.0730359
 21
0.319705
 31
0.0
  0
LINE
  8
0
 62
     0
 10
0.0730359
 20
0.319705
 30
0.0
 11
0.0757922
 21
0.315571
 31
0.0
  0
LINE
  8
0
 62
     0
 10
0.0757922
 20
0.315571
 30
0.0
 11
0.0785481
 21
0.310059
 31
0.0
  0
LINE
  8
0
 62
     0
 10
0.0785481
 20
0.310059
 30
0.0
 11
0.0813043
 21
0.305925
 31
0.0
  0
LINE
  8
0
 62
     0
 10
0.0813043
 20
0.305925
 30
0.0
 11
0.0895724
 21
0.297656
 31
0.0
  0
LINE
  8
0
 62
     0
 10
0.0895724
 20
0.297656
 30
0.0
 11
0.0950846
 21
0.293522
 31
0.0
  0
LINE
  8
0
 62
     0
 10
0.0950846
 20
0.293522
 30
0.0
 11
0.100597
 21
0.290766
 31
0.0
  0
LINE
  8
0
 62
     0
 10
0.100597
 20
0.290766
 30
0.0
 11
0.121267
 21
0.282498
 31
0.0
  0
LINE
  8
0
 62
     0
 10
0.121267
 20
0.282498
 30
0.0
 11
0.129536
 21
0.28112
 31
0.0
  0
LINE
  8
0
 62
     0
 10
0.129536
 20
0.28112
 30
0.0
 11
0.139182
 21
0.278364
 31
0.0
  0
LINE
  8
0
 62
     0
 10
0.139182
 20
0.278364
 30
0.0
 11
0.148828
 21
0.278364
 31
0.0
  0
LINE
  8
0
 62
     0
 10
0.148828
 20
0.278364
 30
0.0
 11
0.158474
 21
0.276986
 31
0.0
  0
LINE
  8
0
 62
     0
 10
0.158474
 20
0.276986
 30
0.0
 11
0.169499
 21
0.276986
 31
0.0
  0
LINE
  8
0
 62
     0
 10
0.830957
 20
0.276986
 30
0.0
 11
0.841982
 21
0.276986
 31
0.0
  0
LINE
  8
0
 62
     0
 10
0.841982
 20
0.276986
 30
0.0
 11
0.851627
 21
0.278364
 31
0.0
  0
LINE
  8
0
 62
     0
 10
0.851627
 20
0.278364
 30
0.0
 11
0.861275
 21
0.278364
 31
0.0
  0
LINE
  8
0
 62
     0
 10
0.861275
 20
0.278364
 30
0.0
 11
0.869541
 21
0.28112
 31
0.0
  0
LINE
  8
0
 62
     0
 10
0.869541
 20
0.28112
 30
0.0
 11
0.87781
 21
0.282498
 31
0.0
  0
LINE
  8
0
 62
     0
 10
0.87781
 20
0.282498
 30
0.0
 11
0.886079
 21
0.285254
 31
0.0
  0
LINE
  8
0
 62
     0
 10
0.886079
 20
0.285254
 30
0.0
 11
0.899859
 21
0.290766
 31
0.0
  0
LINE
  8
0
 62
     0
 10
0.899859
 20
0.290766
 30
0.0
 11
0.905372
 21
0.293522
 31
0.0
  0
LINE
  8
0
 62
     0
 10
0.905372
 20
0.293522
 30
0.0
 11
0.909507
 21
0.297656
 31
0.0
  0
LINE
  8
0
 62
     0
 10
0.909507
 20
0.297656
 30
0.0
 11
0.915017
 21
0.30179
 31
0.0
  0
LINE
  8
0
 62
     0
 10
0.915017
 20
0.30179
 30
0.0
 11
0.917773
 21
0.305925
 31
0.0
  0
LINE
  8
0
 62
     0
 10
0.917773
 20
0.305925
 30
0.0
 11
0.921907
 21
0.310059
 31
0.0
  0
LINE
  8
0
 62
     0
 10
0.921907
 20
0.310059
 30
0.0
 11
0.924662
 21
0.315571
 31
0.0
  0
LINE
  8
0
 62
     0
 10
0.924662
 20
0.315571
 30
0.0
 11
0.927421
 21
0.319705
 31
0.0
  0
LINE
  8
0
 62
     0
 10
0.927421
 20
0.319705
 30
0.0
 11
0.928797
 21
0.325217
 31
0.0
  0
LINE
  8
0
 62
     0
 10
0.928797
 20
0.325217
 30
0.0
 11
0.930176
 21
0.332107
 31
0.0
  0
LINE
  8
0
 62
     0
 10
0.930176
 20
0.332107
 30
0.0
 11
0.931556
 21
0.337619
 31
0.0
  0
LINE
  8
0
 62
     0
 10
0.931556
 20
0.337619
 30
0.0
 11
0.931556
 21
0.3514
 31
0.0
  0
LINE
  8
0
 62
     0
 10
0.931556
 20
0.3514
 30
0.0
 11
0.930176
 21
0.358292
 31
0.0
  0
LINE
  8
0
 62
     0
 10
0.930176
 20
0.358292
 30
0.0
 11
0.928797
 21
0.366557
 31
0.0
  0
LINE
  8
0
 62
     0
 10
0.928797
 20
0.366557
 30
0.0
 11
0.920531
 21
0.391365
 31
0.0
  0
LINE
  8
0
 62
     0
 10
0.920531
 20
0.391365
 30
0.0
 11
0.915017
 21
0.39963
 31
0.0
  0
LINE
  8
0
 62
     0
 10
0.915017
 20
0.39963
 30
0.0
 11
0.910883
 21
0.409279
 31
0.0
  0
LINE
  8
0
 62
     0
 10
0.910883
 20
0.409279
 30
0.0
 11
0.905372
 21
0.418924
 31
0.0
  0
LINE
  8
0
 62
     0
 10
0.905372
 20
0.418924
 30
0.0
 11
0.901238
 21
0.424438
 31
0.0
  0
LINE
  8
0
 62
     0
 10
0.901238
 20
0.424438
 30
0.0
 11
0.892969
 21
0.421679
 31
0.0
  0
LINE
  8
0
 62
     0
 10
0.892969
 20
0.421679
 30
0.0
 11
0.891589
 21
0.421679
 31
0.0
  0
LINE
  8
0
 62
     0
 10
0.891589
 20
0.421679
 30
0.0
 11
0.879189
 21
0.416168
 31
0.0
  0
LINE
  8
0
 62
     0
 10
0.879189
 20
0.416168
 30
0.0
 11
0.87781
 21
0.416168
 31
0.0
  0
LINE
  8
0
 62
     0
 10
0.87781
 20
0.416168
 30
0.0
 11
0.86403
 21
0.412034
 31
0.0
  0
LINE
  8
0
 62
     0
 10
0.86403
 20
0.412034
 30
0.0
 11
0.862651
 21
0.412034
 31
0.0
  0
LINE
  8
0
 62
     0
 10
0.862651
 20
0.412034
 30
0.0
 11
0.848872
 21
0.409279
 31
0.0
  0
LINE
  8
0
 62
     0
 10
0.848872
 20
0.409279
 30
0.0
 11
0.847492
 21
0.409279
 31
0.0
  0
LINE
  8
0
 62
     0
 10
0.847492
 20
0.409279
 30
0.0
 11
0.833713
 21
0.405144
 31
0.0
  0
LINE
  8
0
 62
     0
 10
0.833713
 20
0.405144
 30
0.0
 11
0.832337
 21
0.405144
 31
0.0
  0
LINE
  8
0
 62
     0
 10
0.832337
 20
0.405144
 30
0.0
 11
0.817178
 21
0.402389
 31
0.0
  0
LINE
  8
0
 62
     0
 10
0.817178
 20
0.402389
 30
0.0
 11
0.815799
 21
0.402389
 31
0.0
  0
LINE
  8
0
 62
     0
 10
0.815799
 20
0.402389
 30
0.0
 11
0.80064
 21
0.39963
 31
0.0
  0
LINE
  8
0
 62
     0
 10
0.80064
 20
0.39963
 30
0.0
 11
0.799264
 21
0.39963
 31
0.0
  0
LINE
  8
0
 62
     0
 10
0.799264
 20
0.39963
 30
0.0
 11
0.784105
 21
0.398254
 31
0.0
  0
LINE
  8
0
 62
     0
 10
0.784105
 20
0.398254
 30
0.0
 11
0.782726
 21
0.396875
 31
0.0
  0
LINE
  8
0
 62
     0
 10
0.782726
 20
0.396875
 30
0.0
 11
0.778591
 21
0.396875
 31
0.0
  0
LINE
  8
0
 62
     0
 10
0.778591
 20
0.396875
 30
0.0
 11
0.782726
 21
0.388606
 31
0.0
  0
LINE
  8
0
 62
     0
 10
0.782726
 20
0.388606
 30
0.0
 11
0.789615
 21
0.372071
 31
0.0
  0
LINE
  8
0
 62
     0
 10
0.789615
 20
0.372071
 30
0.0
 11
0.80064
 21
0.341753
 31
0.0
  0
LINE
  8
0
 62
     0
 10
0.80064
 20
0.341753
 30
0.0
 11
0.808909
 21
0.311437
 31
0.0
  0
LINE
  8
0
 62
     0
 10
0.808909
 20
0.311437
 30
0.0
 11
0.813043
 21
0.297656
 31
0.0
  0
LINE
  8
0
 62
     0
 10
0.813043
 20
0.297656
 30
0.0
 11
0.813043
 21
0.296278
 31
0.0
  0
LINE
  8
0
 62
     0
 10
0.813043
 20
0.296278
 30
0.0
 11
0.815799
 21
0.282498
 31
0.0
  0
LINE
  8
0
 62
     0
 10
0.815799
 20
0.282498
 30
0.0
 11
0.817178
 21
0.278364
 31
0.0
  0
LINE
  8
0
 62
     0
 10
0.817178
 20
0.278364
 30
0.0
 11
0.819933
 21
0.276986
 31
0.0
  0
LINE
  8
0
 62
     0
 10
0.819933
 20
0.276986
 30
0.0
 11
0.830957
 21
0.276986
 31
0.0
  0
LINE
  8
0
 62
     0
 10
0.225998
 20
0.283876
 30
0.0
 11
0.230132
 21
0.285254
 31
0.0
  0
LINE
  8
0
 62
     0
 10
0.230132
 20
0.285254
 30
0.0
 11
0.242535
 21
0.28801
 31
0.0
  0
LINE
  8
0
 62
     0
 10
0.242535
 20
0.28801
 30
0.0
 11
0.270095
 21
0.296278
 31
0.0
  0
LINE
  8
0
 62
     0
 10
0.270095
 20
0.296278
 30
0.0
 11
0.285254
 21
0.300412
 31
0.0
  0
LINE
  8
0
 62
     0
 10
0.285254
 20
0.300412
 30
0.0
 11
0.299034
 21
0.305925
 31
0.0
  0
LINE
  8
0
 62
     0
 10
0.299034
 20
0.305925
 30
0.0
 11
0.314193
 21
0.312815
 31
0.0
  0
LINE
  8
0
 62
     0
 10
0.314193
 20
0.312815
 30
0.0
 11
0.329351
 21
0.318327
 31
0.0
  0
LINE
  8
0
 62
     0
 10
0.329351
 20
0.318327
 30
0.0
 11
0.334863
 21
0.322461
 31
0.0
  0
LINE
  8
0
 62
     0
 10
0.334863
 20
0.322461
 30
0.0
 11
0.334863
 21
0.345888
 31
0.0
  0
LINE
  8
0
 62
     0
 10
0.334863
 20
0.345888
 30
0.0
 11
0.334863
 21
0.347266
 31
0.0
  0
LINE
  8
0
 62
     0
 10
0.334863
 20
0.347266
 30
0.0
 11
0.334863
 21
0.39412
 31
0.0
  0
LINE
  8
0
 62
     0
 10
0.334863
 20
0.39412
 30
0.0
 11
0.326595
 21
0.39412
 31
0.0
  0
LINE
  8
0
 62
     0
 10
0.326595
 20
0.39412
 30
0.0
 11
0.325217
 21
0.39412
 31
0.0
  0
LINE
  8
0
 62
     0
 10
0.325217
 20
0.39412
 30
0.0
 11
0.307303
 21
0.39274
 31
0.0
  0
LINE
  8
0
 62
     0
 10
0.307303
 20
0.39274
 30
0.0
 11
0.28801
 21
0.39274
 31
0.0
  0
LINE
  8
0
 62
     0
 10
0.28801
 20
0.39274
 30
0.0
 11
0.270095
 21
0.39412
 31
0.0
  0
LINE
  8
0
 62
     0
 10
0.270095
 20
0.39412
 30
0.0
 11
0.263205
 21
0.39412
 31
0.0
  0
LINE
  8
0
 62
     0
 10
0.263205
 20
0.39412
 30
0.0
 11
0.260449
 21
0.38723
 31
0.0
  0
LINE
  8
0
 62
     0
 10
0.260449
 20
0.38723
 30
0.0
 11
0.253559
 21
0.372071
 31
0.0
  0
LINE
  8
0
 62
     0
 10
0.253559
 20
0.372071
 30
0.0
 11
0.248047
 21
0.358292
 31
0.0
  0
LINE
  8
0
 62
     0
 10
0.248047
 20
0.358292
 30
0.0
 11
0.242535
 21
0.343131
 31
0.0
  0
LINE
  8
0
 62
     0
 10
0.242535
 20
0.343131
 30
0.0
 11
0.237023
 21
0.329351
 31
0.0
  0
LINE
  8
0
 62
     0
 10
0.237023
 20
0.329351
 30
0.0
 11
0.232888
 21
0.315571
 31
0.0
  0
LINE
  8
0
 62
     0
 10
0.232888
 20
0.315571
 30
0.0
 11
0.230132
 21
0.30179
 31
0.0
  0
LINE
  8
0
 62
     0
 10
0.230132
 20
0.30179
 30
0.0
 11
0.225998
 21
0.28801
 31
0.0
  0
LINE
  8
0
 62
     0
 10
0.225998
 20
0.28801
 30
0.0
 11
0.225998
 21
0.283876
 31
0.0
  0
LINE
  8
0
 62
     0
 10
0.774457
 20
0.283876
 30
0.0
 11
0.773081
 21
0.28801
 31
0.0
  0
LINE
  8
0
 62
     0
 10
0.773081
 20
0.28801
 30
0.0
 11
0.770322
 21
0.30179
 31
0.0
  0
LINE
  8
0
 62
     0
 10
0.770322
 20
0.30179
 30
0.0
 11
0.757922
 21
0.343131
 31
0.0
  0
LINE
  8
0
 62
     0
 10
0.757922
 20
0.343131
 30
0.0
 11
0.752408
 21
0.358292
 31
0.0
  0
LINE
  8
0
 62
     0
 10
0.752408
 20
0.358292
 30
0.0
 11
0.745518
 21
0.372071
 31
0.0
  0
LINE
  8
0
 62
     0
 10
0.745518
 20
0.372071
 30
0.0
 11
0.740008
 21
0.38723
 31
0.0
  0
LINE
  8
0
 62
     0
 10
0.740008
 20
0.38723
 30
0.0
 11
0.735873
 21
0.39412
 31
0.0
  0
LINE
  8
0
 62
     0
 10
0.735873
 20
0.39412
 30
0.0
 11
0.730359
 21
0.39412
 31
0.0
  0
LINE
  8
0
 62
     0
 10
0.730359
 20
0.39412
 30
0.0
 11
0.712445
 21
0.39274
 31
0.0
  0
LINE
  8
0
 62
     0
 10
0.712445
 20
0.39274
 30
0.0
 11
0.711069
 21
0.39274
 31
0.0
  0
LINE
  8
0
 62
     0
 10
0.711069
 20
0.39274
 30
0.0
 11
0.693152
 21
0.39274
 31
0.0
  0
LINE
  8
0
 62
     0
 10
0.693152
 20
0.39274
 30
0.0
 11
0.673862
 21
0.39412
 31
0.0
  0
LINE
  8
0
 62
     0
 10
0.673862
 20
0.39412
 30
0.0
 11
0.673862
 21
0.39412
 31
0.0
  0
LINE
  8
0
 62
     0
 10
0.673862
 20
0.39412
 30
0.0
 11
0.664214
 21
0.39412
 31
0.0
  0
LINE
  8
0
 62
     0
 10
0.664214
 20
0.39412
 30
0.0
 11
0.664214
 21
0.384471
 31
0.0
  0
LINE
  8
0
 62
     0
 10
0.664214
 20
0.384471
 30
0.0
 11
0.665593
 21
0.365181
 31
0.0
  0
LINE
  8
0
 62
     0
 10
0.665593
 20
0.365181
 30
0.0
 11
0.665593
 21
0.347266
 31
0.0
  0
LINE
  8
0
 62
     0
 10
0.665593
 20
0.347266
 30
0.0
 11
0.665593
 21
0.345888
 31
0.0
  0
LINE
  8
0
 62
     0
 10
0.665593
 20
0.345888
 30
0.0
 11
0.664214
 21
0.327973
 31
0.0
  0
LINE
  8
0
 62
     0
 10
0.664214
 20
0.327973
 30
0.0
 11
0.664214
 21
0.322461
 31
0.0
  0
LINE
  8
0
 62
     0
 10
0.664214
 20
0.322461
 30
0.0
 11
0.671103
 21
0.318327
 31
0.0
  0
LINE
  8
0
 62
     0
 10
0.671103
 20
0.318327
 30
0.0
 11
0.686262
 21
0.312815
 31
0.0
  0
LINE
  8
0
 62
     0
 10
0.686262
 20
0.312815
 30
0.0
 11
0.700045
 21
0.305925
 31
0.0
  0
LINE
  8
0
 62
     0
 10
0.700045
 20
0.305925
 30
0.0
 11
0.7152
 21
0.300412
 31
0.0
  0
LINE
  8
0
 62
     0
 10
0.7152
 20
0.300412
 30
0.0
 11
0.756543
 21
0.28801
 31
0.0
  0
LINE
  8
0
 62
     0
 10
0.756543
 20
0.28801
 30
0.0
 11
0.770322
 21
0.285254
 31
0.0
  0
LINE
  8
0
 62
     0
 10
0.770322
 20
0.285254
 30
0.0
 11
0.774457
 21
0.283876
 31
0.0
  0
LINE
  8
0
 62
     0
 10
0.500228
 20
0.308681
 30
0.0
 11
0.505739
 21
0.318327
 31
0.0
  0
LINE
  8
0
 62
     0
 10
0.505739
 20
0.318327
 30
0.0
 11
0.514008
 21
0.333485
 31
0.0
  0
LINE
  8
0
 62
     0
 10
0.514008
 20
0.333485
 30
0.0
 11
0.523656
 21
0.350022
 31
0.0
  0
LINE
  8
0
 62
     0
 10
0.523656
 20
0.350022
 30
0.0
 11
0.526411
 21
0.356912
 31
0.0
  0
LINE
  8
0
 62
     0
 10
0.526411
 20
0.356912
 30
0.0
 11
0.525032
 21
0.356912
 31
0.0
  0
LINE
  8
0
 62
     0
 10
0.525032
 20
0.356912
 30
0.0
 11
0.509873
 21
0.367937
 31
0.0
  0
LINE
  8
0
 62
     0
 10
0.509873
 20
0.367937
 30
0.0
 11
0.508497
 21
0.369316
 31
0.0
  0
LINE
  8
0
 62
     0
 10
0.508497
 20
0.369316
 30
0.0
 11
0.500228
 21
0.376206
 31
0.0
  0
LINE
  8
0
 62
     0
 10
0.500228
 20
0.376206
 30
0.0
 11
0.490583
 21
0.369316
 31
0.0
  0
LINE
  8
0
 62
     0
 10
0.490583
 20
0.369316
 30
0.0
 11
0.490583
 21
0.367937
 31
0.0
  0
LINE
  8
0
 62
     0
 10
0.490583
 20
0.367937
 30
0.0
 11
0.475424
 21
0.356912
 31
0.0
  0
LINE
  8
0
 62
     0
 10
0.475424
 20
0.356912
 30
0.0
 11
0.474045
 21
0.356912
 31
0.0
  0
LINE
  8
0
 62
     0
 10
0.474045
 20
0.356912
 30
0.0
 11
0.4768
 21
0.350022
 31
0.0
  0
LINE
  8
0
 62
     0
 10
0.4768
 20
0.350022
 30
0.0
 11
0.485069
 21
0.333485
 31
0.0
  0
LINE
  8
0
 62
     0
 10
0.485069
 20
0.333485
 30
0.0
 11
0.494714
 21
0.318327
 31
0.0
  0
LINE
  8
0
 62
     0
 10
0.494714
 20
0.318327
 30
0.0
 11
0.500228
 21
0.308681
 31
0.0
  0
LINE
  8
0
 62
     0
 10
0.374826
 20
0.341753
 30
0.0
 11
0.389985
 21
0.350022
 31
0.0
  0
LINE
  8
0
 62
     0
 10
0.389985
 20
0.350022
 30
0.0
 11
0.420303
 21
0.369316
 31
0.0
  0
LINE
  8
0
 62
     0
 10
0.420303
 20
0.369316
 30
0.0
 11
0.421679
 21
0.370692
 31
0.0
  0
LINE
  8
0
 62
     0
 10
0.421679
 20
0.370692
 30
0.0
 11
0.416168
 21
0.383096
 31
0.0
  0
LINE
  8
0
 62
     0
 10
0.416168
 20
0.383096
 30
0.0
 11
0.409279
 21
0.39963
 31
0.0
  0
LINE
  8
0
 62
     0
 10
0.409279
 20
0.39963
 30
0.0
 11
0.403765
 21
0.39963
 31
0.0
  0
LINE
  8
0
 62
     0
 10
0.403765
 20
0.39963
 30
0.0
 11
0.384471
 21
0.396875
 31
0.0
  0
LINE
  8
0
 62
     0
 10
0.384471
 20
0.396875
 30
0.0
 11
0.376206
 21
0.396875
 31
0.0
  0
LINE
  8
0
 62
     0
 10
0.376206
 20
0.396875
 30
0.0
 11
0.374826
 21
0.383096
 31
0.0
  0
LINE
  8
0
 62
     0
 10
0.374826
 20
0.383096
 30
0.0
 11
0.374826
 21
0.341753
 31
0.0
  0
LINE
  8
0
 62
     0
 10
0.624251
 20
0.341753
 30
0.0
 11
0.62563
 21
0.347266
 31
0.0
  0
LINE
  8
0
 62
     0
 10
0.62563
 20
0.347266
 30
0.0
 11
0.62563
 21
0.365181
 31
0.0
  0
LINE
  8
0
 62
     0
 10
0.62563
 20
0.365181
 30
0.0
 11
0.624251
 21
0.383096
 31
0.0
  0
LINE
  8
0
 62
     0
 10
0.624251
 20
0.383096
 30
0.0
 11
0.624251
 21
0.396875
 31
0.0
  0
LINE
  8
0
 62
     0
 10
0.624251
 20
0.396875
 30
0.0
 11
0.615982
 21
0.396875
 31
0.0
  0
LINE
  8
0
 62
     0
 10
0.615982
 20
0.396875
 30
0.0
 11
0.596692
 21
0.39963
 31
0.0
  0
LINE
  8
0
 62
     0
 10
0.596692
 20
0.39963
 30
0.0
 11
0.591178
 21
0.39963
 31
0.0
  0
LINE
  8
0
 62
     0
 10
0.591178
 20
0.39963
 30
0.0
 11
0.584288
 21
0.383096
 31
0.0
  0
LINE
  8
0
 62
     0
 10
0.584288
 20
0.383096
 30
0.0
 11
0.577398
 21
0.370692
 31
0.0
  0
LINE
  8
0
 62
     0
 10
0.577398
 20
0.370692
 30
0.0
 11
0.578778
 21
0.369316
 31
0.0
  0
LINE
  8
0
 62
     0
 10
0.578778
 20
0.369316
 30
0.0
 11
0.595313
 21
0.359668
 31
0.0
  0
LINE
  8
0
 62
     0
 10
0.595313
 20
0.359668
 30
0.0
 11
0.610471
 21
0.350022
 31
0.0
  0
LINE
  8
0
 62
     0
 10
0.610471
 20
0.350022
 30
0.0
 11
0.624251
 21
0.341753
 31
0.0
  0
LINE
  8
0
 62
     0
 10
0.456131
 20
0.39274
 30
0.0
 11
0.467155
 21
0.40101
 31
0.0
  0
LINE
  8
0
 62
     0
 10
0.467155
 20
0.40101
 30
0.0
 11
0.467155
 21
0.402389
 31
0.0
  0
LINE
  8
0
 62
     0
 10
0.467155
 20
0.402389
 30
0.0
 11
0.463021
 21
0.405144
 31
0.0
  0
LINE
  8
0
 62
     0
 10
0.463021
 20
0.405144
 30
0.0
 11
0.461641
 21
0.40652
 31
0.0
  0
LINE
  8
0
 62
     0
 10
0.461641
 20
0.40652
 30
0.0
 11
0.460266
 21
0.407899
 31
0.0
  0
LINE
  8
0
 62
     0
 10
0.460266
 20
0.407899
 30
0.0
 11
0.449241
 21
0.40652
 31
0.0
  0
LINE
  8
0
 62
     0
 10
0.449241
 20
0.40652
 30
0.0
 11
0.453376
 21
0.39963
 31
0.0
  0
LINE
  8
0
 62
     0
 10
0.453376
 20
0.39963
 30
0.0
 11
0.456131
 21
0.39274
 31
0.0
  0
LINE
  8
0
 62
     0
 10
0.544326
 20
0.39274
 30
0.0
 11
0.549836
 21
0.40652
 31
0.0
  0
LINE
  8
0
 62
     0
 10
0.549836
 20
0.40652
 30
0.0
 11
0.540191
 21
0.407899
 31
0.0
  0
LINE
  8
0
 62
     0
 10
0.540191
 20
0.407899
 30
0.0
 11
0.537436
 21
0.40652
 31
0.0
  0
LINE
  8
0
 62
     0
 10
0.537436
 20
0.40652
 30
0.0
 11
0.537436
 21
0.405144
 31
0.0
  0
LINE
  8
0
 62
     0
 10
0.537436
 20
0.405144
 30
0.0
 11
0.531922
 21
0.402389
 31
0.0
  0
LINE
  8
0
 62
     0
 10
0.531922
 20
0.402389
 30
0.0
 11
0.533301
 21
0.40101
 31
0.0
  0
LINE
  8
0
 62
     0
 10
0.533301
 20
0.40101
 30
0.0
 11
0.544326
 21
0.39274
 31
0.0
  0
LINE
  8
0
 62
     0
 10
0.307303
 20
0.432703
 30
0.0
 11
0.325217
 21
0.434082
 31
0.0
  0
LINE
  8
0
 62
     0
 10
0.325217
 20
0.434082
 30
0.0
 11
0.338998
 21
0.434082
 31
0.0
  0
LINE
  8
0
 62
     0
 10
0.338998
 20
0.434082
 30
0.0
 11
0.338998
 21
0.442352
 31
0.0
  0
LINE
  8
0
 62
     0
 10
0.338998
 20
0.442352
 30
0.0
 11
0.341753
 21
0.461641
 31
0.0
  0
LINE
  8
0
 62
     0
 10
0.341753
 20
0.461641
 30
0.0
 11
0.341753
 21
0.467155
 31
0.0
  0
LINE
  8
0
 62
     0
 10
0.341753
 20
0.467155
 30
0.0
 11
0.325217
 21
0.474045
 31
0.0
  0
LINE
  8
0
 62
     0
 10
0.325217
 20
0.474045
 30
0.0
 11
0.311437
 21
0.480935
 31
0.0
  0
LINE
  8
0
 62
     0
 10
0.311437
 20
0.480935
 30
0.0
 11
0.311437
 21
0.479559
 31
0.0
  0
LINE
  8
0
 62
     0
 10
0.311437
 20
0.479559
 30
0.0
 11
0.30179
 21
0.463021
 31
0.0
  0
LINE
  8
0
 62
     0
 10
0.30179
 20
0.463021
 30
0.0
 11
0.292144
 21
0.447862
 31
0.0
  0
LINE
  8
0
 62
     0
 10
0.292144
 20
0.447862
 30
0.0
 11
0.283876
 21
0.434082
 31
0.0
  0
LINE
  8
0
 62
     0
 10
0.283876
 20
0.434082
 30
0.0
 11
0.289388
 21
0.432703
 31
0.0
  0
LINE
  8
0
 62
     0
 10
0.289388
 20
0.432703
 30
0.0
 11
0.307303
 21
0.432703
 31
0.0
  0
LINE
  8
0
 62
     0
 10
0.693152
 20
0.432703
 30
0.0
 11
0.711069
 21
0.432703
 31
0.0
  0
LINE
  8
0
 62
     0
 10
0.711069
 20
0.432703
 30
0.0
 11
0.71658
 21
0.434082
 31
0.0
  0
LINE
  8
0
 62
     0
 10
0.71658
 20
0.434082
 30
0.0
 11
0.708311
 21
0.447862
 31
0.0
  0
LINE
  8
0
 62
     0
 10
0.708311
 20
0.447862
 30
0.0
 11
0.698666
 21
0.463021
 31
0.0
  0
LINE
  8
0
 62
     0
 10
0.698666
 20
0.463021
 30
0.0
 11
0.689021
 21
0.479559
 31
0.0
  0
LINE
  8
0
 62
     0
 10
0.689021
 20
0.479559
 30
0.0
 11
0.687641
 21
0.480935
 31
0.0
  0
LINE
  8
0
 62
     0
 10
0.687641
 20
0.480935
 30
0.0
 11
0.675238
 21
0.474045
 31
0.0
  0
LINE
  8
0
 62
     0
 10
0.675238
 20
0.474045
 30
0.0
 11
0.658703
 21
0.467155
 31
0.0
  0
LINE
  8
0
 62
     0
 10
0.658703
 20
0.467155
 30
0.0
 11
0.658703
 21
0.461641
 31
0.0
  0
LINE
  8
0
 62
     0
 10
0.658703
 20
0.461641
 30
0.0
 11
0.661458
 21
0.442352
 31
0.0
  0
LINE
  8
0
 62
     0
 10
0.661458
 20
0.442352
 30
0.0
 11
0.661458
 21
0.434082
 31
0.0
  0
LINE
  8
0
 62
     0
 10
0.661458
 20
0.434082
 30
0.0
 11
0.675238
 21
0.434082
 31
0.0
  0
LINE
  8
0
 62
     0
 10
0.675238
 20
0.434082
 30
0.0
 11
0.693152
 21
0.432703
 31
0.0
  0
LINE
  8
0
 62
     0
 10
0.239779
 20
0.435462
 30
0.0
 11
0.239779
 21
0.436838
 31
0.0
  0
LINE
  8
0
 62
     0
 10
0.239779
 20
0.436838
 30
0.0
 11
0.248047
 21
0.451997
 31
0.0
  0
LINE
  8
0
 62
     0
 10
0.248047
 20
0.451997
 30
0.0
 11
0.26734
 21
0.485069
 31
0.0
  0
LINE
  8
0
 62
     0
 10
0.26734
 20
0.485069
 30
0.0
 11
0.275608
 21
0.497473
 31
0.0
  0
LINE
  8
0
 62
     0
 10
0.275608
 20
0.497473
 30
0.0
 11
0.272852
 21
0.498849
 31
0.0
  0
LINE
  8
0
 62
     0
 10
0.272852
 20
0.498849
 30
0.0
 11
0.272852
 21
0.500228
 31
0.0
  0
LINE
  8
0
 62
     0
 10
0.272852
 20
0.500228
 30
0.0
 11
0.256315
 21
0.508497
 31
0.0
  0
LINE
  8
0
 62
     0
 10
0.256315
 20
0.508497
 30
0.0
 11
0.254937
 21
0.508497
 31
0.0
  0
LINE
  8
0
 62
     0
 10
0.254937
 20
0.508497
 30
0.0
 11
0.239779
 21
0.518142
 31
0.0
  0
LINE
  8
0
 62
     0
 10
0.239779
 20
0.518142
 30
0.0
 11
0.223242
 21
0.527787
 31
0.0
  0
LINE
  8
0
 62
     0
 10
0.223242
 20
0.527787
 30
0.0
 11
0.213596
 21
0.534681
 31
0.0
  0
LINE
  8
0
 62
     0
 10
0.213596
 20
0.534681
 30
0.0
 11
0.202572
 21
0.526411
 31
0.0
  0
LINE
  8
0
 62
     0
 10
0.202572
 20
0.526411
 30
0.0
 11
0.165365
 21
0.497473
 31
0.0
  0
LINE
  8
0
 62
     0
 10
0.165365
 20
0.497473
 30
0.0
 11
0.143316
 21
0.47818
 31
0.0
  0
LINE
  8
0
 62
     0
 10
0.143316
 20
0.47818
 30
0.0
 11
0.13367
 21
0.467155
 31
0.0
  0
LINE
  8
0
 62
     0
 10
0.13367
 20
0.467155
 30
0.0
 11
0.125402
 21
0.45751
 31
0.0
  0
LINE
  8
0
 62
     0
 10
0.125402
 20
0.45751
 30
0.0
 11
0.13367
 21
0.454752
 31
0.0
  0
LINE
  8
0
 62
     0
 10
0.13367
 20
0.454752
 30
0.0
 11
0.14745
 21
0.451997
 31
0.0
  0
LINE
  8
0
 62
     0
 10
0.14745
 20
0.451997
 30
0.0
 11
0.16123
 21
0.447862
 31
0.0
  0
LINE
  8
0
 62
     0
 10
0.16123
 20
0.447862
 30
0.0
 11
0.175011
 21
0.445107
 31
0.0
  0
LINE
  8
0
 62
     0
 10
0.175011
 20
0.445107
 30
0.0
 11
0.205328
 21
0.439593
 31
0.0
  0
LINE
  8
0
 62
     0
 10
0.205328
 20
0.439593
 30
0.0
 11
0.221864
 21
0.438217
 31
0.0
  0
LINE
  8
0
 62
     0
 10
0.221864
 20
0.438217
 30
0.0
 11
0.238401
 21
0.435462
 31
0.0
  0
LINE
  8
0
 62
     0
 10
0.238401
 20
0.435462
 30
0.0
 11
0.239779
 21
0.435462
 31
0.0
  0
LINE
  8
0
 62
     0
 10
0.760677
 20
0.435462
 30
0.0
 11
0.762056
 21
0.435462
 31
0.0
  0
LINE
  8
0
 62
     0
 10
0.762056
 20
0.435462
 30
0.0
 11
0.778591
 21
0.438217
 31
0.0
  0
LINE
  8
0
 62
     0
 10
0.778591
 20
0.438217
 30
0.0
 11
0.795129
 21
0.439593
 31
0.0
  0
LINE
  8
0
 62
     0
 10
0.795129
 20
0.439593
 30
0.0
 11
0.825444
 21
0.445107
 31
0.0
  0
LINE
  8
0
 62
     0
 10
0.825444
 20
0.445107
 30
0.0
 11
0.839227
 21
0.447862
 31
0.0
  0
LINE
  8
0
 62
     0
 10
0.839227
 20
0.447862
 30
0.0
 11
0.853006
 21
0.451997
 31
0.0
  0
LINE
  8
0
 62
     0
 10
0.853006
 20
0.451997
 30
0.0
 11
0.866786
 21
0.454752
 31
0.0
  0
LINE
  8
0
 62
     0
 10
0.866786
 20
0.454752
 30
0.0
 11
0.875055
 21
0.45751
 31
0.0
  0
LINE
  8
0
 62
     0
 10
0.875055
 20
0.45751
 30
0.0
 11
0.86541
 21
0.467155
 31
0.0
  0
LINE
  8
0
 62
     0
 10
0.86541
 20
0.467155
 30
0.0
 11
0.855761
 21
0.47818
 31
0.0
  0
LINE
  8
0
 62
     0
 10
0.855761
 20
0.47818
 30
0.0
 11
0.846116
 21
0.487825
 31
0.0
  0
LINE
  8
0
 62
     0
 10
0.846116
 20
0.487825
 30
0.0
 11
0.833713
 21
0.497473
 31
0.0
  0
LINE
  8
0
 62
     0
 10
0.833713
 20
0.497473
 30
0.0
 11
0.822688
 21
0.507118
 31
0.0
  0
LINE
  8
0
 62
     0
 10
0.822688
 20
0.507118
 30
0.0
 11
0.797885
 21
0.526411
 31
0.0
  0
LINE
  8
0
 62
     0
 10
0.797885
 20
0.526411
 30
0.0
 11
0.78686
 21
0.534681
 31
0.0
  0
LINE
  8
0
 62
     0
 10
0.78686
 20
0.534681
 30
0.0
 11
0.777215
 21
0.527787
 31
0.0
  0
LINE
  8
0
 62
     0
 10
0.777215
 20
0.527787
 30
0.0
 11
0.775836
 21
0.527787
 31
0.0
  0
LINE
  8
0
 62
     0
 10
0.775836
 20
0.527787
 30
0.0
 11
0.760677
 21
0.518142
 31
0.0
  0
LINE
  8
0
 62
     0
 10
0.760677
 20
0.518142
 30
0.0
 11
0.744142
 21
0.508497
 31
0.0
  0
LINE
  8
0
 62
     0
 10
0.744142
 20
0.508497
 30
0.0
 11
0.727604
 21
0.500228
 31
0.0
  0
LINE
  8
0
 62
     0
 10
0.727604
 20
0.500228
 30
0.0
 11
0.727604
 21
0.498849
 31
0.0
  0
LINE
  8
0
 62
     0
 10
0.727604
 20
0.498849
 30
0.0
 11
0.724849
 21
0.497473
 31
0.0
  0
LINE
  8
0
 62
     0
 10
0.724849
 20
0.497473
 30
0.0
 11
0.733118
 21
0.485069
 31
0.0
  0
LINE
  8
0
 62
     0
 10
0.733118
 20
0.485069
 30
0.0
 11
0.752408
 21
0.451997
 31
0.0
  0
LINE
  8
0
 62
     0
 10
0.752408
 20
0.451997
 30
0.0
 11
0.760677
 21
0.436838
 31
0.0
  0
LINE
  8
0
 62
     0
 10
0.760677
 20
0.436838
 30
0.0
 11
0.760677
 21
0.435462
 31
0.0
  0
LINE
  8
0
 62
     0
 10
0.378961
 20
0.436838
 30
0.0
 11
0.38034
 21
0.436838
 31
0.0
  0
LINE
  8
0
 62
     0
 10
0.38034
 20
0.436838
 30
0.0
 11
0.39412
 21
0.439593
 31
0.0
  0
LINE
  8
0
 62
     0
 10
0.39412
 20
0.439593
 30
0.0
 11
0.39274
 21
0.439593
 31
0.0
  0
LINE
  8
0
 62
     0
 10
0.39274
 20
0.439593
 30
0.0
 11
0.389985
 21
0.447862
 31
0.0
  0
LINE
  8
0
 62
     0
 10
0.389985
 20
0.447862
 30
0.0
 11
0.38034
 21
0.451997
 31
0.0
  0
LINE
  8
0
 62
     0
 10
0.38034
 20
0.451997
 30
0.0
 11
0.378961
 21
0.438217
 31
0.0
  0
LINE
  8
0
 62
     0
 10
0.378961
 20
0.438217
 30
0.0
 11
0.378961
 21
0.436838
 31
0.0
  0
LINE
  8
0
 62
     0
 10
0.621496
 20
0.436838
 30
0.0
 11
0.621496
 21
0.438217
 31
0.0
  0
LINE
  8
0
 62
     0
 10
0.621496
 20
0.438217
 30
0.0
 11
0.61874
 21
0.451997
 31
0.0
  0
LINE
  8
0
 62
     0
 10
0.61874
 20
0.451997
 30
0.0
 11
0.610471
 21
0.447862
 31
0.0
  0
LINE
  8
0
 62
     0
 10
0.610471
 20
0.447862
 30
0.0
 11
0.606337
 21
0.439593
 31
0.0
  0
LINE
  8
0
 62
     0
 10
0.606337
 20
0.439593
 30
0.0
 11
0.620116
 21
0.436838
 31
0.0
  0
LINE
  8
0
 62
     0
 10
0.620116
 20
0.436838
 30
0.0
 11
0.621496
 21
0.436838
 31
0.0
  0
LINE
  8
0
 62
     0
 10
0.500228
 20
0.45751
 30
0.0
 11
0.512632
 21
0.460266
 31
0.0
  0
LINE
  8
0
 62
     0
 10
0.512632
 20
0.460266
 30
0.0
 11
0.531922
 21
0.465776
 31
0.0
  0
LINE
  8
0
 62
     0
 10
0.531922
 20
0.465776
 30
0.0
 11
0.549836
 21
0.47129
 31
0.0
  0
LINE
  8
0
 62
     0
 10
0.549836
 20
0.47129
 30
0.0
 11
0.55535
 21
0.475424
 31
0.0
  0
LINE
  8
0
 62
     0
 10
0.55535
 20
0.475424
 30
0.0
 11
0.582909
 21
0.502984
 31
0.0
  0
LINE
  8
0
 62
     0
 10
0.582909
 20
0.502984
 30
0.0
 11
0.587043
 21
0.508497
 31
0.0
  0
LINE
  8
0
 62
     0
 10
0.587043
 20
0.508497
 30
0.0
 11
0.592557
 21
0.526411
 31
0.0
  0
LINE
  8
0
 62
     0
 10
0.592557
 20
0.526411
 30
0.0
 11
0.598068
 21
0.545705
 31
0.0
  0
LINE
  8
0
 62
     0
 10
0.598068
 20
0.545705
 30
0.0
 11
0.600826
 21
0.558105
 31
0.0
  0
LINE
  8
0
 62
     0
 10
0.600826
 20
0.558105
 30
0.0
 11
0.598068
 21
0.570509
 31
0.0
  0
LINE
  8
0
 62
     0
 10
0.598068
 20
0.570509
 30
0.0
 11
0.587043
 21
0.609092
 31
0.0
  0
LINE
  8
0
 62
     0
 10
0.587043
 20
0.609092
 30
0.0
 11
0.55535
 21
0.640789
 31
0.0
  0
LINE
  8
0
 62
     0
 10
0.55535
 20
0.640789
 30
0.0
 11
0.549836
 21
0.644924
 31
0.0
  0
LINE
  8
0
 62
     0
 10
0.549836
 20
0.644924
 30
0.0
 11
0.531922
 21
0.650434
 31
0.0
  0
LINE
  8
0
 62
     0
 10
0.531922
 20
0.650434
 30
0.0
 11
0.512632
 21
0.655948
 31
0.0
  0
LINE
  8
0
 62
     0
 10
0.512632
 20
0.655948
 30
0.0
 11
0.500228
 21
0.658703
 31
0.0
  0
LINE
  8
0
 62
     0
 10
0.500228
 20
0.658703
 30
0.0
 11
0.487825
 21
0.655948
 31
0.0
  0
LINE
  8
0
 62
     0
 10
0.487825
 20
0.655948
 30
0.0
 11
0.449241
 21
0.644924
 31
0.0
  0
LINE
  8
0
 62
     0
 10
0.449241
 20
0.644924
 30
0.0
 11
0.413413
 21
0.609092
 31
0.0
  0
LINE
  8
0
 62
     0
 10
0.413413
 20
0.609092
 30
0.0
 11
0.402389
 21
0.570509
 31
0.0
  0
LINE
  8
0
 62
     0
 10
0.402389
 20
0.570509
 30
0.0
 11
0.39963
 21
0.558105
 31
0.0
  0
LINE
  8
0
 62
     0
 10
0.39963
 20
0.558105
 30
0.0
 11
0.402389
 21
0.545705
 31
0.0
  0
LINE
  8
0
 62
     0
 10
0.402389
 20
0.545705
 30
0.0
 11
0.407899
 21
0.526411
 31
0.0
  0
LINE
  8
0
 62
     0
 10
0.407899
 20
0.526411
 30
0.0
 11
0.413413
 21
0.508497
 31
0.0
  0
LINE
  8
0
 62
     0
 10
0.413413
 20
0.508497
 30
0.0
 11
0.417544
 21
0.502984
 31
0.0
  0
LINE
  8
0
 62
     0
 10
0.417544
 20
0.502984
 30
0.0
 11
0.449241
 21
0.47129
 31
0.0
  0
LINE
  8
0
 62
     0
 10
0.449241
 20
0.47129
 30
0.0
 11
0.487825
 21
0.460266
 31
0.0
  0
LINE
  8
0
 62
     0
 10
0.487825
 20
0.460266
 30
0.0
 11
0.500228
 21
0.45751
 31
0.0
  0
LINE
  8
0
 62
     0
 10
0.0854385
 20
0.474045
 30
0.0
 11
0.0950846
 21
0.48369
 31
0.0
  0
LINE
  8
0
 62
     0
 10
0.0950846
 20
0.48369
 30
0.0
 11
0.0950846
 21
0.485069
 31
0.0
  0
LINE
  8
0
 62
     0
 10
0.0950846
 20
0.485069
 30
0.0
 11
0.104731
 21
0.494714
 31
0.0
  0
LINE
  8
0
 62
     0
 10
0.104731
 20
0.494714
 30
0.0
 11
0.104731
 21
0.496094
 31
0.0
  0
LINE
  8
0
 62
     0
 10
0.104731
 20
0.496094
 30
0.0
 11
0.115755
 21
0.505739
 31
0.0
  0
LINE
  8
0
 62
     0
 10
0.115755
 20
0.505739
 30
0.0
 11
0.115755
 21
0.507118
 31
0.0
  0
LINE
  8
0
 62
     0
 10
0.115755
 20
0.507118
 30
0.0
 11
0.12678
 21
0.516763
 31
0.0
  0
LINE
  8
0
 62
     0
 10
0.12678
 20
0.516763
 30
0.0
 11
0.128157
 21
0.518142
 31
0.0
  0
LINE
  8
0
 62
     0
 10
0.128157
 20
0.518142
 30
0.0
 11
0.139182
 21
0.527787
 31
0.0
  0
LINE
  8
0
 62
     0
 10
0.139182
 20
0.527787
 30
0.0
 11
0.151584
 21
0.538812
 31
0.0
  0
LINE
  8
0
 62
     0
 10
0.151584
 20
0.538812
 30
0.0
 11
0.165365
 21
0.54846
 31
0.0
  0
LINE
  8
0
 62
     0
 10
0.165365
 20
0.54846
 30
0.0
 11
0.165365
 21
0.549836
 31
0.0
  0
LINE
  8
0
 62
     0
 10
0.165365
 20
0.549836
 30
0.0
 11
0.177767
 21
0.558105
 31
0.0
  0
LINE
  8
0
 62
     0
 10
0.177767
 20
0.558105
 30
0.0
 11
0.165365
 21
0.567754
 31
0.0
  0
LINE
  8
0
 62
     0
 10
0.165365
 20
0.567754
 30
0.0
 11
0.151584
 21
0.577398
 31
0.0
  0
LINE
  8
0
 62
     0
 10
0.151584
 20
0.577398
 30
0.0
 11
0.151584
 21
0.578778
 31
0.0
  0
LINE
  8
0
 62
     0
 10
0.151584
 20
0.578778
 30
0.0
 11
0.139182
 21
0.588423
 31
0.0
  0
LINE
  8
0
 62
     0
 10
0.139182
 20
0.588423
 30
0.0
 11
0.128157
 21
0.599447
 31
0.0
  0
LINE
  8
0
 62
     0
 10
0.128157
 20
0.599447
 30
0.0
 11
0.12678
 21
0.599447
 31
0.0
  0
LINE
  8
0
 62
     0
 10
0.12678
 20
0.599447
 30
0.0
 11
0.0950846
 21
0.631141
 31
0.0
  0
LINE
  8
0
 62
     0
 10
0.0950846
 20
0.631141
 30
0.0
 11
0.0950846
 21
0.63252
 31
0.0
  0
LINE
  8
0
 62
     0
 10
0.0950846
 20
0.63252
 30
0.0
 11
0.0854385
 21
0.642165
 31
0.0
  0
LINE
  8
0
 62
     0
 10
0.0854385
 20
0.642165
 30
0.0
 11
0.0854385
 21
0.643544
 31
0.0
  0
LINE
  8
0
 62
     0
 10
0.0854385
 20
0.643544
 30
0.0
 11
0.0661458
 21
0.63252
 31
0.0
  0
LINE
  8
0
 62
     0
 10
0.0661458
 20
0.63252
 30
0.0
 11
0.0496094
 21
0.621496
 31
0.0
  0
LINE
  8
0
 62
     0
 10
0.0496094
 20
0.621496
 30
0.0
 11
0.0427193
 21
0.615982
 31
0.0
  0
LINE
  8
0
 62
     0
 10
0.0427193
 20
0.615982
 30
0.0
 11
0.0303168
 21
0.603582
 31
0.0
  0
LINE
  8
0
 62
     0
 10
0.0303168
 20
0.603582
 30
0.0
 11
0.0179145
 21
0.587043
 31
0.0
  0
LINE
  8
0
 62
     0
 10
0.0179145
 20
0.587043
 30
0.0
 11
0.0151584
 21
0.580154
 31
0.0
  0
LINE
  8
0
 62
     0
 10
0.0151584
 20
0.580154
 30
0.0
 11
0.0110243
 21
0.563619
 31
0.0
  0
LINE
  8
0
 62
     0
 10
0.0110243
 20
0.563619
 30
0.0
 11
0.0110243
 21
0.552595
 31
0.0
  0
LINE
  8
0
 62
     0
 10
0.0110243
 20
0.552595
 30
0.0
 11
0.0151584
 21
0.536056
 31
0.0
  0
LINE
  8
0
 62
     0
 10
0.0151584
 20
0.536056
 30
0.0
 11
0.0179145
 21
0.530546
 31
0.0
  0
LINE
  8
0
 62
     0
 10
0.0179145
 20
0.530546
 30
0.0
 11
0.0220486
 21
0.523656
 31
0.0
  0
LINE
  8
0
 62
     0
 10
0.0220486
 20
0.523656
 30
0.0
 11
0.0303168
 21
0.512632
 31
0.0
  0
LINE
  8
0
 62
     0
 10
0.0303168
 20
0.512632
 30
0.0
 11
0.0372071
 21
0.507118
 31
0.0
  0
LINE
  8
0
 62
     0
 10
0.0372071
 20
0.507118
 30
0.0
 11
0.0427193
 21
0.500228
 31
0.0
  0
LINE
  8
0
 62
     0
 10
0.0427193
 20
0.500228
 30
0.0
 11
0.0496094
 21
0.494714
 31
0.0
  0
LINE
  8
0
 62
     0
 10
0.0496094
 20
0.494714
 30
0.0
 11
0.0661458
 21
0.48369
 31
0.0
  0
LINE
  8
0
 62
     0
 10
0.0661458
 20
0.48369
 30
0.0
 11
0.0757922
 21
0.47818
 31
0.0
  0
LINE
  8
0
 62
     0
 10
0.0757922
 20
0.47818
 30
0.0
 11
0.0854385
 21
0.474045
 31
0.0
  0
LINE
  8
0
 62
     0
 10
0.915017
 20
0.474045
 30
0.0
 11
0.923286
 21
0.47818
 31
0.0
  0
LINE
  8
0
 62
     0
 10
0.923286
 20
0.47818
 30
0.0
 11
0.932931
 21
0.48369
 31
0.0
  0
LINE
  8
0
 62
     0
 10
0.932931
 20
0.48369
 30
0.0
 11
0.94947
 21
0.494714
 31
0.0
  0
LINE
  8
0
 62
     0
 10
0.94947
 20
0.494714
 30
0.0
 11
0.956359
 21
0.500228
 31
0.0
  0
LINE
  8
0
 62
     0
 10
0.956359
 20
0.500228
 30
0.0
 11
0.974273
 21
0.518142
 31
0.0
  0
LINE
  8
0
 62
     0
 10
0.974273
 20
0.518142
 30
0.0
 11
0.978408
 21
0.523656
 31
0.0
  0
LINE
  8
0
 62
     0
 10
0.978408
 20
0.523656
 30
0.0
 11
0.981163
 21
0.530546
 31
0.0
  0
LINE
  8
0
 62
     0
 10
0.981163
 20
0.530546
 30
0.0
 11
0.986677
 21
0.54157
 31
0.0
  0
LINE
  8
0
 62
     0
 10
0.986677
 20
0.54157
 30
0.0
 11
0.989432
 21
0.552595
 31
0.0
  0
LINE
  8
0
 62
     0
 10
0.989432
 20
0.552595
 30
0.0
 11
0.989432
 21
0.563619
 31
0.0
  0
LINE
  8
0
 62
     0
 10
0.989432
 20
0.563619
 30
0.0
 11
0.986677
 21
0.574643
 31
0.0
  0
LINE
  8
0
 62
     0
 10
0.986677
 20
0.574643
 30
0.0
 11
0.983918
 21
0.580154
 31
0.0
  0
LINE
  8
0
 62
     0
 10
0.983918
 20
0.580154
 30
0.0
 11
0.981163
 21
0.587043
 31
0.0
  0
LINE
  8
0
 62
     0
 10
0.981163
 20
0.587043
 30
0.0
 11
0.978408
 21
0.592557
 31
0.0
  0
LINE
  8
0
 62
     0
 10
0.978408
 20
0.592557
 30
0.0
 11
0.974273
 21
0.598068
 31
0.0
  0
LINE
  8
0
 62
     0
 10
0.974273
 20
0.598068
 30
0.0
 11
0.96876
 21
0.603582
 31
0.0
  0
LINE
  8
0
 62
     0
 10
0.96876
 20
0.603582
 30
0.0
 11
0.963249
 21
0.610471
 31
0.0
  0
LINE
  8
0
 62
     0
 10
0.963249
 20
0.610471
 30
0.0
 11
0.94947
 21
0.621496
 31
0.0
  0
LINE
  8
0
 62
     0
 10
0.94947
 20
0.621496
 30
0.0
 11
0.932931
 21
0.63252
 31
0.0
  0
LINE
  8
0
 62
     0
 10
0.932931
 20
0.63252
 30
0.0
 11
0.923286
 21
0.63803
 31
0.0
  0
LINE
  8
0
 62
     0
 10
0.923286
 20
0.63803
 30
0.0
 11
0.915017
 21
0.643544
 31
0.0
  0
LINE
  8
0
 62
     0
 10
0.915017
 20
0.643544
 30
0.0
 11
0.915017
 21
0.642165
 31
0.0
  0
LINE
  8
0
 62
     0
 10
0.915017
 20
0.642165
 30
0.0
 11
0.905372
 21
0.63252
 31
0.0
  0
LINE
  8
0
 62
     0
 10
0.905372
 20
0.63252
 30
0.0
 11
0.905372
 21
0.631141
 31
0.0
  0
LINE
  8
0
 62
     0
 10
0.905372
 20
0.631141
 30
0.0
 11
0.895724
 21
0.621496
 31
0.0
  0
LINE
  8
0
 62
     0
 10
0.895724
 20
0.621496
 30
0.0
 11
0.894348
 21
0.621496
 31
0.0
  0
LINE
  8
0
 62
     0
 10
0.894348
 20
0.621496
 30
0.0
 11
0.8847
 21
0.610471
 31
0.0
  0
LINE
  8
0
 62
     0
 10
0.8847
 20
0.610471
 30
0.0
 11
0.883324
 21
0.610471
 31
0.0
  0
LINE
  8
0
 62
     0
 10
0.883324
 20
0.610471
 30
0.0
 11
0.861275
 21
0.588423
 31
0.0
  0
LINE
  8
0
 62
     0
 10
0.861275
 20
0.588423
 30
0.0
 11
0.859896
 21
0.588423
 31
0.0
  0
LINE
  8
0
 62
     0
 10
0.859896
 20
0.588423
 30
0.0
 11
0.848872
 21
0.578778
 31
0.0
  0
LINE
  8
0
 62
     0
 10
0.848872
 20
0.578778
 30
0.0
 11
0.847492
 21
0.577398
 31
0.0
  0
LINE
  8
0
 62
     0
 10
0.847492
 20
0.577398
 30
0.0
 11
0.822688
 21
0.558105
 31
0.0
  0
LINE
  8
0
 62
     0
 10
0.822688
 20
0.558105
 30
0.0
 11
0.835092
 21
0.549836
 31
0.0
  0
LINE
  8
0
 62
     0
 10
0.835092
 20
0.549836
 30
0.0
 11
0.835092
 21
0.54846
 31
0.0
  0
LINE
  8
0
 62
     0
 10
0.835092
 20
0.54846
 30
0.0
 11
0.847492
 21
0.538812
 31
0.0
  0
LINE
  8
0
 62
     0
 10
0.847492
 20
0.538812
 30
0.0
 11
0.848872
 21
0.538812
 31
0.0
  0
LINE
  8
0
 62
     0
 10
0.848872
 20
0.538812
 30
0.0
 11
0.859896
 21
0.527787
 31
0.0
  0
LINE
  8
0
 62
     0
 10
0.859896
 20
0.527787
 30
0.0
 11
0.861275
 21
0.527787
 31
0.0
  0
LINE
  8
0
 62
     0
 10
0.861275
 20
0.527787
 30
0.0
 11
0.8723
 21
0.518142
 31
0.0
  0
LINE
  8
0
 62
     0
 10
0.8723
 20
0.518142
 30
0.0
 11
0.8723
 21
0.516763
 31
0.0
  0
LINE
  8
0
 62
     0
 10
0.8723
 20
0.516763
 30
0.0
 11
0.883324
 21
0.507118
 31
0.0
  0
LINE
  8
0
 62
     0
 10
0.883324
 20
0.507118
 30
0.0
 11
0.8847
 21
0.505739
 31
0.0
  0
LINE
  8
0
 62
     0
 10
0.8847
 20
0.505739
 30
0.0
 11
0.894348
 21
0.496094
 31
0.0
  0
LINE
  8
0
 62
     0
 10
0.894348
 20
0.496094
 30
0.0
 11
0.895724
 21
0.494714
 31
0.0
  0
LINE
  8
0
 62
     0
 10
0.895724
 20
0.494714
 30
0.0
 11
0.905372
 21
0.485069
 31
0.0
  0
LINE
  8
0
 62
     0
 10
0.905372
 20
0.485069
 30
0.0
 11
0.905372
 21
0.48369
 31
0.0
  0
LINE
  8
0
 62
     0
 10
0.905372
 20
0.48369
 30
0.0
 11
0.915017
 21
0.474045
 31
0.0
  0
LINE
  8
0
 62
     0
 10
0.348644
 20
0.508497
 30
0.0
 11
0.350022
 21
0.518142
 31
0.0
  0
LINE
  8
0
 62
     0
 10
0.350022
 20
0.518142
 30
0.0
 11
0.347266
 21
0.520898
 31
0.0
  0
LINE
  8
0
 62
     0
 10
0.347266
 20
0.520898
 30
0.0
 11
0.343131
 21
0.526411
 31
0.0
  0
LINE
  8
0
 62
     0
 10
0.343131
 20
0.526411
 30
0.0
 11
0.343131
 21
0.525032
 31
0.0
  0
LINE
  8
0
 62
     0
 10
0.343131
 20
0.525032
 30
0.0
 11
0.334863
 21
0.514008
 31
0.0
  0
LINE
  8
0
 62
     0
 10
0.334863
 20
0.514008
 30
0.0
 11
0.348644
 21
0.508497
 31
0.0
  0
LINE
  8
0
 62
     0
 10
0.651813
 20
0.508497
 30
0.0
 11
0.665593
 21
0.514008
 31
0.0
  0
LINE
  8
0
 62
     0
 10
0.665593
 20
0.514008
 30
0.0
 11
0.657324
 21
0.525032
 31
0.0
  0
LINE
  8
0
 62
     0
 10
0.657324
 20
0.525032
 30
0.0
 11
0.655948
 21
0.526411
 31
0.0
  0
LINE
  8
0
 62
     0
 10
0.655948
 20
0.526411
 30
0.0
 11
0.653189
 21
0.520898
 31
0.0
  0
LINE
  8
0
 62
     0
 10
0.653189
 20
0.520898
 30
0.0
 11
0.651813
 21
0.520898
 31
0.0
  0
LINE
  8
0
 62
     0
 10
0.651813
 20
0.520898
 30
0.0
 11
0.650434
 21
0.518142
 31
0.0
  0
LINE
  8
0
 62
     0
 10
0.650434
 20
0.518142
 30
0.0
 11
0.651813
 21
0.508497
 31
0.0
  0
LINE
  8
0
 62
     0
 10
0.297656
 20
0.531922
 30
0.0
 11
0.299034
 21
0.533301
 31
0.0
  0
LINE
  8
0
 62
     0
 10
0.299034
 20
0.533301
 30
0.0
 11
0.310059
 21
0.54846
 31
0.0
  0
LINE
  8
0
 62
     0
 10
0.310059
 20
0.54846
 30
0.0
 11
0.310059
 21
0.549836
 31
0.0
  0
LINE
  8
0
 62
     0
 10
0.310059
 20
0.549836
 30
0.0
 11
0.316949
 21
0.558105
 31
0.0
  0
LINE
  8
0
 62
     0
 10
0.316949
 20
0.558105
 30
0.0
 11
0.310059
 21
0.567754
 31
0.0
  0
LINE
  8
0
 62
     0
 10
0.310059
 20
0.567754
 30
0.0
 11
0.299034
 21
0.582909
 31
0.0
  0
LINE
  8
0
 62
     0
 10
0.299034
 20
0.582909
 30
0.0
 11
0.299034
 21
0.584288
 31
0.0
  0
LINE
  8
0
 62
     0
 10
0.299034
 20
0.584288
 30
0.0
 11
0.297656
 21
0.584288
 31
0.0
  0
LINE
  8
0
 62
     0
 10
0.297656
 20
0.584288
 30
0.0
 11
0.290766
 21
0.581533
 31
0.0
  0
LINE
  8
0
 62
     0
 10
0.290766
 20
0.581533
 30
0.0
 11
0.275608
 21
0.573264
 31
0.0
  0
LINE
  8
0
 62
     0
 10
0.275608
 20
0.573264
 30
0.0
 11
0.260449
 21
0.563619
 31
0.0
  0
LINE
  8
0
 62
     0
 10
0.260449
 20
0.563619
 30
0.0
 11
0.250803
 21
0.558105
 31
0.0
  0
LINE
  8
0
 62
     0
 10
0.250803
 20
0.558105
 30
0.0
 11
0.260449
 21
0.552595
 31
0.0
  0
LINE
  8
0
 62
     0
 10
0.260449
 20
0.552595
 30
0.0
 11
0.275608
 21
0.544326
 31
0.0
  0
LINE
  8
0
 62
     0
 10
0.275608
 20
0.544326
 30
0.0
 11
0.290766
 21
0.534681
 31
0.0
  0
LINE
  8
0
 62
     0
 10
0.290766
 20
0.534681
 30
0.0
 11
0.297656
 21
0.531922
 31
0.0
  0
LINE
  8
0
 62
     0
 10
0.701421
 20
0.531922
 30
0.0
 11
0.708311
 21
0.534681
 31
0.0
  0
LINE
  8
0
 62
     0
 10
0.708311
 20
0.534681
 30
0.0
 11
0.724849
 21
0.544326
 31
0.0
  0
LINE
  8
0
 62
     0
 10
0.724849
 20
0.544326
 30
0.0
 11
0.740008
 21
0.552595
 31
0.0
  0
LINE
  8
0
 62
     0
 10
0.740008
 20
0.552595
 30
0.0
 11
0.749653
 21
0.558105
 31
0.0
  0
LINE
  8
0
 62
     0
 10
0.749653
 20
0.558105
 30
0.0
 11
0.740008
 21
0.563619
 31
0.0
  0
LINE
  8
0
 62
     0
 10
0.740008
 20
0.563619
 30
0.0
 11
0.724849
 21
0.573264
 31
0.0
  0
LINE
  8
0
 62
     0
 10
0.724849
 20
0.573264
 30
0.0
 11
0.708311
 21
0.581533
 31
0.0
  0
LINE
  8
0
 62
     0
 10
0.708311
 20
0.581533
 30
0.0
 11
0.701421
 21
0.584288
 31
0.0
  0
LINE
  8
0
 62
     0
 10
0.701421
 20
0.584288
 30
0.0
 11
0.701421
 21
0.582909
 31
0.0
  0
LINE
  8
0
 62
     0
 10
0.701421
 20
0.582909
 30
0.0
 11
0.690397
 21
0.567754
 31
0.0
  0
LINE
  8
0
 62
     0
 10
0.690397
 20
0.567754
 30
0.0
 11
0.689021
 21
0.567754
 31
0.0
  0
LINE
  8
0
 62
     0
 10
0.689021
 20
0.567754
 30
0.0
 11
0.682128
 21
0.558105
 31
0.0
  0
LINE
  8
0
 62
     0
 10
0.682128
 20
0.558105
 30
0.0
 11
0.689021
 21
0.549836
 31
0.0
  0
LINE
  8
0
 62
     0
 10
0.689021
 20
0.549836
 30
0.0
 11
0.690397
 21
0.54846
 31
0.0
  0
LINE
  8
0
 62
     0
 10
0.690397
 20
0.54846
 30
0.0
 11
0.701421
 21
0.533301
 31
0.0
  0
LINE
  8
0
 62
     0
 10
0.701421
 20
0.533301
 30
0.0
 11
0.701421
 21
0.531922
 31
0.0
  0
LINE
  8
0
 62
     0
 10
0.213596
 20
0.582909
 30
0.0
 11
0.223242
 21
0.589802
 31
0.0
  0
LINE
  8
0
 62
     0
 10
0.223242
 20
0.589802
 30
0.0
 11
0.239779
 21
0.598068
 31
0.0
  0
LINE
  8
0
 62
     0
 10
0.239779
 20
0.598068
 30
0.0
 11
0.239779
 21
0.599447
 31
0.0
  0
LINE
  8
0
 62
     0
 10
0.239779
 20
0.599447
 30
0.0
 11
0.254937
 21
0.607716
 31
0.0
  0
LINE
  8
0
 62
     0
 10
0.254937
 20
0.607716
 30
0.0
 11
0.256315
 21
0.607716
 31
0.0
  0
LINE
  8
0
 62
     0
 10
0.256315
 20
0.607716
 30
0.0
 11
0.272852
 21
0.617361
 31
0.0
  0
LINE
  8
0
 62
     0
 10
0.272852
 20
0.617361
 30
0.0
 11
0.275608
 21
0.61874
 31
0.0
  0
LINE
  8
0
 62
     0
 10
0.275608
 20
0.61874
 30
0.0
 11
0.26734
 21
0.631141
 31
0.0
  0
LINE
  8
0
 62
     0
 10
0.26734
 20
0.631141
 30
0.0
 11
0.26734
 21
0.63252
 31
0.0
  0
LINE
  8
0
 62
     0
 10
0.26734
 20
0.63252
 30
0.0
 11
0.257693
 21
0.647679
 31
0.0
  0
LINE
  8
0
 62
     0
 10
0.257693
 20
0.647679
 30
0.0
 11
0.248047
 21
0.664214
 31
0.0
  0
LINE
  8
0
 62
     0
 10
0.248047
 20
0.664214
 30
0.0
 11
0.239779
 21
0.680752
 31
0.0
  0
LINE
  8
0
 62
     0
 10
0.239779
 20
0.680752
 30
0.0
 11
0.238401
 21
0.680752
 31
0.0
  0
LINE
  8
0
 62
     0
 10
0.238401
 20
0.680752
 30
0.0
 11
0.221864
 21
0.679372
 31
0.0
  0
LINE
  8
0
 62
     0
 10
0.221864
 20
0.679372
 30
0.0
 11
0.205328
 21
0.676617
 31
0.0
  0
LINE
  8
0
 62
     0
 10
0.205328
 20
0.676617
 30
0.0
 11
0.190169
 21
0.675238
 31
0.0
  0
LINE
  8
0
 62
     0
 10
0.190169
 20
0.675238
 30
0.0
 11
0.175011
 21
0.672483
 31
0.0
  0
LINE
  8
0
 62
     0
 10
0.175011
 20
0.672483
 30
0.0
 11
0.16123
 21
0.668348
 31
0.0
  0
LINE
  8
0
 62
     0
 10
0.16123
 20
0.668348
 30
0.0
 11
0.14745
 21
0.665593
 31
0.0
  0
LINE
  8
0
 62
     0
 10
0.14745
 20
0.665593
 30
0.0
 11
0.13367
 21
0.661458
 31
0.0
  0
LINE
  8
0
 62
     0
 10
0.13367
 20
0.661458
 30
0.0
 11
0.125402
 21
0.658703
 31
0.0
  0
LINE
  8
0
 62
     0
 10
0.125402
 20
0.658703
 30
0.0
 11
0.13367
 21
0.649055
 31
0.0
  0
LINE
  8
0
 62
     0
 10
0.13367
 20
0.649055
 30
0.0
 11
0.15434
 21
0.628385
 31
0.0
  0
LINE
  8
0
 62
     0
 10
0.15434
 20
0.628385
 30
0.0
 11
0.165365
 21
0.61874
 31
0.0
  0
LINE
  8
0
 62
     0
 10
0.165365
 20
0.61874
 30
0.0
 11
0.202572
 21
0.589802
 31
0.0
  0
LINE
  8
0
 62
     0
 10
0.202572
 20
0.589802
 30
0.0
 11
0.213596
 21
0.582909
 31
0.0
  0
LINE
  8
0
 62
     0
 10
0.78686
 20
0.582909
 30
0.0
 11
0.797885
 21
0.589802
 31
0.0
  0
LINE
  8
0
 62
     0
 10
0.797885
 20
0.589802
 30
0.0
 11
0.822688
 21
0.609092
 31
0.0
  0
LINE
  8
0
 62
     0
 10
0.822688
 20
0.609092
 30
0.0
 11
0.833713
 21
0.61874
 31
0.0
  0
LINE
  8
0
 62
     0
 10
0.833713
 20
0.61874
 30
0.0
 11
0.846116
 21
0.628385
 31
0.0
  0
LINE
  8
0
 62
     0
 10
0.846116
 20
0.628385
 30
0.0
 11
0.855761
 21
0.63941
 31
0.0
  0
LINE
  8
0
 62
     0
 10
0.855761
 20
0.63941
 30
0.0
 11
0.875055
 21
0.658703
 31
0.0
  0
LINE
  8
0
 62
     0
 10
0.875055
 20
0.658703
 30
0.0
 11
0.866786
 21
0.661458
 31
0.0
  0
LINE
  8
0
 62
     0
 10
0.866786
 20
0.661458
 30
0.0
 11
0.853006
 21
0.665593
 31
0.0
  0
LINE
  8
0
 62
     0
 10
0.853006
 20
0.665593
 30
0.0
 11
0.839227
 21
0.668348
 31
0.0
  0
LINE
  8
0
 62
     0
 10
0.839227
 20
0.668348
 30
0.0
 11
0.825444
 21
0.672483
 31
0.0
  0
LINE
  8
0
 62
     0
 10
0.825444
 20
0.672483
 30
0.0
 11
0.810288
 21
0.675238
 31
0.0
  0
LINE
  8
0
 62
     0
 10
0.810288
 20
0.675238
 30
0.0
 11
0.795129
 21
0.676617
 31
0.0
  0
LINE
  8
0
 62
     0
 10
0.795129
 20
0.676617
 30
0.0
 11
0.778591
 21
0.679372
 31
0.0
  0
LINE
  8
0
 62
     0
 10
0.778591
 20
0.679372
 30
0.0
 11
0.762056
 21
0.680752
 31
0.0
  0
LINE
  8
0
 62
     0
 10
0.762056
 20
0.680752
 30
0.0
 11
0.760677
 21
0.680752
 31
0.0
  0
LINE
  8
0
 62
     0
 10
0.760677
 20
0.680752
 30
0.0
 11
0.752408
 21
0.664214
 31
0.0
  0
LINE
  8
0
 62
     0
 10
0.752408
 20
0.664214
 30
0.0
 11
0.742763
 21
0.647679
 31
0.0
  0
LINE
  8
0
 62
     0
 10
0.742763
 20
0.647679
 30
0.0
 11
0.733118
 21
0.63252
 31
0.0
  0
LINE
  8
0
 62
     0
 10
0.733118
 20
0.63252
 30
0.0
 11
0.733118
 21
0.631141
 31
0.0
  0
LINE
  8
0
 62
     0
 10
0.733118
 20
0.631141
 30
0.0
 11
0.724849
 21
0.61874
 31
0.0
  0
LINE
  8
0
 62
     0
 10
0.724849
 20
0.61874
 30
0.0
 11
0.727604
 21
0.617361
 31
0.0
  0
LINE
  8
0
 62
     0
 10
0.727604
 20
0.617361
 30
0.0
 11
0.744142
 21
0.607716
 31
0.0
  0
LINE
  8
0
 62
     0
 10
0.744142
 20
0.607716
 30
0.0
 11
0.760677
 21
0.599447
 31
0.0
  0
LINE
  8
0
 62
     0
 10
0.760677
 20
0.599447
 30
0.0
 11
0.760677
 21
0.598068
 31
0.0
  0
LINE
  8
0
 62
     0
 10
0.760677
 20
0.598068
 30
0.0
 11
0.775836
 21
0.589802
 31
0.0
  0
LINE
  8
0
 62
     0
 10
0.775836
 20
0.589802
 30
0.0
 11
0.777215
 21
0.589802
 31
0.0
  0
LINE
  8
0
 62
     0
 10
0.777215
 20
0.589802
 30
0.0
 11
0.78686
 21
0.582909
 31
0.0
  0
LINE
  8
0
 62
     0
 10
0.343131
 20
0.591178
 30
0.0
 11
0.347266
 21
0.595313
 31
0.0
  0
LINE
  8
0
 62
     0
 10
0.347266
 20
0.595313
 30
0.0
 11
0.347266
 21
0.596692
 31
0.0
  0
LINE
  8
0
 62
     0
 10
0.347266
 20
0.596692
 30
0.0
 11
0.350022
 21
0.598068
 31
0.0
  0
LINE
  8
0
 62
     0
 10
0.350022
 20
0.598068
 30
0.0
 11
0.348644
 21
0.609092
 31
0.0
  0
LINE
  8
0
 62
     0
 10
0.348644
 20
0.609092
 30
0.0
 11
0.341753
 21
0.604957
 31
0.0
  0
LINE
  8
0
 62
     0
 10
0.341753
 20
0.604957
 30
0.0
 11
0.334863
 21
0.602202
 31
0.0
  0
LINE
  8
0
 62
     0
 10
0.334863
 20
0.602202
 30
0.0
 11
0.343131
 21
0.591178
 31
0.0
  0
LINE
  8
0
 62
     0
 10
0.655948
 20
0.591178
 30
0.0
 11
0.657324
 21
0.591178
 31
0.0
  0
LINE
  8
0
 62
     0
 10
0.657324
 20
0.591178
 30
0.0
 11
0.665593
 21
0.602202
 31
0.0
  0
LINE
  8
0
 62
     0
 10
0.665593
 20
0.602202
 30
0.0
 11
0.658703
 21
0.604957
 31
0.0
  0
LINE
  8
0
 62
     0
 10
0.658703
 20
0.604957
 30
0.0
 11
0.651813
 21
0.609092
 31
0.0
  0
LINE
  8
0
 62
     0
 10
0.651813
 20
0.609092
 30
0.0
 11
0.650434
 21
0.598068
 31
0.0
  0
LINE
  8
0
 62
     0
 10
0.650434
 20
0.598068
 30
0.0
 11
0.651813
 21
0.596692
 31
0.0
  0
LINE
  8
0
 62
     0
 10
0.651813
 20
0.596692
 30
0.0
 11
0.653189
 21
0.595313
 31
0.0
  0
LINE
  8
0
 62
     0
 10
0.653189
 20
0.595313
 30
0.0
 11
0.655948
 21
0.591178
 31
0.0
  0
LINE
  8
0
 62
     0
 10
0.311437
 20
0.636655
 30
0.0
 11
0.325217
 21
0.642165
 31
0.0
  0
LINE
  8
0
 62
     0
 10
0.325217
 20
0.642165
 30
0.0
 11
0.341753
 21
0.649055
 31
0.0
  0
LINE
  8
0
 62
     0
 10
0.341753
 20
0.649055
 30
0.0
 11
0.341753
 21
0.654569
 31
0.0
  0
LINE
  8
0
 62
     0
 10
0.341753
 20
0.654569
 30
0.0
 11
0.338998
 21
0.673862
 31
0.0
  0
LINE
  8
0
 62
     0
 10
0.338998
 20
0.673862
 30
0.0
 11
0.338998
 21
0.682128
 31
0.0
  0
LINE
  8
0
 62
     0
 10
0.338998
 20
0.682128
 30
0.0
 11
0.325217
 21
0.683507
 31
0.0
  0
LINE
  8
0
 62
     0
 10
0.325217
 20
0.683507
 30
0.0
 11
0.283876
 21
0.683507
 31
0.0
  0
LINE
  8
0
 62
     0
 10
0.283876
 20
0.683507
 30
0.0
 11
0.292144
 21
0.668348
 31
0.0
  0
LINE
  8
0
 62
     0
 10
0.292144
 20
0.668348
 30
0.0
 11
0.311437
 21
0.63803
 31
0.0
  0
LINE
  8
0
 62
     0
 10
0.311437
 20
0.63803
 30
0.0
 11
0.311437
 21
0.636655
 31
0.0
  0
LINE
  8
0
 62
     0
 10
0.687641
 20
0.636655
 30
0.0
 11
0.689021
 21
0.63803
 31
0.0
  0
LINE
  8
0
 62
     0
 10
0.689021
 20
0.63803
 30
0.0
 11
0.708311
 21
0.668348
 31
0.0
  0
LINE
  8
0
 62
     0
 10
0.708311
 20
0.668348
 30
0.0
 11
0.71658
 21
0.683507
 31
0.0
  0
LINE
  8
0
 62
     0
 10
0.71658
 20
0.683507
 30
0.0
 11
0.675238
 21
0.683507
 31
0.0
  0
LINE
  8
0
 62
     0
 10
0.675238
 20
0.683507
 30
0.0
 11
0.661458
 21
0.682128
 31
0.0
  0
LINE
  8
0
 62
     0
 10
0.661458
 20
0.682128
 30
0.0
 11
0.661458
 21
0.673862
 31
0.0
  0
LINE
  8
0
 62
     0
 10
0.661458
 20
0.673862
 30
0.0
 11
0.658703
 21
0.654569
 31
0.0
  0
LINE
  8
0
 62
     0
 10
0.658703
 20
0.654569
 30
0.0
 11
0.658703
 21
0.649055
 31
0.0
  0
LINE
  8
0
 62
     0
 10
0.658703
 20
0.649055
 30
0.0
 11
0.675238
 21
0.642165
 31
0.0
  0
LINE
  8
0
 62
     0
 10
0.675238
 20
0.642165
 30
0.0
 11
0.687641
 21
0.636655
 31
0.0
  0
LINE
  8
0
 62
     0
 10
0.38034
 20
0.664214
 30
0.0
 11
0.389985
 21
0.668348
 31
0.0
  0
LINE
  8
0
 62
     0
 10
0.389985
 20
0.668348
 30
0.0
 11
0.39412
 21
0.677997
 31
0.0
  0
LINE
  8
0
 62
     0
 10
0.39412
 20
0.677997
 30
0.0
 11
0.38034
 21
0.679372
 31
0.0
  0
LINE
  8
0
 62
     0
 10
0.38034
 20
0.679372
 30
0.0
 11
0.378961
 21
0.679372
 31
0.0
  0
LINE
  8
0
 62
     0
 10
0.378961
 20
0.679372
 30
0.0
 11
0.378961
 21
0.677997
 31
0.0
  0
LINE
  8
0
 62
     0
 10
0.378961
 20
0.677997
 30
0.0
 11
0.38034
 21
0.664214
 31
0.0
  0
LINE
  8
0
 62
     0
 10
0.61874
 20
0.664214
 30
0.0
 11
0.621496
 21
0.677997
 31
0.0
  0
LINE
  8
0
 62
     0
 10
0.621496
 20
0.677997
 30
0.0
 11
0.621496
 21
0.679372
 31
0.0
  0
LINE
  8
0
 62
     0
 10
0.621496
 20
0.679372
 30
0.0
 11
0.620116
 21
0.679372
 31
0.0
  0
LINE
  8
0
 62
     0
 10
0.620116
 20
0.679372
 30
0.0
 11
0.606337
 21
0.677997
 31
0.0
  0
LINE
  8
0
 62
     0
 10
0.606337
 20
0.677997
 30
0.0
 11
0.610471
 21
0.668348
 31
0.0
  0
LINE
  8
0
 62
     0
 10
0.610471
 20
0.668348
 30
0.0
 11
0.61874
 21
0.664214
 31
0.0
  0
LINE
  8
0
 62
     0
 10
0.0992188
 20
0.691776
 30
0.0
 11
0.107487
 21
0.695911
 31
0.0
  0
LINE
  8
0
 62
     0
 10
0.107487
 20
0.695911
 30
0.0
 11
0.121267
 21
0.700045
 31
0.0
  0
LINE
  8
0
 62
     0
 10
0.121267
 20
0.700045
 30
0.0
 11
0.122645
 21
0.700045
 31
0.0
  0
LINE
  8
0
 62
     0
 10
0.122645
 20
0.700045
 30
0.0
 11
0.136426
 21
0.704176
 31
0.0
  0
LINE
  8
0
 62
     0
 10
0.136426
 20
0.704176
 30
0.0
 11
0.151584
 21
0.708311
 31
0.0
  0
LINE
  8
0
 62
     0
 10
0.151584
 20
0.708311
 30
0.0
 11
0.166743
 21
0.711069
 31
0.0
  0
LINE
  8
0
 62
     0
 10
0.166743
 20
0.711069
 30
0.0
 11
0.216352
 21
0.719335
 31
0.0
  0
LINE
  8
0
 62
     0
 10
0.216352
 20
0.719335
 30
0.0
 11
0.21773
 21
0.719335
 31
0.0
  0
LINE
  8
0
 62
     0
 10
0.21773
 20
0.719335
 30
0.0
 11
0.220486
 21
0.719335
 31
0.0
  0
LINE
  8
0
 62
     0
 10
0.220486
 20
0.719335
 30
0.0
 11
0.216352
 21
0.727604
 31
0.0
  0
LINE
  8
0
 62
     0
 10
0.216352
 20
0.727604
 30
0.0
 11
0.216352
 21
0.728984
 31
0.0
  0
LINE
  8
0
 62
     0
 10
0.216352
 20
0.728984
 30
0.0
 11
0.205328
 21
0.759298
 31
0.0
  0
LINE
  8
0
 62
     0
 10
0.205328
 20
0.759298
 30
0.0
 11
0.20395
 21
0.760677
 31
0.0
  0
LINE
  8
0
 62
     0
 10
0.20395
 20
0.760677
 30
0.0
 11
0.199815
 21
0.774457
 31
0.0
  0
LINE
  8
0
 62
     0
 10
0.199815
 20
0.774457
 30
0.0
 11
0.199815
 21
0.775836
 31
0.0
  0
LINE
  8
0
 62
     0
 10
0.199815
 20
0.775836
 30
0.0
 11
0.194303
 21
0.789615
 31
0.0
  0
LINE
  8
0
 62
     0
 10
0.194303
 20
0.789615
 30
0.0
 11
0.194303
 21
0.790995
 31
0.0
  0
LINE
  8
0
 62
     0
 10
0.194303
 20
0.790995
 30
0.0
 11
0.190169
 21
0.804774
 31
0.0
  0
LINE
  8
0
 62
     0
 10
0.190169
 20
0.804774
 30
0.0
 11
0.190169
 21
0.806154
 31
0.0
  0
LINE
  8
0
 62
     0
 10
0.190169
 20
0.806154
 30
0.0
 11
0.184657
 21
0.833713
 31
0.0
  0
LINE
  8
0
 62
     0
 10
0.184657
 20
0.833713
 30
0.0
 11
0.184657
 21
0.835092
 31
0.0
  0
LINE
  8
0
 62
     0
 10
0.184657
 20
0.835092
 30
0.0
 11
0.183279
 21
0.839227
 31
0.0
  0
LINE
  8
0
 62
     0
 10
0.183279
 20
0.839227
 30
0.0
 11
0.148828
 21
0.839227
 31
0.0
  0
LINE
  8
0
 62
     0
 10
0.148828
 20
0.839227
 30
0.0
 11
0.129536
 21
0.836468
 31
0.0
  0
LINE
  8
0
 62
     0
 10
0.129536
 20
0.836468
 30
0.0
 11
0.121267
 21
0.833713
 31
0.0
  0
LINE
  8
0
 62
     0
 10
0.121267
 20
0.833713
 30
0.0
 11
0.114377
 21
0.832337
 31
0.0
  0
LINE
  8
0
 62
     0
 10
0.114377
 20
0.832337
 30
0.0
 11
0.107487
 21
0.829578
 31
0.0
  0
LINE
  8
0
 62
     0
 10
0.107487
 20
0.829578
 30
0.0
 11
0.100597
 21
0.825444
 31
0.0
  0
LINE
  8
0
 62
     0
 10
0.100597
 20
0.825444
 30
0.0
 11
0.0950846
 21
0.822688
 31
0.0
  0
LINE
  8
0
 62
     0
 10
0.0950846
 20
0.822688
 30
0.0
 11
0.0895724
 21
0.818554
 31
0.0
  0
LINE
  8
0
 62
     0
 10
0.0895724
 20
0.818554
 30
0.0
 11
0.0813043
 21
0.810288
 31
0.0
  0
LINE
  8
0
 62
     0
 10
0.0813043
 20
0.810288
 30
0.0
 11
0.0757922
 21
0.802019
 31
0.0
  0
LINE
  8
0
 62
     0
 10
0.0757922
 20
0.802019
 30
0.0
 11
0.0730359
 21
0.796505
 31
0.0
  0
LINE
  8
0
 62
     0
 10
0.0730359
 20
0.796505
 30
0.0
 11
0.07028
 21
0.785481
 31
0.0
  0
LINE
  8
0
 62
     0
 10
0.07028
 20
0.785481
 30
0.0
 11
0.0689021
 21
0.778591
 31
0.0
  0
LINE
  8
0
 62
     0
 10
0.0689021
 20
0.778591
 30
0.0
 11
0.0689021
 21
0.766191
 31
0.0
  0
LINE
  8
0
 62
     0
 10
0.0689021
 20
0.766191
 30
0.0
 11
0.07028
 21
0.757922
 31
0.0
  0
LINE
  8
0
 62
     0
 10
0.07028
 20
0.757922
 30
0.0
 11
0.071658
 21
0.751032
 31
0.0
  0
LINE
  8
0
 62
     0
 10
0.071658
 20
0.751032
 30
0.0
 11
0.0730359
 21
0.742763
 31
0.0
  0
LINE
  8
0
 62
     0
 10
0.0730359
 20
0.742763
 30
0.0
 11
0.0757922
 21
0.734494
 31
0.0
  0
LINE
  8
0
 62
     0
 10
0.0757922
 20
0.734494
 30
0.0
 11
0.0799264
 21
0.724849
 31
0.0
  0
LINE
  8
0
 62
     0
 10
0.0799264
 20
0.724849
 30
0.0
 11
0.0840602
 21
0.71658
 31
0.0
  0
LINE
  8
0
 62
     0
 10
0.0840602
 20
0.71658
 30
0.0
 11
0.0950846
 21
0.697286
 31
0.0
  0
LINE
  8
0
 62
     0
 10
0.0950846
 20
0.697286
 30
0.0
 11
0.0992188
 21
0.691776
 31
0.0
  0
LINE
  8
0
 62
     0
 10
0.901238
 20
0.691776
 30
0.0
 11
0.905372
 21
0.697286
 31
0.0
  0
LINE
  8
0
 62
     0
 10
0.905372
 20
0.697286
 30
0.0
 11
0.910883
 21
0.706935
 31
0.0
  0
LINE
  8
0
 62
     0
 10
0.910883
 20
0.706935
 30
0.0
 11
0.915017
 21
0.71658
 31
0.0
  0
LINE
  8
0
 62
     0
 10
0.915017
 20
0.71658
 30
0.0
 11
0.920531
 21
0.724849
 31
0.0
  0
LINE
  8
0
 62
     0
 10
0.920531
 20
0.724849
 30
0.0
 11
0.923286
 21
0.734494
 31
0.0
  0
LINE
  8
0
 62
     0
 10
0.923286
 20
0.734494
 30
0.0
 11
0.928797
 21
0.751032
 31
0.0
  0
LINE
  8
0
 62
     0
 10
0.928797
 20
0.751032
 30
0.0
 11
0.930176
 21
0.757922
 31
0.0
  0
LINE
  8
0
 62
     0
 10
0.930176
 20
0.757922
 30
0.0
 11
0.931556
 21
0.766191
 31
0.0
  0
LINE
  8
0
 62
     0
 10
0.931556
 20
0.766191
 30
0.0
 11
0.931556
 21
0.778591
 31
0.0
  0
LINE
  8
0
 62
     0
 10
0.931556
 20
0.778591
 30
0.0
 11
0.930176
 21
0.785481
 31
0.0
  0
LINE
  8
0
 62
     0
 10
0.930176
 20
0.785481
 30
0.0
 11
0.927421
 21
0.796505
 31
0.0
  0
LINE
  8
0
 62
     0
 10
0.927421
 20
0.796505
 30
0.0
 11
0.924662
 21
0.802019
 31
0.0
  0
LINE
  8
0
 62
     0
 10
0.924662
 20
0.802019
 30
0.0
 11
0.921907
 21
0.806154
 31
0.0
  0
LINE
  8
0
 62
     0
 10
0.921907
 20
0.806154
 30
0.0
 11
0.917773
 21
0.810288
 31
0.0
  0
LINE
  8
0
 62
     0
 10
0.917773
 20
0.810288
 30
0.0
 11
0.915017
 21
0.814419
 31
0.0
  0
LINE
  8
0
 62
     0
 10
0.915017
 20
0.814419
 30
0.0
 11
0.909507
 21
0.818554
 31
0.0
  0
LINE
  8
0
 62
     0
 10
0.909507
 20
0.818554
 30
0.0
 11
0.905372
 21
0.822688
 31
0.0
  0
LINE
  8
0
 62
     0
 10
0.905372
 20
0.822688
 30
0.0
 11
0.899859
 21
0.825444
 31
0.0
  0
LINE
  8
0
 62
     0
 10
0.899859
 20
0.825444
 30
0.0
 11
0.892969
 21
0.829578
 31
0.0
  0
LINE
  8
0
 62
     0
 10
0.892969
 20
0.829578
 30
0.0
 11
0.886079
 21
0.832337
 31
0.0
  0
LINE
  8
0
 62
     0
 10
0.886079
 20
0.832337
 30
0.0
 11
0.87781
 21
0.833713
 31
0.0
  0
LINE
  8
0
 62
     0
 10
0.87781
 20
0.833713
 30
0.0
 11
0.869541
 21
0.836468
 31
0.0
  0
LINE
  8
0
 62
     0
 10
0.869541
 20
0.836468
 30
0.0
 11
0.861275
 21
0.837847
 31
0.0
  0
LINE
  8
0
 62
     0
 10
0.861275
 20
0.837847
 30
0.0
 11
0.851627
 21
0.839227
 31
0.0
  0
LINE
  8
0
 62
     0
 10
0.851627
 20
0.839227
 30
0.0
 11
0.817178
 21
0.839227
 31
0.0
  0
LINE
  8
0
 62
     0
 10
0.817178
 20
0.839227
 30
0.0
 11
0.815799
 21
0.835092
 31
0.0
  0
LINE
  8
0
 62
     0
 10
0.815799
 20
0.835092
 30
0.0
 11
0.815799
 21
0.833713
 31
0.0
  0
LINE
  8
0
 62
     0
 10
0.815799
 20
0.833713
 30
0.0
 11
0.813043
 21
0.819933
 31
0.0
  0
LINE
  8
0
 62
     0
 10
0.813043
 20
0.819933
 30
0.0
 11
0.808909
 21
0.806154
 31
0.0
  0
LINE
  8
0
 62
     0
 10
0.808909
 20
0.806154
 30
0.0
 11
0.808909
 21
0.804774
 31
0.0
  0
LINE
  8
0
 62
     0
 10
0.808909
 20
0.804774
 30
0.0
 11
0.804774
 21
0.790995
 31
0.0
  0
LINE
  8
0
 62
     0
 10
0.804774
 20
0.790995
 30
0.0
 11
0.804774
 21
0.789615
 31
0.0
  0
LINE
  8
0
 62
     0
 10
0.804774
 20
0.789615
 30
0.0
 11
0.80064
 21
0.775836
 31
0.0
  0
LINE
  8
0
 62
     0
 10
0.80064
 20
0.775836
 30
0.0
 11
0.80064
 21
0.774457
 31
0.0
  0
LINE
  8
0
 62
     0
 10
0.80064
 20
0.774457
 30
0.0
 11
0.795129
 21
0.760677
 31
0.0
  0
LINE
  8
0
 62
     0
 10
0.795129
 20
0.760677
 30
0.0
 11
0.795129
 21
0.759298
 31
0.0
  0
LINE
  8
0
 62
     0
 10
0.795129
 20
0.759298
 30
0.0
 11
0.789615
 21
0.744142
 31
0.0
  0
LINE
  8
0
 62
     0
 10
0.789615
 20
0.744142
 30
0.0
 11
0.782726
 21
0.728984
 31
0.0
  0
LINE
  8
0
 62
     0
 10
0.782726
 20
0.728984
 30
0.0
 11
0.782726
 21
0.727604
 31
0.0
  0
LINE
  8
0
 62
     0
 10
0.782726
 20
0.727604
 30
0.0
 11
0.778591
 21
0.719335
 31
0.0
  0
LINE
  8
0
 62
     0
 10
0.778591
 20
0.719335
 30
0.0
 11
0.782726
 21
0.719335
 31
0.0
  0
LINE
  8
0
 62
     0
 10
0.782726
 20
0.719335
 30
0.0
 11
0.784105
 21
0.719335
 31
0.0
  0
LINE
  8
0
 62
     0
 10
0.784105
 20
0.719335
 30
0.0
 11
0.799264
 21
0.71658
 31
0.0
  0
LINE
  8
0
 62
     0
 10
0.799264
 20
0.71658
 30
0.0
 11
0.80064
 21
0.71658
 31
0.0
  0
LINE
  8
0
 62
     0
 10
0.80064
 20
0.71658
 30
0.0
 11
0.815799
 21
0.713825
 31
0.0
  0
LINE
  8
0
 62
     0
 10
0.815799
 20
0.713825
 30
0.0
 11
0.817178
 21
0.713825
 31
0.0
  0
LINE
  8
0
 62
     0
 10
0.817178
 20
0.713825
 30
0.0
 11
0.832337
 21
0.711069
 31
0.0
  0
LINE
  8
0
 62
     0
 10
0.832337
 20
0.711069
 30
0.0
 11
0.833713
 21
0.711069
 31
0.0
  0
LINE
  8
0
 62
     0
 10
0.833713
 20
0.711069
 30
0.0
 11
0.847492
 21
0.708311
 31
0.0
  0
LINE
  8
0
 62
     0
 10
0.847492
 20
0.708311
 30
0.0
 11
0.848872
 21
0.708311
 31
0.0
  0
LINE
  8
0
 62
     0
 10
0.848872
 20
0.708311
 30
0.0
 11
0.862651
 21
0.704176
 31
0.0
  0
LINE
  8
0
 62
     0
 10
0.862651
 20
0.704176
 30
0.0
 11
0.86403
 21
0.704176
 31
0.0
  0
LINE
  8
0
 62
     0
 10
0.86403
 20
0.704176
 30
0.0
 11
0.87781
 21
0.700045
 31
0.0
  0
LINE
  8
0
 62
     0
 10
0.87781
 20
0.700045
 30
0.0
 11
0.879189
 21
0.700045
 31
0.0
  0
LINE
  8
0
 62
     0
 10
0.879189
 20
0.700045
 30
0.0
 11
0.891589
 21
0.695911
 31
0.0
  0
LINE
  8
0
 62
     0
 10
0.891589
 20
0.695911
 30
0.0
 11
0.892969
 21
0.695911
 31
0.0
  0
LINE
  8
0
 62
     0
 10
0.892969
 20
0.695911
 30
0.0
 11
0.901238
 21
0.691776
 31
0.0
  0
LINE
  8
0
 62
     0
 10
0.460266
 20
0.708311
 30
0.0
 11
0.461641
 21
0.711069
 31
0.0
  0
LINE
  8
0
 62
     0
 10
0.461641
 20
0.711069
 30
0.0
 11
0.463021
 21
0.711069
 31
0.0
  0
LINE
  8
0
 62
     0
 10
0.463021
 20
0.711069
 30
0.0
 11
0.467155
 21
0.7152
 31
0.0
  0
LINE
  8
0
 62
     0
 10
0.467155
 20
0.7152
 30
0.0
 11
0.456131
 21
0.72347
 31
0.0
  0
LINE
  8
0
 62
     0
 10
0.456131
 20
0.72347
 30
0.0
 11
0.453376
 21
0.71658
 31
0.0
  0
LINE
  8
0
 62
     0
 10
0.453376
 20
0.71658
 30
0.0
 11
0.449241
 21
0.70969
 31
0.0
  0
LINE
  8
0
 62
     0
 10
0.449241
 20
0.70969
 30
0.0
 11
0.460266
 21
0.708311
 31
0.0
  0
LINE
  8
0
 62
     0
 10
0.540191
 20
0.708311
 30
0.0
 11
0.549836
 21
0.70969
 31
0.0
  0
LINE
  8
0
 62
     0
 10
0.549836
 20
0.70969
 30
0.0
 11
0.544326
 21
0.72347
 31
0.0
  0
LINE
  8
0
 62
     0
 10
0.544326
 20
0.72347
 30
0.0
 11
0.533301
 21
0.7152
 31
0.0
  0
LINE
  8
0
 62
     0
 10
0.533301
 20
0.7152
 30
0.0
 11
0.531922
 21
0.7152
 31
0.0
  0
LINE
  8
0
 62
     0
 10
0.531922
 20
0.7152
 30
0.0
 11
0.537436
 21
0.711069
 31
0.0
  0
LINE
  8
0
 62
     0
 10
0.537436
 20
0.711069
 30
0.0
 11
0.540191
 21
0.708311
 31
0.0
  0
LINE
  8
0
 62
     0
 10
0.409279
 20
0.71658
 30
0.0
 11
0.416168
 21
0.733118
 31
0.0
  0
LINE
  8
0
 62
     0
 10
0.416168
 20
0.733118
 30
0.0
 11
0.421679
 21
0.746898
 31
0.0
  0
LINE
  8
0
 62
     0
 10
0.421679
 20
0.746898
 30
0.0
 11
0.420303
 21
0.746898
 31
0.0
  0
LINE
  8
0
 62
     0
 10
0.420303
 20
0.746898
 30
0.0
 11
0.389985
 21
0.766191
 31
0.0
  0
LINE
  8
0
 62
     0
 10
0.389985
 20
0.766191
 30
0.0
 11
0.374826
 21
0.774457
 31
0.0
  0
LINE
  8
0
 62
     0
 10
0.374826
 20
0.774457
 30
0.0
 11
0.374826
 21
0.733118
 31
0.0
  0
LINE
  8
0
 62
     0
 10
0.374826
 20
0.733118
 30
0.0
 11
0.376206
 21
0.719335
 31
0.0
  0
LINE
  8
0
 62
     0
 10
0.376206
 20
0.719335
 30
0.0
 11
0.384471
 21
0.719335
 31
0.0
  0
LINE
  8
0
 62
     0
 10
0.384471
 20
0.719335
 30
0.0
 11
0.403765
 21
0.71658
 31
0.0
  0
LINE
  8
0
 62
     0
 10
0.403765
 20
0.71658
 30
0.0
 11
0.409279
 21
0.71658
 31
0.0
  0
LINE
  8
0
 62
     0
 10
0.591178
 20
0.71658
 30
0.0
 11
0.596692
 21
0.71658
 31
0.0
  0
LINE
  8
0
 62
     0
 10
0.596692
 20
0.71658
 30
0.0
 11
0.615982
 21
0.719335
 31
0.0
  0
LINE
  8
0
 62
     0
 10
0.615982
 20
0.719335
 30
0.0
 11
0.624251
 21
0.719335
 31
0.0
  0
LINE
  8
0
 62
     0
 10
0.624251
 20
0.719335
 30
0.0
 11
0.624251
 21
0.733118
 31
0.0
  0
LINE
  8
0
 62
     0
 10
0.624251
 20
0.733118
 30
0.0
 11
0.62563
 21
0.751032
 31
0.0
  0
LINE
  8
0
 62
     0
 10
0.62563
 20
0.751032
 30
0.0
 11
0.62563
 21
0.768946
 31
0.0
  0
LINE
  8
0
 62
     0
 10
0.62563
 20
0.768946
 30
0.0
 11
0.624251
 21
0.774457
 31
0.0
  0
LINE
  8
0
 62
     0
 10
0.624251
 20
0.774457
 30
0.0
 11
0.610471
 21
0.766191
 31
0.0
  0
LINE
  8
0
 62
     0
 10
0.610471
 20
0.766191
 30
0.0
 11
0.595313
 21
0.756543
 31
0.0
  0
LINE
  8
0
 62
     0
 10
0.595313
 20
0.756543
 30
0.0
 11
0.578778
 21
0.746898
 31
0.0
  0
LINE
  8
0
 62
     0
 10
0.578778
 20
0.746898
 30
0.0
 11
0.577398
 21
0.746898
 31
0.0
  0
LINE
  8
0
 62
     0
 10
0.577398
 20
0.746898
 30
0.0
 11
0.584288
 21
0.733118
 31
0.0
  0
LINE
  8
0
 62
     0
 10
0.584288
 20
0.733118
 30
0.0
 11
0.591178
 21
0.71658
 31
0.0
  0
LINE
  8
0
 62
     0
 10
0.263205
 20
0.72347
 30
0.0
 11
0.325217
 21
0.72347
 31
0.0
  0
LINE
  8
0
 62
     0
 10
0.325217
 20
0.72347
 30
0.0
 11
0.326595
 21
0.72347
 31
0.0
  0
LINE
  8
0
 62
     0
 10
0.326595
 20
0.72347
 30
0.0
 11
0.334863
 21
0.72347
 31
0.0
  0
LINE
  8
0
 62
     0
 10
0.334863
 20
0.72347
 30
0.0
 11
0.334863
 21
0.731739
 31
0.0
  0
LINE
  8
0
 62
     0
 10
0.334863
 20
0.731739
 30
0.0
 11
0.334863
 21
0.733118
 31
0.0
  0
LINE
  8
0
 62
     0
 10
0.334863
 20
0.733118
 30
0.0
 11
0.334863
 21
0.795129
 31
0.0
  0
LINE
  8
0
 62
     0
 10
0.334863
 20
0.795129
 30
0.0
 11
0.329351
 21
0.797885
 31
0.0
  0
LINE
  8
0
 62
     0
 10
0.329351
 20
0.797885
 30
0.0
 11
0.314193
 21
0.804774
 31
0.0
  0
LINE
  8
0
 62
     0
 10
0.314193
 20
0.804774
 30
0.0
 11
0.299034
 21
0.810288
 31
0.0
  0
LINE
  8
0
 62
     0
 10
0.299034
 20
0.810288
 30
0.0
 11
0.285254
 21
0.815799
 31
0.0
  0
LINE
  8
0
 62
     0
 10
0.285254
 20
0.815799
 30
0.0
 11
0.270095
 21
0.821313
 31
0.0
  0
LINE
  8
0
 62
     0
 10
0.270095
 20
0.821313
 30
0.0
 11
0.256315
 21
0.825444
 31
0.0
  0
LINE
  8
0
 62
     0
 10
0.256315
 20
0.825444
 30
0.0
 11
0.242535
 21
0.828202
 31
0.0
  0
LINE
  8
0
 62
     0
 10
0.242535
 20
0.828202
 30
0.0
 11
0.230132
 21
0.832337
 31
0.0
  0
LINE
  8
0
 62
     0
 10
0.230132
 20
0.832337
 30
0.0
 11
0.225998
 21
0.832337
 31
0.0
  0
LINE
  8
0
 62
     0
 10
0.225998
 20
0.832337
 30
0.0
 11
0.225998
 21
0.828202
 31
0.0
  0
LINE
  8
0
 62
     0
 10
0.225998
 20
0.828202
 30
0.0
 11
0.230132
 21
0.815799
 31
0.0
  0
LINE
  8
0
 62
     0
 10
0.230132
 20
0.815799
 30
0.0
 11
0.232888
 21
0.802019
 31
0.0
  0
LINE
  8
0
 62
     0
 10
0.232888
 20
0.802019
 30
0.0
 11
0.237023
 21
0.78824
 31
0.0
  0
LINE
  8
0
 62
     0
 10
0.237023
 20
0.78824
 30
0.0
 11
0.242535
 21
0.773081
 31
0.0
  0
LINE
  8
0
 62
     0
 10
0.242535
 20
0.773081
 30
0.0
 11
0.248047
 21
0.759298
 31
0.0
  0
LINE
  8
0
 62
     0
 10
0.248047
 20
0.759298
 30
0.0
 11
0.253559
 21
0.744142
 31
0.0
  0
LINE
  8
0
 62
     0
 10
0.253559
 20
0.744142
 30
0.0
 11
0.260449
 21
0.728984
 31
0.0
  0
LINE
  8
0
 62
     0
 10
0.260449
 20
0.728984
 30
0.0
 11
0.263205
 21
0.72347
 31
0.0
  0
LINE
  8
0
 62
     0
 10
0.664214
 20
0.72347
 30
0.0
 11
0.711069
 21
0.72347
 31
0.0
  0
LINE
  8
0
 62
     0
 10
0.711069
 20
0.72347
 30
0.0
 11
0.712445
 21
0.72347
 31
0.0
  0
LINE
  8
0
 62
     0
 10
0.712445
 20
0.72347
 30
0.0
 11
0.735873
 21
0.72347
 31
0.0
  0
LINE
  8
0
 62
     0
 10
0.735873
 20
0.72347
 30
0.0
 11
0.740008
 21
0.728984
 31
0.0
  0
LINE
  8
0
 62
     0
 10
0.740008
 20
0.728984
 30
0.0
 11
0.745518
 21
0.744142
 31
0.0
  0
LINE
  8
0
 62
     0
 10
0.745518
 20
0.744142
 30
0.0
 11
0.752408
 21
0.759298
 31
0.0
  0
LINE
  8
0
 62
     0
 10
0.752408
 20
0.759298
 30
0.0
 11
0.757922
 21
0.773081
 31
0.0
  0
LINE
  8
0
 62
     0
 10
0.757922
 20
0.773081
 30
0.0
 11
0.762056
 21
0.78824
 31
0.0
  0
LINE
  8
0
 62
     0
 10
0.762056
 20
0.78824
 30
0.0
 11
0.770322
 21
0.815799
 31
0.0
  0
LINE
  8
0
 62
     0
 10
0.770322
 20
0.815799
 30
0.0
 11
0.773081
 21
0.828202
 31
0.0
  0
LINE
  8
0
 62
     0
 10
0.773081
 20
0.828202
 30
0.0
 11
0.774457
 21
0.832337
 31
0.0
  0
LINE
  8
0
 62
     0
 10
0.774457
 20
0.832337
 30
0.0
 11
0.770322
 21
0.832337
 31
0.0
  0
LINE
  8
0
 62
     0
 10
0.770322
 20
0.832337
 30
0.0
 11
0.756543
 21
0.828202
 31
0.0
  0
LINE
  8
0
 62
     0
 10
0.756543
 20
0.828202
 30
0.0
 11
0.742763
 21
0.825444
 31
0.0
  0
LINE
  8
0
 62
     0
 10
0.742763
 20
0.825444
 30
0.0
 11
0.728984
 21
0.821313
 31
0.0
  0
LINE
  8
0
 62
     0
 10
0.728984
 20
0.821313
 30
0.0
 11
0.7152
 21
0.815799
 31
0.0
  0
LINE
  8
0
 62
     0
 10
0.7152
 20
0.815799
 30
0.0
 11
0.700045
 21
0.810288
 31
0.0
  0
LINE
  8
0
 62
     0
 10
0.700045
 20
0.810288
 30
0.0
 11
0.686262
 21
0.804774
 31
0.0
  0
LINE
  8
0
 62
     0
 10
0.686262
 20
0.804774
 30
0.0
 11
0.671103
 21
0.797885
 31
0.0
  0
LINE
  8
0
 62
     0
 10
0.671103
 20
0.797885
 30
0.0
 11
0.664214
 21
0.795129
 31
0.0
  0
LINE
  8
0
 62
     0
 10
0.664214
 20
0.795129
 30
0.0
 11
0.664214
 21
0.78824
 31
0.0
  0
LINE
  8
0
 62
     0
 10
0.664214
 20
0.78824
 30
0.0
 11
0.665593
 21
0.770322
 31
0.0
  0
LINE
  8
0
 62
     0
 10
0.665593
 20
0.770322
 30
0.0
 11
0.665593
 21
0.751032
 31
0.0
  0
LINE
  8
0
 62
     0
 10
0.665593
 20
0.751032
 30
0.0
 11
0.664214
 21
0.733118
 31
0.0
  0
LINE
  8
0
 62
     0
 10
0.664214
 20
0.733118
 30
0.0
 11
0.664214
 21
0.731739
 31
0.0
  0
LINE
  8
0
 62
     0
 10
0.664214
 20
0.731739
 30
0.0
 11
0.664214
 21
0.72347
 31
0.0
  0
LINE
  8
0
 62
     0
 10
0.500228
 20
0.741384
 30
0.0
 11
0.508497
 21
0.748273
 31
0.0
  0
LINE
  8
0
 62
     0
 10
0.508497
 20
0.748273
 30
0.0
 11
0.509873
 21
0.748273
 31
0.0
  0
LINE
  8
0
 62
     0
 10
0.509873
 20
0.748273
 30
0.0
 11
0.525032
 21
0.759298
 31
0.0
  0
LINE
  8
0
 62
     0
 10
0.525032
 20
0.759298
 30
0.0
 11
0.526411
 21
0.760677
 31
0.0
  0
LINE
  8
0
 62
     0
 10
0.526411
 20
0.760677
 30
0.0
 11
0.523656
 21
0.767567
 31
0.0
  0
LINE
  8
0
 62
     0
 10
0.523656
 20
0.767567
 30
0.0
 11
0.514008
 21
0.782726
 31
0.0
  0
LINE
  8
0
 62
     0
 10
0.514008
 20
0.782726
 30
0.0
 11
0.505739
 21
0.797885
 31
0.0
  0
LINE
  8
0
 62
     0
 10
0.505739
 20
0.797885
 30
0.0
 11
0.500228
 21
0.80753
 31
0.0
  0
LINE
  8
0
 62
     0
 10
0.500228
 20
0.80753
 30
0.0
 11
0.494714
 21
0.797885
 31
0.0
  0
LINE
  8
0
 62
     0
 10
0.494714
 20
0.797885
 30
0.0
 11
0.485069
 21
0.782726
 31
0.0
  0
LINE
  8
0
 62
     0
 10
0.485069
 20
0.782726
 30
0.0
 11
0.4768
 21
0.767567
 31
0.0
  0
LINE
  8
0
 62
     0
 10
0.4768
 20
0.767567
 30
0.0
 11
0.474045
 21
0.760677
 31
0.0
  0
LINE
  8
0
 62
     0
 10
0.474045
 20
0.760677
 30
0.0
 11
0.474045
 21
0.759298
 31
0.0
  0
LINE
  8
0
 62
     0
 10
0.474045
 20
0.759298
 30
0.0
 11
0.475424
 21
0.759298
 31
0.0
  0
LINE
  8
0
 62
     0
 10
0.475424
 20
0.759298
 30
0.0
 11
0.490583
 21
0.748273
 31
0.0
  0
LINE
  8
0
 62
     0
 10
0.490583
 20
0.748273
 30
0.0
 11
0.500228
 21
0.741384
 31
0.0
  0
LINE
  8
0
 62
     0
 10
0.439593
 20
0.782726
 30
0.0
 11
0.440972
 21
0.785481
 31
0.0
  0
LINE
  8
0
 62
     0
 10
0.440972
 20
0.785481
 30
0.0
 11
0.450617
 21
0.802019
 31
0.0
  0
LINE
  8
0
 62
     0
 10
0.450617
 20
0.802019
 30
0.0
 11
0.450617
 21
0.803395
 31
0.0
  0
LINE
  8
0
 62
     0
 10
0.450617
 20
0.803395
 30
0.0
 11
0.458886
 21
0.818554
 31
0.0
  0
LINE
  8
0
 62
     0
 10
0.458886
 20
0.818554
 30
0.0
 11
0.460266
 21
0.818554
 31
0.0
  0
LINE
  8
0
 62
     0
 10
0.460266
 20
0.818554
 30
0.0
 11
0.468535
 21
0.835092
 31
0.0
  0
LINE
  8
0
 62
     0
 10
0.468535
 20
0.835092
 30
0.0
 11
0.475424
 21
0.844737
 31
0.0
  0
LINE
  8
0
 62
     0
 10
0.475424
 20
0.844737
 30
0.0
 11
0.468535
 21
0.855761
 31
0.0
  0
LINE
  8
0
 62
     0
 10
0.468535
 20
0.855761
 30
0.0
 11
0.439593
 21
0.892969
 31
0.0
  0
LINE
  8
0
 62
     0
 10
0.439593
 20
0.892969
 30
0.0
 11
0.429948
 21
0.903993
 31
0.0
  0
LINE
  8
0
 62
     0
 10
0.429948
 20
0.903993
 30
0.0
 11
0.409279
 21
0.924662
 31
0.0
  0
LINE
  8
0
 62
     0
 10
0.409279
 20
0.924662
 30
0.0
 11
0.39963
 21
0.932931
 31
0.0
  0
LINE
  8
0
 62
     0
 10
0.39963
 20
0.932931
 30
0.0
 11
0.396875
 21
0.924662
 31
0.0
  0
LINE
  8
0
 62
     0
 10
0.396875
 20
0.924662
 30
0.0
 11
0.39274
 21
0.910883
 31
0.0
  0
LINE
  8
0
 62
     0
 10
0.39274
 20
0.910883
 30
0.0
 11
0.389985
 21
0.897103
 31
0.0
  0
LINE
  8
0
 62
     0
 10
0.389985
 20
0.897103
 30
0.0
 11
0.385851
 21
0.883324
 31
0.0
  0
LINE
  8
0
 62
     0
 10
0.385851
 20
0.883324
 30
0.0
 11
0.383096
 21
0.868165
 31
0.0
  0
LINE
  8
0
 62
     0
 10
0.383096
 20
0.868165
 30
0.0
 11
0.381716
 21
0.853006
 31
0.0
  0
LINE
  8
0
 62
     0
 10
0.381716
 20
0.853006
 30
0.0
 11
0.378961
 21
0.836468
 31
0.0
  0
LINE
  8
0
 62
     0
 10
0.378961
 20
0.836468
 30
0.0
 11
0.377582
 21
0.819933
 31
0.0
  0
LINE
  8
0
 62
     0
 10
0.377582
 20
0.819933
 30
0.0
 11
0.377582
 21
0.818554
 31
0.0
  0
LINE
  8
0
 62
     0
 10
0.377582
 20
0.818554
 30
0.0
 11
0.39412
 21
0.810288
 31
0.0
  0
LINE
  8
0
 62
     0
 10
0.39412
 20
0.810288
 30
0.0
 11
0.410655
 21
0.80064
 31
0.0
  0
LINE
  8
0
 62
     0
 10
0.410655
 20
0.80064
 30
0.0
 11
0.425813
 21
0.790995
 31
0.0
  0
LINE
  8
0
 62
     0
 10
0.425813
 20
0.790995
 30
0.0
 11
0.427193
 21
0.790995
 31
0.0
  0
LINE
  8
0
 62
     0
 10
0.427193
 20
0.790995
 30
0.0
 11
0.439593
 21
0.782726
 31
0.0
  0
LINE
  8
0
 62
     0
 10
0.56086
 20
0.782726
 30
0.0
 11
0.573264
 21
0.790995
 31
0.0
  0
LINE
  8
0
 62
     0
 10
0.573264
 20
0.790995
 30
0.0
 11
0.606337
 21
0.810288
 31
0.0
  0
LINE
  8
0
 62
     0
 10
0.606337
 20
0.810288
 30
0.0
 11
0.621496
 21
0.818554
 31
0.0
  0
LINE
  8
0
 62
     0
 10
0.621496
 20
0.818554
 30
0.0
 11
0.622875
 21
0.818554
 31
0.0
  0
LINE
  8
0
 62
     0
 10
0.622875
 20
0.818554
 30
0.0
 11
0.622875
 21
0.819933
 31
0.0
  0
LINE
  8
0
 62
     0
 10
0.622875
 20
0.819933
 30
0.0
 11
0.620116
 21
0.836468
 31
0.0
  0
LINE
  8
0
 62
     0
 10
0.620116
 20
0.836468
 30
0.0
 11
0.61874
 21
0.853006
 31
0.0
  0
LINE
  8
0
 62
     0
 10
0.61874
 20
0.853006
 30
0.0
 11
0.613227
 21
0.883324
 31
0.0
  0
LINE
  8
0
 62
     0
 10
0.613227
 20
0.883324
 30
0.0
 11
0.610471
 21
0.897103
 31
0.0
  0
LINE
  8
0
 62
     0
 10
0.610471
 20
0.897103
 30
0.0
 11
0.606337
 21
0.910883
 31
0.0
  0
LINE
  8
0
 62
     0
 10
0.606337
 20
0.910883
 30
0.0
 11
0.603582
 21
0.924662
 31
0.0
  0
LINE
  8
0
 62
     0
 10
0.603582
 20
0.924662
 30
0.0
 11
0.600826
 21
0.932931
 31
0.0
  0
LINE
  8
0
 62
     0
 10
0.600826
 20
0.932931
 30
0.0
 11
0.591178
 21
0.924662
 31
0.0
  0
LINE
  8
0
 62
     0
 10
0.591178
 20
0.924662
 30
0.0
 11
0.580154
 21
0.915017
 31
0.0
  0
LINE
  8
0
 62
     0
 10
0.580154
 20
0.915017
 30
0.0
 11
0.56086
 21
0.892969
 31
0.0
  0
LINE
  8
0
 62
     0
 10
0.56086
 20
0.892969
 30
0.0
 11
0.531922
 21
0.855761
 31
0.0
  0
LINE
  8
0
 62
     0
 10
0.531922
 20
0.855761
 30
0.0
 11
0.523656
 21
0.844737
 31
0.0
  0
LINE
  8
0
 62
     0
 10
0.523656
 20
0.844737
 30
0.0
 11
0.530546
 21
0.835092
 31
0.0
  0
LINE
  8
0
 62
     0
 10
0.530546
 20
0.835092
 30
0.0
 11
0.540191
 21
0.818554
 31
0.0
  0
LINE
  8
0
 62
     0
 10
0.540191
 20
0.818554
 30
0.0
 11
0.549836
 21
0.803395
 31
0.0
  0
LINE
  8
0
 62
     0
 10
0.549836
 20
0.803395
 30
0.0
 11
0.549836
 21
0.802019
 31
0.0
  0
LINE
  8
0
 62
     0
 10
0.549836
 20
0.802019
 30
0.0
 11
0.558105
 21
0.785481
 31
0.0
  0
LINE
  8
0
 62
     0
 10
0.558105
 20
0.785481
 30
0.0
 11
0.559484
 21
0.785481
 31
0.0
  0
LINE
  8
0
 62
     0
 10
0.559484
 20
0.785481
 30
0.0
 11
0.56086
 21
0.782726
 31
0.0
  0
LINE
  8
0
 62
     0
 10
0.338998
 20
0.837847
 30
0.0
 11
0.338998
 21
0.840602
 31
0.0
  0
LINE
  8
0
 62
     0
 10
0.338998
 20
0.840602
 30
0.0
 11
0.338998
 21
0.841982
 31
0.0
  0
LINE
  8
0
 62
     0
 10
0.338998
 20
0.841982
 30
0.0
 11
0.347266
 21
0.891589
 31
0.0
  0
LINE
  8
0
 62
     0
 10
0.347266
 20
0.891589
 30
0.0
 11
0.350022
 21
0.906748
 31
0.0
  0
LINE
  8
0
 62
     0
 10
0.350022
 20
0.906748
 30
0.0
 11
0.354157
 21
0.921907
 31
0.0
  0
LINE
  8
0
 62
     0
 10
0.354157
 20
0.921907
 30
0.0
 11
0.358292
 21
0.935687
 31
0.0
  0
LINE
  8
0
 62
     0
 10
0.358292
 20
0.935687
 30
0.0
 11
0.358292
 21
0.937066
 31
0.0
  0
LINE
  8
0
 62
     0
 10
0.358292
 20
0.937066
 30
0.0
 11
0.362423
 21
0.950846
 31
0.0
  0
LINE
  8
0
 62
     0
 10
0.362423
 20
0.950846
 30
0.0
 11
0.366557
 21
0.959115
 31
0.0
  0
LINE
  8
0
 62
     0
 10
0.366557
 20
0.959115
 30
0.0
 11
0.361047
 21
0.963249
 31
0.0
  0
LINE
  8
0
 62
     0
 10
0.361047
 20
0.963249
 30
0.0
 11
0.341753
 21
0.974273
 31
0.0
  0
LINE
  8
0
 62
     0
 10
0.341753
 20
0.974273
 30
0.0
 11
0.333485
 21
0.978408
 31
0.0
  0
LINE
  8
0
 62
     0
 10
0.333485
 20
0.978408
 30
0.0
 11
0.323839
 21
0.982543
 31
0.0
  0
LINE
  8
0
 62
     0
 10
0.323839
 20
0.982543
 30
0.0
 11
0.315571
 21
0.985298
 31
0.0
  0
LINE
  8
0
 62
     0
 10
0.315571
 20
0.985298
 30
0.0
 11
0.307303
 21
0.986677
 31
0.0
  0
LINE
  8
0
 62
     0
 10
0.307303
 20
0.986677
 30
0.0
 11
0.300412
 21
0.988053
 31
0.0
  0
LINE
  8
0
 62
     0
 10
0.300412
 20
0.988053
 30
0.0
 11
0.292144
 21
0.989432
 31
0.0
  0
LINE
  8
0
 62
     0
 10
0.292144
 20
0.989432
 30
0.0
 11
0.279742
 21
0.989432
 31
0.0
  0
LINE
  8
0
 62
     0
 10
0.279742
 20
0.989432
 30
0.0
 11
0.272852
 21
0.988053
 31
0.0
  0
LINE
  8
0
 62
     0
 10
0.272852
 20
0.988053
 30
0.0
 11
0.261827
 21
0.985298
 31
0.0
  0
LINE
  8
0
 62
     0
 10
0.261827
 20
0.985298
 30
0.0
 11
0.256315
 21
0.982543
 31
0.0
  0
LINE
  8
0
 62
     0
 10
0.256315
 20
0.982543
 30
0.0
 11
0.248047
 21
0.977029
 31
0.0
  0
LINE
  8
0
 62
     0
 10
0.248047
 20
0.977029
 30
0.0
 11
0.239779
 21
0.96876
 31
0.0
  0
LINE
  8
0
 62
     0
 10
0.239779
 20
0.96876
 30
0.0
 11
0.235645
 21
0.963249
 31
0.0
  0
LINE
  8
0
 62
     0
 10
0.235645
 20
0.963249
 30
0.0
 11
0.232888
 21
0.957735
 31
0.0
  0
LINE
  8
0
 62
     0
 10
0.232888
 20
0.957735
 30
0.0
 11
0.228755
 21
0.950846
 31
0.0
  0
LINE
  8
0
 62
     0
 10
0.228755
 20
0.950846
 30
0.0
 11
0.225998
 21
0.943956
 31
0.0
  0
LINE
  8
0
 62
     0
 10
0.225998
 20
0.943956
 30
0.0
 11
0.22462
 21
0.937066
 31
0.0
  0
LINE
  8
0
 62
     0
 10
0.22462
 20
0.937066
 30
0.0
 11
0.221864
 21
0.928797
 31
0.0
  0
LINE
  8
0
 62
     0
 10
0.221864
 20
0.928797
 30
0.0
 11
0.219108
 21
0.909507
 31
0.0
  0
LINE
  8
0
 62
     0
 10
0.219108
 20
0.909507
 30
0.0
 11
0.219108
 21
0.875055
 31
0.0
  0
LINE
  8
0
 62
     0
 10
0.219108
 20
0.875055
 30
0.0
 11
0.223242
 21
0.873675
 31
0.0
  0
LINE
  8
0
 62
     0
 10
0.223242
 20
0.873675
 30
0.0
 11
0.22462
 21
0.873675
 31
0.0
  0
LINE
  8
0
 62
     0
 10
0.22462
 20
0.873675
 30
0.0
 11
0.252181
 21
0.868165
 31
0.0
  0
LINE
  8
0
 62
     0
 10
0.252181
 20
0.868165
 30
0.0
 11
0.253559
 21
0.868165
 31
0.0
  0
LINE
  8
0
 62
     0
 10
0.253559
 20
0.868165
 30
0.0
 11
0.26734
 21
0.86403
 31
0.0
  0
LINE
  8
0
 62
     0
 10
0.26734
 20
0.86403
 30
0.0
 11
0.268718
 21
0.86403
 31
0.0
  0
LINE
  8
0
 62
     0
 10
0.268718
 20
0.86403
 30
0.0
 11
0.282498
 21
0.858516
 31
0.0
  0
LINE
  8
0
 62
     0
 10
0.282498
 20
0.858516
 30
0.0
 11
0.283876
 21
0.858516
 31
0.0
  0
LINE
  8
0
 62
     0
 10
0.283876
 20
0.858516
 30
0.0
 11
0.297656
 21
0.854385
 31
0.0
  0
LINE
  8
0
 62
     0
 10
0.297656
 20
0.854385
 30
0.0
 11
0.299034
 21
0.853006
 31
0.0
  0
LINE
  8
0
 62
     0
 10
0.299034
 20
0.853006
 30
0.0
 11
0.329351
 21
0.841982
 31
0.0
  0
LINE
  8
0
 62
     0
 10
0.329351
 20
0.841982
 30
0.0
 11
0.330729
 21
0.841982
 31
0.0
  0
LINE
  8
0
 62
     0
 10
0.330729
 20
0.841982
 30
0.0
 11
0.338998
 21
0.837847
 31
0.0
  0
LINE
  8
0
 62
     0
 10
0.661458
 20
0.837847
 30
0.0
 11
0.669727
 21
0.841982
 31
0.0
  0
LINE
  8
0
 62
     0
 10
0.669727
 20
0.841982
 30
0.0
 11
0.686262
 21
0.847492
 31
0.0
  0
LINE
  8
0
 62
     0
 10
0.686262
 20
0.847492
 30
0.0
 11
0.701421
 21
0.853006
 31
0.0
  0
LINE
  8
0
 62
     0
 10
0.701421
 20
0.853006
 30
0.0
 11
0.701421
 21
0.854385
 31
0.0
  0
LINE
  8
0
 62
     0
 10
0.701421
 20
0.854385
 30
0.0
 11
0.71658
 21
0.858516
 31
0.0
  0
LINE
  8
0
 62
     0
 10
0.71658
 20
0.858516
 30
0.0
 11
0.731739
 21
0.86403
 31
0.0
  0
LINE
  8
0
 62
     0
 10
0.731739
 20
0.86403
 30
0.0
 11
0.746898
 21
0.868165
 31
0.0
  0
LINE
  8
0
 62
     0
 10
0.746898
 20
0.868165
 30
0.0
 11
0.760677
 21
0.87092
 31
0.0
  0
LINE
  8
0
 62
     0
 10
0.760677
 20
0.87092
 30
0.0
 11
0.762056
 21
0.87092
 31
0.0
  0
LINE
  8
0
 62
     0
 10
0.762056
 20
0.87092
 30
0.0
 11
0.775836
 21
0.873675
 31
0.0
  0
LINE
  8
0
 62
     0
 10
0.775836
 20
0.873675
 30
0.0
 11
0.77997
 21
0.875055
 31
0.0
  0
LINE
  8
0
 62
     0
 10
0.77997
 20
0.875055
 30
0.0
 11
0.781346
 21
0.87781
 31
0.0
  0
LINE
  8
0
 62
     0
 10
0.781346
 20
0.87781
 30
0.0
 11
0.781346
 21
0.899859
 31
0.0
  0
LINE
  8
0
 62
     0
 10
0.781346
 20
0.899859
 30
0.0
 11
0.77997
 21
0.909507
 31
0.0
  0
LINE
  8
0
 62
     0
 10
0.77997
 20
0.909507
 30
0.0
 11
0.77997
 21
0.919152
 31
0.0
  0
LINE
  8
0
 62
     0
 10
0.77997
 20
0.919152
 30
0.0
 11
0.777215
 21
0.928797
 31
0.0
  0
LINE
  8
0
 62
     0
 10
0.777215
 20
0.928797
 30
0.0
 11
0.775836
 21
0.937066
 31
0.0
  0
LINE
  8
0
 62
     0
 10
0.775836
 20
0.937066
 30
0.0
 11
0.767567
 21
0.957735
 31
0.0
  0
LINE
  8
0
 62
     0
 10
0.767567
 20
0.957735
 30
0.0
 11
0.764812
 21
0.963249
 31
0.0
  0
LINE
  8
0
 62
     0
 10
0.764812
 20
0.963249
 30
0.0
 11
0.760677
 21
0.96876
 31
0.0
  0
LINE
  8
0
 62
     0
 10
0.760677
 20
0.96876
 30
0.0
 11
0.752408
 21
0.977029
 31
0.0
  0
LINE
  8
0
 62
     0
 10
0.752408
 20
0.977029
 30
0.0
 11
0.748273
 21
0.979784
 31
0.0
  0
LINE
  8
0
 62
     0
 10
0.748273
 20
0.979784
 30
0.0
 11
0.742763
 21
0.982543
 31
0.0
  0
LINE
  8
0
 62
     0
 10
0.742763
 20
0.982543
 30
0.0
 11
0.738628
 21
0.985298
 31
0.0
  0
LINE
  8
0
 62
     0
 10
0.738628
 20
0.985298
 30
0.0
 11
0.733118
 21
0.986677
 31
0.0
  0
LINE
  8
0
 62
     0
 10
0.733118
 20
0.986677
 30
0.0
 11
0.726225
 21
0.988053
 31
0.0
  0
LINE
  8
0
 62
     0
 10
0.726225
 20
0.988053
 30
0.0
 11
0.720714
 21
0.989432
 31
0.0
  0
LINE
  8
0
 62
     0
 10
0.720714
 20
0.989432
 30
0.0
 11
0.706935
 21
0.989432
 31
0.0
  0
LINE
  8
0
 62
     0
 10
0.706935
 20
0.989432
 30
0.0
 11
0.700045
 21
0.988053
 31
0.0
  0
LINE
  8
0
 62
     0
 10
0.700045
 20
0.988053
 30
0.0
 11
0.683507
 21
0.985298
 31
0.0
  0
LINE
  8
0
 62
     0
 10
0.683507
 20
0.985298
 30
0.0
 11
0.675238
 21
0.982543
 31
0.0
  0
LINE
  8
0
 62
     0
 10
0.675238
 20
0.982543
 30
0.0
 11
0.658703
 21
0.974273
 31
0.0
  0
LINE
  8
0
 62
     0
 10
0.658703
 20
0.974273
 30
0.0
 11
0.63941
 21
0.963249
 31
0.0
  0
LINE
  8
0
 62
     0
 10
0.63941
 20
0.963249
 30
0.0
 11
0.633899
 21
0.959115
 31
0.0
  0
LINE
  8
0
 62
     0
 10
0.633899
 20
0.959115
 30
0.0
 11
0.636655
 21
0.950846
 31
0.0
  0
LINE
  8
0
 62
     0
 10
0.636655
 20
0.950846
 30
0.0
 11
0.642165
 21
0.937066
 31
0.0
  0
LINE
  8
0
 62
     0
 10
0.642165
 20
0.937066
 30
0.0
 11
0.642165
 21
0.935687
 31
0.0
  0
LINE
  8
0
 62
     0
 10
0.642165
 20
0.935687
 30
0.0
 11
0.646299
 21
0.921907
 31
0.0
  0
LINE
  8
0
 62
     0
 10
0.646299
 20
0.921907
 30
0.0
 11
0.649055
 21
0.906748
 31
0.0
  0
LINE
  8
0
 62
     0
 10
0.649055
 20
0.906748
 30
0.0
 11
0.653189
 21
0.891589
 31
0.0
  0
LINE
  8
0
 62
     0
 10
0.653189
 20
0.891589
 30
0.0
 11
0.658703
 21
0.858516
 31
0.0
  0
LINE
  8
0
 62
     0
 10
0.658703
 20
0.858516
 30
0.0
 11
0.660079
 21
0.841982
 31
0.0
  0
LINE
  8
0
 62
     0
 10
0.660079
 20
0.841982
 30
0.0
 11
0.661458
 21
0.840602
 31
0.0
  0
LINE
  8
0
 62
     0
 10
0.661458
 20
0.840602
 30
0.0
 11
0.661458
 21
0.837847
 31
0.0
  0
LINE
  8
0
 62
     0
 10
0.500228
 20
0.880565
 30
0.0
 11
0.508497
 21
0.892969
 31
0.0
  0
LINE
  8
0
 62
     0
 10
0.508497
 20
0.892969
 30
0.0
 11
0.509873
 21
0.892969
 31
0.0
  0
LINE
  8
0
 62
     0
 10
0.509873
 20
0.892969
 30
0.0
 11
0.519522
 21
0.906748
 31
0.0
  0
LINE
  8
0
 62
     0
 10
0.519522
 20
0.906748
 30
0.0
 11
0.530546
 21
0.919152
 31
0.0
  0
LINE
  8
0
 62
     0
 10
0.530546
 20
0.919152
 30
0.0
 11
0.540191
 21
0.930176
 31
0.0
  0
LINE
  8
0
 62
     0
 10
0.540191
 20
0.930176
 30
0.0
 11
0.54157
 21
0.931556
 31
0.0
  0
LINE
  8
0
 62
     0
 10
0.54157
 20
0.931556
 30
0.0
 11
0.551215
 21
0.94258
 31
0.0
  0
LINE
  8
0
 62
     0
 10
0.551215
 20
0.94258
 30
0.0
 11
0.552595
 21
0.94258
 31
0.0
  0
LINE
  8
0
 62
     0
 10
0.552595
 20
0.94258
 30
0.0
 11
0.56224
 21
0.953604
 31
0.0
  0
LINE
  8
0
 62
     0
 10
0.56224
 20
0.953604
 30
0.0
 11
0.563619
 21
0.953604
 31
0.0
  0
LINE
  8
0
 62
     0
 10
0.563619
 20
0.953604
 30
0.0
 11
0.573264
 21
0.963249
 31
0.0
  0
LINE
  8
0
 62
     0
 10
0.573264
 20
0.963249
 30
0.0
 11
0.574643
 21
0.963249
 31
0.0
  0
LINE
  8
0
 62
     0
 10
0.574643
 20
0.963249
 30
0.0
 11
0.584288
 21
0.972894
 31
0.0
  0
LINE
  8
0
 62
     0
 10
0.584288
 20
0.972894
 30
0.0
 11
0.580154
 21
0.982543
 31
0.0
  0
LINE
  8
0
 62
     0
 10
0.580154
 20
0.982543
 30
0.0
 11
0.574643
 21
0.992188
 31
0.0
  0
LINE
  8
0
 62
     0
 10
0.574643
 20
0.992188
 30
0.0
 11
0.563619
 21
1.00873
 31
0.0
  0
LINE
  8
0
 62
     0
 10
0.563619
 20
1.00873
 30
0.0
 11
0.558105
 21
1.01562
 31
0.0
  0
LINE
  8
0
 62
     0
 10
0.558105
 20
1.01562
 30
0.0
 11
0.551215
 21
1.02113
 31
0.0
  0
LINE
  8
0
 62
     0
 10
0.551215
 20
1.02113
 30
0.0
 11
0.545705
 21
1.02802
 31
0.0
  0
LINE
  8
0
 62
     0
 10
0.545705
 20
1.02802
 30
0.0
 11
0.534681
 21
1.03628
 31
0.0
  0
LINE
  8
0
 62
     0
 10
0.534681
 20
1.03628
 30
0.0
 11
0.527787
 21
1.04042
 31
0.0
  0
LINE
  8
0
 62
     0
 10
0.527787
 20
1.04042
 30
0.0
 11
0.522277
 21
1.04317
 31
0.0
  0
LINE
  8
0
 62
     0
 10
0.522277
 20
1.04317
 30
0.0
 11
0.505739
 21
1.04731
 31
0.0
  0
LINE
  8
0
 62
     0
 10
0.505739
 20
1.04731
 30
0.0
 11
0.494714
 21
1.04731
 31
0.0
  0
LINE
  8
0
 62
     0
 10
0.494714
 20
1.04731
 30
0.0
 11
0.47818
 21
1.04317
 31
0.0
  0
LINE
  8
0
 62
     0
 10
0.47818
 20
1.04317
 30
0.0
 11
0.47129
 21
1.04042
 31
0.0
  0
LINE
  8
0
 62
     0
 10
0.47129
 20
1.04042
 30
0.0
 11
0.454752
 21
1.02802
 31
0.0
  0
LINE
  8
0
 62
     0
 10
0.454752
 20
1.02802
 30
0.0
 11
0.442352
 21
1.01562
 31
0.0
  0
LINE
  8
0
 62
     0
 10
0.442352
 20
1.01562
 30
0.0
 11
0.436838
 21
1.00873
 31
0.0
  0
LINE
  8
0
 62
     0
 10
0.436838
 20
1.00873
 30
0.0
 11
0.425813
 21
0.992188
 31
0.0
  0
LINE
  8
0
 62
     0
 10
0.425813
 20
0.992188
 30
0.0
 11
0.414789
 21
0.972894
 31
0.0
  0
LINE
  8
0
 62
     0
 10
0.414789
 20
0.972894
 30
0.0
 11
0.416168
 21
0.972894
 31
0.0
  0
LINE
  8
0
 62
     0
 10
0.416168
 20
0.972894
 30
0.0
 11
0.425813
 21
0.963249
 31
0.0
  0
LINE
  8
0
 62
     0
 10
0.425813
 20
0.963249
 30
0.0
 11
0.427193
 21
0.963249
 31
0.0
  0
LINE
  8
0
 62
     0
 10
0.427193
 20
0.963249
 30
0.0
 11
0.458886
 21
0.931556
 31
0.0
  0
LINE
  8
0
 62
     0
 10
0.458886
 20
0.931556
 30
0.0
 11
0.458886
 21
0.930176
 31
0.0
  0
LINE
  8
0
 62
     0
 10
0.458886
 20
0.930176
 30
0.0
 11
0.469911
 21
0.919152
 31
0.0
  0
LINE
  8
0
 62
     0
 10
0.469911
 20
0.919152
 30
0.0
 11
0.479559
 21
0.906748
 31
0.0
  0
LINE
  8
0
 62
     0
 10
0.479559
 20
0.906748
 30
0.0
 11
0.480935
 21
0.906748
 31
0.0
  0
LINE
  8
0
 62
     0
 10
0.480935
 20
0.906748
 30
0.0
 11
0.490583
 21
0.892969
 31
0.0
  0
LINE
  8
0
 62
     0
 10
0.490583
 20
0.892969
 30
0.0
 11
0.500228
 21
0.880565
 31
0.0
  0
ENDSEC
  0
EOF
